<!DOCTYPE svg PUBLIC "-//W3C//DTD SVG 20010904//EN" "http://www.w3.org/TR/2001/REC-SVG-20010904/DTD/svg10.dtd">
<svg version="1.0" xmlns="http://www.w3.org/2000/svg" width="600px" height="600px" viewBox="0 0 6000 6000" preserveAspectRatio="xMidYMid meet">
<g id="layer101" fill="#272526" stroke="none">
 <path d="M2730 5994 c-337 -39 -600 -103 -870 -214 -912 -374 -1581 -1169 -1793 -2130 -54 -244 -62 -323 -62 -650 0 -327 8 -406 62 -650 251 -1139 1144 -2032 2283 -2283 244 -54 323 -62 650 -62 327 0 406 8 650 62 1139 251 2032 1144 2283 2283 54 244 62 323 62 650 0 327 -8 406 -62 650 -248 1126 -1113 2003 -2243 2274 -226 55 -345 68 -645 71 -154 2 -296 1 -315 -1z"/>
 </g>
<g id="layer102" fill="#be965a" stroke="none">
 <path d="M2730 5994 c-497 -57 -884 -184 -1278 -418 -331 -198 -664 -506 -905 -840 -258 -357 -442 -812 -518 -1281 -26 -166 -37 -557 -20 -737 40 -419 173 -843 371 -1183 16 -27 34 -59 40 -70 91 -169 293 -422 489 -614 120 -117 441 -373 474 -378 5 -1 23 -12 40 -25 18 -14 39 -27 47 -31 8 -4 42 -23 75 -42 89 -53 349 -174 405 -189 14 -4 34 -11 45 -15 20 -8 142 -46 243 -76 81 -24 319 -64 504 -86 143 -16 538 -7 668 16 184 32 302 55 353 71 123 36 336 107 377 126 144 63 243 111 305 148 28 17 61 36 75 43 14 6 75 45 135 86 330 221 617 505 834 824 286 421 453 887 502 1395 17 180 6 571 -20 737 -77 474 -242 882 -521 1285 -89 128 -149 198 -340 390 -111 112 -217 208 -291 263 -411 307 -856 495 -1364 578 -105 17 -183 22 -410 24 -154 2 -296 1 -315 -1z m240 -109 c0 -29 -4 -35 -22 -36 -13 0 -44 -3 -70 -5 l-48 -5 0 41 0 40 70 0 70 0 0 -35z m201 30 c3 -2 3 -20 1 -39 l-4 -35 -67 3 -66 3 -3 36 -3 37 69 0 c38 0 71 -2 73 -5z m-401 -39 c0 -38 -5 -41 -75 -45 -27 -2 -53 -5 -57 -7 -5 -3 -8 6 -8 20 0 13 -3 31 -6 39 -7 19 12 24 89 26 l57 1 0 -34z m606 21 c6 -6 -8 -77 -15 -73 -3 2 -29 5 -56 7 -70 4 -75 7 -75 47 l0 35 71 -6 c39 -3 73 -8 75 -10z m-806 -45 l0 -38 -62 -11 c-35 -6 -66 -8 -69 -4 -4 3 -9 20 -12 38 -6 31 -6 32 46 41 95 17 97 17 97 -26z m947 27 l64 -11 -7 -32 c-3 -17 -9 -34 -13 -37 -3 -4 -34 -2 -68 3 l-63 11 0 38 c0 44 -2 43 87 28z m-1147 -48 c0 -11 3 -26 6 -35 6 -15 -20 -25 -103 -42 -30 -6 -33 -4 -41 27 -5 19 -8 35 -6 37 5 6 99 30 122 31 15 1 22 -5 22 -18z m1349 5 c29 -8 55 -17 57 -19 2 -2 -1 -18 -7 -36 -13 -36 -16 -36 -112 -10 -33 9 -38 13 -33 32 3 12 6 28 6 35 0 16 22 15 89 -2z m-1543 -66 c4 -16 6 -33 6 -36 -1 -7 -106 -43 -124 -44 -7 0 -30 61 -25 67 6 6 111 41 125 42 7 1 15 -12 18 -29z m1732 9 c34 -11 62 -25 62 -29 0 -14 -23 -60 -29 -60 -18 1 -122 38 -123 44 -2 18 12 66 20 66 4 0 36 -9 70 -21z m-702 -19 c549 -46 1027 -227 1449 -546 174 -132 183 -140 165 -158 -13 -13 -25 -7 -100 55 -397 327 -910 541 -1435 600 -132 15 -444 14 -575 0 -216 -25 -449 -80 -659 -157 -242 -88 -568 -275 -771 -443 -75 -62 -87 -68 -100 -55 -18 18 -6 29 165 158 534 403 1210 601 1861 546z m-1220 -56 c8 -20 14 -37 12 -38 -11 -8 -113 -46 -122 -46 -10 0 -41 61 -33 65 4 3 122 54 125 54 2 1 10 -15 18 -35z m2173 -20 c8 -7 -22 -64 -34 -64 -10 0 -111 38 -123 46 -2 1 4 18 12 38 l15 36 63 -27 c35 -15 65 -28 67 -29z m-2361 -49 c20 -43 15 -51 -47 -77 l-60 -26 -15 24 c-9 13 -16 28 -16 33 0 9 103 69 121 71 3 0 11 -11 17 -25z m2502 -15 c44 -22 46 -27 28 -65 -14 -31 -16 -31 -72 -1 -25 13 -51 26 -57 28 -9 3 -9 13 0 40 14 41 17 41 101 -2z m-1040 15 c503 -52 992 -252 1390 -570 52 -42 95 -80 95 -85 0 -11 -364 -410 -374 -410 -4 0 -39 25 -77 56 -624 501 -1505 595 -2217 235 -143 -72 -263 -148 -371 -235 -38 -31 -73 -56 -77 -56 -10 0 -374 399 -374 410 0 14 179 155 295 231 137 91 433 237 585 289 226 77 465 126 670 137 61 3 112 7 114 9 5 5 271 -4 341 -11z m-1637 -101 l16 -32 -61 -37 c-47 -28 -63 -33 -70 -23 -23 35 -29 51 -21 59 9 9 117 69 119 66 1 -1 9 -16 17 -33z m2843 -5 c30 -17 54 -34 54 -38 0 -5 -13 -27 -35 -59 -1 -1 -30 14 -64 34 l-61 36 17 29 c10 16 21 29 26 29 5 0 34 -14 63 -31z m-3016 -98 l21 -30 -60 -40 -60 -41 -21 31 c-12 16 -20 33 -16 36 11 12 101 72 108 72 4 1 16 -12 28 -28z m3185 -7 c30 -20 55 -40 55 -44 0 -4 -9 -19 -21 -33 l-20 -27 -55 37 c-29 20 -54 41 -54 47 0 12 28 56 36 56 2 0 29 -16 59 -36z m215 -170 c0 -6 -10 -20 -23 -32 l-22 -21 -45 35 c-65 51 -64 50 -41 83 l22 30 54 -42 c30 -23 55 -47 55 -53z m-3563 60 c17 -26 17 -27 -12 -51 -17 -13 -42 -33 -57 -44 l-26 -19 -21 27 c-12 14 -20 30 -19 34 5 13 92 79 105 79 7 0 20 -12 30 -26z m-159 -123 l22 -30 -52 -45 -52 -46 -28 27 -28 27 53 47 c28 27 55 48 58 49 3 0 15 -13 27 -29z m3879 -66 c2 -1 -10 -13 -25 -28 l-28 -27 -52 46 -53 47 27 28 27 29 51 -47 c28 -26 52 -47 53 -48z m-4027 -70 l24 -26 -49 -49 -50 -50 -30 24 -30 25 50 50 c27 28 52 51 55 51 4 0 17 -11 30 -25z m4125 -25 l49 -50 -27 -27 -27 -28 -52 52 -52 52 24 26 c13 14 26 25 30 25 3 0 28 -23 55 -50z m-3980 -32 c3 -7 -34 -53 -81 -103 -340 -358 -575 -783 -688 -1245 -58 -240 -70 -344 -71 -620 0 -240 3 -302 24 -448 41 -278 162 -635 300 -883 50 -89 55 -120 17 -106 -19 8 -174 323 -220 448 -133 362 -189 742 -166 1125 14 228 35 358 96 578 122 443 347 831 693 1198 62 66 87 81 96 56z m3874 -86 c447 -483 679 -990 758 -1657 12 -108 6 -453 -11 -585 -43 -327 -125 -600 -267 -888 -49 -101 -97 -186 -105 -189 -36 -14 -34 15 6 86 171 302 288 673 330 1046 13 115 13 422 0 545 -64 615 -322 1170 -754 1625 -80 84 -97 115 -62 115 8 0 55 -44 105 -98z m-1747 72 c228 -30 446 -97 648 -200 118 -60 260 -149 260 -162 0 -5 -78 -113 -173 -240 l-173 -231 -63 40 c-149 94 -325 163 -501 196 -140 26 -391 24 -527 -5 -174 -38 -341 -105 -482 -195 l-55 -35 -173 231 c-95 127 -173 234 -173 239 0 15 150 106 281 172 346 172 748 240 1131 190z m-2409 -77 l27 -22 -48 -54 -48 -54 -28 24 -28 24 43 53 c23 28 45 52 48 52 3 0 18 -10 34 -23z m4395 -28 c23 -29 42 -54 42 -58 0 -3 -12 -14 -26 -24 -29 -21 -36 -18 -86 45 l-31 39 23 25 c13 13 26 24 30 24 4 0 25 -23 48 -51z m-3853 -167 l186 -203 -94 -98 c-149 -157 -287 -365 -373 -561 -258 -587 -240 -1229 48 -1792 29 -57 54 -106 56 -109 1 -3 -77 -55 -174 -115 -264 -162 -298 -183 -306 -178 -13 8 -100 174 -146 278 -93 212 -152 409 -193 651 -30 175 -38 542 -14 726 41 328 124 601 269 887 73 142 190 327 286 447 72 91 250 277 262 273 4 -2 91 -94 193 -206z m3526 111 c324 -332 566 -781 669 -1243 43 -195 61 -359 61 -580 0 -369 -61 -676 -206 -1030 -34 -82 -144 -297 -159 -309 -8 -7 -89 38 -248 136 l-236 145 69 141 c90 185 148 358 183 554 118 640 -84 1319 -532 1785 l-83 86 188 206 c103 113 191 206 194 206 3 0 48 -44 100 -97z m-4173 -90 c2 -1 -15 -27 -38 -57 l-42 -56 -29 17 c-16 10 -29 20 -29 24 0 3 18 32 41 63 l41 57 27 -23 c14 -13 28 -24 29 -25z m4628 -19 l38 -56 -24 -19 c-14 -10 -28 -19 -32 -19 -4 0 -25 24 -47 53 l-39 52 21 23 c11 12 26 22 33 22 6 0 29 -25 50 -56z m-4746 -145 c0 -4 -14 -32 -32 -61 -18 -29 -33 -54 -34 -56 -3 -5 -64 33 -64 40 0 4 16 33 35 63 l36 56 29 -18 c17 -9 30 -21 30 -24z m4855 -14 c19 -31 35 -60 35 -65 0 -9 -60 -45 -64 -38 -1 2 -17 28 -35 58 l-33 54 27 23 c14 13 28 23 30 23 3 0 20 -25 40 -55z m-3640 -67 c33 -45 71 -97 85 -116 l25 -34 -39 -33 -39 -32 -98 106 c-55 58 -98 109 -96 112 3 10 88 79 95 79 4 -1 34 -37 67 -82z m2447 46 c23 -20 44 -39 45 -43 2 -3 -41 -54 -96 -112 l-98 -106 -39 32 -39 33 25 34 c87 120 146 197 152 198 3 0 26 -16 50 -36z m-2463 -299 c1 -6 -16 -28 -38 -49 l-38 -37 -112 97 -112 98 53 53 53 53 97 -102 c53 -57 97 -108 97 -113z m2644 94 c-10 -9 -60 -54 -112 -99 l-94 -82 -38 38 c-22 21 -39 42 -39 47 0 5 44 55 97 113 l98 104 52 -52 c50 -50 52 -53 36 -69z m-3956 79 c9 -8 5 -24 -17 -69 -17 -32 -33 -59 -36 -59 -13 0 -65 32 -62 39 2 4 16 33 33 64 31 58 38 60 82 25z m5072 -35 c17 -31 31 -60 31 -63 0 -7 -46 -30 -60 -30 -5 0 -23 27 -40 59 l-29 59 22 15 c35 25 44 20 76 -40z m-2289 -77 c282 -65 513 -202 706 -418 59 -66 138 -178 169 -238 10 -19 19 -37 22 -40 2 -2 78 70 168 160 155 154 165 163 166 135 0 -17 2 -37 3 -45 2 -8 7 -85 11 -170 4 -85 8 -167 9 -183 1 -20 28 -53 101 -127 l100 -100 -132 -133 -131 -132 43 -120 44 -120 -208 -210 c-115 -117 -223 -234 -242 -265 -185 -303 -525 -530 -889 -596 -123 -23 -332 -22 -460 0 -248 44 -489 165 -675 338 -77 72 -182 199 -225 273 -12 22 -116 135 -231 250 l-208 210 44 120 43 120 -131 132 -132 133 99 99 c61 61 100 108 101 123 2 13 5 82 9 153 3 72 9 163 12 204 l7 73 163 -163 c90 -90 165 -161 167 -159 2 3 19 32 37 65 193 346 578 603 980 655 116 15 343 3 460 -24z m-1667 -116 c42 -36 76 -69 76 -73 1 -11 -62 -87 -71 -87 -16 0 -233 163 -230 173 2 6 21 32 44 59 l40 48 33 -28 c18 -15 67 -56 108 -92z m2977 19 c7 -13 -13 -31 -103 -95 -62 -43 -116 -81 -120 -83 -10 -4 -76 70 -76 84 0 6 48 52 107 103 l107 92 38 -42 c21 -24 42 -50 47 -59z m-2541 -11 l61 -81 -94 -91 c-78 -77 -190 -213 -225 -274 -9 -14 -21 -6 -85 58 -42 41 -76 79 -76 84 0 23 150 203 241 290 56 53 105 96 109 96 4 0 35 -37 69 -82z m2060 -14 c91 -87 241 -267 241 -290 0 -5 -34 -43 -76 -84 -64 -64 -76 -72 -85 -58 -35 61 -147 197 -225 274 l-94 91 61 81 c34 45 65 82 69 82 4 0 53 -43 109 -96z m-3691 46 c-2 -3 -14 -31 -27 -63 -26 -60 -30 -63 -73 -44 l-28 12 31 67 31 67 34 -17 c19 -9 33 -19 32 -22z m5244 -33 l26 -62 -21 -12 c-40 -22 -51 -15 -79 47 l-26 60 26 15 c15 8 32 14 37 14 6 1 22 -27 37 -62z m-4273 -81 c8 -10 10 -36 5 -89 l-7 -75 -58 35 c-33 20 -59 37 -59 39 0 2 17 31 37 63 38 62 50 65 82 27z m3286 -31 c19 -30 35 -56 35 -59 0 -7 -111 -69 -115 -64 -3 2 -7 35 -10 72 -5 56 -3 71 11 87 27 30 42 23 79 -36z m-190 -65 c-53 -54 -72 -67 -82 -58 -7 6 -12 12 -10 14 8 8 153 113 157 113 2 1 -27 -30 -65 -69z m-4162 43 c10 -3 16 -11 14 -17 -2 -6 -12 -36 -22 -66 -10 -30 -19 -57 -21 -58 -3 -4 -74 18 -74 23 0 1 6 20 14 41 33 92 36 96 54 89 9 -4 25 -10 35 -12z m1260 -83 c4 -4 2 -12 -6 -18 -10 -9 -27 3 -78 55 l-64 66 70 -48 c39 -26 74 -51 78 -55z m4156 27 c11 -32 21 -59 21 -62 0 -5 -71 -28 -74 -23 -2 1 -13 31 -24 66 l-21 62 32 14 c18 7 35 11 38 7 4 -3 16 -32 28 -64z m-4424 -77 l73 -40 -5 -68 c-3 -37 -7 -68 -8 -70 -1 -1 -40 15 -86 36 -46 21 -92 42 -102 45 -15 6 -14 12 15 72 18 36 34 65 36 65 3 0 37 -18 77 -40z m3463 -25 l32 -65 -22 -9 c-13 -5 -59 -25 -103 -45 l-80 -35 -7 67 c-4 37 -5 68 -3 70 10 11 131 80 140 81 6 1 25 -28 43 -64z m-4539 -26 c36 -13 36 -11 14 -90 -16 -59 -17 -60 -47 -53 -17 3 -34 8 -38 10 -3 2 2 35 13 72 10 37 19 68 19 69 0 5 6 3 39 -8z m5561 -64 c11 -38 19 -70 17 -71 -1 -1 -18 -5 -38 -9 l-36 -7 -18 67 c-9 36 -16 67 -14 69 7 5 64 23 67 21 1 -1 11 -33 22 -70z m-4425 -125 c3 0 -6 -124 -9 -126 0 -1 -59 17 -131 40 -147 48 -146 46 -106 138 l20 47 112 -49 c61 -28 112 -50 114 -50z m3485 30 c13 -36 19 -65 14 -70 -8 -7 -257 -90 -260 -86 -1 0 -4 29 -7 63 l-5 61 112 49 c61 28 114 48 117 47 4 -2 17 -31 29 -64z m-4642 -45 c2 -2 -3 -32 -10 -67 -12 -55 -17 -63 -39 -66 -46 -5 -54 10 -40 75 7 32 15 62 18 66 4 7 62 0 71 -8z m5629 -41 c19 -84 18 -91 -22 -96 -33 -4 -36 -2 -45 31 -5 20 -11 51 -12 70 -3 29 1 36 22 42 38 11 44 6 57 -47z m-4621 -86 l134 -42 -50 -51 -51 -51 -105 22 c-58 12 -107 24 -109 26 -7 6 29 138 38 138 4 0 69 -19 143 -42z m3697 -25 c11 -44 13 -69 6 -74 -6 -3 -55 -14 -110 -24 l-100 -18 -50 49 -50 49 128 42 c70 22 135 42 144 42 11 1 20 -17 32 -66z m-4746 -47 c3 -2 1 -32 -3 -66 -7 -66 -17 -76 -60 -66 -25 7 -26 8 -19 69 4 34 10 66 12 71 5 7 61 1 70 -8z m5696 7 c3 -5 8 -38 12 -75 l7 -68 -35 0 c-20 0 -38 3 -40 8 -2 4 -7 35 -11 69 -7 59 -6 62 16 66 39 7 47 7 51 0z m-4740 -110 l78 -17 -38 -38 -37 -38 25 -26 24 -26 -70 7 c-113 11 -108 8 -100 78 10 89 2 85 118 60z m3831 -51 c5 -34 7 -64 5 -66 -2 -2 -40 -7 -84 -11 l-80 -7 19 21 c20 22 20 22 -17 59 l-38 37 68 17 c110 27 116 24 127 -50z m-4827 -38 c16 -5 21 -12 19 -28 -3 -11 -5 -42 -5 -68 l-1 -48 -41 0 -42 0 7 68 c3 37 6 70 6 75 0 8 26 9 57 1z m5763 -1 c0 -5 3 -38 6 -75 l7 -68 -42 0 -41 0 0 48 c0 26 -3 57 -6 69 -5 19 -1 22 28 26 18 2 36 5 41 5 4 1 7 -1 7 -5z m-920 -90 c1 -5 3 -41 6 -80 l6 -73 -151 0 -151 0 0 43 c0 33 6 49 25 67 23 22 48 27 253 49 6 0 12 -2 12 -6z m-3815 -19 c100 -8 125 -26 125 -91 l0 -43 -150 0 -150 0 0 29 c0 15 3 49 6 76 l7 47 41 -6 c23 -3 77 -8 121 -12z m-1027 -162 l3 -72 -36 0 -35 0 0 76 0 75 33 -4 32 -3 3 -72z m5772 -2 l0 -70 -37 0 -38 0 2 57 c1 32 2 64 2 71 1 7 15 12 36 12 l35 0 0 -70z m-4513 8 l21 -23 -23 -60 -24 -60 -1 55 c-1 30 -3 67 -4 83 -2 33 4 34 31 5z m3214 -65 l-3 -78 -23 60 -23 60 20 22 c12 12 24 21 27 19 3 -2 4 -39 2 -83z m-3321 -32 l0 -58 -52 -6 c-29 -4 -84 -9 -123 -12 -38 -3 -80 -8 -91 -10 -19 -4 -22 1 -28 48 -12 107 -27 97 144 97 l150 0 0 -59z m3696 -13 c-3 -39 -7 -72 -9 -73 -1 -1 -56 4 -122 11 -66 7 -130 13 -142 13 -21 1 -23 6 -23 61 l0 60 151 0 152 0 -7 -72z m-4836 -82 c0 -30 3 -61 6 -69 4 -11 -5 -16 -35 -19 -36 -3 -41 -1 -41 17 0 11 -3 44 -6 73 l-7 52 42 0 41 0 0 -54z m5756 -18 c-4 -40 -8 -73 -9 -74 -1 0 -19 1 -39 3 -33 5 -36 8 -33 32 2 14 4 45 4 69 l1 42 41 0 41 0 -6 -72z m-4605 -120 c-24 -11 -263 -59 -268 -54 -8 8 -23 80 -23 114 0 30 2 32 35 32 19 0 36 1 38 2 1 1 49 7 107 13 l105 10 11 -55 c9 -47 8 -56 -5 -62z m3637 93 c29 -1 32 -4 32 -33 0 -34 -15 -106 -23 -114 -3 -3 -137 22 -263 51 -19 4 -20 8 -11 63 l9 58 112 -12 c61 -7 126 -13 144 -13z m-4766 -160 c4 -35 5 -68 2 -73 -3 -4 -20 -8 -38 -8 -33 0 -33 1 -40 53 -9 79 -8 85 17 90 47 9 52 4 59 -62z m5713 -10 c-4 -36 -10 -69 -13 -72 -4 -4 -22 -5 -40 -2 l-34 6 7 56 c10 87 10 88 51 83 l36 -4 -7 -67z m-4068 -376 c42 -62 110 -143 180 -214 l112 -114 -61 -83 c-56 -75 -63 -82 -82 -72 -12 6 -71 61 -131 122 -178 179 -309 393 -385 626 -68 209 -74 209 125 10 132 -131 192 -200 242 -275z m2748 380 c-53 -229 -185 -480 -352 -670 -84 -97 -212 -210 -223 -198 -4 4 -33 42 -63 84 l-57 75 113 115 c69 70 137 151 176 209 45 69 110 143 239 272 97 98 177 176 179 175 1 -2 -4 -30 -12 -62z m-3226 -22 c21 -80 29 -72 -119 -119 -74 -24 -138 -40 -142 -36 -10 11 -38 125 -32 132 6 6 239 58 266 59 12 1 20 -11 27 -36z m3456 11 c72 -15 133 -30 137 -33 8 -7 -19 -121 -30 -133 -9 -9 -277 76 -276 88 3 27 28 104 33 104 3 0 65 -12 136 -26z m-4588 -183 c7 -35 11 -66 9 -68 -2 -2 -19 -6 -38 -10 -34 -5 -35 -4 -41 33 -4 22 -9 53 -13 71 -5 27 -3 32 17 36 47 9 53 4 66 -62z m5652 53 c5 -5 -20 -127 -29 -137 -6 -7 -70 10 -70 18 0 7 21 110 25 122 3 9 15 11 37 6 18 -3 35 -7 37 -9z m-4462 -68 l20 -55 -129 -55 c-71 -31 -133 -56 -137 -56 -8 0 -56 129 -50 134 6 6 252 85 265 85 6 1 20 -23 31 -53z m3349 13 c71 -23 131 -43 133 -45 6 -6 -42 -134 -52 -134 -5 0 -66 25 -137 57 l-128 56 19 49 c10 27 19 51 19 53 0 9 18 5 146 -36z m-4483 -259 c-4 -4 -20 -10 -35 -14 -26 -6 -28 -4 -48 60 -11 37 -19 68 -18 70 2 1 19 6 38 11 l35 9 18 -64 c10 -35 15 -68 10 -72z m1203 89 c14 -28 23 -53 20 -56 -16 -17 -242 -140 -249 -136 -11 7 -57 100 -57 117 0 8 50 36 128 69 70 31 128 56 129 56 2 1 14 -22 29 -50z m3224 -14 c58 -25 108 -49 112 -53 9 -9 -56 -128 -68 -125 -14 3 -244 134 -244 139 0 3 11 27 25 54 29 57 10 58 175 -15z m1127 41 c2 -2 -7 -34 -18 -73 l-22 -71 -31 10 c-17 6 -33 12 -35 14 -2 2 5 33 14 69 l18 67 36 -7 c20 -4 37 -8 38 -9z m-4264 -180 c15 -24 27 -46 27 -49 0 -9 -213 -160 -228 -161 -16 -1 -91 116 -76 121 5 2 59 32 120 68 60 35 114 64 119 64 6 1 22 -19 38 -43z m3028 -21 c63 -36 119 -66 124 -68 14 -5 -61 -122 -77 -121 -15 1 -228 152 -228 161 0 10 55 93 61 93 4 0 58 -29 120 -65z m-4267 -27 c9 -29 19 -58 22 -64 4 -11 -36 -34 -59 -34 -10 0 -57 109 -57 132 0 7 25 15 56 17 16 1 24 -10 38 -51z m5438 34 c4 -4 -1 -32 -13 -62 -11 -30 -22 -60 -24 -67 -3 -10 -12 -9 -37 1 -38 17 -38 14 -13 89 19 57 20 58 49 53 17 -4 34 -10 38 -14z m-4062 -173 c0 -3 -49 -49 -109 -102 l-109 -96 -42 53 c-24 30 -43 57 -44 61 -1 4 51 45 114 90 l115 83 37 -42 c21 -22 38 -44 38 -47z m2864 -139 l-46 -59 -109 96 c-60 53 -109 98 -109 100 0 3 16 24 36 48 l35 44 120 -86 119 -85 -46 -58z m-4160 77 l25 -57 -31 -16 c-36 -19 -39 -16 -72 59 l-25 58 32 14 c18 7 35 11 39 7 3 -4 18 -33 32 -65z m5269 54 l26 -10 -25 -58 c-14 -32 -29 -62 -34 -66 -9 -10 -73 20 -66 31 2 4 16 33 30 65 14 32 29 56 34 53 5 -3 21 -10 35 -15z m-4373 -81 c143 -211 377 -432 611 -577 157 -98 371 -190 552 -238 110 -29 324 -65 388 -65 26 0 61 -3 78 -6 l31 -6 0 -279 0 -279 -52 0 c-164 0 -438 43 -637 101 -587 169 -1093 533 -1450 1046 l-50 72 157 96 c86 54 191 119 232 146 41 26 80 48 87 49 7 0 31 -27 53 -60z m3698 -88 l232 -144 -50 -71 c-142 -202 -358 -434 -530 -571 -432 -341 -963 -545 -1497 -573 l-113 -6 0 280 c0 216 3 282 13 285 6 3 41 6 77 7 98 3 261 29 387 62 461 118 872 396 1154 779 41 55 79 99 84 98 6 -2 115 -68 243 -146z m-3214 89 l39 -40 -33 -38 c-56 -65 -162 -173 -169 -173 -4 0 -28 22 -55 49 l-48 48 109 96 c59 53 110 97 113 97 3 0 23 -18 44 -39z m463 2 c336 -215 761 -273 1158 -158 102 30 247 96 343 156 35 22 68 37 72 32 27 -30 340 -454 340 -461 0 -14 -154 -109 -267 -166 -274 -137 -537 -202 -842 -210 -400 -11 -777 93 -1123 311 -49 30 -88 59 -88 64 0 9 341 469 347 469 1 0 28 -16 60 -37z m2128 -62 l107 -93 -48 -49 c-27 -27 -52 -49 -56 -49 -8 0 -101 95 -168 173 l-33 38 39 40 c21 21 42 38 46 37 3 -2 55 -45 113 -97z m-3890 -78 c16 -32 31 -61 33 -65 3 -6 -49 -38 -62 -38 -6 0 -66 115 -66 124 0 5 51 35 60 36 3 0 19 -26 35 -57z m1434 13 l24 -25 -87 -116 -87 -116 -38 30 c-71 56 -72 49 35 165 105 112 106 113 153 62z m2335 -84 c86 -92 86 -87 15 -143 l-38 -30 -88 117 -87 116 38 35 38 35 22 -23 c13 -13 58 -61 100 -107z m1354 92 c8 -6 -61 -124 -72 -124 -6 0 -21 8 -34 18 l-22 17 32 62 33 61 30 -15 c16 -9 32 -17 33 -19z m-5020 -198 c17 -30 32 -56 32 -58 0 -2 -13 -14 -29 -26 l-30 -22 -37 62 -37 61 22 19 c13 10 28 18 35 18 6 0 26 -25 44 -54z m4892 39 c17 -9 30 -18 30 -21 0 -4 -16 -33 -36 -65 l-36 -59 -29 21 c-16 11 -29 23 -29 26 0 6 64 112 68 113 2 0 16 -7 32 -15z m-4710 -95 c83 -120 224 -283 352 -406 453 -435 1034 -694 1673 -748 33 -3 84 -5 113 -5 49 -1 53 -3 50 -23 -3 -20 -8 -21 -83 -19 -44 1 -89 4 -100 6 -11 2 -54 7 -95 10 -104 9 -310 50 -450 90 -424 122 -837 364 -1158 679 -170 166 -413 470 -397 496 15 24 37 5 95 -80z m4555 80 c4 -6 -26 -57 -66 -113 -412 -577 -1029 -979 -1711 -1116 -130 -26 -341 -51 -435 -51 -64 0 -73 2 -73 19 0 16 12 19 118 25 827 49 1595 477 2069 1154 61 87 83 106 98 82z m-4633 -180 c51 -68 51 -67 18 -90 -35 -25 -28 -29 -87 54 l-27 38 29 24 c16 13 30 22 31 21 1 -1 17 -22 36 -47z m4689 21 l23 -19 -27 -38 c-61 -86 -59 -85 -93 -53 l-23 22 37 53 c20 30 42 54 48 54 7 0 22 -8 35 -19z m-4534 -219 c15 -22 15 -25 -10 -49 l-25 -26 -34 38 c-65 74 -65 75 -32 102 l29 23 28 -32 c15 -18 35 -43 44 -56z m4411 58 c26 -22 25 -25 -36 -95 l-33 -37 -25 23 c-13 12 -24 26 -24 29 0 13 75 100 85 100 6 -1 20 -9 33 -20z m-4281 -247 l-27 -27 -50 49 -50 49 27 28 27 29 50 -51 51 -50 -28 -27z m4150 95 l23 -22 -52 -53 -52 -53 -23 22 c-13 12 -23 26 -23 32 0 13 81 96 94 96 5 0 20 -10 33 -22z m-4026 -163 l47 -44 -20 -26 c-10 -14 -24 -25 -29 -25 -5 0 -32 21 -60 47 l-49 46 21 24 c13 12 27 23 32 23 6 0 31 -20 58 -45z m3883 19 c18 -26 18 -26 -15 -61 -54 -55 -67 -59 -97 -30 l-25 26 49 45 c27 25 54 45 59 45 6 0 18 -11 29 -25z m-3734 -141 c27 -21 49 -42 49 -48 0 -5 -9 -21 -19 -34 l-20 -24 -39 27 c-22 15 -47 36 -56 46 -16 18 -16 20 2 44 10 14 21 26 26 26 4 0 30 -17 57 -37z m3577 15 c13 -12 23 -25 23 -30 0 -9 -98 -88 -110 -88 -4 0 -16 12 -25 27 l-18 27 49 43 c27 23 51 43 53 43 3 0 15 -10 28 -22z m-3419 -133 c57 -39 61 -48 34 -83 l-18 -23 -57 41 c-31 23 -57 43 -57 46 0 8 34 53 40 54 3 0 29 -16 58 -35z m3254 -45 c-17 -14 -44 -33 -60 -42 l-30 -18 -20 32 -21 32 57 38 57 38 24 -27 24 -27 -31 -26z m-3081 -63 l57 -32 -15 -30 c-9 -17 -17 -32 -19 -34 -5 -5 -124 63 -124 72 0 11 31 57 39 57 3 0 31 -15 62 -33z m2923 2 c10 -17 16 -32 14 -33 -11 -11 -119 -68 -121 -65 -26 37 -38 64 -31 66 5 2 32 17 59 33 28 16 52 30 55 30 3 0 14 -14 24 -31z m-2751 -95 c29 -15 54 -28 56 -30 7 -6 -21 -64 -31 -64 -8 0 -108 48 -117 56 -7 6 21 64 31 64 5 0 32 -12 61 -26z m2575 1 c7 -14 12 -29 12 -34 0 -4 -27 -20 -60 -36 -64 -31 -74 -29 -85 16 -6 25 -2 29 47 52 68 32 72 32 86 2z m-2340 -102 c8 -3 10 -12 6 -22 -3 -9 -9 -24 -11 -33 -7 -23 -11 -22 -75 3 -69 27 -73 31 -54 68 l16 31 53 -21 c28 -12 58 -23 65 -26z m2158 16 c8 -17 12 -35 7 -39 -9 -10 -109 -50 -122 -50 -9 0 -34 60 -28 67 3 2 117 51 124 53 1 0 10 -14 19 -31z m-1966 -84 c7 -4 -5 -58 -15 -72 -2 -3 -127 38 -133 43 -2 1 1 18 7 37 l12 35 60 -19 c34 -11 65 -21 69 -24z m1790 -24 c0 -4 -26 -15 -57 -25 -32 -10 -63 -21 -70 -23 -9 -4 -25 36 -25 64 1 4 29 17 64 29 l63 21 13 -30 c6 -16 12 -32 12 -36z m-1647 -11 l57 -13 -6 -36 c-4 -20 -8 -37 -9 -39 -2 -2 -136 28 -142 33 -8 5 23 75 31 72 6 -3 37 -10 69 -17z m1441 -4 c3 -13 8 -31 12 -39 4 -11 -11 -18 -67 -31 -40 -9 -73 -15 -74 -14 -1 2 -5 19 -9 39 l-6 35 62 16 c35 9 66 16 69 17 4 0 10 -10 13 -23z m-1229 -42 c40 -6 40 -6 37 -45 -4 -39 -4 -39 -41 -33 -89 16 -106 21 -105 32 1 7 2 24 3 38 1 24 4 26 34 20 17 -3 50 -8 72 -12z m1037 -9 c0 -14 1 -30 2 -37 1 -11 -16 -16 -105 -32 -37 -6 -37 -6 -41 33 l-3 39 55 10 c87 15 90 15 92 -13z m-834 -15 c31 0 32 -1 32 -41 l0 -41 -72 7 c-40 4 -74 8 -75 9 -1 1 0 19 4 40 6 36 7 37 42 32 20 -3 51 -5 69 -6z m635 -27 c4 -20 5 -38 4 -39 -1 -2 -35 -6 -75 -9 l-72 -7 0 40 0 41 53 4 c28 2 59 4 68 5 12 1 18 -9 22 -35z m-403 -23 l0 -40 -69 0 c-74 0 -80 4 -73 52 4 28 5 28 73 28 l69 0 0 -40z m202 5 c2 -20 2 -38 -1 -40 -2 -3 -35 -5 -73 -5 l-68 0 0 40 0 40 69 0 69 0 4 -35z"/>
 <path d="M2944 5469 c-26 -29 -32 -150 -10 -202 13 -33 19 -37 50 -37 48 0 66 35 66 130 0 69 -11 107 -34 122 -21 14 -53 8 -72 -13z m68 -59 c9 -40 1 -119 -14 -138 -8 -9 -14 -9 -24 -1 -15 12 -20 132 -8 164 11 27 38 12 46 -25z"/>
 <path d="M2747 5473 c-18 -3 -27 -9 -24 -17 3 -7 8 -63 12 -124 l8 -112 32 0 c46 0 65 9 65 31 0 15 -4 17 -24 9 -30 -11 -36 -5 -36 37 0 31 2 34 22 28 17 -6 20 -4 15 10 -4 9 -7 20 -7 25 0 4 -9 6 -20 3 -16 -4 -20 0 -20 20 0 14 -3 32 -6 40 -7 18 35 30 53 15 14 -12 17 -1 7 26 -6 16 -20 17 -77 9z"/>
 <path d="M3303 5455 c-58 -41 -66 -222 -10 -242 45 -16 64 -6 66 35 1 10 -3 10 -20 0 -33 -21 -52 13 -46 80 9 90 62 145 55 57 -2 -25 0 -45 4 -45 3 0 12 -2 20 -5 9 -4 14 6 15 32 1 20 4 47 7 59 4 16 -1 24 -20 32 -33 16 -45 15 -71 -3z"/>
 <path d="M2512 5443 c-17 -3 -22 -9 -17 -21 14 -35 44 -225 38 -235 -4 -7 0 -8 11 -4 10 4 26 7 37 7 38 0 59 35 59 99 0 67 -12 106 -42 139 -21 21 -37 24 -86 15z m72 -60 c18 -36 29 -107 21 -133 -13 -40 -32 -21 -44 43 -6 34 -14 74 -17 90 -4 20 -2 27 10 27 8 0 22 -12 30 -27z"/>
 <path d="M3486 5346 c-9 -50 -23 -107 -30 -127 -13 -37 -13 -37 14 -41 23 -3 28 0 27 16 -2 39 36 188 49 193 7 2 22 0 33 -7 19 -9 21 -8 21 13 0 20 -7 25 -48 33 l-48 10 -18 -90z"/>
 <path d="M2239 5368 c-15 -10 -13 -22 21 -122 20 -61 35 -118 32 -126 -4 -12 -2 -13 9 -2 7 6 22 12 34 12 12 0 15 3 9 8 -14 9 -85 222 -78 233 7 12 -8 10 -27 -3z"/>
 <path d="M3686 5355 c-27 -30 -56 -113 -56 -165 0 -70 59 -93 104 -40 27 32 56 115 56 160 0 65 -61 91 -104 45z m62 -58 c-7 -57 -43 -137 -62 -137 -21 0 -21 53 -1 110 18 51 32 70 53 70 11 0 14 -9 10 -43z"/>
 <path d="M2080 5312 c-19 -9 -37 -17 -39 -19 -2 -1 18 -52 43 -113 25 -62 43 -116 40 -121 -7 -12 -1 -11 29 4 21 11 23 15 12 31 -8 10 -28 54 -46 98 -26 66 -30 82 -18 89 8 5 22 7 32 5 20 -5 21 3 3 27 -16 20 -12 20 -56 -1z"/>
 <path d="M3904 5312 c3 -5 -16 -58 -43 -119 l-48 -111 28 -16 c57 -34 109 -5 109 59 0 22 6 38 14 41 8 3 21 23 30 44 8 21 20 41 27 45 8 6 8 10 -2 15 -20 13 -39 0 -60 -41 -11 -22 -26 -39 -34 -39 -19 0 -19 5 1 57 9 24 22 43 28 43 6 0 -2 7 -18 15 -32 17 -39 19 -32 7z m11 -173 c8 -24 -15 -53 -37 -47 -13 3 -13 8 -1 36 15 37 29 41 38 11z"/>
 <path d="M1862 5218 c-32 -32 0 -146 58 -208 33 -35 62 -38 91 -9 24 24 20 67 -13 134 -41 81 -101 118 -136 83z m82 -71 c39 -66 51 -106 36 -120 -9 -9 -18 -4 -40 22 -30 36 -64 117 -54 132 12 20 35 7 58 -34z"/>
 <path d="M4113 5223 c3 -5 -20 -59 -52 -120 l-57 -112 23 -10 c18 -8 23 -8 23 3 0 8 25 60 55 117 30 56 54 103 52 103 -1 1 -13 7 -26 14 -12 8 -21 10 -18 5z"/>
 <path d="M4240 5142 c0 -17 -60 -179 -80 -214 -7 -12 -3 -20 17 -33 25 -17 26 -16 36 1 11 19 142 163 162 176 6 5 3 8 -7 8 -9 0 -18 6 -20 12 -3 8 -14 3 -29 -15 -17 -20 -29 -26 -42 -21 -18 6 -18 23 -2 66 3 7 -4 19 -15 26 -17 10 -20 10 -20 -6z m24 -120 c3 -5 -9 -22 -26 -38 -17 -16 -28 -24 -25 -18 4 6 11 23 16 38 10 26 25 34 35 18z"/>
 <path d="M1673 5107 l-31 -22 19 -38 c23 -43 28 -46 21 -12 -8 46 37 74 58 35 7 -14 7 -33 -1 -65 -14 -56 -6 -90 27 -112 24 -16 28 -15 60 2 19 10 32 23 29 29 -3 6 -8 19 -11 29 -8 21 -22 22 -20 1 2 -23 -30 -42 -45 -27 -9 9 -10 27 -2 70 12 69 2 106 -33 122 -33 15 -35 14 -71 -12z"/>
 <path d="M2952 4877 c12 -23 0 -337 -14 -354 -6 -8 3 -11 34 -11 l43 1 -3 164 -3 163 40 0 c22 0 41 -5 44 -12 9 -25 15 -2 8 32 l-6 35 -77 0 c-70 0 -75 -1 -66 -18z"/>
 <path d="M3293 4702 c-2 -97 -5 -187 -8 -199 -5 -19 -1 -23 20 -23 15 0 35 -5 46 -10 16 -9 19 -7 19 10 0 25 118 308 138 333 14 15 13 17 -7 17 -12 0 -31 5 -41 10 -15 8 -18 7 -14 -3 2 -7 -2 -30 -11 -51 -14 -33 -19 -37 -48 -34 -32 3 -32 4 -32 56 0 42 -3 52 -17 52 -9 0 -20 5 -23 10 -16 26 -20 -3 -22 -168z m97 -2 c4 0 -4 -30 -18 -67 l-27 -68 -3 59 c-4 70 2 90 24 82 9 -3 19 -6 24 -6z"/>
 <path d="M2588 4839 l-31 -30 5 -94 c4 -78 10 -104 34 -152 16 -31 41 -66 55 -76 23 -17 32 -18 62 -8 54 18 74 81 57 186 -28 174 -107 250 -182 174z m91 -64 c38 -78 53 -213 26 -235 -34 -28 -75 49 -90 173 -11 90 31 131 64 62z"/>
 <path d="M2245 4745 c-50 -23 -69 -43 -58 -57 6 -7 13 -29 17 -49 4 -21 13 -43 22 -49 13 -11 13 -10 5 13 -11 29 -6 52 17 80 21 24 49 21 68 -8 15 -23 14 -29 -11 -104 -20 -58 -26 -90 -21 -115 13 -66 85 -96 144 -59 15 9 28 17 29 18 4 2 -23 84 -30 91 -4 4 -7 -4 -7 -18 0 -34 -35 -66 -58 -52 -25 16 -26 63 -2 118 38 89 20 174 -41 195 -39 13 -37 13 -74 -4z"/>
 <path d="M3710 4744 c0 -23 -131 -308 -148 -321 -13 -11 -11 -14 14 -23 16 -6 49 -21 74 -34 l45 -23 18 35 c15 29 15 34 3 29 -19 -7 -76 11 -76 24 0 17 40 89 49 89 5 0 16 -7 25 -15 19 -19 26 -19 26 0 0 9 8 27 17 42 17 25 17 26 -3 15 -16 -8 -25 -8 -36 1 -14 11 -13 18 8 65 21 47 27 52 47 47 12 -4 32 -18 45 -31 l22 -25 0 25 c0 14 5 28 10 31 14 9 12 25 -2 25 -7 0 -41 13 -75 30 -49 23 -63 26 -63 14z"/>
 <path d="M1060 4558 c-25 -28 -25 -40 1 -64 21 -19 21 -19 18 5 -5 28 24 52 41 35 6 -6 15 -37 20 -70 11 -67 34 -94 81 -94 22 0 34 8 48 32 19 29 19 32 3 54 -9 12 -25 27 -35 33 -17 11 -17 10 -2 -13 20 -30 12 -66 -14 -66 -26 0 -38 19 -46 73 -13 87 -69 124 -115 75z"/>
 <path d="M932 4388 c-37 -37 16 -120 102 -159 58 -26 92 -24 113 7 16 24 16 28 -1 58 -24 46 -119 106 -165 106 -21 0 -42 -5 -49 -12z m105 -48 c73 -42 105 -90 61 -90 -44 0 -138 69 -138 102 0 25 17 23 77 -12z"/>
 <path d="M828 4212 c-5 -16 9 -27 71 -60 42 -23 85 -48 96 -56 19 -13 19 -15 2 -33 -22 -25 -21 -30 3 -36 15 -4 24 4 40 34 11 22 20 41 20 44 0 3 -188 107 -221 123 -4 2 -9 -6 -11 -16z"/>
 <path d="M724 4002 c-9 -26 -6 -29 91 -95 55 -38 102 -72 105 -77 3 -5 10 2 16 15 10 21 8 25 -17 36 -30 12 -35 24 -19 49 7 12 15 13 38 4 25 -9 31 -8 40 7 16 24 15 24 -9 26 -36 3 -214 46 -225 54 -6 5 -14 -2 -20 -19z m138 -48 c4 -3 5 -11 2 -19 -6 -16 -22 -10 -59 20 -19 15 -18 16 15 9 19 -3 38 -8 42 -10z"/>
 <path d="M617 3692 c-23 -25 -21 -59 2 -72 30 -15 45 -12 27 6 -12 12 -13 20 -5 35 15 28 29 20 67 -37 39 -57 81 -80 115 -63 30 16 37 28 37 64 0 26 -5 33 -33 43 -48 17 -53 15 -23 -9 29 -23 33 -41 12 -58 -20 -17 -51 1 -71 40 -35 67 -93 90 -128 51z"/>
 <path d="M608 3502 c-15 -2 -35 -13 -43 -25 -16 -22 -21 -67 -7 -67 4 0 18 -3 30 -7 22 -5 23 -4 11 15 -11 17 -10 23 1 37 11 14 24 16 64 10 99 -13 143 -63 74 -84 -32 -10 -32 -10 11 -8 51 2 67 20 57 61 -11 44 -114 79 -198 68z"/>
 <path d="M532 3265 c3 -53 6 -61 30 -75 21 -11 33 -12 56 -4 22 9 33 8 47 -2 10 -8 35 -14 55 -14 20 0 42 -6 49 -12 10 -11 12 -8 9 12 -3 24 -16 32 -80 45 -16 3 -28 12 -28 20 0 17 54 21 93 6 22 -9 24 -7 25 20 0 16 -3 27 -8 24 -13 -8 -224 16 -238 28 -11 8 -13 -1 -10 -48z m108 -14 c0 -18 -30 -33 -55 -27 -42 11 -31 36 15 36 22 0 40 -4 40 -9z"/>
 <path d="M513 3061 c0 -27 1 -27 56 -23 31 2 89 -1 129 -5 l72 -9 0 25 0 26 -109 -3 c-62 -2 -118 1 -129 7 -16 9 -19 6 -19 -18z"/>
 <path d="M690 2928 c-41 -5 -98 -7 -126 -6 l-51 3 4 -45 c6 -52 31 -80 75 -80 34 0 78 39 78 70 0 20 4 22 55 18 53 -3 54 -3 48 22 -3 14 -6 25 -7 25 -1 1 -35 -3 -76 -7z m-62 -60 c-3 -26 -41 -36 -64 -18 -22 19 -17 28 19 33 17 2 36 5 40 5 5 1 7 -8 5 -20z"/>
 <path d="M544 2712 c-7 -4 -10 -28 -6 -63 4 -52 6 -57 28 -55 19 1 22 5 17 24 -3 12 -1 22 3 22 5 0 49 7 99 14 49 7 96 11 104 8 10 -4 13 -1 8 12 -4 10 -7 25 -7 33 0 11 -4 13 -12 6 -11 -9 -157 -33 -195 -33 -7 0 -13 9 -13 20 0 21 -8 25 -26 12z"/>
 <path d="M655 2520 c-43 -10 -84 -16 -89 -13 -5 4 -7 -1 -3 -11 4 -10 7 -24 7 -32 0 -10 4 -12 13 -7 6 4 53 18 102 29 76 18 92 19 105 8 22 -22 3 -32 -105 -56 -89 -21 -100 -25 -97 -44 3 -20 4 -20 110 8 115 30 148 52 136 92 -16 52 -45 57 -179 26z"/>
 <path d="M855 2351 c-17 -17 -216 -81 -228 -74 -7 4 -8 0 -2 -13 4 -10 10 -29 13 -42 11 -51 77 -68 116 -29 13 13 36 23 57 24 65 3 98 14 92 30 -5 12 -17 13 -63 8 -95 -11 -86 26 9 41 29 5 39 10 32 18 -5 6 -10 19 -12 29 -3 13 -7 15 -14 8z m-110 -100 c8 -15 -25 -42 -48 -39 -29 4 -33 26 -5 37 30 13 46 13 53 2z"/>
 <path d="M912 2157 c-7 -7 -52 -41 -102 -73 -80 -53 -89 -62 -84 -84 3 -14 6 -25 7 -26 5 -4 257 61 257 66 -1 22 -18 30 -46 20 -24 -9 -31 -8 -41 6 -19 25 -17 31 17 46 34 15 35 17 17 42 -11 15 -15 16 -25 3z m-42 -101 c0 -16 -21 -26 -53 -26 -20 0 -19 2 8 20 36 24 45 25 45 6z"/>
 <path d="M4876 4576 l-28 -24 26 5 c31 6 45 -19 25 -43 -10 -12 -24 -14 -69 -9 -48 6 -59 3 -83 -15 -39 -31 -38 -81 3 -110 17 -12 30 -17 30 -11 0 6 6 11 13 11 8 0 22 10 33 21 19 22 19 22 -4 10 -43 -23 -87 12 -56 44 11 11 33 14 80 12 59 -2 68 1 85 22 25 31 24 54 -3 85 l-23 25 -29 -23z"/>
 <path d="M5020 4442 c0 -6 -35 -35 -77 -63 -91 -60 -103 -73 -103 -111 0 -35 39 -63 72 -52 12 3 59 31 105 61 70 47 80 58 71 72 -10 16 -19 12 -96 -41 -90 -61 -106 -67 -116 -43 -6 15 17 35 116 100 52 34 56 39 46 59 -14 28 -18 32 -18 18z"/>
 <path d="M5127 4243 c-17 -4 -17 -6 -3 -22 20 -22 19 -24 -94 -83 -79 -41 -84 -46 -74 -66 6 -13 14 -18 20 -12 21 20 176 100 185 95 5 -4 9 -13 9 -21 0 -11 4 -12 19 -2 19 11 18 13 -7 64 -15 29 -29 53 -32 52 -3 0 -13 -2 -23 -5z"/>
 <path d="M5222 4042 l-22 -3 21 -18 c26 -21 20 -51 -9 -51 -11 0 -36 7 -55 15 -48 20 -80 19 -107 -3 -27 -22 -29 -62 -5 -98 12 -19 20 -23 28 -15 6 6 21 11 34 11 13 0 23 4 23 10 0 5 -6 7 -13 4 -8 -3 -24 4 -38 14 -20 17 -21 22 -10 36 17 20 38 20 84 1 20 -8 47 -15 60 -15 26 0 67 38 67 62 0 26 -33 55 -58 50z"/>
 <path d="M5317 3863 c-4 -6 -55 -27 -114 -48 -59 -21 -109 -38 -110 -39 -1 -1 0 -11 3 -23 5 -19 8 -20 34 -7 15 8 70 29 123 47 93 32 95 33 82 56 -6 13 -15 19 -18 14z"/>
 <path d="M5282 3683 c-12 -13 -37 -19 -82 -21 -73 -2 -80 -6 -58 -29 13 -13 24 -14 55 -6 43 11 63 7 63 -12 0 -8 -21 -18 -53 -26 -48 -10 -53 -14 -50 -34 5 -22 5 -22 56 -5 29 9 84 25 124 35 l72 19 -6 30 c-8 45 -31 66 -70 66 -18 0 -41 -8 -51 -17z m78 -28 c16 -20 11 -24 -34 -32 -41 -7 -48 8 -14 31 28 20 32 20 48 1z"/>
 <path d="M5424 3491 c-14 -12 -222 -44 -235 -35 -9 5 -10 2 -6 -10 4 -10 7 -23 7 -31 0 -10 10 -10 56 1 53 12 55 12 63 -9 7 -18 4 -23 -18 -29 -14 -4 -40 -9 -58 -10 -28 -2 -31 -5 -31 -30 1 -19 5 -25 12 -19 6 5 63 17 126 27 63 10 116 18 117 19 1 0 0 10 -3 22 -5 18 -10 20 -37 12 -48 -14 -64 -11 -70 11 -7 25 0 29 56 32 44 3 46 4 40 28 -7 31 -7 31 -19 21z"/>
 <path d="M5420 3249 c0 -5 5 -9 11 -9 6 0 9 -10 7 -22 -2 -17 -14 -27 -43 -36 -94 -32 -191 16 -114 55 l24 13 -23 0 c-64 0 -87 -63 -35 -97 56 -37 213 -11 228 37 11 36 -1 65 -30 66 -14 1 -25 -2 -25 -7z"/>
 <path d="M5236 2921 c-11 -13 -16 -31 -14 -53 3 -34 19 -45 68 -47 l25 -1 -25 13 c-16 8 -26 23 -28 40 -3 23 0 27 20 27 14 0 37 -13 54 -31 46 -49 79 -62 112 -47 21 10 28 21 30 49 3 31 -1 37 -20 43 -35 9 -56 6 -30 -4 25 -11 30 -48 7 -56 -10 -4 -34 11 -65 40 -56 52 -103 62 -134 27z"/>
 <path d="M5220 2720 c-25 -25 -26 -62 -2 -83 11 -10 57 -22 115 -31 53 -8 101 -17 107 -21 5 -3 10 0 10 9 0 8 3 22 7 32 4 12 3 15 -6 10 -13 -8 -182 12 -201 24 -20 12 -3 40 22 39 13 0 59 -6 103 -13 44 -8 81 -13 81 -12 7 7 14 47 8 43 -5 -2 -49 1 -99 9 -117 18 -121 18 -145 -6z"/>
 <path d="M5176 2521 c-3 -21 -9 -46 -12 -55 -4 -11 -2 -15 7 -11 8 3 64 -7 125 -23 l111 -27 11 23 c9 19 7 22 -10 22 -11 0 -60 9 -109 21 -69 16 -89 24 -89 38 0 9 5 22 12 29 8 8 9 12 1 12 -6 0 -18 2 -26 6 -10 4 -16 -6 -21 -35z"/>
 <path d="M5143 2350 c-54 -22 -31 -88 43 -125 48 -23 148 -33 169 -15 23 19 18 63 -9 89 -23 22 -131 62 -164 60 -10 0 -27 -4 -39 -9z m144 -60 c43 -19 56 -43 29 -53 -29 -11 -145 27 -161 53 -22 36 51 36 132 0z"/>
 <path d="M5061 2156 c-7 -8 -16 -27 -20 -44 -8 -25 -5 -31 19 -46 38 -22 43 -20 24 10 -15 23 -16 27 -2 41 25 24 54 7 72 -41 30 -77 80 -103 121 -62 32 32 32 49 0 70 -24 16 -24 16 -19 -13 3 -16 1 -31 -4 -35 -20 -12 -40 6 -61 54 -12 27 -31 56 -43 64 -28 20 -72 21 -87 2z"/>
 <path d="M2923 4253 c-9 -3 -13 -26 -13 -64 0 -56 -1 -59 -25 -59 -24 0 -25 3 -25 60 0 33 -3 60 -7 60 -42 -1 -52 -13 -55 -64 -3 -44 -6 -51 -25 -54 -21 -3 -23 0 -23 48 0 49 -1 52 -22 46 -13 -3 -26 -6 -30 -6 -4 0 -8 -19 -10 -42 -3 -38 -6 -43 -28 -43 -21 0 -26 5 -28 33 -4 36 -2 35 -36 22 -19 -7 -26 -17 -26 -35 0 -20 -5 -25 -25 -25 -16 0 -25 6 -25 15 0 8 -2 15 -5 15 -13 0 -155 -75 -155 -82 0 -4 288 -8 641 -8 434 0 638 3 634 10 -6 10 -138 80 -150 80 -3 0 -5 -7 -5 -15 0 -9 -9 -15 -25 -15 -20 0 -25 5 -25 25 0 18 -7 28 -26 35 -34 13 -32 14 -36 -22 -2 -28 -7 -33 -28 -33 -22 0 -25 5 -28 41 -2 33 -8 43 -25 48 -36 9 -37 8 -37 -45 0 -47 -2 -50 -22 -47 -20 3 -23 10 -26 54 -3 51 -13 63 -54 64 -5 0 -8 -27 -8 -60 0 -57 -1 -60 -25 -60 -24 0 -25 3 -25 59 0 44 -4 60 -16 65 -37 14 -43 7 -46 -56 -3 -60 -4 -63 -28 -63 -24 0 -25 3 -28 63 -3 63 -10 71 -49 55z"/>
 <path d="M2206 3969 c-33 -38 -33 -49 -1 -49 14 0 25 2 25 4 0 2 7 20 15 40 13 31 13 36 1 36 -8 0 -26 -14 -40 -31z"/>
 <path d="M2297 3960 l-15 -40 24 0 c19 0 29 8 40 35 18 45 18 45 -9 45 -19 0 -28 -9 -40 -40z"/>
 <path d="M2406 3976 c-3 -13 -9 -31 -12 -40 -5 -12 0 -16 19 -16 19 0 28 7 36 31 15 45 14 49 -13 49 -17 0 -26 -7 -30 -24z"/>
 <path d="M2509 3973 c-5 -16 -12 -34 -14 -41 -3 -9 3 -12 22 -10 20 2 29 12 39 41 13 36 12 37 -12 37 -18 0 -27 -8 -35 -27z"/>
 <path d="M2611 3969 c-15 -45 -14 -49 13 -49 17 0 26 7 30 24 3 13 9 31 12 40 5 12 0 16 -19 16 -19 0 -28 -7 -36 -31z"/>
 <path d="M2715 3964 c-19 -46 -19 -44 10 -44 14 0 25 2 25 4 0 2 7 20 15 40 15 36 15 36 -10 36 -19 0 -28 -8 -40 -36z"/>
 <path d="M2821 3969 c-15 -44 -14 -49 10 -49 13 0 25 11 35 35 18 45 18 45 -10 45 -18 0 -27 -8 -35 -31z"/>
 <path d="M2926 3976 c-3 -13 -9 -31 -12 -40 -5 -12 0 -16 19 -16 19 0 28 7 36 31 15 45 14 49 -13 49 -17 0 -26 -7 -30 -24z"/>
 <path d="M3040 3996 c0 -2 -7 -20 -15 -40 l-16 -37 27 3 c21 2 30 11 40 41 13 36 12 37 -12 37 -13 0 -24 -2 -24 -4z"/>
 <path d="M3132 3967 c-16 -45 -16 -47 11 -47 17 0 26 9 35 33 16 45 16 47 -11 47 -17 0 -26 -9 -35 -33z"/>
 <path d="M3239 3973 c-5 -16 -12 -34 -14 -40 -3 -8 5 -13 20 -13 14 0 25 2 25 4 0 2 7 20 15 40 15 36 15 36 -10 36 -19 0 -28 -7 -36 -27z"/>
 <path d="M3341 3969 c-15 -45 -14 -49 13 -49 17 0 26 7 30 24 3 13 9 31 12 40 5 12 0 16 -19 16 -19 0 -28 -7 -36 -31z"/>
 <path d="M3444 3965 c-18 -45 -18 -45 10 -45 18 0 27 8 35 31 15 44 14 49 -10 49 -13 0 -25 -11 -35 -35z"/>
 <path d="M3560 3996 c0 -2 -7 -20 -15 -40 -15 -36 -15 -36 10 -36 19 0 28 8 40 36 19 46 19 44 -10 44 -14 0 -25 -2 -25 -4z"/>
 <path d="M3656 3976 c-3 -13 -9 -31 -12 -40 -5 -12 0 -16 18 -16 18 0 27 8 36 33 16 45 16 47 -12 47 -17 0 -26 -7 -30 -24z"/>
 <path d="M3753 3955 c-11 -33 -10 -35 13 -35 28 0 42 25 27 48 -17 27 -29 23 -40 -13z"/>
 <path d="M2057 3832 c-15 -15 -27 -31 -27 -35 0 -4 437 -7 970 -7 534 0 970 3 970 7 0 4 -12 20 -27 35 l-27 28 -916 0 -916 0 -27 -28z"/>
 <path d="M1558 3632 c-16 -43 -28 -93 -27 -112 0 -29 6 -19 35 59 18 51 34 102 34 112 0 39 -16 17 -42 -59z"/>
 <path d="M2617 3137 c-114 -316 -207 -579 -207 -585 0 -8 33 -12 109 -12 l109 0 10 28 c244 674 312 860 352 972 26 74 51 143 55 153 7 16 -2 17 -107 17 l-114 0 -207 -573z m268 514 c3 -6 -12 -58 -34 -118 -47 -130 -236 -652 -293 -813 -23 -63 -45 -119 -49 -124 -5 -6 -16 -6 -28 0 -18 9 -14 23 80 284 55 151 140 389 191 528 73 202 94 252 109 252 10 0 20 -4 24 -9z m98 -18 c-2 -12 -41 -129 -88 -260 -48 -131 -129 -357 -182 -503 -53 -146 -100 -269 -104 -274 -5 -6 -16 -6 -27 0 -18 8 -7 44 171 537 172 474 193 528 212 525 14 -2 19 -10 18 -25z"/>
 <path d="M3121 3688 c-5 -13 -25 -69 -45 -125 l-37 -102 160 -443 c88 -244 162 -451 166 -460 6 -16 22 -18 116 -18 69 0 109 4 109 10 0 14 -35 112 -215 610 -81 223 -158 438 -172 478 -22 63 -28 72 -49 72 -16 0 -27 -8 -33 -22z m174 -398 c58 -162 138 -382 176 -487 39 -106 68 -197 64 -203 -3 -5 -14 -10 -23 -10 -14 0 -36 51 -100 228 -45 125 -124 344 -176 487 -93 258 -94 260 -73 272 12 6 23 11 24 10 1 -2 50 -135 108 -297z m-127 75 c11 -33 78 -217 147 -409 126 -350 130 -365 89 -366 -10 0 -100 238 -267 709 -39 109 -40 114 -22 127 23 17 27 13 53 -61z"/>
 <path d="M4400 3691 c0 -10 16 -61 34 -112 29 -78 35 -88 35 -59 1 19 -11 69 -26 112 -27 76 -43 98 -43 59z"/>
 <path d="M1558 3403 c-55 -156 -84 -251 -78 -257 5 -5 11 -8 13 -5 2 2 42 112 89 244 77 218 89 265 69 265 -3 0 -45 -111 -93 -247z"/>
 <path d="M4338 3638 c-5 -15 163 -498 173 -498 4 0 9 6 11 13 5 14 -163 497 -173 497 -4 0 -9 -6 -11 -12z"/>
 <path d="M1701 3565 c-11 -26 -63 -170 -142 -395 -11 -30 -18 -61 -17 -69 2 -8 30 62 62 155 32 93 67 183 76 199 24 41 42 101 37 122 -3 14 -7 11 -16 -12z"/>
 <path d="M4277 3578 c-5 -14 24 -94 47 -131 7 -12 40 -98 72 -190 32 -93 60 -164 62 -158 4 11 -6 41 -96 296 -75 210 -75 210 -85 183z"/>
 <path d="M1766 3523 c-11 -11 -6 -23 9 -23 8 0 15 4 15 9 0 13 -16 22 -24 14z"/>
 <path d="M4214 3519 c-3 -6 0 -15 7 -20 23 -14 30 -10 19 11 -12 23 -16 24 -26 9z"/>
 <path d="M1479 3384 c-22 -27 -67 -162 -58 -176 9 -13 8 -15 53 111 28 76 29 93 5 65z"/>
 <path d="M4500 3399 c0 -6 43 -130 59 -174 9 -21 14 -26 20 -16 10 16 -38 154 -62 178 -9 10 -17 15 -17 12z"/>
 <path d="M1617 3072 c-53 -152 -97 -282 -97 -287 0 -6 74 -84 163 -173 l164 -164 11 29 c29 72 192 529 192 538 0 10 -321 335 -330 335 -3 0 -49 -125 -103 -278z m180 145 c14 -13 21 -28 18 -41 -2 -12 -7 -64 -10 -116 l-7 -95 47 45 c26 25 50 54 54 65 8 18 9 18 21 -5 7 -14 21 -31 31 -38 17 -11 11 -19 -61 -89 l-80 -76 0 -153 c0 -85 -2 -154 -5 -154 -2 0 -16 12 -31 27 -27 27 -28 30 -26 133 l2 105 -40 -44 c-22 -24 -40 -50 -40 -57 0 -21 -7 -17 -44 23 -33 36 -33 38 -13 48 11 5 46 39 78 75 l58 66 2 169 c1 131 4 166 13 151 6 -10 21 -28 33 -39z"/>
 <path d="M4112 3187 c-89 -89 -162 -167 -162 -173 0 -9 163 -466 192 -537 l11 -29 164 164 c89 89 163 167 163 173 0 16 -194 565 -200 565 -3 0 -78 -73 -168 -163z m60 -147 c11 -36 23 -68 25 -72 2 -5 21 3 41 17 45 31 72 32 99 3 35 -39 43 -64 43 -135 0 -84 -29 -151 -89 -206 -22 -21 -41 -42 -41 -47 0 -6 -4 -10 -10 -10 -5 0 -10 11 -10 23 0 31 -134 445 -148 459 -8 8 0 23 26 55 l37 44 3 -33 c2 -18 12 -62 24 -98z"/>
 <path d="M4237 2902 c-15 -17 -15 -24 10 -100 15 -45 31 -82 35 -82 20 0 42 56 42 106 0 80 -47 121 -87 76z"/>
 <path d="M2260 2445 l0 -25 235 0 235 0 0 25 0 25 -235 0 -235 0 0 -25z"/>
 <path d="M3270 2445 l0 -25 235 0 235 0 0 25 0 25 -235 0 -235 0 0 -25z"/>
 <path d="M2190 2315 l0 -25 305 0 305 0 0 25 0 25 -305 0 -305 0 0 -25z"/>
 <path d="M3200 2315 l0 -25 305 0 305 0 0 25 0 25 -305 0 -305 0 0 -25z"/>
 <path d="M2037 2196 c12 -16 20 -20 25 -12 15 22 8 36 -17 36 -26 0 -26 0 -8 -24z"/>
 <path d="M2119 2193 c-5 -16 -12 -34 -14 -40 -3 -8 5 -13 20 -13 19 0 28 9 40 36 19 46 20 44 -10 44 -19 0 -28 -7 -36 -27z"/>
 <path d="M2222 2187 c-16 -45 -16 -47 12 -47 18 0 27 8 35 31 15 44 14 49 -12 49 -17 0 -26 -9 -35 -33z"/>
 <path d="M2329 2193 c-5 -16 -12 -34 -14 -41 -3 -9 3 -12 22 -10 20 2 29 12 39 41 13 36 12 37 -12 37 -18 0 -27 -8 -35 -27z"/>
 <path d="M2431 2189 c-15 -45 -14 -49 13 -49 17 0 26 7 30 24 3 13 9 31 12 40 5 12 0 16 -19 16 -19 0 -28 -7 -36 -31z"/>
 <path d="M2534 2185 c-18 -45 -18 -45 9 -45 19 0 28 9 40 40 l15 40 -24 0 c-19 0 -29 -8 -40 -35z"/>
 <path d="M2650 2216 c0 -2 -7 -20 -15 -40 -15 -36 -15 -36 10 -36 19 0 28 8 40 36 19 46 19 44 -10 44 -14 0 -25 -2 -25 -4z"/>
 <path d="M2742 2187 c-16 -45 -16 -47 12 -47 18 0 27 8 35 31 15 44 14 49 -12 49 -17 0 -26 -9 -35 -33z"/>
 <path d="M2849 2193 c-5 -16 -12 -34 -14 -41 -3 -9 3 -12 22 -10 20 2 29 12 39 41 13 36 12 37 -12 37 -18 0 -27 -8 -35 -27z"/>
 <path d="M2951 2189 c-15 -45 -14 -49 13 -49 17 0 26 7 30 24 3 13 9 31 12 40 5 12 0 16 -19 16 -19 0 -28 -7 -36 -31z"/>
 <path d="M3054 2185 c-18 -45 -18 -45 9 -45 19 0 28 9 40 40 l15 40 -24 0 c-19 0 -29 -8 -40 -35z"/>
 <path d="M3157 2180 l-15 -40 24 0 c19 0 29 8 40 35 18 45 18 45 -9 45 -19 0 -28 -9 -40 -40z"/>
 <path d="M3266 2196 c-3 -13 -9 -31 -12 -40 -5 -12 0 -16 19 -16 19 0 28 7 36 31 15 45 14 49 -13 49 -17 0 -26 -7 -30 -24z"/>
 <path d="M3369 2193 c-5 -16 -12 -34 -14 -41 -3 -9 3 -12 22 -10 20 2 29 12 39 41 13 36 12 37 -12 37 -18 0 -27 -8 -35 -27z"/>
 <path d="M3472 2187 c-16 -45 -16 -47 12 -47 17 0 26 7 30 24 3 13 9 31 12 40 5 12 0 16 -18 16 -18 0 -27 -8 -36 -33z"/>
 <path d="M3575 2184 c-19 -46 -19 -44 10 -44 14 0 25 2 25 4 0 2 7 20 15 40 15 36 15 36 -10 36 -19 0 -28 -8 -40 -36z"/>
 <path d="M3681 2189 c-15 -44 -14 -49 10 -49 13 0 25 11 35 35 18 45 18 45 -10 45 -18 0 -27 -8 -35 -31z"/>
 <path d="M3786 2196 c-3 -13 -9 -31 -12 -40 -5 -12 0 -16 19 -16 19 0 28 7 36 31 15 45 14 49 -13 49 -17 0 -26 -7 -30 -24z"/>
 <path d="M3889 2193 c-5 -16 -12 -34 -14 -40 -3 -8 5 -13 20 -13 19 0 28 9 40 36 19 46 20 44 -10 44 -19 0 -28 -7 -36 -27z"/>
 <path d="M2185 2045 l40 -34 775 0 775 0 40 34 40 35 -855 0 -855 0 40 -35z"/>
 <path d="M2430 1886 c63 -33 86 -40 88 -30 2 8 14 14 28 14 19 0 24 -5 24 -24 0 -18 8 -27 30 -35 30 -10 30 -10 30 25 0 33 2 35 28 32 24 -3 27 -8 30 -44 3 -35 7 -43 27 -47 32 -6 35 -2 35 50 0 39 2 43 25 43 24 0 25 -3 25 -54 0 -52 1 -54 30 -58 l30 -5 0 59 c0 55 1 58 25 58 24 0 25 -3 25 -60 0 -60 0 -60 30 -60 28 0 29 1 32 58 3 53 5 57 28 57 23 0 25 -4 28 -57 3 -57 4 -58 32 -58 30 0 30 0 30 60 0 57 1 60 25 60 24 0 25 -3 25 -55 0 -54 0 -55 30 -55 30 0 30 1 30 55 0 52 1 55 25 55 23 0 25 -4 25 -43 0 -52 3 -56 35 -50 20 4 24 12 27 47 3 36 6 41 31 44 25 3 27 1 27 -32 0 -35 0 -35 30 -25 22 8 30 17 30 35 0 19 5 24 24 24 14 0 26 -6 28 -14 2 -10 25 -3 88 30 l85 43 -655 0 -655 0 85 -43z"/>
 <path d="M1290 1541 c0 -5 -9 -13 -20 -16 -28 -9 -25 -21 6 -20 15 0 31 -8 38 -18 17 -28 -17 -47 -86 -47 -90 0 -125 -48 -75 -105 l22 -25 30 24 30 24 -27 -5 c-33 -6 -48 18 -27 43 10 12 25 15 58 11 103 -12 159 58 95 118 -28 26 -44 32 -44 16z"/>
 <path d="M1405 1378 c-55 -30 -125 -121 -125 -162 0 -23 29 -46 58 -46 56 0 162 109 162 166 0 46 -49 68 -95 42z m55 -41 c0 -19 -53 -91 -82 -111 -29 -20 -58 -21 -58 0 0 22 99 124 121 124 11 0 19 -6 19 -13z"/>
 <path d="M1580 1269 c0 -16 -132 -189 -144 -189 -5 0 0 -9 13 -21 12 -12 23 -19 24 -18 18 34 38 63 80 117 l51 65 21 -25 c21 -25 22 -25 34 -6 7 11 11 21 9 22 -2 1 -22 17 -45 35 -24 18 -43 27 -43 20z"/>
 <path d="M1674 1054 l-51 -124 23 -15 c28 -18 34 -19 34 -2 0 7 38 50 85 97 83 82 84 84 63 99 -14 9 -23 11 -25 4 -10 -30 -31 -45 -51 -39 -26 9 -28 24 -7 52 18 24 19 34 1 34 -8 0 -16 4 -18 9 -1 5 -26 -47 -54 -115z m60 -12 c3 -5 -9 -22 -26 -38 -17 -16 -28 -24 -25 -18 4 6 11 23 16 38 10 26 25 34 35 18z"/>
 <path d="M2005 1000 c3 -5 -18 -58 -47 -119 l-53 -110 45 -21 c42 -21 45 -21 57 -3 12 16 11 19 -17 26 -16 4 -30 9 -30 11 0 2 5 17 11 35 12 33 36 41 46 16 4 -12 9 -10 19 11 17 33 17 35 -1 28 -26 -11 -28 24 -3 69 l25 44 -29 11 c-15 5 -26 6 -23 2z"/>
 <path d="M2139 810 c-43 -110 -44 -118 -27 -129 23 -14 24 -14 25 7 1 10 20 64 42 120 23 56 41 104 41 106 0 2 -8 6 -18 8 -14 4 -26 -16 -63 -112z"/>
 <path d="M2280 768 c-18 -62 -37 -118 -42 -125 -7 -8 3 -13 36 -18 57 -9 71 -4 96 37 48 79 46 189 -4 203 -11 4 -28 9 -37 11 -12 3 -23 -19 -49 -108z m86 5 c-7 -54 -42 -123 -61 -123 -20 0 -20 1 11 102 23 74 29 86 42 76 10 -9 13 -24 8 -55z"/>
 <path d="M2504 822 c6 -10 -22 -176 -40 -234 -4 -14 0 -18 20 -18 13 0 36 -4 50 -10 15 -5 26 -6 26 -1 0 5 3 17 7 27 4 12 3 15 -5 10 -7 -4 -22 -4 -33 -1 -17 6 -20 12 -15 38 8 39 12 43 30 28 11 -9 15 -7 18 14 4 20 1 25 -15 25 -17 0 -19 5 -13 31 3 17 6 35 6 40 0 16 49 9 59 -8 9 -15 10 -13 11 13 0 29 -3 32 -39 38 -22 3 -47 9 -57 13 -12 4 -15 3 -10 -5z"/>
 <path d="M4804 1693 c-10 -15 -7 -22 14 -39 23 -19 24 -23 11 -42 -15 -21 -16 -21 -45 -3 -29 17 -31 17 -41 2 -9 -15 6 -25 108 -77 67 -34 119 -55 119 -48 0 6 7 15 16 18 14 5 4 20 -47 74 -36 37 -76 82 -91 100 -31 37 -30 37 -44 15z m112 -151 c-6 -5 -66 27 -66 37 0 21 16 19 42 -6 15 -14 26 -28 24 -31z"/>
 <path d="M4661 1516 c-21 -22 -21 -24 -4 -30 10 -3 55 -41 100 -84 l83 -79 15 23 c9 13 11 24 7 24 -14 0 -166 138 -172 156 -5 12 -10 10 -29 -10z"/>
 <path d="M4548 1398 c-16 -16 -12 -22 63 -95 78 -75 79 -78 59 -93 -19 -15 -19 -16 -1 -27 16 -10 24 -6 59 30 35 36 39 44 28 59 -11 15 -13 15 -25 -5 -12 -19 -15 -19 -25 -5 -7 9 -41 47 -76 85 -61 64 -66 67 -82 51z"/>
 <path d="M4449 1307 c-15 -9 -15 -13 3 -43 l19 -33 -22 -12 c-20 -10 -26 -8 -44 13 -21 25 -22 25 -44 7 -13 -11 -18 -19 -12 -19 12 0 188 -146 193 -160 2 -5 13 0 25 9 l22 18 -62 115 c-52 96 -65 113 -78 105z m56 -137 c9 -16 12 -30 7 -30 -14 0 -53 46 -45 53 12 13 23 7 38 -23z"/>
 <path d="M4281 1177 c-16 -16 -14 -35 10 -68 20 -29 20 -59 0 -59 -6 0 -22 20 -36 44 -24 41 -27 43 -50 32 -13 -6 -20 -13 -14 -14 5 -2 40 -50 77 -106 l68 -102 32 19 c54 32 53 103 -2 128 -14 7 -24 19 -24 28 1 9 -10 37 -24 63 -19 34 -29 43 -37 35z m74 -163 c17 -18 17 -45 -1 -51 -14 -5 -47 44 -39 57 9 14 21 12 40 -6z"/>
 <path d="M4080 1052 c-30 -14 -35 -23 -38 -55 -4 -48 28 -116 74 -157 40 -34 63 -38 92 -12 18 15 18 20 7 46 l-12 29 -7 -27 c-5 -21 -12 -27 -29 -24 -31 4 -87 91 -87 135 0 43 17 40 45 -9 16 -28 23 -33 36 -25 14 9 12 16 -13 63 -16 30 -30 54 -31 54 -1 -1 -18 -9 -37 -18z"/>
 <path d="M3824 932 c-20 -3 -21 -6 -11 -38 11 -38 11 -39 -19 -48 -17 -5 -24 -1 -34 24 -8 20 -18 29 -27 26 -8 -4 -19 -6 -25 -6 -6 0 -4 -8 4 -17 8 -10 41 -62 72 -115 54 -90 59 -96 80 -86 21 9 22 13 14 56 -5 26 -14 83 -21 127 -11 73 -14 80 -33 77z m6 -126 c0 -8 3 -21 6 -30 3 -9 1 -16 -5 -16 -14 0 -34 38 -26 50 9 15 25 12 25 -4z"/>
 <path d="M3587 851 c-31 -11 -44 -20 -38 -26 5 -6 22 -59 38 -120 26 -103 29 -110 51 -107 18 3 22 8 17 20 -4 9 -19 57 -33 105 -21 75 -23 90 -11 98 8 5 22 7 32 5 20 -5 22 4 5 26 -12 14 -17 14 -61 -1z"/>
 <path d="M3364 785 c-31 -47 0 -200 47 -228 31 -19 67 0 80 41 14 47 -2 145 -30 182 -26 36 -75 39 -97 5z m78 -61 c21 -59 20 -129 -2 -129 -20 0 -42 50 -48 107 -9 91 21 105 50 22z"/>
 <path d="M3175 783 c-17 -3 -21 -12 -22 -46 -2 -36 0 -39 9 -22 22 39 51 46 67 16 8 -15 4 -28 -23 -63 -33 -42 -40 -62 -37 -100 2 -26 44 -50 75 -42 22 5 26 11 25 43 0 32 -1 34 -10 13 -6 -17 -15 -22 -31 -20 -35 5 -32 30 7 79 43 54 48 109 13 133 -22 16 -33 17 -73 9z"/>
 <path d="M2487 1562 c5 -20 -81 -318 -99 -339 -7 -9 -6 -14 3 -17 8 -2 41 -13 75 -23 l61 -19 16 29 c21 36 22 54 2 37 -14 -12 -70 -6 -79 9 -7 10 24 111 33 111 5 0 20 -9 34 -20 l25 -20 4 28 c3 15 9 36 13 46 7 16 6 17 -10 9 -19 -11 -55 -6 -55 7 0 23 42 140 53 147 7 4 1 10 -18 14 -17 4 -38 10 -47 14 -13 5 -15 2 -11 -13z"/>
 <path d="M3413 1546 c-60 -18 -70 -24 -62 -38 19 -33 99 -329 93 -340 -5 -7 1 -9 17 -4 13 3 47 12 74 20 35 9 50 18 49 30 0 9 -1 25 -2 36 l-2 20 -20 -20 c-11 -11 -31 -20 -44 -20 -20 0 -26 7 -35 47 -13 50 -3 68 32 57 18 -6 24 11 7 21 -5 3 -10 18 -10 33 0 22 -2 24 -12 10 -30 -37 -45 -29 -62 34 -9 33 -14 63 -11 67 3 3 26 6 51 6 35 0 43 3 38 15 -3 8 -9 23 -11 33 -3 9 -8 16 -12 16 -3 -1 -38 -11 -78 -23z"/>
 <path d="M2784 1493 c9 -27 -31 -342 -45 -359 -9 -11 -6 -14 19 -14 17 0 37 -3 45 -6 11 -4 13 1 10 20 -7 33 27 328 38 341 16 16 10 24 -20 23 -15 -1 -34 3 -41 7 -9 5 -10 2 -6 -12z"/>
 <path d="M3098 1493 c-25 -3 -35 -8 -32 -17 7 -20 -35 -348 -47 -362 -7 -9 -1 -12 29 -11 l39 2 7 112 c11 178 17 184 49 51 15 -64 27 -126 27 -138 0 -16 4 -20 16 -16 9 3 25 6 35 6 12 0 17 5 14 10 -14 22 -93 343 -88 356 3 8 1 13 -3 12 -5 -1 -26 -3 -46 -5z"/>
 </g>
<g id="layer103" fill="#fcfcfb" stroke="none">
 <path d="M2944 5469 c-26 -29 -32 -150 -10 -202 13 -33 19 -37 50 -37 48 0 66 35 66 130 0 69 -11 107 -34 122 -21 14 -53 8 -72 -13z m68 -59 c9 -40 1 -119 -14 -138 -8 -9 -14 -9 -24 -1 -15 12 -20 132 -8 164 11 27 38 12 46 -25z"/>
 <path d="M2747 5473 c-18 -3 -27 -9 -24 -17 3 -7 8 -63 12 -124 l8 -112 32 0 c46 0 65 9 65 31 0 15 -4 17 -24 9 -30 -11 -36 -5 -36 37 0 31 2 34 22 28 17 -6 20 -4 15 10 -4 9 -7 20 -7 25 0 4 -9 6 -20 3 -16 -4 -20 0 -20 20 0 14 -3 32 -6 40 -7 18 35 30 53 15 14 -12 17 -1 7 26 -6 16 -20 17 -77 9z"/>
 <path d="M3303 5455 c-58 -41 -66 -222 -10 -242 45 -16 64 -6 66 35 1 10 -3 10 -20 0 -33 -21 -52 13 -46 80 9 90 62 145 55 57 -2 -25 0 -45 4 -45 3 0 12 -2 20 -5 9 -4 14 6 15 32 1 20 4 47 7 59 4 16 -1 24 -20 32 -33 16 -45 15 -71 -3z"/>
 <path d="M2512 5443 c-17 -3 -22 -9 -17 -21 14 -35 44 -225 38 -235 -4 -7 0 -8 11 -4 10 4 26 7 37 7 38 0 59 35 59 99 0 67 -12 106 -42 139 -21 21 -37 24 -86 15z m72 -60 c18 -36 29 -107 21 -133 -13 -40 -32 -21 -44 43 -6 34 -14 74 -17 90 -4 20 -2 27 10 27 8 0 22 -12 30 -27z"/>
 <path d="M3486 5346 c-9 -50 -23 -107 -30 -127 -13 -37 -13 -37 14 -41 23 -3 28 0 27 16 -2 39 36 188 49 193 7 2 22 0 33 -7 19 -9 21 -8 21 13 0 20 -7 25 -48 33 l-48 10 -18 -90z"/>
 <path d="M2239 5368 c-15 -10 -13 -22 21 -122 20 -61 35 -118 32 -126 -4 -12 -2 -13 9 -2 7 6 22 12 34 12 12 0 15 3 9 8 -14 9 -85 222 -78 233 7 12 -8 10 -27 -3z"/>
 <path d="M3686 5355 c-27 -30 -56 -113 -56 -165 0 -70 59 -93 104 -40 27 32 56 115 56 160 0 65 -61 91 -104 45z m62 -58 c-7 -57 -43 -137 -62 -137 -21 0 -21 53 -1 110 18 51 32 70 53 70 11 0 14 -9 10 -43z"/>
 <path d="M2080 5312 c-19 -9 -37 -17 -39 -19 -2 -1 18 -52 43 -113 25 -62 43 -116 40 -121 -7 -12 -1 -11 29 4 21 11 23 15 12 31 -8 10 -28 54 -46 98 -26 66 -30 82 -18 89 8 5 22 7 32 5 20 -5 21 3 3 27 -16 20 -12 20 -56 -1z"/>
 <path d="M3904 5312 c3 -5 -16 -58 -43 -119 l-48 -111 28 -16 c57 -34 109 -5 109 59 0 22 6 38 14 41 8 3 21 23 30 44 8 21 20 41 27 45 8 6 8 10 -2 15 -20 13 -39 0 -60 -41 -11 -22 -26 -39 -34 -39 -19 0 -19 5 1 57 9 24 22 43 28 43 6 0 -2 7 -18 15 -32 17 -39 19 -32 7z m11 -173 c8 -24 -15 -53 -37 -47 -13 3 -13 8 -1 36 15 37 29 41 38 11z"/>
 <path d="M1862 5218 c-32 -32 0 -146 58 -208 33 -35 62 -38 91 -9 24 24 20 67 -13 134 -41 81 -101 118 -136 83z m82 -71 c39 -66 51 -106 36 -120 -9 -9 -18 -4 -40 22 -30 36 -64 117 -54 132 12 20 35 7 58 -34z"/>
 <path d="M4113 5223 c3 -5 -20 -59 -52 -120 l-57 -112 23 -10 c18 -8 23 -8 23 3 0 8 25 60 55 117 30 56 54 103 52 103 -1 1 -13 7 -26 14 -12 8 -21 10 -18 5z"/>
 <path d="M4240 5142 c0 -17 -60 -179 -80 -214 -7 -12 -3 -20 17 -33 25 -17 26 -16 36 1 11 19 142 163 162 176 6 5 3 8 -7 8 -9 0 -18 6 -20 12 -3 8 -14 3 -29 -15 -17 -20 -29 -26 -42 -21 -18 6 -18 23 -2 66 3 7 -4 19 -15 26 -17 10 -20 10 -20 -6z m24 -120 c3 -5 -9 -22 -26 -38 -17 -16 -28 -24 -25 -18 4 6 11 23 16 38 10 26 25 34 35 18z"/>
 <path d="M1673 5107 l-31 -22 19 -38 c23 -43 28 -46 21 -12 -8 46 37 74 58 35 7 -14 7 -33 -1 -65 -14 -56 -6 -90 27 -112 24 -16 28 -15 60 2 19 10 32 23 29 29 -3 6 -8 19 -11 29 -8 21 -22 22 -20 1 2 -23 -30 -42 -45 -27 -9 9 -10 27 -2 70 12 69 2 106 -33 122 -33 15 -35 14 -71 -12z"/>
 <path d="M2952 4877 c12 -23 0 -337 -14 -354 -6 -8 3 -11 34 -11 l43 1 -3 164 -3 163 40 0 c22 0 41 -5 44 -12 9 -25 15 -2 8 32 l-6 35 -77 0 c-70 0 -75 -1 -66 -18z"/>
 <path d="M3293 4702 c-2 -97 -5 -187 -8 -199 -5 -19 -1 -23 20 -23 15 0 35 -5 46 -10 16 -9 19 -7 19 10 0 25 118 308 138 333 14 15 13 17 -7 17 -12 0 -31 5 -41 10 -15 8 -18 7 -14 -3 2 -7 -2 -30 -11 -51 -14 -33 -19 -37 -48 -34 -32 3 -32 4 -32 56 0 42 -3 52 -17 52 -9 0 -20 5 -23 10 -16 26 -20 -3 -22 -168z m97 -2 c4 0 -4 -30 -18 -67 l-27 -68 -3 59 c-4 70 2 90 24 82 9 -3 19 -6 24 -6z"/>
 <path d="M2588 4839 l-31 -30 5 -94 c4 -78 10 -104 34 -152 16 -31 41 -66 55 -76 23 -17 32 -18 62 -8 54 18 74 81 57 186 -28 174 -107 250 -182 174z m91 -64 c38 -78 53 -213 26 -235 -34 -28 -75 49 -90 173 -11 90 31 131 64 62z"/>
 <path d="M2245 4745 c-50 -23 -69 -43 -58 -57 6 -7 13 -29 17 -49 4 -21 13 -43 22 -49 13 -11 13 -10 5 13 -11 29 -6 52 17 80 21 24 49 21 68 -8 15 -23 14 -29 -11 -104 -20 -58 -26 -90 -21 -115 13 -66 85 -96 144 -59 15 9 28 17 29 18 4 2 -23 84 -30 91 -4 4 -7 -4 -7 -18 0 -34 -35 -66 -58 -52 -25 16 -26 63 -2 118 38 89 20 174 -41 195 -39 13 -37 13 -74 -4z"/>
 <path d="M3710 4744 c0 -23 -131 -308 -148 -321 -13 -11 -11 -14 14 -23 16 -6 49 -21 74 -34 l45 -23 18 35 c15 29 15 34 3 29 -19 -7 -76 11 -76 24 0 17 40 89 49 89 5 0 16 -7 25 -15 19 -19 26 -19 26 0 0 9 8 27 17 42 17 25 17 26 -3 15 -16 -8 -25 -8 -36 1 -14 11 -13 18 8 65 21 47 27 52 47 47 12 -4 32 -18 45 -31 l22 -25 0 25 c0 14 5 28 10 31 14 9 12 25 -2 25 -7 0 -41 13 -75 30 -49 23 -63 26 -63 14z"/>
 <path d="M4876 4576 l-28 -24 26 5 c31 6 45 -19 25 -43 -10 -12 -24 -14 -69 -9 -48 6 -59 3 -83 -15 -39 -31 -38 -81 3 -110 17 -12 30 -17 30 -11 0 6 6 11 13 11 8 0 22 10 33 21 19 22 19 22 -4 10 -43 -23 -87 12 -56 44 11 11 33 14 80 12 59 -2 68 1 85 22 25 31 24 54 -3 85 l-23 25 -29 -23z"/>
 <path d="M1060 4558 c-25 -28 -25 -40 1 -64 21 -19 21 -19 18 5 -5 28 24 52 41 35 6 -6 15 -37 20 -70 11 -67 34 -94 81 -94 22 0 34 8 48 32 19 29 19 32 3 54 -9 12 -25 27 -35 33 -17 11 -17 10 -2 -13 20 -30 12 -66 -14 -66 -26 0 -38 19 -46 73 -13 87 -69 124 -115 75z"/>
 <path d="M5020 4442 c0 -6 -35 -35 -77 -63 -91 -60 -103 -73 -103 -111 0 -35 39 -63 72 -52 12 3 59 31 105 61 70 47 80 58 71 72 -10 16 -19 12 -96 -41 -90 -61 -106 -67 -116 -43 -6 15 17 35 116 100 52 34 56 39 46 59 -14 28 -18 32 -18 18z"/>
 <path d="M932 4388 c-37 -37 16 -120 102 -159 58 -26 92 -24 113 7 16 24 16 28 -1 58 -24 46 -119 106 -165 106 -21 0 -42 -5 -49 -12z m105 -48 c73 -42 105 -90 61 -90 -44 0 -138 69 -138 102 0 25 17 23 77 -12z"/>
 <path d="M2923 4253 c-9 -3 -13 -26 -13 -64 0 -56 -1 -59 -25 -59 -24 0 -25 3 -25 60 0 33 -3 60 -7 60 -42 -1 -52 -13 -55 -64 -3 -44 -6 -51 -25 -54 -21 -3 -23 0 -23 48 0 49 -1 52 -22 46 -13 -3 -26 -6 -30 -6 -4 0 -8 -19 -10 -42 -3 -38 -6 -43 -28 -43 -21 0 -26 5 -28 33 -4 36 -2 35 -36 22 -19 -7 -26 -17 -26 -35 0 -20 -5 -25 -25 -25 -16 0 -25 6 -25 15 0 8 -2 15 -5 15 -13 0 -155 -75 -155 -82 0 -4 288 -8 641 -8 434 0 638 3 634 10 -6 10 -138 80 -150 80 -3 0 -5 -7 -5 -15 0 -9 -9 -15 -25 -15 -20 0 -25 5 -25 25 0 18 -7 28 -26 35 -34 13 -32 14 -36 -22 -2 -28 -7 -33 -28 -33 -22 0 -25 5 -28 41 -2 33 -8 43 -25 48 -36 9 -37 8 -37 -45 0 -47 -2 -50 -22 -47 -20 3 -23 10 -26 54 -3 51 -13 63 -54 64 -5 0 -8 -27 -8 -60 0 -57 -1 -60 -25 -60 -24 0 -25 3 -25 59 0 44 -4 60 -16 65 -37 14 -43 7 -46 -56 -3 -60 -4 -63 -28 -63 -24 0 -25 3 -28 63 -3 63 -10 71 -49 55z"/>
 <path d="M5127 4243 c-17 -4 -17 -6 -3 -22 20 -22 19 -24 -94 -83 -79 -41 -84 -46 -74 -66 6 -13 14 -18 20 -12 21 20 176 100 185 95 5 -4 9 -13 9 -21 0 -11 4 -12 19 -2 19 11 18 13 -7 64 -15 29 -29 53 -32 52 -3 0 -13 -2 -23 -5z"/>
 <path d="M828 4212 c-5 -16 9 -27 71 -60 42 -23 85 -48 96 -56 19 -13 19 -15 2 -33 -22 -25 -21 -30 3 -36 15 -4 24 4 40 34 11 22 20 41 20 44 0 3 -188 107 -221 123 -4 2 -9 -6 -11 -16z"/>
 <path d="M5222 4042 l-22 -3 21 -18 c26 -21 20 -51 -9 -51 -11 0 -36 7 -55 15 -48 20 -80 19 -107 -3 -27 -22 -29 -62 -5 -98 12 -19 20 -23 28 -15 6 6 21 11 34 11 13 0 23 4 23 10 0 5 -6 7 -13 4 -8 -3 -24 4 -38 14 -20 17 -21 22 -10 36 17 20 38 20 84 1 20 -8 47 -15 60 -15 26 0 67 38 67 62 0 26 -33 55 -58 50z"/>
 <path d="M724 4002 c-9 -26 -6 -29 91 -95 55 -38 102 -72 105 -77 3 -5 10 2 16 15 10 21 8 25 -17 36 -30 12 -35 24 -19 49 7 12 15 13 38 4 25 -9 31 -8 40 7 16 24 15 24 -9 26 -36 3 -214 46 -225 54 -6 5 -14 -2 -20 -19z m138 -48 c4 -3 5 -11 2 -19 -6 -16 -22 -10 -59 20 -19 15 -18 16 15 9 19 -3 38 -8 42 -10z"/>
 <path d="M2206 3969 c-33 -38 -33 -49 -1 -49 14 0 25 2 25 4 0 2 7 20 15 40 13 31 13 36 1 36 -8 0 -26 -14 -40 -31z"/>
 <path d="M2297 3960 l-15 -40 24 0 c19 0 29 8 40 35 18 45 18 45 -9 45 -19 0 -28 -9 -40 -40z"/>
 <path d="M2406 3976 c-3 -13 -9 -31 -12 -40 -5 -12 0 -16 19 -16 19 0 28 7 36 31 15 45 14 49 -13 49 -17 0 -26 -7 -30 -24z"/>
 <path d="M2509 3973 c-5 -16 -12 -34 -14 -41 -3 -9 3 -12 22 -10 20 2 29 12 39 41 13 36 12 37 -12 37 -18 0 -27 -8 -35 -27z"/>
 <path d="M2611 3969 c-15 -45 -14 -49 13 -49 17 0 26 7 30 24 3 13 9 31 12 40 5 12 0 16 -19 16 -19 0 -28 -7 -36 -31z"/>
 <path d="M2715 3964 c-19 -46 -19 -44 10 -44 14 0 25 2 25 4 0 2 7 20 15 40 15 36 15 36 -10 36 -19 0 -28 -8 -40 -36z"/>
 <path d="M2821 3969 c-15 -44 -14 -49 10 -49 13 0 25 11 35 35 18 45 18 45 -10 45 -18 0 -27 -8 -35 -31z"/>
 <path d="M2926 3976 c-3 -13 -9 -31 -12 -40 -5 -12 0 -16 19 -16 19 0 28 7 36 31 15 45 14 49 -13 49 -17 0 -26 -7 -30 -24z"/>
 <path d="M3040 3996 c0 -2 -7 -20 -15 -40 l-16 -37 27 3 c21 2 30 11 40 41 13 36 12 37 -12 37 -13 0 -24 -2 -24 -4z"/>
 <path d="M3132 3967 c-16 -45 -16 -47 11 -47 17 0 26 9 35 33 16 45 16 47 -11 47 -17 0 -26 -9 -35 -33z"/>
 <path d="M3239 3973 c-5 -16 -12 -34 -14 -40 -3 -8 5 -13 20 -13 14 0 25 2 25 4 0 2 7 20 15 40 15 36 15 36 -10 36 -19 0 -28 -7 -36 -27z"/>
 <path d="M3341 3969 c-15 -45 -14 -49 13 -49 17 0 26 7 30 24 3 13 9 31 12 40 5 12 0 16 -19 16 -19 0 -28 -7 -36 -31z"/>
 <path d="M3444 3965 c-18 -45 -18 -45 10 -45 18 0 27 8 35 31 15 44 14 49 -10 49 -13 0 -25 -11 -35 -35z"/>
 <path d="M3560 3996 c0 -2 -7 -20 -15 -40 -15 -36 -15 -36 10 -36 19 0 28 8 40 36 19 46 19 44 -10 44 -14 0 -25 -2 -25 -4z"/>
 <path d="M3656 3976 c-3 -13 -9 -31 -12 -40 -5 -12 0 -16 18 -16 18 0 27 8 36 33 16 45 16 47 -12 47 -17 0 -26 -7 -30 -24z"/>
 <path d="M3753 3955 c-11 -33 -10 -35 13 -35 28 0 42 25 27 48 -17 27 -29 23 -40 -13z"/>
 <path d="M5317 3863 c-4 -6 -55 -27 -114 -48 -59 -21 -109 -38 -110 -39 -1 -1 0 -11 3 -23 5 -19 8 -20 34 -7 15 8 70 29 123 47 93 32 95 33 82 56 -6 13 -15 19 -18 14z"/>
 <path d="M2057 3832 c-15 -15 -27 -31 -27 -35 0 -4 437 -7 970 -7 534 0 970 3 970 7 0 4 -12 20 -27 35 l-27 28 -916 0 -916 0 -27 -28z"/>
 <path d="M617 3692 c-23 -25 -21 -59 2 -72 30 -15 45 -12 27 6 -12 12 -13 20 -5 35 15 28 29 20 67 -37 39 -57 81 -80 115 -63 30 16 37 28 37 64 0 26 -5 33 -33 43 -48 17 -53 15 -23 -9 29 -23 33 -41 12 -58 -20 -17 -51 1 -71 40 -35 67 -93 90 -128 51z"/>
 <path d="M1558 3632 c-16 -43 -28 -93 -27 -112 0 -29 6 -19 35 59 18 51 34 102 34 112 0 39 -16 17 -42 -59z"/>
 <path d="M2617 3137 c-114 -316 -207 -579 -207 -585 0 -8 33 -12 109 -12 l109 0 10 28 c244 674 312 860 352 972 26 74 51 143 55 153 7 16 -2 17 -107 17 l-114 0 -207 -573z m268 514 c3 -6 -12 -58 -34 -118 -47 -130 -236 -652 -293 -813 -23 -63 -45 -119 -49 -124 -5 -6 -16 -6 -28 0 -18 9 -14 23 80 284 55 151 140 389 191 528 73 202 94 252 109 252 10 0 20 -4 24 -9z m98 -18 c-2 -12 -41 -129 -88 -260 -48 -131 -129 -357 -182 -503 -53 -146 -100 -269 -104 -274 -5 -6 -16 -6 -27 0 -18 8 -7 44 171 537 172 474 193 528 212 525 14 -2 19 -10 18 -25z"/>
 <path d="M3121 3688 c-5 -13 -25 -69 -45 -125 l-37 -102 160 -443 c88 -244 162 -451 166 -460 6 -16 22 -18 116 -18 69 0 109 4 109 10 0 14 -35 112 -215 610 -81 223 -158 438 -172 478 -22 63 -28 72 -49 72 -16 0 -27 -8 -33 -22z m174 -398 c58 -162 138 -382 176 -487 39 -106 68 -197 64 -203 -3 -5 -14 -10 -23 -10 -14 0 -36 51 -100 228 -45 125 -124 344 -176 487 -93 258 -94 260 -73 272 12 6 23 11 24 10 1 -2 50 -135 108 -297z m-127 75 c11 -33 78 -217 147 -409 126 -350 130 -365 89 -366 -10 0 -100 238 -267 709 -39 109 -40 114 -22 127 23 17 27 13 53 -61z"/>
 <path d="M4400 3691 c0 -10 16 -61 34 -112 29 -78 35 -88 35 -59 1 19 -11 69 -26 112 -27 76 -43 98 -43 59z"/>
 <path d="M5282 3683 c-12 -13 -37 -19 -82 -21 -73 -2 -80 -6 -58 -29 13 -13 24 -14 55 -6 43 11 63 7 63 -12 0 -8 -21 -18 -53 -26 -48 -10 -53 -14 -50 -34 5 -22 5 -22 56 -5 29 9 84 25 124 35 l72 19 -6 30 c-8 45 -31 66 -70 66 -18 0 -41 -8 -51 -17z m78 -28 c16 -20 11 -24 -34 -32 -41 -7 -48 8 -14 31 28 20 32 20 48 1z"/>
 <path d="M1558 3403 c-55 -156 -84 -251 -78 -257 5 -5 11 -8 13 -5 2 2 42 112 89 244 77 218 89 265 69 265 -3 0 -45 -111 -93 -247z"/>
 <path d="M4338 3638 c-5 -15 163 -498 173 -498 4 0 9 6 11 13 5 14 -163 497 -173 497 -4 0 -9 -6 -11 -12z"/>
 <path d="M1701 3565 c-11 -26 -63 -170 -142 -395 -11 -30 -18 -61 -17 -69 2 -8 30 62 62 155 32 93 67 183 76 199 24 41 42 101 37 122 -3 14 -7 11 -16 -12z"/>
 <path d="M4277 3578 c-5 -14 24 -94 47 -131 7 -12 40 -98 72 -190 32 -93 60 -164 62 -158 4 11 -6 41 -96 296 -75 210 -75 210 -85 183z"/>
 <path d="M1766 3523 c-11 -11 -6 -23 9 -23 8 0 15 4 15 9 0 13 -16 22 -24 14z"/>
 <path d="M4214 3519 c-3 -6 0 -15 7 -20 23 -14 30 -10 19 11 -12 23 -16 24 -26 9z"/>
 <path d="M608 3502 c-15 -2 -35 -13 -43 -25 -16 -22 -21 -67 -7 -67 4 0 18 -3 30 -7 22 -5 23 -4 11 15 -11 17 -10 23 1 37 11 14 24 16 64 10 99 -13 143 -63 74 -84 -32 -10 -32 -10 11 -8 51 2 67 20 57 61 -11 44 -114 79 -198 68z"/>
 <path d="M5424 3491 c-14 -12 -222 -44 -235 -35 -9 5 -10 2 -6 -10 4 -10 7 -23 7 -31 0 -10 10 -10 56 1 53 12 55 12 63 -9 7 -18 4 -23 -18 -29 -14 -4 -40 -9 -58 -10 -28 -2 -31 -5 -31 -30 1 -19 5 -25 12 -19 6 5 63 17 126 27 63 10 116 18 117 19 1 0 0 10 -3 22 -5 18 -10 20 -37 12 -48 -14 -64 -11 -70 11 -7 25 0 29 56 32 44 3 46 4 40 28 -7 31 -7 31 -19 21z"/>
 <path d="M1479 3384 c-22 -27 -67 -162 -58 -176 9 -13 8 -15 53 111 28 76 29 93 5 65z"/>
 <path d="M4500 3399 c0 -6 43 -130 59 -174 9 -21 14 -26 20 -16 10 16 -38 154 -62 178 -9 10 -17 15 -17 12z"/>
 <path d="M1617 3072 c-53 -152 -97 -282 -97 -287 0 -6 74 -84 163 -173 l164 -164 11 29 c29 72 192 529 192 538 0 10 -321 335 -330 335 -3 0 -49 -125 -103 -278z m180 145 c14 -13 21 -28 18 -41 -2 -12 -7 -64 -10 -116 l-7 -95 47 45 c26 25 50 54 54 65 8 18 9 18 21 -5 7 -14 21 -31 31 -38 17 -11 11 -19 -61 -89 l-80 -76 0 -153 c0 -85 -2 -154 -5 -154 -2 0 -16 12 -31 27 -27 27 -28 30 -26 133 l2 105 -40 -44 c-22 -24 -40 -50 -40 -57 0 -21 -7 -17 -44 23 -33 36 -33 38 -13 48 11 5 46 39 78 75 l58 66 2 169 c1 131 4 166 13 151 6 -10 21 -28 33 -39z"/>
 <path d="M4112 3187 c-89 -89 -162 -167 -162 -173 0 -9 163 -466 192 -537 l11 -29 164 164 c89 89 163 167 163 173 0 16 -194 565 -200 565 -3 0 -78 -73 -168 -163z m60 -147 c11 -36 23 -68 25 -72 2 -5 21 3 41 17 45 31 72 32 99 3 35 -39 43 -64 43 -135 0 -84 -29 -151 -89 -206 -22 -21 -41 -42 -41 -47 0 -6 -4 -10 -10 -10 -5 0 -10 11 -10 23 0 31 -134 445 -148 459 -8 8 0 23 26 55 l37 44 3 -33 c2 -18 12 -62 24 -98z"/>
 <path d="M4237 2902 c-15 -17 -15 -24 10 -100 15 -45 31 -82 35 -82 20 0 42 56 42 106 0 80 -47 121 -87 76z"/>
 <path d="M532 3265 c3 -53 6 -61 30 -75 21 -11 33 -12 56 -4 22 9 33 8 47 -2 10 -8 35 -14 55 -14 20 0 42 -6 49 -12 10 -11 12 -8 9 12 -3 24 -16 32 -80 45 -16 3 -28 12 -28 20 0 17 54 21 93 6 22 -9 24 -7 25 20 0 16 -3 27 -8 24 -13 -8 -224 16 -238 28 -11 8 -13 -1 -10 -48z m108 -14 c0 -18 -30 -33 -55 -27 -42 11 -31 36 15 36 22 0 40 -4 40 -9z"/>
 <path d="M5420 3249 c0 -5 5 -9 11 -9 6 0 9 -10 7 -22 -2 -17 -14 -27 -43 -36 -94 -32 -191 16 -114 55 l24 13 -23 0 c-64 0 -87 -63 -35 -97 56 -37 213 -11 228 37 11 36 -1 65 -30 66 -14 1 -25 -2 -25 -7z"/>
 <path d="M513 3061 c0 -27 1 -27 56 -23 31 2 89 -1 129 -5 l72 -9 0 25 0 26 -109 -3 c-62 -2 -118 1 -129 7 -16 9 -19 6 -19 -18z"/>
 <path d="M690 2928 c-41 -5 -98 -7 -126 -6 l-51 3 4 -45 c6 -52 31 -80 75 -80 34 0 78 39 78 70 0 20 4 22 55 18 53 -3 54 -3 48 22 -3 14 -6 25 -7 25 -1 1 -35 -3 -76 -7z m-62 -60 c-3 -26 -41 -36 -64 -18 -22 19 -17 28 19 33 17 2 36 5 40 5 5 1 7 -8 5 -20z"/>
 <path d="M5236 2921 c-11 -13 -16 -31 -14 -53 3 -34 19 -45 68 -47 l25 -1 -25 13 c-16 8 -26 23 -28 40 -3 23 0 27 20 27 14 0 37 -13 54 -31 46 -49 79 -62 112 -47 21 10 28 21 30 49 3 31 -1 37 -20 43 -35 9 -56 6 -30 -4 25 -11 30 -48 7 -56 -10 -4 -34 11 -65 40 -56 52 -103 62 -134 27z"/>
 <path d="M5220 2720 c-25 -25 -26 -62 -2 -83 11 -10 57 -22 115 -31 53 -8 101 -17 107 -21 5 -3 10 0 10 9 0 8 3 22 7 32 4 12 3 15 -6 10 -13 -8 -182 12 -201 24 -20 12 -3 40 22 39 13 0 59 -6 103 -13 44 -8 81 -13 81 -12 7 7 14 47 8 43 -5 -2 -49 1 -99 9 -117 18 -121 18 -145 -6z"/>
 <path d="M544 2712 c-7 -4 -10 -28 -6 -63 4 -52 6 -57 28 -55 19 1 22 5 17 24 -3 12 -1 22 3 22 5 0 49 7 99 14 49 7 96 11 104 8 10 -4 13 -1 8 12 -4 10 -7 25 -7 33 0 11 -4 13 -12 6 -11 -9 -157 -33 -195 -33 -7 0 -13 9 -13 20 0 21 -8 25 -26 12z"/>
 <path d="M5176 2521 c-3 -21 -9 -46 -12 -55 -4 -11 -2 -15 7 -11 8 3 64 -7 125 -23 l111 -27 11 23 c9 19 7 22 -10 22 -11 0 -60 9 -109 21 -69 16 -89 24 -89 38 0 9 5 22 12 29 8 8 9 12 1 12 -6 0 -18 2 -26 6 -10 4 -16 -6 -21 -35z"/>
 <path d="M655 2520 c-43 -10 -84 -16 -89 -13 -5 4 -7 -1 -3 -11 4 -10 7 -24 7 -32 0 -10 4 -12 13 -7 6 4 53 18 102 29 76 18 92 19 105 8 22 -22 3 -32 -105 -56 -89 -21 -100 -25 -97 -44 3 -20 4 -20 110 8 115 30 148 52 136 92 -16 52 -45 57 -179 26z"/>
 <path d="M2260 2445 l0 -25 235 0 235 0 0 25 0 25 -235 0 -235 0 0 -25z"/>
 <path d="M3270 2445 l0 -25 235 0 235 0 0 25 0 25 -235 0 -235 0 0 -25z"/>
 <path d="M855 2351 c-17 -17 -216 -81 -228 -74 -7 4 -8 0 -2 -13 4 -10 10 -29 13 -42 11 -51 77 -68 116 -29 13 13 36 23 57 24 65 3 98 14 92 30 -5 12 -17 13 -63 8 -95 -11 -86 26 9 41 29 5 39 10 32 18 -5 6 -10 19 -12 29 -3 13 -7 15 -14 8z m-110 -100 c8 -15 -25 -42 -48 -39 -29 4 -33 26 -5 37 30 13 46 13 53 2z"/>
 <path d="M5143 2350 c-54 -22 -31 -88 43 -125 48 -23 148 -33 169 -15 23 19 18 63 -9 89 -23 22 -131 62 -164 60 -10 0 -27 -4 -39 -9z m144 -60 c43 -19 56 -43 29 -53 -29 -11 -145 27 -161 53 -22 36 51 36 132 0z"/>
 <path d="M2190 2315 l0 -25 305 0 305 0 0 25 0 25 -305 0 -305 0 0 -25z"/>
 <path d="M3200 2315 l0 -25 305 0 305 0 0 25 0 25 -305 0 -305 0 0 -25z"/>
 <path d="M2037 2196 c12 -16 20 -20 25 -12 15 22 8 36 -17 36 -26 0 -26 0 -8 -24z"/>
 <path d="M2119 2193 c-5 -16 -12 -34 -14 -40 -3 -8 5 -13 20 -13 19 0 28 9 40 36 19 46 20 44 -10 44 -19 0 -28 -7 -36 -27z"/>
 <path d="M2222 2187 c-16 -45 -16 -47 12 -47 18 0 27 8 35 31 15 44 14 49 -12 49 -17 0 -26 -9 -35 -33z"/>
 <path d="M2329 2193 c-5 -16 -12 -34 -14 -41 -3 -9 3 -12 22 -10 20 2 29 12 39 41 13 36 12 37 -12 37 -18 0 -27 -8 -35 -27z"/>
 <path d="M2431 2189 c-15 -45 -14 -49 13 -49 17 0 26 7 30 24 3 13 9 31 12 40 5 12 0 16 -19 16 -19 0 -28 -7 -36 -31z"/>
 <path d="M2534 2185 c-18 -45 -18 -45 9 -45 19 0 28 9 40 40 l15 40 -24 0 c-19 0 -29 -8 -40 -35z"/>
 <path d="M2650 2216 c0 -2 -7 -20 -15 -40 -15 -36 -15 -36 10 -36 19 0 28 8 40 36 19 46 19 44 -10 44 -14 0 -25 -2 -25 -4z"/>
 <path d="M2742 2187 c-16 -45 -16 -47 12 -47 18 0 27 8 35 31 15 44 14 49 -12 49 -17 0 -26 -9 -35 -33z"/>
 <path d="M2849 2193 c-5 -16 -12 -34 -14 -41 -3 -9 3 -12 22 -10 20 2 29 12 39 41 13 36 12 37 -12 37 -18 0 -27 -8 -35 -27z"/>
 <path d="M2951 2189 c-15 -45 -14 -49 13 -49 17 0 26 7 30 24 3 13 9 31 12 40 5 12 0 16 -19 16 -19 0 -28 -7 -36 -31z"/>
 <path d="M3054 2185 c-18 -45 -18 -45 9 -45 19 0 28 9 40 40 l15 40 -24 0 c-19 0 -29 -8 -40 -35z"/>
 <path d="M3157 2180 l-15 -40 24 0 c19 0 29 8 40 35 18 45 18 45 -9 45 -19 0 -28 -9 -40 -40z"/>
 <path d="M3266 2196 c-3 -13 -9 -31 -12 -40 -5 -12 0 -16 19 -16 19 0 28 7 36 31 15 45 14 49 -13 49 -17 0 -26 -7 -30 -24z"/>
 <path d="M3369 2193 c-5 -16 -12 -34 -14 -41 -3 -9 3 -12 22 -10 20 2 29 12 39 41 13 36 12 37 -12 37 -18 0 -27 -8 -35 -27z"/>
 <path d="M3472 2187 c-16 -45 -16 -47 12 -47 17 0 26 7 30 24 3 13 9 31 12 40 5 12 0 16 -18 16 -18 0 -27 -8 -36 -33z"/>
 <path d="M3575 2184 c-19 -46 -19 -44 10 -44 14 0 25 2 25 4 0 2 7 20 15 40 15 36 15 36 -10 36 -19 0 -28 -8 -40 -36z"/>
 <path d="M3681 2189 c-15 -44 -14 -49 10 -49 13 0 25 11 35 35 18 45 18 45 -10 45 -18 0 -27 -8 -35 -31z"/>
 <path d="M3786 2196 c-3 -13 -9 -31 -12 -40 -5 -12 0 -16 19 -16 19 0 28 7 36 31 15 45 14 49 -13 49 -17 0 -26 -7 -30 -24z"/>
 <path d="M3889 2193 c-5 -16 -12 -34 -14 -40 -3 -8 5 -13 20 -13 19 0 28 9 40 36 19 46 20 44 -10 44 -19 0 -28 -7 -36 -27z"/>
 <path d="M912 2157 c-7 -7 -52 -41 -102 -73 -80 -53 -89 -62 -84 -84 3 -14 6 -25 7 -26 5 -4 257 61 257 66 -1 22 -18 30 -46 20 -24 -9 -31 -8 -41 6 -19 25 -17 31 17 46 34 15 35 17 17 42 -11 15 -15 16 -25 3z m-42 -101 c0 -16 -21 -26 -53 -26 -20 0 -19 2 8 20 36 24 45 25 45 6z"/>
 <path d="M5061 2156 c-7 -8 -16 -27 -20 -44 -8 -25 -5 -31 19 -46 38 -22 43 -20 24 10 -15 23 -16 27 -2 41 25 24 54 7 72 -41 30 -77 80 -103 121 -62 32 32 32 49 0 70 -24 16 -24 16 -19 -13 3 -16 1 -31 -4 -35 -20 -12 -40 6 -61 54 -12 27 -31 56 -43 64 -28 20 -72 21 -87 2z"/>
 <path d="M2185 2045 l40 -34 775 0 775 0 40 34 40 35 -855 0 -855 0 40 -35z"/>
 <path d="M2430 1886 c63 -33 86 -40 88 -30 2 8 14 14 28 14 19 0 24 -5 24 -24 0 -18 8 -27 30 -35 30 -10 30 -10 30 25 0 33 2 35 28 32 24 -3 27 -8 30 -44 3 -35 7 -43 27 -47 32 -6 35 -2 35 50 0 39 2 43 25 43 24 0 25 -3 25 -54 0 -52 1 -54 30 -58 l30 -5 0 59 c0 55 1 58 25 58 24 0 25 -3 25 -60 0 -60 0 -60 30 -60 28 0 29 1 32 58 3 53 5 57 28 57 23 0 25 -4 28 -57 3 -57 4 -58 32 -58 30 0 30 0 30 60 0 57 1 60 25 60 24 0 25 -3 25 -55 0 -54 0 -55 30 -55 30 0 30 1 30 55 0 52 1 55 25 55 23 0 25 -4 25 -43 0 -52 3 -56 35 -50 20 4 24 12 27 47 3 36 6 41 31 44 25 3 27 1 27 -32 0 -35 0 -35 30 -25 22 8 30 17 30 35 0 19 5 24 24 24 14 0 26 -6 28 -14 2 -10 25 -3 88 30 l85 43 -655 0 -655 0 85 -43z"/>
 <path d="M4804 1693 c-10 -15 -7 -22 14 -39 23 -19 24 -23 11 -42 -15 -21 -16 -21 -45 -3 -29 17 -31 17 -41 2 -9 -15 6 -25 108 -77 67 -34 119 -55 119 -48 0 6 7 15 16 18 14 5 4 20 -47 74 -36 37 -76 82 -91 100 -31 37 -30 37 -44 15z m112 -151 c-6 -5 -66 27 -66 37 0 21 16 19 42 -6 15 -14 26 -28 24 -31z"/>
 <path d="M2487 1562 c5 -20 -81 -318 -99 -339 -7 -9 -6 -14 3 -17 8 -2 41 -13 75 -23 l61 -19 16 29 c21 36 22 54 2 37 -14 -12 -70 -6 -79 9 -7 10 24 111 33 111 5 0 20 -9 34 -20 l25 -20 4 28 c3 15 9 36 13 46 7 16 6 17 -10 9 -19 -11 -55 -6 -55 7 0 23 42 140 53 147 7 4 1 10 -18 14 -17 4 -38 10 -47 14 -13 5 -15 2 -11 -13z"/>
 <path d="M3413 1546 c-60 -18 -70 -24 -62 -38 19 -33 99 -329 93 -340 -5 -7 1 -9 17 -4 13 3 47 12 74 20 35 9 50 18 49 30 0 9 -1 25 -2 36 l-2 20 -20 -20 c-11 -11 -31 -20 -44 -20 -20 0 -26 7 -35 47 -13 50 -3 68 32 57 18 -6 24 11 7 21 -5 3 -10 18 -10 33 0 22 -2 24 -12 10 -30 -37 -45 -29 -62 34 -9 33 -14 63 -11 67 3 3 26 6 51 6 35 0 43 3 38 15 -3 8 -9 23 -11 33 -3 9 -8 16 -12 16 -3 -1 -38 -11 -78 -23z"/>
 <path d="M1290 1541 c0 -5 -9 -13 -20 -16 -28 -9 -25 -21 6 -20 15 0 31 -8 38 -18 17 -28 -17 -47 -86 -47 -90 0 -125 -48 -75 -105 l22 -25 30 24 30 24 -27 -5 c-33 -6 -48 18 -27 43 10 12 25 15 58 11 103 -12 159 58 95 118 -28 26 -44 32 -44 16z"/>
 <path d="M4661 1516 c-21 -22 -21 -24 -4 -30 10 -3 55 -41 100 -84 l83 -79 15 23 c9 13 11 24 7 24 -14 0 -166 138 -172 156 -5 12 -10 10 -29 -10z"/>
 <path d="M2784 1493 c9 -27 -31 -342 -45 -359 -9 -11 -6 -14 19 -14 17 0 37 -3 45 -6 11 -4 13 1 10 20 -7 33 27 328 38 341 16 16 10 24 -20 23 -15 -1 -34 3 -41 7 -9 5 -10 2 -6 -12z"/>
 <path d="M3098 1493 c-25 -3 -35 -8 -32 -17 7 -20 -35 -348 -47 -362 -7 -9 -1 -12 29 -11 l39 2 7 112 c11 178 17 184 49 51 15 -64 27 -126 27 -138 0 -16 4 -20 16 -16 9 3 25 6 35 6 12 0 17 5 14 10 -14 22 -93 343 -88 356 3 8 1 13 -3 12 -5 -1 -26 -3 -46 -5z"/>
 <path d="M4548 1398 c-16 -16 -12 -22 63 -95 78 -75 79 -78 59 -93 -19 -15 -19 -16 -1 -27 16 -10 24 -6 59 30 35 36 39 44 28 59 -11 15 -13 15 -25 -5 -12 -19 -15 -19 -25 -5 -7 9 -41 47 -76 85 -61 64 -66 67 -82 51z"/>
 <path d="M1405 1378 c-55 -30 -125 -121 -125 -162 0 -23 29 -46 58 -46 56 0 162 109 162 166 0 46 -49 68 -95 42z m55 -41 c0 -19 -53 -91 -82 -111 -29 -20 -58 -21 -58 0 0 22 99 124 121 124 11 0 19 -6 19 -13z"/>
 <path d="M4449 1307 c-15 -9 -15 -13 3 -43 l19 -33 -22 -12 c-20 -10 -26 -8 -44 13 -21 25 -22 25 -44 7 -13 -11 -18 -19 -12 -19 12 0 188 -146 193 -160 2 -5 13 0 25 9 l22 18 -62 115 c-52 96 -65 113 -78 105z m56 -137 c9 -16 12 -30 7 -30 -14 0 -53 46 -45 53 12 13 23 7 38 -23z"/>
 <path d="M1580 1269 c0 -16 -132 -189 -144 -189 -5 0 0 -9 13 -21 12 -12 23 -19 24 -18 18 34 38 63 80 117 l51 65 21 -25 c21 -25 22 -25 34 -6 7 11 11 21 9 22 -2 1 -22 17 -45 35 -24 18 -43 27 -43 20z"/>
 <path d="M4281 1177 c-16 -16 -14 -35 10 -68 20 -29 20 -59 0 -59 -6 0 -22 20 -36 44 -24 41 -27 43 -50 32 -13 -6 -20 -13 -14 -14 5 -2 40 -50 77 -106 l68 -102 32 19 c54 32 53 103 -2 128 -14 7 -24 19 -24 28 1 9 -10 37 -24 63 -19 34 -29 43 -37 35z m74 -163 c17 -18 17 -45 -1 -51 -14 -5 -47 44 -39 57 9 14 21 12 40 -6z"/>
 <path d="M1674 1054 l-51 -124 23 -15 c28 -18 34 -19 34 -2 0 7 38 50 85 97 83 82 84 84 63 99 -14 9 -23 11 -25 4 -10 -30 -31 -45 -51 -39 -26 9 -28 24 -7 52 18 24 19 34 1 34 -8 0 -16 4 -18 9 -1 5 -26 -47 -54 -115z m60 -12 c3 -5 -9 -22 -26 -38 -17 -16 -28 -24 -25 -18 4 6 11 23 16 38 10 26 25 34 35 18z"/>
 <path d="M4080 1052 c-30 -14 -35 -23 -38 -55 -4 -48 28 -116 74 -157 40 -34 63 -38 92 -12 18 15 18 20 7 46 l-12 29 -7 -27 c-5 -21 -12 -27 -29 -24 -31 4 -87 91 -87 135 0 43 17 40 45 -9 16 -28 23 -33 36 -25 14 9 12 16 -13 63 -16 30 -30 54 -31 54 -1 -1 -18 -9 -37 -18z"/>
 <path d="M2005 1000 c3 -5 -18 -58 -47 -119 l-53 -110 45 -21 c42 -21 45 -21 57 -3 12 16 11 19 -17 26 -16 4 -30 9 -30 11 0 2 5 17 11 35 12 33 36 41 46 16 4 -12 9 -10 19 11 17 33 17 35 -1 28 -26 -11 -28 24 -3 69 l25 44 -29 11 c-15 5 -26 6 -23 2z"/>
 <path d="M3824 932 c-20 -3 -21 -6 -11 -38 11 -38 11 -39 -19 -48 -17 -5 -24 -1 -34 24 -8 20 -18 29 -27 26 -8 -4 -19 -6 -25 -6 -6 0 -4 -8 4 -17 8 -10 41 -62 72 -115 54 -90 59 -96 80 -86 21 9 22 13 14 56 -5 26 -14 83 -21 127 -11 73 -14 80 -33 77z m6 -126 c0 -8 3 -21 6 -30 3 -9 1 -16 -5 -16 -14 0 -34 38 -26 50 9 15 25 12 25 -4z"/>
 <path d="M2139 810 c-43 -110 -44 -118 -27 -129 23 -14 24 -14 25 7 1 10 20 64 42 120 23 56 41 104 41 106 0 2 -8 6 -18 8 -14 4 -26 -16 -63 -112z"/>
 <path d="M2280 768 c-18 -62 -37 -118 -42 -125 -7 -8 3 -13 36 -18 57 -9 71 -4 96 37 48 79 46 189 -4 203 -11 4 -28 9 -37 11 -12 3 -23 -19 -49 -108z m86 5 c-7 -54 -42 -123 -61 -123 -20 0 -20 1 11 102 23 74 29 86 42 76 10 -9 13 -24 8 -55z"/>
 <path d="M3587 851 c-31 -11 -44 -20 -38 -26 5 -6 22 -59 38 -120 26 -103 29 -110 51 -107 18 3 22 8 17 20 -4 9 -19 57 -33 105 -21 75 -23 90 -11 98 8 5 22 7 32 5 20 -5 22 4 5 26 -12 14 -17 14 -61 -1z"/>
 <path d="M2504 822 c6 -10 -22 -176 -40 -234 -4 -14 0 -18 20 -18 13 0 36 -4 50 -10 15 -5 26 -6 26 -1 0 5 3 17 7 27 4 12 3 15 -5 10 -7 -4 -22 -4 -33 -1 -17 6 -20 12 -15 38 8 39 12 43 30 28 11 -9 15 -7 18 14 4 20 1 25 -15 25 -17 0 -19 5 -13 31 3 17 6 35 6 40 0 16 49 9 59 -8 9 -15 10 -13 11 13 0 29 -3 32 -39 38 -22 3 -47 9 -57 13 -12 4 -15 3 -10 -5z"/>
 <path d="M3364 785 c-31 -47 0 -200 47 -228 31 -19 67 0 80 41 14 47 -2 145 -30 182 -26 36 -75 39 -97 5z m78 -61 c21 -59 20 -129 -2 -129 -20 0 -42 50 -48 107 -9 91 21 105 50 22z"/>
 <path d="M3175 783 c-17 -3 -21 -12 -22 -46 -2 -36 0 -39 9 -22 22 39 51 46 67 16 8 -15 4 -28 -23 -63 -33 -42 -40 -62 -37 -100 2 -26 44 -50 75 -42 22 5 26 11 25 43 0 32 -1 34 -10 13 -6 -17 -15 -22 -31 -20 -35 5 -32 30 7 79 43 54 48 109 13 133 -22 16 -33 17 -73 9z"/>
 </g>

</svg>