<!DOCTYPE svg PUBLIC "-//W3C//DTD SVG 20010904//EN" "http://www.w3.org/TR/2001/REC-SVG-20010904/DTD/svg10.dtd">
<svg version="1.0" xmlns="http://www.w3.org/2000/svg" width="710px" height="710px" viewBox="0 0 7100 7100" preserveAspectRatio="xMidYMid meet">
<g id="layer101" fill="#272526" stroke="none">
 <path d="M3200 7089 c-1493 -153 -2723 -1210 -3094 -2660 -38 -149 -80 -389 -96 -548 -13 -133 -13 -529 0 -662 140 -1419 1075 -2592 2426 -3045 222 -74 530 -139 783 -164 133 -13 529 -13 662 0 1419 140 2592 1075 3045 2426 74 222 139 530 164 783 13 133 13 529 0 662 -140 1419 -1075 2592 -2426 3045 -222 74 -530 139 -783 164 -122 12 -559 11 -681 -1z"/>
 </g>
<g id="layer102" fill="#bc955a" stroke="none">
 <path d="M2970 7044 c-255 -103 -526 -196 -745 -255 -143 -39 -273 -79 -290 -88 -16 -10 -125 -94 -242 -187 -130 -104 -296 -224 -431 -312 l-220 -144 -149 -226 c-88 -135 -219 -316 -324 -449 -98 -122 -182 -236 -187 -255 -6 -18 -41 -143 -77 -277 -37 -135 -80 -279 -97 -320 -16 -42 -59 -155 -95 -251 l-65 -175 8 -170 c9 -200 11 -468 4 -760 l-5 -210 93 -240 c67 -173 113 -313 163 -500 39 -143 79 -273 88 -290 10 -16 91 -122 182 -235 98 -122 224 -296 313 -432 l148 -226 227 -148 c134 -89 309 -215 431 -313 113 -90 219 -172 235 -182 17 -9 147 -49 290 -88 187 -50 327 -96 500 -163 l240 -93 110 1 c138 2 803 2 950 1 l110 -2 240 93 c172 66 314 113 500 163 143 39 274 79 290 88 17 10 117 88 223 174 119 95 286 216 432 312 l238 157 149 227 c88 135 214 309 312 431 90 113 172 219 182 235 10 17 45 131 78 255 75 280 79 293 186 575 l88 230 -9 170 c-9 182 -10 485 -3 785 l4 185 -96 250 c-70 181 -115 319 -164 500 -37 138 -75 264 -84 280 -10 17 -92 122 -182 235 -98 122 -224 296 -312 432 l-149 226 -220 144 c-134 87 -302 209 -431 312 -117 93 -225 177 -242 187 -16 9 -147 49 -290 88 -187 50 -327 96 -500 163 l-240 93 -200 -5 c-281 -7 -538 -6 -760 2 -104 4 -197 5 -205 2z m320 -100 c102 -3 192 -8 200 -10 8 -1 18 -3 23 -3 4 -1 7 -26 7 -56 0 -50 -2 -55 -22 -55 -58 -2 -193 -11 -288 -21 -58 -6 -114 -11 -124 -12 -21 -2 -23 5 -40 124 l-7 45 33 -2 c18 -1 116 -6 218 -10z m757 -79 c-11 -70 -15 -80 -32 -78 -171 17 -255 24 -330 27 -49 3 -93 5 -97 6 -5 0 -8 24 -8 54 l0 53 58 7 c31 3 136 9 232 12 96 4 177 9 180 11 10 9 9 -15 -3 -92z m-1072 53 c11 -54 25 -142 22 -145 -2 -2 -30 -8 -63 -14 -54 -9 -323 -76 -350 -86 -12 -4 -51 94 -41 103 5 6 408 163 419 163 4 1 10 -9 13 -21z m1321 -39 c260 -99 265 -101 260 -114 -2 -7 -10 -32 -17 -54 -7 -23 -17 -40 -23 -38 -27 10 -297 77 -350 86 -33 6 -61 12 -63 14 -5 6 24 167 31 167 2 0 75 -27 162 -61z m-1804 -180 c12 -37 13 -51 5 -54 -72 -26 -212 -82 -296 -120 -57 -25 -105 -45 -106 -43 -8 9 -76 150 -73 152 8 7 416 114 434 115 16 1 24 -10 36 -50z m2368 -5 c118 -32 216 -58 218 -60 3 -2 -65 -143 -73 -152 -1 -2 -49 18 -106 44 -57 26 -149 64 -204 84 -108 41 -105 38 -84 108 6 17 16 32 22 32 7 0 109 -25 227 -56z m-980 11 c497 -57 949 -213 1342 -462 163 -104 156 -98 136 -119 -16 -16 -22 -14 -110 43 -410 264 -840 420 -1333 484 -112 15 -530 18 -670 6 -478 -43 -965 -214 -1393 -490 -88 -56 -94 -59 -110 -43 -16 16 -15 18 8 36 56 43 234 148 355 211 360 188 785 309 1195 342 109 9 475 4 580 -8z m-1885 -175 c19 -38 35 -74 35 -79 0 -5 -39 -31 -87 -57 -48 -27 -129 -77 -180 -110 l-93 -61 -34 47 -34 48 176 141 c97 77 178 141 179 141 2 0 19 -31 38 -70z m3343 -84 l160 -128 -34 -48 -34 -47 -97 64 c-54 35 -135 85 -180 110 -46 24 -83 49 -83 54 0 5 16 41 36 80 32 65 37 70 54 57 10 -7 90 -71 178 -142z m-1473 113 c278 -29 572 -102 825 -206 178 -74 495 -245 568 -308 l26 -23 -79 -108 c-43 -60 -104 -144 -134 -186 -31 -43 -59 -78 -63 -78 -4 0 -45 24 -90 54 -46 30 -131 79 -190 111 -118 62 -111 62 -138 -9 -9 -24 -6 -27 93 -77 141 -71 270 -156 261 -172 -10 -16 -259 -361 -296 -408 l-28 -37 -97 30 c-463 139 -650 215 -819 329 -39 26 -90 69 -111 95 l-40 46 -65 -63 c-139 -138 -404 -258 -875 -397 -120 -35 -134 -37 -147 -23 -7 9 -82 110 -166 226 l-152 209 27 22 c37 30 163 103 262 154 l83 41 -15 36 c-8 19 -15 37 -15 39 0 23 -161 -57 -308 -152 -45 -30 -86 -54 -90 -54 -4 0 -32 35 -63 78 -30 42 -91 126 -134 186 l-79 109 29 23 c90 73 388 234 565 307 449 185 959 257 1455 206z m-2300 -353 l29 -39 -34 -26 c-54 -41 -233 -196 -259 -225 -14 -14 -29 -26 -36 -26 -6 0 -37 27 -69 59 l-59 59 41 26 c22 14 109 71 193 126 84 55 156 97 159 93 3 -5 19 -26 35 -47z m4213 -79 l183 -120 -57 -59 c-32 -32 -63 -58 -69 -58 -7 0 -22 12 -36 26 -26 29 -205 184 -258 224 l-34 26 33 46 c18 26 38 44 44 41 6 -4 93 -60 194 -126z m-4108 -72 c0 -7 -33 -39 -72 -71 -396 -320 -713 -735 -914 -1199 -126 -290 -211 -622 -244 -950 -15 -156 -5 -572 18 -720 77 -489 238 -911 494 -1293 41 -60 49 -79 46 -110 l-3 -37 -35 48 c-244 333 -439 792 -525 1230 -79 400 -71 886 20 1293 115 512 361 992 720 1404 159 183 458 448 483 428 6 -6 12 -16 12 -23z m3889 -52 c196 -159 432 -413 588 -634 252 -357 433 -783 517 -1214 43 -221 51 -315 51 -605 -1 -302 -9 -389 -60 -645 -81 -405 -280 -860 -515 -1182 l-35 -48 -3 37 c-3 31 5 50 46 110 211 315 370 689 452 1063 66 303 87 672 56 970 -62 585 -264 1104 -612 1568 -161 215 -321 378 -588 600 -29 24 -32 57 -5 57 7 0 55 -35 108 -77z m-3490 -491 c178 -244 321 -445 319 -446 -114 -77 -226 -191 -282 -289 -21 -37 -42 -65 -46 -62 -4 3 -13 27 -20 54 -13 57 -2 113 31 155 11 14 19 30 17 35 -3 11 -557 411 -567 411 -14 0 -50 -45 -65 -81 -8 -20 -18 -58 -22 -85 -3 -27 -7 -50 -8 -50 0 -1 -59 41 -131 93 -71 51 -138 99 -148 106 -16 11 -12 19 46 92 36 44 94 112 130 150 l65 70 56 -55 56 -54 22 22 22 22 -54 56 -55 56 70 65 c100 94 228 194 236 185 3 -4 151 -207 328 -450z m3456 327 c50 -42 101 -89 114 -103 l25 -26 -64 -65 -64 -65 22 -22 22 -22 66 64 66 65 65 -70 c70 -74 195 -227 190 -232 -8 -7 -292 -211 -293 -209 -1 0 -5 23 -9 51 -8 60 -35 123 -63 149 -21 18 -22 18 -49 0 -34 -22 -524 -374 -537 -385 -5 -4 4 -29 20 -56 32 -55 38 -129 13 -176 l-15 -29 -40 68 c-56 98 -169 214 -282 290 -2 1 144 205 324 453 l328 450 35 -26 c20 -15 77 -61 126 -104z m-4315 -2 c0 -5 -29 -40 -64 -77 -35 -38 -98 -111 -141 -164 -46 -58 -82 -93 -89 -89 -41 24 -76 58 -72 69 3 8 60 97 127 199 l122 186 59 -57 c32 -32 58 -62 58 -67z m4929 -75 c67 -101 121 -187 121 -191 0 -8 -47 -47 -76 -64 -7 -4 -43 31 -89 89 -43 53 -106 126 -141 164 -35 37 -64 71 -64 76 0 15 114 124 121 116 4 -4 61 -89 128 -190z m-5259 -319 c0 -3 -31 -54 -68 -112 -38 -58 -88 -141 -111 -183 -24 -43 -47 -78 -52 -78 -5 0 -41 16 -80 36 -51 25 -68 38 -61 47 5 7 71 90 146 184 l138 173 44 -31 c24 -16 44 -33 44 -36z m5565 -105 c76 -95 142 -178 147 -185 7 -9 -10 -22 -61 -47 -39 -20 -75 -36 -80 -36 -6 0 -30 37 -55 83 -25 45 -75 127 -111 182 -36 54 -65 102 -65 106 0 6 75 65 86 69 1 0 64 -78 139 -172z m-2833 81 c78 -62 320 -183 489 -243 69 -25 204 -68 300 -96 189 -56 256 -87 345 -159 106 -85 221 -252 198 -288 -19 -31 -29 -24 -60 39 -60 122 -175 234 -297 291 -28 14 -95 37 -147 51 -366 103 -654 221 -827 341 l-62 43 -95 -62 c-148 -98 -370 -192 -661 -281 -254 -77 -280 -87 -339 -123 -90 -54 -186 -156 -232 -246 -39 -77 -49 -84 -68 -53 -23 37 90 202 198 288 89 72 156 103 345 159 96 28 231 71 300 96 172 61 412 181 486 243 33 27 61 50 62 50 2 1 31 -22 65 -50z m-2367 -254 c61 -43 114 -82 119 -86 5 -4 -8 -15 -28 -23 -52 -22 -90 -50 -125 -95 l-31 -39 220 -158 c122 -88 252 -181 291 -208 l70 -49 42 41 c65 64 138 86 200 63 14 -5 168 -113 343 -239 176 -126 488 -350 694 -498 206 -149 521 -375 700 -504 546 -392 643 -462 695 -500 28 -20 105 -76 173 -125 126 -90 162 -125 162 -155 0 -25 -59 -74 -113 -95 -44 -16 -46 -19 -40 -49 3 -17 16 -61 28 -98 68 -201 270 -322 554 -331 l74 -2 12 -42 c20 -65 53 -111 103 -141 44 -25 54 -27 162 -26 63 0 167 2 230 4 92 3 122 1 150 -12 68 -32 69 -28 -12 -129 -41 -52 -105 -125 -141 -164 l-66 -70 -113 113 -113 112 -23 -22 -22 -23 112 -113 113 -113 -70 -66 c-38 -36 -105 -94 -149 -129 l-79 -63 -96 132 c-53 73 -202 277 -331 454 -128 178 -237 323 -241 323 -4 0 -52 -30 -106 -66 -247 -166 -540 -271 -854 -305 -129 -14 -380 -6 -509 16 -271 48 -565 170 -768 320 l-61 45 -332 -458 c-183 -251 -333 -458 -334 -460 -4 -5 -234 189 -270 227 l-29 31 112 113 112 112 -22 23 -23 22 -113 -112 -113 -113 -65 69 c-36 38 -99 112 -141 163 -71 89 -74 95 -57 109 42 32 106 43 214 36 58 -4 155 -7 215 -7 102 0 113 2 157 27 50 30 83 75 103 141 10 35 17 42 36 40 58 -4 220 21 289 43 199 67 298 181 344 395 5 24 1 28 -40 44 -55 21 -114 70 -114 95 0 33 41 69 287 246 137 98 360 258 497 357 137 98 261 188 277 199 30 22 29 28 -9 76 l-18 23 -409 -296 c-226 -162 -439 -309 -474 -327 -66 -33 -160 -48 -216 -34 l-25 6 0 300 0 300 313 0 313 0 18 -70 c9 -38 21 -72 25 -75 5 -2 26 3 48 11 l40 16 -19 61 c-14 45 -19 90 -19 162 1 91 5 117 42 244 2 8 -12 20 -38 31 l-42 19 -20 -53 c-11 -29 -23 -69 -26 -89 l-7 -37 -314 0 -314 0 -2 358 -3 357 -45 0 -45 0 -3 -737 -2 -738 -25 0 -25 0 0 788 1 787 -41 6 c-33 4 -43 2 -48 -10 -4 -9 -7 -366 -7 -794 l0 -777 -50 -15 c-88 -25 -144 -104 -153 -215 -8 -111 -41 -147 -104 -113 -49 26 -161 24 -215 -5 -51 -27 -87 -73 -102 -129 -13 -48 -5 -92 29 -158 11 -21 20 -58 20 -82 0 -38 -4 -44 -32 -59 -21 -11 -54 -16 -96 -15 -80 2 -134 -21 -186 -79 -21 -23 -48 -65 -60 -93 l-23 -50 -55 89 c-30 49 -64 107 -76 130 l-20 40 166 87 c147 76 167 89 164 109 -1 12 -6 26 -11 31 -5 5 -86 -30 -181 -78 -95 -47 -173 -85 -174 -83 -3 4 -45 95 -68 148 -11 25 -35 85 -53 133 l-33 88 21 8 c12 5 256 84 542 176 286 93 521 169 523 170 8 5 -22 65 -32 62 -27 -10 -1065 -347 -1070 -347 -15 0 -102 359 -93 384 3 7 28 16 59 20 29 4 134 20 233 36 99 16 338 54 530 85 488 76 441 65 437 100 -2 17 -5 31 -7 33 -2 2 -133 -17 -292 -43 -158 -25 -344 -55 -413 -66 -442 -70 -556 -87 -561 -81 -13 14 -33 267 -30 375 l1 27 650 0 650 0 0 30 0 30 -650 0 -650 0 -1 38 c-1 78 3 161 14 262 l12 105 35 -3 c32 -3 192 -28 565 -88 83 -13 249 -39 370 -58 121 -19 239 -38 261 -41 39 -7 42 -6 47 21 3 16 2 32 -1 36 -6 6 -981 163 -1185 191 l-79 11 7 45 c9 62 41 201 66 284 16 55 24 68 37 64 9 -2 270 -87 579 -188 310 -100 565 -180 568 -177 3 3 7 18 8 33 2 30 45 15 -843 302 -162 52 -298 97 -301 99 -9 5 52 167 105 280 50 104 39 101 133 51 29 -15 55 -27 57 -27 3 0 12 13 20 29 l15 28 -74 39 -73 38 19 38 c26 51 125 214 158 260 l26 36 30 -22 c17 -12 80 -58 140 -101z m4887 -40 c30 -50 64 -108 76 -131 l20 -40 -61 -32 c-93 -48 -90 -45 -76 -75 7 -15 16 -27 21 -27 5 0 40 16 79 35 l70 36 44 -94 c25 -52 60 -136 79 -186 28 -75 32 -93 20 -98 -8 -3 -267 -87 -576 -188 l-563 -183 2 -27 c1 -15 5 -30 8 -33 3 -3 258 77 568 177 309 101 570 186 579 188 13 4 21 -9 37 -64 25 -84 57 -222 66 -285 l7 -47 -33 -5 c-19 -4 -119 -20 -224 -36 -104 -17 -260 -41 -345 -55 -85 -13 -256 -40 -380 -60 -302 -47 -277 -40 -272 -75 5 -37 9 -38 201 -5 129 21 566 91 920 146 68 10 129 19 136 19 16 0 39 -231 36 -357 l-1 -43 -650 0 -650 0 0 -30 0 -30 653 0 653 0 -2 -42 c-14 -257 -22 -348 -30 -357 -2 -2 -95 11 -206 28 -295 47 -606 95 -828 130 -107 17 -205 33 -216 36 -18 4 -23 -1 -27 -28 -2 -17 -4 -33 -2 -35 1 -1 216 -36 476 -77 551 -87 711 -113 758 -121 l33 -5 -7 -47 c-15 -103 -80 -352 -91 -352 -5 0 -1043 336 -1070 347 -12 5 -38 -54 -26 -61 7 -4 745 -246 967 -316 55 -18 103 -34 106 -36 11 -6 -114 -321 -147 -372 -1 -2 -79 35 -173 82 -94 47 -173 86 -176 86 -2 0 -11 -13 -19 -29 -15 -28 -15 -29 22 -45 20 -9 99 -50 174 -89 l138 -73 -51 -88 c-27 -48 -62 -106 -76 -129 l-26 -41 -27 60 c-32 70 -101 138 -156 153 -22 6 -65 11 -97 11 -32 0 -71 7 -87 15 -26 14 -30 21 -30 58 0 24 9 60 20 82 37 73 43 103 30 153 -16 66 -54 110 -118 139 -45 21 -65 25 -112 20 -31 -2 -71 -12 -89 -21 -62 -33 -95 4 -103 114 -9 109 -63 187 -150 216 l-48 16 0 51 c-1 29 -2 381 -3 782 -1 402 -5 735 -9 741 -4 6 -23 8 -48 5 l-41 -6 1 -786 0 -787 -25 -4 -25 -5 0 743 0 744 -50 0 -50 0 0 -360 0 -360 -315 0 -314 0 -7 38 c-4 20 -15 60 -26 89 l-19 52 -42 -20 c-24 -10 -40 -24 -38 -31 56 -181 58 -324 5 -461 -3 -9 10 -19 38 -30 50 -20 50 -20 75 76 l17 67 313 0 313 0 0 -300 0 -300 -25 -6 c-49 -12 -149 1 -206 28 -31 14 -123 74 -205 134 -82 59 -306 221 -499 359 -292 210 -1110 798 -1540 1107 -60 44 -112 84 -114 89 -9 26 66 148 133 215 85 85 149 120 306 164 328 93 623 211 788 316 l52 34 53 -34 c165 -105 462 -224 787 -316 152 -42 220 -79 305 -165 69 -68 140 -180 133 -209 -2 -8 -136 -110 -298 -226 -162 -117 -420 -302 -572 -412 -153 -110 -278 -203 -278 -206 0 -4 13 -22 28 -40 l27 -32 95 68 c128 92 609 438 964 693 239 172 297 209 333 215 61 9 123 -17 171 -71 l38 -43 284 205 c157 112 289 208 293 212 14 14 -86 109 -138 132 -46 20 -48 23 -30 35 11 7 78 55 150 107 l129 94 26 -36 c14 -20 51 -77 82 -126z m-4518 3 c-8 -29 -14 -63 -14 -76 0 -21 -2 -23 -16 -11 -29 24 -54 87 -54 137 0 27 3 51 6 55 4 3 26 -7 49 -23 l42 -29 -13 -53z m3956 51 c0 -51 -25 -114 -54 -138 -14 -12 -16 -10 -16 16 0 16 -6 51 -14 77 l-14 46 41 29 c23 16 45 27 50 24 4 -2 7 -27 7 -54z m-3782 -149 c-5 -16 -13 -50 -16 -77 l-7 -48 -29 38 c-22 28 -31 53 -34 92 -7 85 0 92 52 55 41 -30 44 -34 34 -60z m3612 29 c0 -57 -18 -106 -49 -133 l-21 -19 0 35 c0 20 -6 54 -14 76 l-14 40 41 30 c23 16 45 28 50 25 4 -2 7 -27 7 -54z m-4782 -54 c2 -1 -18 -49 -44 -106 -37 -84 -91 -217 -119 -296 -6 -17 -105 16 -105 36 0 16 109 421 117 433 3 6 135 -53 151 -67z m6075 -143 c32 -119 58 -222 57 -228 0 -16 -100 -45 -105 -31 -28 79 -82 212 -119 296 -26 57 -46 105 -44 106 5 5 143 74 148 74 3 1 31 -97 63 -217z m-4764 100 c33 -27 34 -30 23 -62 -7 -18 -12 -51 -12 -73 l0 -40 -21 19 c-40 36 -53 75 -50 152 1 40 16 41 60 4z m3301 -27 c0 -59 -15 -98 -49 -129 l-21 -19 0 40 c0 22 -5 55 -12 73 -11 32 -10 35 23 62 50 42 59 37 59 -27z m-3727 36 c14 -6 105 -67 202 -137 l177 -128 -37 -13 c-21 -7 -52 -24 -69 -36 l-31 -24 -205 149 c-113 81 -206 152 -208 158 -10 28 118 51 171 31z m4233 -6 c20 -8 34 -19 32 -25 -2 -6 -95 -77 -208 -158 l-205 -149 -31 24 c-17 12 -45 28 -63 34 -17 6 -31 15 -29 19 4 12 335 249 362 260 33 14 103 11 142 -5z m-5352 -421 c35 -12 45 -20 42 -33 -3 -9 -14 -47 -25 -86 -11 -38 -32 -127 -47 -197 -24 -111 -31 -128 -48 -128 -37 0 -146 22 -146 30 0 4 27 79 61 166 33 87 70 183 81 212 11 28 23 52 27 52 4 0 29 -7 55 -16z m6426 -66 c90 -235 131 -350 127 -354 -5 -6 -114 -24 -143 -24 -18 0 -23 9 -33 63 -12 58 -78 328 -88 353 -4 11 63 41 94 43 6 1 26 -36 43 -81z m-6565 -439 l75 -11 -5 -32 c-12 -75 -15 -93 -20 -175 -4 -47 -8 -106 -10 -131 -2 -25 -4 -60 -4 -77 l-1 -33 -55 0 c-37 0 -55 4 -56 13 0 6 -2 23 -4 37 -1 14 -6 114 -10 223 -5 139 -4 197 3 197 6 0 45 -5 87 -11z m6701 -176 c-4 -104 -9 -209 -13 -235 l-6 -48 -53 0 -54 0 -1 33 c0 17 -2 46 -4 62 -1 17 -6 80 -10 140 -3 61 -11 132 -16 159 -5 27 -8 50 -7 52 5 4 113 22 142 23 l29 1 -7 -187z m-4086 -313 l0 -40 -310 0 -310 0 0 40 0 40 310 0 310 0 0 -40z m2000 0 l0 -40 -310 0 -310 0 0 40 0 40 310 0 310 0 0 -40z m-4576 -137 c8 -128 25 -302 32 -324 4 -14 -9 -19 -75 -29 -73 -11 -107 -8 -97 8 2 4 7 93 11 197 4 105 9 197 10 205 2 8 4 23 4 33 1 14 11 17 55 17 l54 0 6 -107z m6647 95 c0 -7 2 -24 4 -38 1 -14 6 -114 10 -222 9 -226 19 -206 -96 -186 -65 10 -70 13 -65 33 10 41 35 317 36 403 0 20 5 22 55 22 37 0 55 -4 56 -12z m-6596 -545 c6 -35 76 -321 90 -369 6 -19 0 -24 -45 -39 -39 -13 -54 -14 -60 -6 -14 24 -162 422 -158 426 5 6 103 22 140 24 24 1 28 -4 33 -36z m6583 20 c12 -3 22 -9 22 -13 0 -10 -158 -421 -164 -427 -3 -3 -28 3 -56 12 -37 12 -50 21 -46 32 8 21 84 331 92 377 l7 38 61 -6 c33 -4 71 -10 84 -13z m-4767 -204 c34 -17 79 -33 101 -37 22 -4 40 -11 41 -17 3 -15 -110 -43 -175 -44 -31 -1 -69 4 -85 10 -23 9 -30 7 -38 -6 -81 -134 -189 -259 -350 -407 l-120 -110 -7 42 c-4 23 -19 66 -33 97 -14 30 -25 66 -25 78 0 26 32 70 63 87 29 15 102 11 137 -7 43 -22 101 -19 140 8 56 37 71 67 81 156 14 120 35 153 114 172 59 14 96 9 156 -22z m3000 5 c40 -20 55 -56 67 -153 11 -91 26 -121 82 -158 40 -28 88 -29 154 -5 65 25 120 15 158 -27 35 -39 35 -63 3 -134 -14 -31 -29 -74 -33 -97 l-7 -42 -120 110 c-169 155 -345 364 -345 411 0 9 -7 11 -22 6 -53 -17 -154 -16 -217 2 -36 10 -64 22 -63 28 0 5 23 14 49 20 26 6 64 20 83 30 19 10 46 22 60 26 33 11 116 2 151 -17z m-2967 -214 c-4 -8 -15 -37 -25 -65 l-18 -50 -88 -31 c-48 -17 -110 -40 -137 -52 -27 -12 -51 -22 -53 -22 -3 0 20 28 50 63 29 34 72 87 95 117 l41 55 71 0 c60 1 69 -2 64 -15z m2910 -42 c22 -29 64 -81 94 -115 29 -35 52 -63 49 -63 -2 0 -26 10 -53 22 -27 12 -89 35 -137 52 l-88 31 -18 50 c-10 28 -21 57 -25 65 -6 14 4 15 66 13 l72 -2 40 -53z m-4634 -38 c0 -15 94 -247 130 -323 18 -37 31 -69 29 -71 -9 -8 -151 -77 -153 -74 -5 7 -116 428 -116 441 0 7 21 20 48 29 47 15 62 15 62 -2z m6290 -28 c0 -12 -111 -432 -116 -440 -2 -3 -144 66 -153 74 -2 2 11 34 29 71 26 56 108 254 133 325 5 15 9 15 56 0 29 -9 51 -22 51 -30z m-4464 17 c10 -12 36 -30 57 -41 43 -21 43 -27 2 -108 -73 -144 -273 -229 -506 -216 l-96 5 -10 -70 c-12 -77 -29 -109 -70 -136 -23 -15 -44 -17 -143 -14 -194 7 -323 6 -358 -2 l-33 -9 20 40 c32 62 67 82 144 82 110 0 184 38 214 109 l14 34 22 -31 c12 -18 26 -32 31 -32 5 0 48 23 97 50 196 112 421 208 532 225 36 6 37 7 37 48 0 48 9 87 20 87 4 0 15 -9 26 -21z m2568 -1 c3 -13 6 -42 6 -65 0 -41 1 -42 38 -48 110 -17 335 -113 531 -225 49 -27 92 -50 97 -50 5 0 19 14 31 32 l22 31 14 -35 c30 -72 102 -108 215 -108 42 0 71 -6 88 -17 27 -17 79 -91 71 -99 -3 -3 -26 0 -52 7 -34 9 -86 10 -189 3 -77 -4 -169 -8 -203 -8 -101 2 -138 38 -155 151 l-11 68 -136 1 c-100 0 -152 5 -196 18 -138 41 -233 116 -282 223 -23 49 -24 57 -10 65 9 4 35 24 59 42 52 42 54 42 62 14z m-4148 -535 c27 -48 77 -130 112 -182 34 -52 62 -98 62 -102 0 -6 -49 -46 -76 -62 -10 -6 -148 158 -296 350 -7 9 10 22 59 47 37 19 73 35 79 36 7 0 34 -39 60 -87z m5825 51 c51 -25 68 -38 61 -47 -5 -7 -71 -90 -146 -184 l-138 -173 -44 31 c-24 16 -44 33 -44 36 0 3 31 54 68 112 38 58 88 141 111 184 24 42 47 77 52 77 5 0 41 -16 80 -36z m-4034 -128 c200 -129 487 -238 723 -275 194 -31 440 -34 616 -7 272 41 554 145 767 282 37 24 71 44 75 44 4 0 67 -84 141 -187 l134 -186 -27 -22 c-38 -30 -163 -104 -263 -155 -78 -40 -81 -43 -72 -66 26 -71 20 -71 137 -8 59 31 144 81 190 110 45 30 86 54 91 54 7 0 55 -63 227 -303 l52 -71 -32 -24 c-97 -73 -393 -233 -545 -297 -372 -155 -748 -228 -1161 -227 -464 1 -866 88 -1265 275 -219 103 -481 261 -467 281 5 6 66 91 137 189 70 97 132 177 136 177 5 0 46 -24 91 -54 46 -30 131 -79 190 -111 118 -62 111 -62 138 9 9 25 7 28 -82 72 -98 49 -264 149 -273 164 -6 10 254 378 267 379 4 1 38 -19 75 -43z m-1372 -278 c91 -117 312 -341 443 -447 56 -46 102 -85 102 -87 0 -12 -14 -34 -23 -34 -21 0 -206 159 -337 290 -128 128 -290 316 -290 336 0 11 21 34 30 33 3 0 37 -41 75 -91z m4949 70 c8 -13 -7 -37 -70 -115 -169 -209 -564 -573 -564 -519 0 2 -2 11 -5 18 -4 10 30 44 97 98 130 106 352 330 443 448 39 50 74 89 79 88 5 -1 14 -9 20 -18z m-5069 -154 c43 -53 106 -126 141 -164 35 -37 64 -72 64 -77 0 -5 -26 -35 -58 -67 l-59 -57 -122 186 c-67 102 -124 192 -127 199 -3 8 12 26 37 45 24 17 44 31 45 31 1 0 37 -43 79 -96z m5223 58 c20 -15 31 -31 27 -40 -3 -8 -60 -97 -127 -199 l-121 -184 -59 58 c-32 31 -58 61 -58 66 0 5 29 40 64 77 35 38 98 111 141 164 46 58 82 93 89 89 6 -4 26 -18 44 -31z m-4881 -422 c42 -39 113 -100 159 -137 48 -38 81 -70 77 -77 -18 -31 -56 -76 -65 -76 -5 0 -62 34 -126 77 -64 42 -148 96 -186 121 l-68 44 58 59 c32 33 62 59 67 59 5 0 43 -32 84 -70z m4556 12 l58 -59 -184 -121 c-102 -67 -189 -122 -195 -122 -6 0 -24 19 -42 43 l-31 42 33 25 c54 42 231 195 257 224 14 14 29 26 36 26 6 0 37 -26 68 -58z m-3910 -307 c337 -197 728 -330 1152 -391 128 -19 549 -26 695 -12 508 48 1010 224 1421 499 80 54 86 56 97 38 7 -10 12 -20 12 -23 0 -2 -42 -30 -92 -64 -500 -324 -1038 -492 -1634 -509 -180 -5 -424 5 -512 21 -9 2 -37 7 -62 10 -409 62 -849 226 -1192 443 -162 104 -153 96 -138 120 13 21 15 20 84 -26 39 -26 115 -74 169 -106z m-55 -135 c50 -29 92 -57 92 -62 0 -5 -16 -40 -36 -79 -25 -50 -38 -68 -47 -61 -40 30 -324 257 -335 267 -10 9 -6 20 22 57 l35 46 88 -58 c48 -32 130 -81 181 -110z m3531 116 l30 -43 -161 -129 c-89 -71 -169 -135 -179 -141 -15 -11 -21 -4 -53 56 -20 38 -36 74 -36 79 0 6 42 34 93 62 50 28 130 77 177 109 47 31 88 56 92 54 4 -2 21 -23 37 -47z m-3260 -255 c60 -27 140 -61 178 -74 37 -14 80 -30 95 -36 l27 -10 -17 -50 c-9 -30 -22 -51 -30 -51 -15 0 -422 109 -434 117 -6 3 61 153 69 153 2 0 52 -22 112 -49z m2834 -27 c21 -42 37 -77 35 -78 -3 -3 -439 -120 -447 -121 -2 0 -12 24 -22 53 -14 39 -15 54 -6 57 75 27 212 82 292 119 55 24 102 45 105 45 3 1 23 -33 43 -75z m-2308 -157 c77 -19 168 -40 203 -47 52 -11 62 -16 62 -33 0 -38 -22 -147 -30 -147 -10 0 -421 158 -427 164 -10 9 29 107 41 103 6 -2 74 -20 151 -40z m1810 -8 c9 -28 15 -53 12 -56 -7 -6 -417 -163 -427 -163 -8 0 -30 109 -30 147 0 17 12 23 83 37 45 9 138 31 207 50 69 19 128 34 132 35 3 1 14 -22 23 -50z m-1328 -78 c102 -10 225 -18 286 -20 14 -1 17 -11 17 -56 0 -30 -3 -55 -7 -56 -33 -4 -94 -8 -265 -14 -226 -8 -205 -19 -186 96 8 49 15 68 24 65 6 -2 65 -9 131 -15z m828 -97 c7 -55 5 -57 -35 -56 -106 2 -356 14 -387 19 l-43 5 0 54 0 54 38 1 c20 0 51 2 67 4 17 2 73 6 125 10 52 3 122 9 155 13 l60 7 7 -29 c3 -16 9 -53 13 -82z"/>
 <path d="M3624 6334 c12 -25 11 -64 -5 -274 -13 -166 -23 -254 -33 -273 l-15 -27 42 0 c23 1 62 -2 87 -5 116 -15 184 86 197 295 13 205 -49 305 -185 298 -26 -1 -59 2 -74 6 -27 8 -27 8 -14 -20z m146 -74 c28 -15 44 -76 43 -166 -2 -153 -39 -256 -96 -262 -25 -3 -27 -1 -27 35 0 21 7 117 15 213 8 96 15 178 15 183 0 10 28 9 50 -3z"/>
 <path d="M3231 6331 c-8 -5 -30 -7 -49 -4 l-34 6 16 -24 c23 -35 81 -521 65 -550 -14 -27 -8 -32 25 -19 15 5 43 10 61 10 34 0 34 0 19 28 -19 35 -74 509 -63 540 7 17 5 22 -9 22 -9 0 -23 -4 -31 -9z"/>
 <path d="M4248 6249 c9 -24 6 -37 -87 -344 -31 -102 -59 -176 -70 -186 -18 -14 -12 -17 83 -46 55 -16 108 -33 116 -36 11 -5 21 7 38 41 25 52 29 73 10 54 -15 -15 -63 -14 -104 1 l-31 12 22 75 c26 87 41 96 85 52 l30 -30 0 29 c0 16 9 48 21 70 20 40 20 40 0 30 -11 -6 -30 -11 -43 -11 -47 0 -49 10 -21 100 14 47 29 88 33 93 13 15 101 -25 120 -55 l17 -29 5 48 c3 26 9 56 13 66 5 13 2 17 -14 17 -17 0 -171 47 -218 66 -10 4 -11 0 -5 -17z"/>
 <path d="M2686 6215 c-11 -8 -32 -15 -46 -15 -37 0 -42 -8 -20 -39 26 -36 163 -478 158 -510 l-4 -27 96 33 c52 18 105 33 117 33 24 0 39 15 23 25 -5 3 -10 23 -10 43 0 49 -15 73 -24 39 -5 -20 -19 -30 -62 -47 -31 -11 -58 -19 -59 -18 -6 9 -53 173 -50 176 11 12 87 13 100 2 21 -17 19 -1 -5 38 -11 18 -20 46 -20 63 l0 30 -22 -26 c-14 -15 -35 -27 -52 -28 -29 -2 -30 1 -58 88 -16 50 -27 105 -25 123 3 35 -7 40 -37 17z"/>
 <path d="M3029 3688 c-23 -96 -14 -298 14 -298 26 0 87 22 83 29 -3 4 -9 35 -15 69 -9 58 -5 120 14 195 6 24 4 29 -29 42 -19 8 -40 15 -45 15 -5 0 -15 -24 -22 -52z"/>
 <path d="M3520 3250 c0 -140 0 -140 -23 -140 -41 0 -120 28 -178 63 l-56 34 -28 -35 -28 -35 24 -20 c13 -11 56 -35 94 -53 94 -45 198 -60 303 -45 78 12 193 58 242 98 l24 21 -29 35 c-24 29 -37 36 -67 36 -34 1 -38 -2 -38 -24 0 -23 -24 -45 -49 -45 -7 0 -11 30 -11 80 l0 80 -30 0 -29 0 -3 -92 -3 -93 -27 -3 -28 -3 0 140 0 141 -30 0 -30 0 0 -140z"/>
 <path d="M3104 3079 l-29 -31 40 -34 c59 -51 208 -120 297 -138 147 -30 293 -13 427 50 72 34 171 99 171 112 -1 4 -13 22 -29 40 l-28 32 -39 -31 c-101 -82 -279 -136 -407 -124 -118 11 -237 57 -321 124 -21 17 -42 31 -46 31 -3 0 -19 -14 -36 -31z"/>
 <path d="M2910 2935 l-21 -22 51 -46 c171 -153 373 -230 610 -230 235 0 441 78 610 230 l51 46 -21 22 -22 23 -81 -66 c-89 -71 -224 -141 -323 -166 -88 -23 -104 -21 -104 9 0 22 -4 25 -35 25 -32 0 -35 -2 -35 -30 0 -28 -2 -30 -40 -30 -38 0 -40 2 -40 30 0 28 -3 30 -35 30 -31 0 -35 -3 -35 -25 0 -30 -16 -32 -104 -9 -99 25 -234 95 -323 166 l-81 66 -22 -23z"/>
 <path d="M2679 2773 c-96 -69 -180 -131 -187 -137 -11 -10 0 -26 56 -83 188 -189 435 -325 703 -385 140 -31 446 -33 579 -4 269 59 503 183 699 372 53 51 94 94 91 97 -3 2 -87 63 -188 136 l-183 132 -56 -51 c-112 -103 -243 -176 -393 -220 -107 -31 -316 -39 -431 -15 -168 34 -332 115 -450 223 l-66 61 -174 -126z m272 -46 c142 -108 346 -181 542 -193 240 -14 504 69 687 218 29 24 58 47 65 52 8 6 53 -20 141 -84 71 -51 131 -95 134 -98 9 -8 -122 -120 -213 -183 -148 -103 -332 -179 -517 -216 -116 -23 -364 -23 -480 0 -249 49 -486 167 -663 328 -56 51 -66 64 -55 75 7 7 67 51 132 98 116 84 119 85 141 68 12 -9 51 -39 86 -65z"/>
 <path d="M2826 2626 c-25 -36 -46 -68 -46 -73 0 -4 22 -22 47 -40 37 -25 50 -30 61 -21 15 13 13 14 -43 52 -15 11 -17 17 -8 26 9 10 17 8 39 -9 21 -17 30 -19 41 -9 15 12 7 22 -36 47 -8 5 -11 16 -8 25 6 15 11 14 44 -8 22 -15 41 -22 46 -17 13 13 6 21 -46 59 l-45 32 -46 -64z"/>
 <path d="M4207 2679 c-9 -5 -24 -23 -32 -38 -13 -27 -13 -29 5 -34 11 -3 20 -1 20 4 0 15 40 50 51 44 6 -4 1 -20 -11 -41 -36 -57 -13 -104 43 -90 35 8 67 54 47 66 -10 6 -22 0 -39 -18 -22 -24 -26 -25 -29 -9 -2 10 3 26 11 35 23 28 26 48 11 71 -16 22 -48 27 -77 10z"/>
 <path d="M4097 2596 c-8 -8 -18 -38 -22 -66 -4 -27 -10 -50 -14 -50 -5 0 -16 18 -26 40 -15 32 -21 38 -35 30 -16 -9 -14 -16 22 -84 43 -83 63 -90 74 -28 3 21 9 48 13 62 8 25 8 25 26 -12 18 -36 38 -48 49 -30 3 5 -12 41 -33 81 -34 66 -39 71 -54 57z"/>
 <path d="M2977 2515 l-37 -76 47 -21 c42 -19 50 -19 73 -7 39 23 40 67 0 100 -27 23 -30 30 -21 47 8 16 7 21 -5 26 -9 3 -17 6 -18 6 -1 0 -18 -34 -39 -75z m77 -44 c10 -16 -23 -35 -43 -25 -15 7 -17 14 -10 32 7 19 12 21 28 12 11 -5 22 -14 25 -19z"/>
 <path d="M3928 2523 c-9 -3 -18 -14 -20 -26 -4 -29 -63 -47 -81 -25 -8 10 -19 13 -31 9 -16 -6 -12 -15 38 -74 79 -93 90 -90 105 24 7 50 10 92 9 93 -2 1 -11 1 -20 -1z m-28 -110 c0 -26 -1 -26 -17 -10 -16 16 -16 19 -3 27 20 13 20 13 20 -17z"/>
 <path d="M3147 2443 c-16 -53 -20 -80 -13 -85 18 -13 24 -9 35 23 9 26 14 29 33 24 34 -11 40 -19 29 -48 -8 -20 -7 -27 6 -31 21 -9 21 -8 48 77 20 65 21 76 8 81 -21 8 -20 9 -32 -25 -10 -28 -14 -30 -38 -24 -37 9 -37 9 -25 44 10 27 2 41 -23 41 -2 0 -15 -35 -28 -77z"/>
 <path d="M3357 2454 c-3 -11 -9 -49 -12 -85 l-7 -66 58 -7 c35 -4 61 -3 68 4 14 14 3 21 -43 27 -55 8 -56 33 -1 33 29 0 40 4 40 15 0 8 -9 15 -19 15 -31 0 -51 11 -51 27 0 13 9 15 45 10 40 -6 45 -5 45 13 0 15 -7 20 -29 20 -16 0 -42 3 -59 6 -24 5 -31 2 -35 -12z"/>
 <path d="M3703 2448 c3 -13 9 -49 13 -81 4 -36 12 -61 21 -64 24 -9 26 4 13 87 -11 69 -15 80 -32 80 -16 0 -19 -5 -15 -22z"/>
 <path d="M3560 2453 c-30 -11 -41 -25 -30 -38 9 -11 16 -11 37 0 26 14 43 12 43 -5 0 -4 -17 -17 -37 -27 -41 -19 -54 -53 -33 -79 14 -15 77 -19 99 -5 24 16 2 32 -35 25 -46 -9 -44 11 4 33 81 38 36 127 -48 96z"/>
 <path d="M2496 2102 l-26 -37 22 -18 c13 -9 60 -40 105 -68 577 -353 1329 -353 1906 0 45 28 92 59 105 68 l22 18 -26 37 -26 36 -76 -50 c-218 -142 -514 -247 -774 -273 l-68 -7 0 116 0 116 -35 0 -35 0 0 -115 0 -115 -40 0 -40 0 0 115 0 115 -35 0 -35 0 0 -116 0 -116 -67 7 c-265 27 -555 130 -775 273 l-76 50 -26 -36z"/>
 <path d="M3440 5096 l0 -33 -67 -7 c-227 -23 -471 -112 -665 -243 -97 -65 -248 -192 -248 -209 0 -6 9 -19 19 -29 19 -17 22 -15 88 44 234 209 497 331 800 372 134 18 373 6 504 -25 253 -59 462 -169 662 -347 66 -59 69 -61 88 -44 10 10 19 23 19 29 0 17 -151 144 -248 209 -194 131 -438 220 -664 243 l-68 7 0 33 c0 32 -2 34 -35 34 -32 0 -35 -2 -35 -30 0 -28 -2 -30 -40 -30 -38 0 -40 2 -40 30 0 28 -3 30 -35 30 -33 0 -35 -2 -35 -34z"/>
 <path d="M3375 4954 c-320 -48 -581 -175 -804 -390 -53 -51 -94 -94 -91 -97 3 -2 87 -64 188 -136 l183 -132 57 52 c264 242 650 316 982 188 106 -40 214 -107 291 -177 l66 -61 174 126 c96 69 180 131 187 138 11 10 1 25 -59 84 -192 190 -429 320 -698 382 -64 15 -131 21 -266 24 -99 2 -193 1 -210 -1z m423 -79 c241 -47 482 -167 656 -327 l70 -64 -54 -41 -55 -40 -69 60 c-110 94 -280 198 -296 180 -4 -4 -11 -18 -14 -29 -6 -19 3 -27 66 -62 82 -45 178 -114 223 -161 l29 -31 -24 -18 c-77 -56 -73 -55 -116 -19 -307 260 -739 318 -1099 147 -77 -37 -172 -98 -224 -146 -46 -41 -52 -40 -116 11 l-29 24 29 32 c45 47 141 116 223 161 63 35 72 43 66 62 -3 11 -10 25 -14 30 -17 18 -209 -102 -315 -197 l-50 -45 -52 37 c-29 20 -53 39 -53 43 0 12 148 136 227 189 162 109 378 191 578 218 95 13 312 6 413 -14z"/>
 <path d="M3440 4790 c0 -13 7 -20 20 -20 13 0 20 7 20 20 0 13 -7 20 -20 20 -13 0 -20 -7 -20 -20z"/>
 <path d="M3540 4803 c0 -5 9 -19 20 -33 26 -33 25 -45 -6 -86 l-26 -34 25 0 c14 0 31 9 39 22 l15 22 18 -27 c9 -15 26 -27 36 -27 24 0 24 4 -6 47 l-24 36 29 38 c35 43 36 49 11 49 -11 0 -29 -12 -40 -27 -23 -28 -23 -28 -40 5 -11 20 -51 32 -51 15z"/>
 <path d="M3336 4792 c-3 -5 0 -42 7 -83 10 -56 17 -75 30 -77 20 -4 21 6 6 99 -8 44 -17 69 -25 69 -7 0 -15 -4 -18 -8z"/>
 <path d="M3760 4718 c-27 -39 -50 -75 -50 -80 0 -4 9 -8 19 -8 12 0 30 17 48 45 31 50 43 56 43 21 0 -44 12 -85 28 -91 8 -3 16 -4 18 -2 2 2 -3 41 -11 88 -8 46 -15 85 -15 85 0 1 -7 4 -15 8 -10 4 -30 -17 -65 -66z"/>
 <path d="M3169 4743 c0 -10 -4 -51 -8 -90 -6 -65 -5 -73 11 -73 13 0 18 12 23 48 3 26 7 54 8 62 2 9 17 -4 37 -32 38 -52 39 -52 59 -39 11 7 3 23 -39 75 -53 65 -89 84 -91 49z"/>
 <path d="M3937 4663 c-21 -59 -25 -78 -15 -84 7 -5 16 -5 20 -1 13 14 58 144 52 153 -14 24 -33 2 -57 -68z"/>
 <path d="M3520 4327 c0 -82 -1 -85 -25 -89 l-25 -5 0 83 0 84 -35 0 -35 0 0 -90 c0 -49 -4 -90 -9 -90 -5 0 -16 -3 -25 -6 -14 -5 -16 5 -16 70 l0 76 -35 0 -35 0 0 -88 c0 -85 -1 -89 -25 -100 l-25 -12 0 70 0 70 -35 0 -35 0 0 -88 c0 -73 -3 -92 -18 -105 -28 -26 -32 -21 -32 33 l0 50 -35 0 -35 0 0 -55 c0 -52 1 -55 25 -55 16 0 37 -13 59 -37 30 -33 37 -36 53 -26 151 105 301 146 447 124 106 -15 193 -51 299 -124 16 -10 23 -7 51 26 23 25 41 37 60 37 25 0 26 2 26 55 0 54 0 55 -30 55 -28 0 -29 -1 -32 -56 l-3 -56 -27 22 c-27 21 -28 25 -28 111 l0 89 -30 0 -30 0 0 -70 c0 -38 -3 -70 -8 -70 -4 0 -18 7 -30 16 -20 14 -22 24 -22 100 l0 84 -30 0 -30 0 0 -75 c0 -74 -3 -81 -34 -69 -13 5 -16 23 -16 95 l0 89 -35 0 -35 0 0 -84 c0 -83 0 -83 -25 -79 -23 5 -24 9 -27 87 l-3 81 -32 3 -33 3 0 -84z"/>
 <path d="M3450 4079 c-30 -5 -92 -27 -138 -50 l-82 -40 17 -30 c29 -49 34 -50 108 -13 39 19 91 37 118 40 l47 7 0 -142 0 -141 30 0 30 0 0 141 0 140 28 -3 27 -3 3 -92 3 -93 29 0 30 0 0 80 c0 50 4 80 11 80 25 0 49 -22 49 -45 0 -21 5 -25 29 -25 19 0 31 6 34 18 3 9 15 31 27 49 l21 32 -83 40 c-115 56 -211 70 -338 50z"/>
 <path d="M4001 3725 c-29 -13 -32 -18 -26 -42 19 -75 23 -137 14 -195 -6 -34 -12 -65 -15 -69 -4 -7 57 -29 83 -29 28 0 37 202 14 298 -14 56 -19 59 -70 37z"/>
 <path d="M3880 3550 l0 -100 30 0 30 0 0 100 0 100 -30 0 -30 0 0 -100z"/>
 <path d="M2239 2362 c-13 -20 -43 -50 -65 -67 -40 -31 -41 -33 -27 -58 13 -26 15 -27 43 -12 35 18 88 72 113 114 l18 30 -29 15 c-29 15 -30 14 -53 -22z"/>
 <path d="M2025 2230 c-16 -4 -49 -8 -72 -9 -60 -2 -73 -9 -73 -42 0 -27 3 -29 38 -29 43 1 169 24 178 33 4 3 4 18 0 32 -7 26 -18 29 -71 15z"/>
 <path d="M1624 2045 c-3 -19 -12 -39 -19 -43 -8 -4 -11 -18 -8 -34 12 -62 82 -11 90 66 6 46 5 46 -25 46 -28 0 -32 -4 -38 -35z"/>
 <path d="M1460 1971 c0 -24 5 -29 31 -35 48 -9 49 -9 49 29 0 34 -1 35 -40 35 -37 0 -40 -2 -40 -29z"/>
 <path d="M4807 2384 l-28 -15 18 -30 c25 -42 78 -96 113 -114 28 -15 30 -14 43 12 14 26 13 28 -24 55 -21 15 -51 46 -65 68 -15 22 -27 40 -28 40 0 -1 -14 -8 -29 -16z"/>
 <path d="M5006 2215 c-4 -15 -5 -30 -2 -33 9 -8 137 -31 179 -32 35 0 37 2 37 30 0 32 -5 35 -95 44 -27 3 -64 8 -81 11 -28 6 -32 4 -38 -20z"/>
 <path d="M5413 2034 c8 -77 78 -128 90 -66 3 16 0 30 -8 34 -7 4 -16 24 -19 43 -6 31 -10 35 -38 35 -30 0 -31 0 -25 -46z"/>
 <path d="M5560 1964 c0 -36 1 -36 31 -30 17 3 35 6 40 6 5 0 9 14 9 30 0 28 -2 30 -40 30 -39 0 -40 -1 -40 -36z"/>
 <path d="M4390 1500 c-19 -11 -45 -19 -58 -20 -21 0 -21 -2 -8 -22 8 -13 18 -49 21 -80 7 -57 7 -58 -21 -69 -61 -23 -76 -18 -106 36 -16 28 -27 60 -25 73 5 26 -2 28 -29 7 -10 -8 -29 -15 -41 -15 -47 0 -53 -10 -23 -38 34 -32 270 -454 270 -482 0 -24 19 -26 46 -5 10 8 29 15 41 15 45 0 53 9 37 38 -20 38 -85 529 -73 559 5 12 7 23 6 23 -1 -1 -18 -9 -37 -20z m-20 -277 c0 -10 6 -55 14 -100 7 -46 10 -83 6 -83 -8 0 -100 163 -100 175 0 8 41 24 63 24 10 1 17 -6 17 -16z"/>
 <path d="M2717 1494 c-4 -4 -7 -16 -7 -26 0 -10 -11 -36 -25 -57 -14 -21 -28 -56 -31 -77 l-6 -39 25 39 c43 68 108 86 152 41 52 -51 24 -98 -94 -159 -114 -59 -145 -86 -166 -141 -33 -85 7 -162 96 -185 24 -6 52 -13 62 -16 11 -4 17 0 17 11 0 9 9 30 21 46 18 26 43 89 34 89 -2 0 -17 -13 -33 -30 -50 -49 -122 -31 -122 31 0 41 34 72 122 112 124 57 170 110 171 196 0 25 -7 61 -17 79 -20 39 -82 71 -136 72 -20 0 -41 5 -46 10 -6 6 -13 7 -17 4z"/>
 <path d="M3262 1363 c-70 -14 -123 -124 -142 -295 -23 -198 30 -315 139 -312 108 3 173 142 175 369 0 95 -3 116 -22 157 -32 65 -85 94 -150 81z m70 -123 c44 -88 1 -353 -64 -394 -14 -8 -22 -6 -39 10 -53 53 -26 336 38 407 23 25 45 18 65 -23z"/>
 <path d="M3861 1360 c-19 -5 -70 -11 -112 -15 -77 -7 -78 -7 -65 -29 21 -32 70 -520 55 -548 -10 -19 -9 -20 17 -13 16 5 48 7 72 6 l43 -2 -19 28 c-16 23 -24 68 -41 233 -29 283 -32 260 31 260 35 0 58 -6 71 -17 19 -18 20 -17 13 12 -3 17 -9 45 -12 63 -4 17 -9 32 -13 31 -3 -1 -21 -5 -40 -9z"/>
 </g>
<g id="layer103" fill="#fdfdfd" stroke="none">
 <path d="M3624 6334 c12 -25 11 -64 -5 -274 -13 -166 -23 -254 -33 -273 l-15 -27 42 0 c23 1 62 -2 87 -5 116 -15 184 86 197 295 13 205 -49 305 -185 298 -26 -1 -59 2 -74 6 -27 8 -27 8 -14 -20z m146 -74 c28 -15 44 -76 43 -166 -2 -153 -39 -256 -96 -262 -25 -3 -27 -1 -27 35 0 21 7 117 15 213 8 96 15 178 15 183 0 10 28 9 50 -3z"/>
 <path d="M3231 6331 c-8 -5 -30 -7 -49 -4 l-34 6 16 -24 c23 -35 81 -521 65 -550 -14 -27 -8 -32 25 -19 15 5 43 10 61 10 34 0 34 0 19 28 -19 35 -74 509 -63 540 7 17 5 22 -9 22 -9 0 -23 -4 -31 -9z"/>
 <path d="M4248 6249 c9 -24 6 -37 -87 -344 -31 -102 -59 -176 -70 -186 -18 -14 -12 -17 83 -46 55 -16 108 -33 116 -36 11 -5 21 7 38 41 25 52 29 73 10 54 -15 -15 -63 -14 -104 1 l-31 12 22 75 c26 87 41 96 85 52 l30 -30 0 29 c0 16 9 48 21 70 20 40 20 40 0 30 -11 -6 -30 -11 -43 -11 -47 0 -49 10 -21 100 14 47 29 88 33 93 13 15 101 -25 120 -55 l17 -29 5 48 c3 26 9 56 13 66 5 13 2 17 -14 17 -17 0 -171 47 -218 66 -10 4 -11 0 -5 -17z"/>
 <path d="M2686 6215 c-11 -8 -32 -15 -46 -15 -37 0 -42 -8 -20 -39 26 -36 163 -478 158 -510 l-4 -27 96 33 c52 18 105 33 117 33 24 0 39 15 23 25 -5 3 -10 23 -10 43 0 49 -15 73 -24 39 -5 -20 -19 -30 -62 -47 -31 -11 -58 -19 -59 -18 -6 9 -53 173 -50 176 11 12 87 13 100 2 21 -17 19 -1 -5 38 -11 18 -20 46 -20 63 l0 30 -22 -26 c-14 -15 -35 -27 -52 -28 -29 -2 -30 1 -58 88 -16 50 -27 105 -25 123 3 35 -7 40 -37 17z"/>
 <path d="M3440 5096 l0 -33 -67 -7 c-227 -23 -471 -112 -665 -243 -97 -65 -248 -192 -248 -209 0 -6 9 -19 19 -29 19 -17 22 -15 88 44 234 209 497 331 800 372 134 18 373 6 504 -25 253 -59 462 -169 662 -347 66 -59 69 -61 88 -44 10 10 19 23 19 29 0 17 -151 144 -248 209 -194 131 -438 220 -664 243 l-68 7 0 33 c0 32 -2 34 -35 34 -32 0 -35 -2 -35 -30 0 -28 -2 -30 -40 -30 -38 0 -40 2 -40 30 0 28 -3 30 -35 30 -33 0 -35 -2 -35 -34z"/>
 <path d="M3375 4954 c-320 -48 -581 -175 -804 -390 -53 -51 -94 -94 -91 -97 3 -2 87 -64 188 -136 l183 -132 57 52 c264 242 650 316 982 188 106 -40 214 -107 291 -177 l66 -61 174 126 c96 69 180 131 187 138 11 10 1 25 -59 84 -192 190 -429 320 -698 382 -64 15 -131 21 -266 24 -99 2 -193 1 -210 -1z m423 -79 c241 -47 482 -167 656 -327 l70 -64 -54 -41 -55 -40 -69 60 c-110 94 -280 198 -296 180 -4 -4 -11 -18 -14 -29 -6 -19 3 -27 66 -62 82 -45 178 -114 223 -161 l29 -31 -24 -18 c-77 -56 -73 -55 -116 -19 -307 260 -739 318 -1099 147 -77 -37 -172 -98 -224 -146 -46 -41 -52 -40 -116 11 l-29 24 29 32 c45 47 141 116 223 161 63 35 72 43 66 62 -3 11 -10 25 -14 30 -17 18 -209 -102 -315 -197 l-50 -45 -52 37 c-29 20 -53 39 -53 43 0 12 148 136 227 189 162 109 378 191 578 218 95 13 312 6 413 -14z"/>
 <path d="M3440 4790 c0 -13 7 -20 20 -20 13 0 20 7 20 20 0 13 -7 20 -20 20 -13 0 -20 -7 -20 -20z"/>
 <path d="M3540 4803 c0 -5 9 -19 20 -33 26 -33 25 -45 -6 -86 l-26 -34 25 0 c14 0 31 9 39 22 l15 22 18 -27 c9 -15 26 -27 36 -27 24 0 24 4 -6 47 l-24 36 29 38 c35 43 36 49 11 49 -11 0 -29 -12 -40 -27 -23 -28 -23 -28 -40 5 -11 20 -51 32 -51 15z"/>
 <path d="M3336 4792 c-3 -5 0 -42 7 -83 10 -56 17 -75 30 -77 20 -4 21 6 6 99 -8 44 -17 69 -25 69 -7 0 -15 -4 -18 -8z"/>
 <path d="M3760 4718 c-27 -39 -50 -75 -50 -80 0 -4 9 -8 19 -8 12 0 30 17 48 45 31 50 43 56 43 21 0 -44 12 -85 28 -91 8 -3 16 -4 18 -2 2 2 -3 41 -11 88 -8 46 -15 85 -15 85 0 1 -7 4 -15 8 -10 4 -30 -17 -65 -66z"/>
 <path d="M3169 4743 c0 -10 -4 -51 -8 -90 -6 -65 -5 -73 11 -73 13 0 18 12 23 48 3 26 7 54 8 62 2 9 17 -4 37 -32 38 -52 39 -52 59 -39 11 7 3 23 -39 75 -53 65 -89 84 -91 49z"/>
 <path d="M3937 4663 c-21 -59 -25 -78 -15 -84 7 -5 16 -5 20 -1 13 14 58 144 52 153 -14 24 -33 2 -57 -68z"/>
 <path d="M3520 4327 c0 -82 -1 -85 -25 -89 l-25 -5 0 83 0 84 -35 0 -35 0 0 -90 c0 -49 -4 -90 -9 -90 -5 0 -16 -3 -25 -6 -14 -5 -16 5 -16 70 l0 76 -35 0 -35 0 0 -88 c0 -85 -1 -89 -25 -100 l-25 -12 0 70 0 70 -35 0 -35 0 0 -88 c0 -73 -3 -92 -18 -105 -28 -26 -32 -21 -32 33 l0 50 -35 0 -35 0 0 -55 c0 -52 1 -55 25 -55 16 0 37 -13 59 -37 30 -33 37 -36 53 -26 151 105 301 146 447 124 106 -15 193 -51 299 -124 16 -10 23 -7 51 26 23 25 41 37 60 37 25 0 26 2 26 55 0 54 0 55 -30 55 -28 0 -29 -1 -32 -56 l-3 -56 -27 22 c-27 21 -28 25 -28 111 l0 89 -30 0 -30 0 0 -70 c0 -38 -3 -70 -8 -70 -4 0 -18 7 -30 16 -20 14 -22 24 -22 100 l0 84 -30 0 -30 0 0 -75 c0 -74 -3 -81 -34 -69 -13 5 -16 23 -16 95 l0 89 -35 0 -35 0 0 -84 c0 -83 0 -83 -25 -79 -23 5 -24 9 -27 87 l-3 81 -32 3 -33 3 0 -84z"/>
 <path d="M3450 4079 c-30 -5 -92 -27 -138 -50 l-82 -40 17 -30 c29 -49 34 -50 108 -13 39 19 91 37 118 40 l47 7 0 -142 0 -141 30 0 30 0 0 141 0 140 28 -3 27 -3 3 -92 3 -93 29 0 30 0 0 80 c0 50 4 80 11 80 25 0 49 -22 49 -45 0 -21 5 -25 29 -25 19 0 31 6 34 18 3 9 15 31 27 49 l21 32 -83 40 c-115 56 -211 70 -338 50z"/>
 <path d="M3029 3688 c-23 -96 -14 -298 14 -298 26 0 87 22 83 29 -3 4 -9 35 -15 69 -9 58 -5 120 14 195 6 24 4 29 -29 42 -19 8 -40 15 -45 15 -5 0 -15 -24 -22 -52z"/>
 <path d="M4001 3725 c-29 -13 -32 -18 -26 -42 19 -75 23 -137 14 -195 -6 -34 -12 -65 -15 -69 -4 -7 57 -29 83 -29 28 0 37 202 14 298 -14 56 -19 59 -70 37z"/>
 <path d="M3880 3550 l0 -100 30 0 30 0 0 100 0 100 -30 0 -30 0 0 -100z"/>
 <path d="M3520 3250 c0 -140 0 -140 -23 -140 -41 0 -120 28 -178 63 l-56 34 -28 -35 -28 -35 24 -20 c13 -11 56 -35 94 -53 94 -45 198 -60 303 -45 78 12 193 58 242 98 l24 21 -29 35 c-24 29 -37 36 -67 36 -34 1 -38 -2 -38 -24 0 -23 -24 -45 -49 -45 -7 0 -11 30 -11 80 l0 80 -30 0 -29 0 -3 -92 -3 -93 -27 -3 -28 -3 0 140 0 141 -30 0 -30 0 0 -140z"/>
 <path d="M3104 3079 l-29 -31 40 -34 c59 -51 208 -120 297 -138 147 -30 293 -13 427 50 72 34 171 99 171 112 -1 4 -13 22 -29 40 l-28 32 -39 -31 c-101 -82 -279 -136 -407 -124 -118 11 -237 57 -321 124 -21 17 -42 31 -46 31 -3 0 -19 -14 -36 -31z"/>
 <path d="M2910 2935 l-21 -22 51 -46 c171 -153 373 -230 610 -230 235 0 441 78 610 230 l51 46 -21 22 -22 23 -81 -66 c-89 -71 -224 -141 -323 -166 -88 -23 -104 -21 -104 9 0 22 -4 25 -35 25 -32 0 -35 -2 -35 -30 0 -28 -2 -30 -40 -30 -38 0 -40 2 -40 30 0 28 -3 30 -35 30 -31 0 -35 -3 -35 -25 0 -30 -16 -32 -104 -9 -99 25 -234 95 -323 166 l-81 66 -22 -23z"/>
 <path d="M2679 2773 c-96 -69 -180 -131 -187 -137 -11 -10 0 -26 56 -83 188 -189 435 -325 703 -385 140 -31 446 -33 579 -4 269 59 503 183 699 372 53 51 94 94 91 97 -3 2 -87 63 -188 136 l-183 132 -56 -51 c-112 -103 -243 -176 -393 -220 -107 -31 -316 -39 -431 -15 -168 34 -332 115 -450 223 l-66 61 -174 -126z m272 -46 c142 -108 346 -181 542 -193 240 -14 504 69 687 218 29 24 58 47 65 52 8 6 53 -20 141 -84 71 -51 131 -95 134 -98 9 -8 -122 -120 -213 -183 -148 -103 -332 -179 -517 -216 -116 -23 -364 -23 -480 0 -249 49 -486 167 -663 328 -56 51 -66 64 -55 75 7 7 67 51 132 98 116 84 119 85 141 68 12 -9 51 -39 86 -65z"/>
 <path d="M2826 2626 c-25 -36 -46 -68 -46 -73 0 -4 22 -22 47 -40 37 -25 50 -30 61 -21 15 13 13 14 -43 52 -15 11 -17 17 -8 26 9 10 17 8 39 -9 21 -17 30 -19 41 -9 15 12 7 22 -36 47 -8 5 -11 16 -8 25 6 15 11 14 44 -8 22 -15 41 -22 46 -17 13 13 6 21 -46 59 l-45 32 -46 -64z"/>
 <path d="M4207 2679 c-9 -5 -24 -23 -32 -38 -13 -27 -13 -29 5 -34 11 -3 20 -1 20 4 0 15 40 50 51 44 6 -4 1 -20 -11 -41 -36 -57 -13 -104 43 -90 35 8 67 54 47 66 -10 6 -22 0 -39 -18 -22 -24 -26 -25 -29 -9 -2 10 3 26 11 35 23 28 26 48 11 71 -16 22 -48 27 -77 10z"/>
 <path d="M4097 2596 c-8 -8 -18 -38 -22 -66 -4 -27 -10 -50 -14 -50 -5 0 -16 18 -26 40 -15 32 -21 38 -35 30 -16 -9 -14 -16 22 -84 43 -83 63 -90 74 -28 3 21 9 48 13 62 8 25 8 25 26 -12 18 -36 38 -48 49 -30 3 5 -12 41 -33 81 -34 66 -39 71 -54 57z"/>
 <path d="M2977 2515 l-37 -76 47 -21 c42 -19 50 -19 73 -7 39 23 40 67 0 100 -27 23 -30 30 -21 47 8 16 7 21 -5 26 -9 3 -17 6 -18 6 -1 0 -18 -34 -39 -75z m77 -44 c10 -16 -23 -35 -43 -25 -15 7 -17 14 -10 32 7 19 12 21 28 12 11 -5 22 -14 25 -19z"/>
 <path d="M3928 2523 c-9 -3 -18 -14 -20 -26 -4 -29 -63 -47 -81 -25 -8 10 -19 13 -31 9 -16 -6 -12 -15 38 -74 79 -93 90 -90 105 24 7 50 10 92 9 93 -2 1 -11 1 -20 -1z m-28 -110 c0 -26 -1 -26 -17 -10 -16 16 -16 19 -3 27 20 13 20 13 20 -17z"/>
 <path d="M3147 2443 c-16 -53 -20 -80 -13 -85 18 -13 24 -9 35 23 9 26 14 29 33 24 34 -11 40 -19 29 -48 -8 -20 -7 -27 6 -31 21 -9 21 -8 48 77 20 65 21 76 8 81 -21 8 -20 9 -32 -25 -10 -28 -14 -30 -38 -24 -37 9 -37 9 -25 44 10 27 2 41 -23 41 -2 0 -15 -35 -28 -77z"/>
 <path d="M3357 2454 c-3 -11 -9 -49 -12 -85 l-7 -66 58 -7 c35 -4 61 -3 68 4 14 14 3 21 -43 27 -55 8 -56 33 -1 33 29 0 40 4 40 15 0 8 -9 15 -19 15 -31 0 -51 11 -51 27 0 13 9 15 45 10 40 -6 45 -5 45 13 0 15 -7 20 -29 20 -16 0 -42 3 -59 6 -24 5 -31 2 -35 -12z"/>
 <path d="M3703 2448 c3 -13 9 -49 13 -81 4 -36 12 -61 21 -64 24 -9 26 4 13 87 -11 69 -15 80 -32 80 -16 0 -19 -5 -15 -22z"/>
 <path d="M3560 2453 c-30 -11 -41 -25 -30 -38 9 -11 16 -11 37 0 26 14 43 12 43 -5 0 -4 -17 -17 -37 -27 -41 -19 -54 -53 -33 -79 14 -15 77 -19 99 -5 24 16 2 32 -35 25 -46 -9 -44 11 4 33 81 38 36 127 -48 96z"/>
 <path d="M2239 2362 c-13 -20 -43 -50 -65 -67 -40 -31 -41 -33 -27 -58 13 -26 15 -27 43 -12 35 18 88 72 113 114 l18 30 -29 15 c-29 15 -30 14 -53 -22z"/>
 <path d="M4807 2384 l-28 -15 18 -30 c25 -42 78 -96 113 -114 28 -15 30 -14 43 12 14 26 13 28 -24 55 -21 15 -51 46 -65 68 -15 22 -27 40 -28 40 0 -1 -14 -8 -29 -16z"/>
 <path d="M2025 2230 c-16 -4 -49 -8 -72 -9 -60 -2 -73 -9 -73 -42 0 -27 3 -29 38 -29 43 1 169 24 178 33 4 3 4 18 0 32 -7 26 -18 29 -71 15z"/>
 <path d="M5006 2215 c-4 -15 -5 -30 -2 -33 9 -8 137 -31 179 -32 35 0 37 2 37 30 0 32 -5 35 -95 44 -27 3 -64 8 -81 11 -28 6 -32 4 -38 -20z"/>
 <path d="M2496 2102 l-26 -37 22 -18 c13 -9 60 -40 105 -68 577 -353 1329 -353 1906 0 45 28 92 59 105 68 l22 18 -26 37 -26 36 -76 -50 c-218 -142 -514 -247 -774 -273 l-68 -7 0 116 0 116 -35 0 -35 0 0 -115 0 -115 -40 0 -40 0 0 115 0 115 -35 0 -35 0 0 -116 0 -116 -67 7 c-265 27 -555 130 -775 273 l-76 50 -26 -36z"/>
 <path d="M1624 2045 c-3 -19 -12 -39 -19 -43 -8 -4 -11 -18 -8 -34 12 -62 82 -11 90 66 6 46 5 46 -25 46 -28 0 -32 -4 -38 -35z"/>
 <path d="M5413 2034 c8 -77 78 -128 90 -66 3 16 0 30 -8 34 -7 4 -16 24 -19 43 -6 31 -10 35 -38 35 -30 0 -31 0 -25 -46z"/>
 <path d="M1460 1971 c0 -24 5 -29 31 -35 48 -9 49 -9 49 29 0 34 -1 35 -40 35 -37 0 -40 -2 -40 -29z"/>
 <path d="M5560 1964 c0 -36 1 -36 31 -30 17 3 35 6 40 6 5 0 9 14 9 30 0 28 -2 30 -40 30 -39 0 -40 -1 -40 -36z"/>
 <path d="M4390 1500 c-19 -11 -45 -19 -58 -20 -21 0 -21 -2 -8 -22 8 -13 18 -49 21 -80 7 -57 7 -58 -21 -69 -61 -23 -76 -18 -106 36 -16 28 -27 60 -25 73 5 26 -2 28 -29 7 -10 -8 -29 -15 -41 -15 -47 0 -53 -10 -23 -38 34 -32 270 -454 270 -482 0 -24 19 -26 46 -5 10 8 29 15 41 15 45 0 53 9 37 38 -20 38 -85 529 -73 559 5 12 7 23 6 23 -1 -1 -18 -9 -37 -20z m-20 -277 c0 -10 6 -55 14 -100 7 -46 10 -83 6 -83 -8 0 -100 163 -100 175 0 8 41 24 63 24 10 1 17 -6 17 -16z"/>
 <path d="M2717 1494 c-4 -4 -7 -16 -7 -26 0 -10 -11 -36 -25 -57 -14 -21 -28 -56 -31 -77 l-6 -39 25 39 c43 68 108 86 152 41 52 -51 24 -98 -94 -159 -114 -59 -145 -86 -166 -141 -33 -85 7 -162 96 -185 24 -6 52 -13 62 -16 11 -4 17 0 17 11 0 9 9 30 21 46 18 26 43 89 34 89 -2 0 -17 -13 -33 -30 -50 -49 -122 -31 -122 31 0 41 34 72 122 112 124 57 170 110 171 196 0 25 -7 61 -17 79 -20 39 -82 71 -136 72 -20 0 -41 5 -46 10 -6 6 -13 7 -17 4z"/>
 <path d="M3262 1363 c-70 -14 -123 -124 -142 -295 -23 -198 30 -315 139 -312 108 3 173 142 175 369 0 95 -3 116 -22 157 -32 65 -85 94 -150 81z m70 -123 c44 -88 1 -353 -64 -394 -14 -8 -22 -6 -39 10 -53 53 -26 336 38 407 23 25 45 18 65 -23z"/>
 <path d="M3861 1360 c-19 -5 -70 -11 -112 -15 -77 -7 -78 -7 -65 -29 21 -32 70 -520 55 -548 -10 -19 -9 -20 17 -13 16 5 48 7 72 6 l43 -2 -19 28 c-16 23 -24 68 -41 233 -29 283 -32 260 31 260 35 0 58 -6 71 -17 19 -18 20 -17 13 12 -3 17 -9 45 -12 63 -4 17 -9 32 -13 31 -3 -1 -21 -5 -40 -9z"/>
 </g>

</svg>