<!DOCTYPE svg PUBLIC "-//W3C//DTD SVG 20010904//EN" "http://www.w3.org/TR/2001/REC-SVG-20010904/DTD/svg10.dtd">
<svg version="1.0" xmlns="http://www.w3.org/2000/svg" width="702px" height="702px" viewBox="0 0 7020 7020" preserveAspectRatio="xMidYMid meet">
<g id="layer101" fill="#272526" stroke="none">
 <path d="M3133 7004 c-1651 -180 -2943 -1477 -3118 -3129 -19 -182 -19 -548 0 -730 176 -1658 1472 -2954 3130 -3130 288 -30 698 -16 985 35 1539 274 2709 1534 2875 3095 19 182 19 548 0 730 -176 1658 -1472 2954 -3130 3130 -173 18 -572 18 -742 -1z"/>
 </g>
<g id="layer102" fill="#bc955a" stroke="none">
 <path d="M3259 6934 l-76 -76 -84 56 c-47 30 -90 56 -95 58 -6 2 -42 -33 -80 -78 l-70 -81 -98 49 c-54 27 -99 48 -100 46 -2 -2 -24 -34 -51 -73 -80 -115 -62 -109 -172 -64 -52 21 -99 36 -104 34 -4 -3 -26 -38 -48 -78 -65 -118 -51 -111 -166 -77 -55 16 -103 26 -106 22 -3 -4 -24 -49 -45 -100 l-39 -93 -35 5 c-19 3 -68 12 -108 20 -40 7 -74 11 -76 7 -2 -3 -18 -50 -36 -104 l-32 -98 -92 6 c-50 4 -99 9 -108 11 -13 4 -19 -7 -28 -53 -7 -32 -18 -80 -24 -108 l-12 -50 -110 -5 -109 -5 -13 -105 c-7 -57 -14 -105 -16 -107 -1 -1 -49 -9 -107 -16 l-104 -13 -5 -109 -5 -110 -99 -22 c-54 -12 -102 -25 -106 -30 -4 -4 -3 -53 2 -107 5 -54 5 -102 1 -106 -4 -3 -42 -17 -83 -29 -41 -13 -85 -27 -96 -32 l-22 -8 20 -106 c11 -59 18 -108 16 -109 -2 -1 -43 -20 -93 -41 -49 -21 -93 -41 -97 -45 -4 -3 6 -50 21 -105 16 -55 27 -103 25 -107 -3 -4 -44 -29 -92 -54 -48 -26 -89 -49 -91 -50 -2 -2 14 -48 37 -103 46 -114 52 -96 -63 -176 -38 -27 -71 -49 -73 -51 -2 -1 19 -46 46 -100 l49 -98 -81 -70 c-45 -38 -80 -73 -78 -78 1 -5 27 -47 58 -95 l56 -86 -77 -77 -77 -78 66 -83 c36 -46 66 -86 66 -89 0 -3 -30 -42 -67 -88 l-66 -84 78 -78 77 -78 -56 -86 c-31 -47 -57 -89 -58 -94 -2 -5 33 -40 78 -78 l81 -70 -49 -98 c-27 -54 -48 -99 -46 -100 2 -2 35 -24 73 -51 115 -80 109 -62 63 -176 -23 -55 -39 -101 -37 -103 2 -2 43 -24 91 -50 48 -26 90 -51 92 -55 3 -4 -8 -52 -24 -107 -16 -54 -26 -101 -22 -105 4 -3 48 -23 97 -44 50 -22 91 -40 93 -41 2 -1 -5 -50 -16 -109 l-20 -106 22 -8 c11 -5 55 -19 96 -32 41 -12 79 -26 83 -29 4 -4 4 -52 -1 -106 -5 -54 -6 -103 -2 -107 4 -5 52 -19 106 -31 l99 -21 5 -110 5 -110 105 -13 c57 -7 105 -14 107 -15 1 -2 8 -50 15 -107 l13 -105 110 -5 110 -5 23 -105 c13 -57 24 -105 25 -106 1 -1 47 2 101 7 55 5 104 8 109 6 5 -1 23 -47 41 -102 22 -68 37 -99 47 -98 8 0 56 9 107 18 51 10 94 16 95 14 2 -2 20 -44 42 -94 21 -49 41 -93 44 -97 3 -4 53 7 110 23 57 16 105 28 106 26 1 -1 23 -42 50 -92 26 -50 49 -91 51 -93 1 -2 47 14 103 36 115 45 97 52 176 -63 27 -38 49 -71 51 -73 1 -2 46 19 100 46 l98 49 70 -81 c38 -45 73 -80 78 -78 5 1 47 27 95 58 l86 56 78 -78 77 -77 84 66 c46 37 85 67 88 67 3 0 42 -30 88 -67 l84 -66 77 77 78 78 86 -56 c48 -31 90 -57 95 -58 5 -2 40 33 78 78 l70 81 98 -49 c54 -27 99 -48 100 -46 1 2 13 19 26 38 13 19 41 58 62 87 l38 52 100 -41 c55 -22 102 -39 104 -37 2 2 24 43 50 91 26 48 51 90 55 92 4 3 52 -8 107 -24 54 -16 101 -26 105 -22 3 4 23 48 44 97 22 50 40 91 41 93 1 2 50 -5 109 -16 l106 -20 8 22 c5 11 19 55 32 96 12 41 26 79 29 83 4 4 54 4 111 -1 57 -5 105 -8 106 -8 1 1 12 49 25 106 l23 105 110 5 110 5 6 50 c4 28 10 75 14 106 l6 57 42 6 c23 3 67 8 97 12 84 8 79 2 82 121 l3 108 99 22 c54 12 102 25 106 30 4 4 4 37 0 73 -3 36 -6 82 -6 103 l1 39 88 28 c48 15 94 30 101 33 11 5 10 24 -6 112 -11 59 -18 108 -16 109 2 1 44 19 93 41 50 21 93 41 97 44 4 4 -6 51 -22 105 -16 55 -27 103 -24 108 3 4 44 29 92 54 48 26 89 49 91 50 2 2 -14 48 -37 103 -46 114 -52 96 63 176 39 27 71 49 73 51 2 1 -19 46 -46 100 l-49 98 81 70 c45 38 80 73 78 78 -1 5 -27 47 -58 95 l-56 86 78 78 77 77 -66 84 c-37 46 -67 85 -67 88 0 3 30 42 67 88 l66 84 -77 77 -78 78 56 86 c31 48 57 90 58 95 2 5 -33 40 -78 78 l-81 70 49 98 c27 54 48 99 46 100 -2 2 -34 24 -73 51 -115 80 -109 62 -64 172 21 52 36 99 33 104 -2 5 -43 29 -89 54 -47 26 -87 50 -89 54 -3 4 8 52 25 106 16 54 26 102 22 105 -5 4 -50 25 -100 46 -59 25 -92 44 -92 54 0 8 8 57 18 108 15 77 16 95 5 99 -8 3 -53 18 -101 33 -51 16 -89 34 -91 43 -2 8 1 56 7 108 5 52 8 95 7 96 -1 1 -49 12 -106 25 l-105 23 -3 108 c-3 119 2 113 -82 121 -30 4 -74 9 -97 12 l-42 6 -6 57 c-4 31 -10 79 -14 106 l-6 50 -110 5 -109 5 -7 30 c-4 17 -15 65 -24 107 -15 69 -19 76 -38 73 -12 -2 -62 -5 -110 -7 l-88 -3 -29 88 c-15 48 -30 94 -33 101 -5 11 -24 10 -112 -6 -59 -11 -108 -18 -110 -16 -1 2 -19 44 -40 93 -21 50 -41 93 -44 97 -3 4 -51 -6 -106 -22 -115 -34 -101 -41 -166 77 -22 40 -43 75 -47 77 -4 3 -51 -13 -104 -33 -111 -44 -94 -51 -173 64 -27 39 -49 71 -51 73 -1 2 -46 -19 -100 -46 l-98 -49 -70 81 c-38 45 -73 80 -78 78 -5 -1 -47 -27 -95 -58 l-86 -56 -78 78 -77 77 -84 -66 c-46 -37 -85 -67 -88 -67 -3 0 -41 29 -85 65 -44 35 -82 64 -85 65 -3 0 -39 -34 -81 -76z m151 -99 c11 -13 4 -15 -61 -15 l-73 0 34 35 33 34 27 -19 c15 -10 33 -26 40 -35z m300 20 l34 -35 -75 0 -74 1 39 34 c22 19 40 35 41 35 0 0 16 -16 35 -35z m-632 -56 c-7 -4 -40 -10 -72 -14 l-59 -8 33 41 32 41 40 -26 c27 -19 35 -29 26 -34z m962 20 l33 -42 -49 7 c-27 4 -62 9 -77 12 l-28 6 43 28 c24 16 43 29 44 29 0 1 16 -18 34 -40z m-1301 -53 l44 -23 -66 -16 c-90 -23 -92 -22 -60 23 15 22 30 39 33 39 3 0 25 -10 49 -23z m1624 -16 c32 -45 30 -46 -60 -23 l-66 16 44 23 c24 13 46 23 49 23 3 0 18 -17 33 -39z m-443 -44 c594 -79 1144 -315 1615 -693 142 -113 366 -338 479 -478 99 -124 254 -353 312 -463 38 -71 38 -73 20 -87 -23 -17 -36 -19 -36 -5 0 5 -25 53 -56 107 -334 579 -864 1055 -1474 1321 -810 355 -1712 357 -2529 6 -609 -262 -1154 -749 -1486 -1329 -31 -55 -60 -103 -64 -108 -4 -4 -16 -1 -27 8 -19 14 -18 16 15 77 297 549 791 1026 1361 1317 371 189 799 313 1170 338 47 3 87 8 90 10 11 11 501 -7 610 -21z m-1495 -32 c20 -8 35 -17 33 -19 -2 -2 -33 -14 -70 -28 l-66 -24 21 44 c23 48 29 50 82 27z m2252 -27 l21 -44 -66 24 c-37 14 -68 26 -71 28 -5 5 60 33 80 34 8 1 24 -18 36 -42z m-881 -78 c988 -95 1851 -645 2363 -1504 39 -66 71 -124 71 -130 0 -16 -933 -481 -937 -468 -9 26 -107 179 -157 247 -336 445 -803 722 -1356 802 -171 24 -490 15 -655 -20 -148 -31 -233 -55 -352 -102 -330 -127 -626 -348 -856 -638 -70 -89 -178 -253 -190 -289 -4 -12 -937 452 -937 466 0 14 92 171 166 282 139 209 306 403 489 568 490 442 1071 705 1730 782 138 16 476 18 621 4z m-1673 -16 c15 -3 29 -8 31 -12 3 -4 -26 -20 -64 -37 l-68 -31 21 49 c15 37 24 47 36 43 9 -4 28 -9 44 -12z m2855 -32 l20 -48 -68 31 c-38 17 -66 33 -63 36 4 4 67 26 84 29 4 1 15 -21 27 -48z m-3126 -121 c28 0 16 -13 -52 -53 -61 -37 -67 -36 -51 5 5 13 12 31 15 42 5 15 13 17 37 12 18 -3 40 -6 51 -6z m3408 -15 c5 -14 13 -37 16 -52 8 -28 18 -32 -86 33 l-45 29 35 6 c62 11 70 10 80 -16z m-3682 -165 c22 0 18 -6 -34 -45 -32 -24 -62 -45 -65 -45 -3 0 -2 23 4 51 10 50 11 51 40 45 16 -3 41 -6 55 -6z m3959 -40 c6 -27 8 -50 6 -50 -2 0 -31 20 -64 44 l-61 45 38 4 c22 2 46 4 55 5 12 2 19 -11 26 -48z m-4247 -211 c-59 -54 -68 -51 -55 17 6 34 7 34 58 34 l52 -1 -55 -50z m4495 17 c13 -68 4 -71 -55 -17 l-55 50 52 1 c51 0 52 0 58 -34z m-4713 -233 c-16 -21 -39 -47 -51 -57 l-21 -19 0 50 c0 27 2 52 5 54 2 3 25 6 51 8 l47 2 -31 -38z m4926 31 c19 -6 22 -13 22 -57 l0 -50 -21 19 c-12 10 -35 36 -51 57 l-30 37 29 0 c15 0 38 -3 51 -6z m-5152 -305 c-40 -54 -46 -59 -46 -37 0 14 -3 39 -6 55 -6 30 -5 31 43 40 26 5 50 8 52 7 2 -2 -17 -31 -43 -65z m5380 18 c-3 -16 -6 -41 -6 -55 0 -22 -6 -18 -45 34 -24 32 -45 62 -45 65 0 3 23 2 51 -4 50 -10 51 -11 45 -40z m-2472 -72 c745 -98 1357 -605 1591 -1319 156 -473 118 -1001 -103 -1446 l-57 -115 -5 890 c-5 878 -5 891 -26 936 -29 62 -77 114 -129 139 -25 12 -45 25 -45 29 0 5 -267 8 -592 9 l-593 0 -63 26 c-137 57 -307 57 -443 1 l-64 -27 -592 0 c-354 0 -593 -4 -593 -9 0 -5 -12 -15 -27 -21 -56 -24 -112 -78 -140 -136 l-28 -57 -5 -890 -5 -890 -57 115 c-121 243 -186 504 -195 785 -16 463 120 883 405 1252 413 533 1097 816 1766 728z m-3081 -205 c-19 -33 -39 -63 -43 -65 -10 -6 -24 84 -15 93 8 9 66 30 82 31 7 1 -4 -26 -24 -59z m5700 43 c15 -3 30 -9 32 -13 7 -12 -7 -100 -15 -95 -4 3 -24 32 -44 66 -27 46 -32 60 -19 54 10 -3 30 -9 46 -12z m-5856 -332 c-18 -38 -35 -67 -38 -65 -4 2 -9 16 -12 31 -3 16 -8 35 -12 44 -4 12 6 21 42 37 26 12 49 21 50 22 1 0 -12 -31 -30 -69z m6048 10 c-4 -9 -9 -28 -12 -44 -3 -15 -8 -29 -12 -31 -4 -3 -20 26 -37 64 l-31 68 49 -21 c37 -15 47 -24 43 -36z m-5932 -110 c-193 -429 -287 -861 -288 -1321 -2 -1055 532 -2049 1415 -2635 529 -351 1124 -530 1755 -529 1028 2 1976 494 2579 1338 640 896 760 2091 312 3102 -42 96 -43 99 -24 113 11 7 23 10 28 5 16 -16 96 -206 139 -329 122 -348 171 -630 176 -1020 5 -328 -18 -535 -90 -825 -144 -573 -428 -1072 -850 -1495 -449 -451 -997 -747 -1627 -880 -195 -42 -343 -57 -598 -60 -331 -5 -545 18 -829 90 -1217 307 -2145 1287 -2385 2520 -42 215 -50 317 -50 600 0 293 9 403 55 635 46 231 128 487 222 693 35 75 37 77 61 66 l25 -12 -26 -56z m160 -12 c23 -12 43 -22 45 -24 1 -1 -20 -54 -47 -118 -300 -698 -319 -1482 -55 -2204 55 -149 194 -428 279 -558 162 -250 396 -514 603 -680 l62 -50 0 -67 c0 -38 -3 -68 -6 -68 -4 0 -39 26 -78 57 -531 428 -901 1003 -1066 1653 -25 99 -51 237 -75 395 -14 94 -17 495 -5 625 6 74 14 143 15 154 42 253 85 424 158 626 48 132 113 280 122 280 3 0 25 -10 48 -21z m5535 -84 c115 -263 212 -626 237 -890 4 -38 9 -83 11 -100 8 -65 4 -409 -6 -521 -67 -713 -376 -1369 -885 -1879 -123 -123 -320 -295 -338 -295 -4 0 -7 30 -7 68 l0 67 60 49 c97 78 251 229 343 334 386 446 620 964 703 1562 25 178 25 576 0 755 -41 299 -117 569 -228 818 -22 49 -38 91 -35 93 11 11 83 43 92 40 6 -1 29 -47 53 -101z m-5367 0 c55 -28 56 -32 19 -105 -41 -83 -115 -295 -150 -435 -188 -737 -69 -1502 335 -2154 113 -182 308 -419 456 -552 75 -68 79 -74 78 -113 0 -23 -3 -58 -7 -78 l-7 -38 -120 109 c-373 336 -655 773 -809 1250 -196 606 -183 1287 35 1882 43 117 105 259 114 259 3 0 28 -11 56 -25z m5207 -81 c273 -625 309 -1384 95 -2039 -154 -475 -439 -914 -808 -1246 l-120 -109 -7 38 c-4 20 -7 55 -7 78 -1 39 3 45 78 113 96 86 235 242 335 375 362 483 565 1131 541 1730 -15 398 -78 661 -262 1103 -5 12 84 64 102 59 5 -1 29 -47 53 -102z m-5775 -21 c-13 -37 -26 -69 -28 -71 -5 -5 -35 66 -35 82 0 10 21 23 86 55 1 1 -9 -29 -23 -66z m6297 11 c0 -16 -30 -87 -35 -82 -2 2 -14 33 -28 70 l-24 66 44 -21 c23 -11 43 -26 43 -33z m-5520 -23 c0 -4 -14 -39 -31 -77 -86 -188 -165 -469 -195 -689 -24 -177 -24 -523 0 -690 79 -548 316 -1045 678 -1421 l99 -103 -5 -48 c-2 -26 -5 -59 -5 -72 -1 -22 -5 -20 -53 25 -83 76 -223 231 -299 331 -378 499 -567 1094 -546 1723 12 349 78 651 212 970 l47 109 49 -24 c27 -14 49 -29 49 -34z m4828 -59 c84 -199 154 -445 181 -637 27 -189 30 -232 26 -450 -2 -172 -8 -265 -24 -369 -93 -598 -379 -1144 -812 -1554 l-56 -52 -7 71 -6 71 102 107 c355 370 587 851 670 1386 27 179 30 538 5 710 -33 235 -110 510 -191 689 -20 43 -36 82 -36 87 0 6 76 52 97 59 0 0 24 -53 51 -118z m-4525 -83 c111 -56 203 -102 205 -104 1 -1 -11 -31 -26 -66 -108 -239 -162 -509 -162 -799 0 -411 105 -763 332 -1115 93 -145 285 -357 401 -445 25 -19 47 -38 47 -41 0 -6 -469 -189 -486 -189 -15 0 -160 151 -234 245 -264 333 -446 755 -509 1180 -20 135 -22 170 -22 369 0 351 59 651 192 964 23 56 46 102 51 102 4 0 99 -46 211 -101z m4345 -21 c128 -311 183 -599 183 -951 0 -209 -12 -333 -51 -522 -72 -348 -233 -697 -461 -997 -70 -92 -236 -268 -253 -268 -17 0 -486 182 -486 189 0 3 20 20 43 38 23 18 78 67 123 110 308 298 497 651 586 1093 20 102 23 144 23 360 -1 268 -9 340 -66 544 -25 87 -79 235 -115 311 -4 9 388 213 412 214 7 1 34 -54 62 -121z m-2235 62 c37 -6 96 -23 132 -39 l64 -29 576 0 575 1 48 -25 c32 -17 56 -39 77 -73 l30 -48 3 -864 2 -863 -70 0 -70 0 0 -79 0 -78 -42 -7 c-30 -5 -44 -3 -47 5 -2 7 -18 28 -36 47 l-32 36 -18 -122 -18 -122 -43 0 -42 0 -23 68 c-12 37 -28 79 -35 93 -14 29 -71 89 -83 89 -4 0 -18 -24 -32 -52 -37 -82 -105 -196 -162 -270 l-51 -68 -61 0 c-146 0 -224 69 -225 198 0 49 2 54 31 70 50 27 178 112 185 123 8 14 -52 66 -109 95 -27 14 -109 40 -183 59 -153 39 -278 98 -361 171 l-53 46 -52 -47 c-81 -71 -224 -138 -364 -170 -148 -34 -270 -94 -288 -140 -6 -17 115 -107 170 -127 35 -12 44 -30 44 -93 -1 -114 -86 -185 -222 -185 -52 0 -62 3 -84 27 -43 49 -131 187 -175 275 -40 82 -44 85 -66 75 -34 -15 -76 -85 -102 -167 l-23 -71 -41 3 -42 3 -11 70 c-7 39 -15 92 -19 120 l-7 50 -33 -36 c-18 -20 -34 -41 -36 -48 -3 -8 -17 -10 -47 -5 l-42 7 0 78 0 79 -70 0 -70 0 2 863 3 864 30 48 c21 34 45 56 77 73 l46 24 584 2 583 2 55 27 c86 41 167 52 273 37z m-3288 -211 l-18 -72 -24 47 c-23 46 -24 49 -6 61 10 7 27 20 38 28 11 9 22 14 24 12 2 -2 -5 -37 -14 -76z m6493 25 c2 -1 -7 -23 -21 -49 l-24 -48 -16 66 c-23 90 -22 93 21 61 20 -15 38 -28 40 -30z m-6553 -321 c-11 -85 -17 -91 -48 -45 l-26 40 37 30 c20 17 38 31 40 31 2 1 0 -25 -3 -56z m6597 -48 c-31 -49 -35 -44 -47 49 l-7 58 40 -32 40 -32 -26 -43z m-6632 -297 l-1 -73 -35 39 -34 40 32 33 c17 18 33 33 35 33 2 0 3 -33 3 -72z m6670 -18 c-44 -61 -50 -59 -50 21 l0 73 35 -34 34 -33 -19 -27z m-6668 -327 l3 -52 -37 36 c-40 39 -40 38 7 91 l20 24 2 -24 c1 -12 4 -46 5 -75z m6668 47 l19 -27 -34 -33 -35 -34 0 73 c0 80 6 82 50 21z m-29 -331 l18 -26 -41 -33 -41 -33 7 49 c4 27 9 62 13 78 5 27 6 28 16 10 5 -10 18 -31 28 -45z m-6607 -27 l7 -64 -40 32 -40 32 26 40 c15 21 29 35 33 31 4 -4 11 -37 14 -71z m72 -350 l7 -35 -39 29 c-21 15 -40 29 -42 30 -2 1 7 23 20 49 l23 47 12 -43 c7 -23 16 -58 19 -77z m6482 24 c-2 -2 -20 -15 -40 -30 -43 -32 -44 -29 -21 61 l16 66 24 -48 c14 -26 23 -48 21 -49z m-3129 -25 c75 -38 183 -76 256 -90 70 -14 155 -42 155 -51 0 -4 -31 -22 -70 -39 -38 -18 -72 -37 -75 -42 -13 -20 -17 -176 -6 -216 36 -132 172 -207 350 -193 59 5 65 8 97 45 34 39 121 166 162 234 l20 33 15 -48 c8 -27 20 -68 26 -90 l11 -42 112 5 c62 2 114 5 115 7 2 1 8 29 14 62 7 32 16 64 20 70 5 6 47 17 94 24 l85 13 0 74 0 73 51 0 c62 0 62 -1 -17 -110 -303 -421 -754 -696 -1279 -780 -163 -26 -457 -22 -626 8 -483 87 -936 373 -1223 772 -79 109 -79 110 -17 110 l51 0 0 -74 0 -74 84 -12 c47 -7 89 -16 93 -19 5 -3 14 -35 21 -70 6 -35 13 -65 15 -67 2 -2 54 -5 117 -6 l114 -3 8 35 c4 19 15 59 24 88 l15 53 56 -88 c30 -48 79 -118 109 -155 51 -63 58 -68 97 -70 133 -5 193 7 263 55 73 49 106 110 111 205 3 42 1 95 -4 117 -8 37 -14 42 -81 74 -40 19 -72 38 -72 41 0 9 124 50 150 50 66 0 269 86 366 155 l46 33 46 -35 c25 -19 71 -47 101 -62z m-3266 -273 l24 -66 -44 21 c-23 11 -43 26 -43 33 0 16 30 87 35 82 2 -2 14 -33 28 -70z m6283 37 c21 -51 18 -59 -29 -82 l-44 -21 25 69 c14 38 27 69 29 69 2 0 11 -16 19 -35z m-6158 -337 l30 -67 -46 20 c-26 11 -48 21 -49 23 -2 2 2 18 8 37 6 19 13 40 15 48 6 18 5 19 42 -61z m6035 35 c3 -16 8 -35 12 -44 4 -12 -6 -21 -43 -36 l-49 -21 31 68 c17 38 33 67 37 64 4 -2 9 -16 12 -31z m-5879 -324 c36 -61 36 -61 12 -55 -69 17 -79 25 -72 57 3 18 6 40 6 51 0 28 13 16 54 -53z m5730 18 c8 -51 4 -54 -70 -73 l-26 -7 27 44 c51 82 57 91 60 87 1 -1 6 -24 9 -51z m-3970 -21 c254 -158 532 -256 841 -297 116 -15 461 -6 572 14 269 51 501 138 720 271 l92 56 273 -106 c150 -58 274 -106 274 -107 1 -1 7 -69 14 -152 6 -82 13 -166 15 -185 2 -20 6 -87 10 -150 3 -63 8 -125 10 -137 4 -18 -11 -31 -99 -86 -653 -411 -1387 -559 -2156 -436 -395 63 -826 231 -1160 452 l-80 52 5 40 c3 22 12 135 20 250 8 116 18 242 21 281 l7 72 271 105 c149 58 273 106 275 106 2 1 36 -19 75 -43z m-1538 -323 c0 0 -25 4 -54 9 -53 11 -54 12 -48 41 3 16 6 41 6 55 0 21 7 16 49 -39 27 -35 48 -65 47 -66z m5329 71 l6 -51 -51 -10 c-27 -6 -50 -8 -50 -5 0 5 84 121 87 119 0 -1 4 -25 8 -53z m-5152 -277 l30 -39 -49 4 -49 3 -3 55 -3 54 22 -19 c11 -11 35 -37 52 -58z m4947 23 c0 -48 -1 -49 -34 -55 -67 -13 -70 -4 -20 53 25 28 47 52 50 52 2 0 4 -22 4 -50z m-4695 -269 l19 -22 -54 3 -55 3 -3 49 -4 49 39 -30 c21 -17 47 -41 58 -52z m4460 13 c-6 -34 -7 -34 -58 -34 l-52 1 55 50 c59 54 68 51 55 -17z m-4241 -189 l59 -45 -34 0 c-19 0 -43 -3 -55 -6 -19 -5 -22 0 -31 45 -6 28 -7 51 -4 51 3 0 33 -21 65 -45z m3993 -6 c-10 -50 -11 -51 -40 -45 -16 3 -41 6 -55 6 -22 0 -18 6 34 45 32 24 62 45 65 45 3 0 2 -23 -4 -51z m-3671 -210 c3 -5 -4 -9 -14 -9 -11 0 -33 -3 -51 -6 -32 -7 -40 3 -57 72 -6 24 -6 24 55 -12 34 -20 64 -41 67 -45z m3403 35 c-15 -53 -18 -55 -73 -48 -30 5 -44 10 -38 16 12 12 116 76 119 73 1 0 -2 -19 -8 -41z m-3115 -185 c-2 -4 -16 -9 -31 -12 -16 -3 -35 -8 -44 -12 -9 -3 -19 0 -22 7 -3 7 -12 29 -21 50 l-16 36 69 -31 c38 -17 68 -34 65 -38z m2825 24 c-11 -26 -21 -49 -23 -50 -2 -3 -19 2 -86 24 -11 3 68 48 127 72 1 1 -7 -20 -18 -46z m-2521 -138 c5 -5 -66 -35 -82 -35 -10 0 -20 15 -54 81 -3 7 129 -38 136 -46z m2220 7 c-13 -23 -28 -42 -34 -42 -16 0 -87 30 -82 35 5 5 132 52 136 50 1 -1 -8 -20 -20 -43z m-1961 -79 l66 -16 -48 -24 c-26 -14 -48 -23 -49 -21 -2 2 -15 20 -30 41 -32 42 -29 43 61 20z m1647 -20 c-15 -21 -28 -39 -30 -41 -1 -2 -23 8 -50 21 l-47 24 59 16 c96 25 101 23 68 -20z m-1286 -52 c9 -5 1 -15 -26 -34 l-40 -26 -32 41 -33 41 59 -8 c32 -4 65 -10 72 -14z m965 -16 c-15 -19 -32 -35 -38 -35 -5 0 -28 11 -49 25 -38 23 -38 24 -15 29 27 6 72 12 107 15 23 1 23 1 -5 -34z m-633 -20 c-7 -9 -25 -25 -40 -35 l-27 -19 -33 34 -34 35 73 0 c65 0 72 -2 61 -15z m300 -20 l-33 -34 -27 19 c-61 44 -59 50 21 50 l73 0 -34 -35z"/>
 <path d="M3276 6329 c14 -15 18 -61 26 -284 10 -253 9 -267 -8 -287 -19 -21 -19 -21 16 -14 19 4 64 7 100 6 81 -1 124 23 158 90 19 36 22 56 18 98 -8 92 -62 149 -157 166 -27 5 -38 13 -43 29 -9 35 -7 177 4 196 8 17 3 18 -61 18 -66 0 -69 -1 -53 -18z m197 -340 c50 -54 28 -144 -40 -164 -32 -9 -43 25 -43 127 l0 80 28 -6 c15 -4 39 -20 55 -37z"/>
 <path d="M3958 6299 c6 -17 -4 -95 -34 -259 -24 -129 -43 -237 -44 -239 0 -6 -55 11 -69 22 -7 6 -17 20 -21 32 -5 13 -9 -2 -11 -48 l-4 -67 35 -5 c51 -8 192 -34 215 -41 17 -4 23 4 38 51 20 59 18 76 -3 50 -15 -19 -90 -21 -90 -3 0 30 83 464 91 480 5 10 15 19 22 19 7 1 -10 5 -38 9 -27 4 -60 11 -73 15 -20 7 -22 5 -14 -16z"/>
 <path d="M2896 6285 c-15 -8 -44 -15 -62 -15 l-35 0 20 -27 c25 -36 135 -506 126 -541 -5 -22 -4 -24 17 -17 13 4 42 10 66 12 23 3 42 9 42 14 0 5 -4 9 -10 9 -18 0 -29 36 -84 278 -60 261 -62 272 -44 290 16 16 -1 15 -36 -3z"/>
 <path d="M2438 6140 c-35 -35 -34 -62 6 -152 39 -87 40 -95 12 -123 -14 -14 -29 -25 -34 -25 -17 0 -105 207 -100 234 6 32 6 32 -40 1 -20 -14 -47 -25 -59 -25 -29 0 -29 -6 1 -33 28 -27 226 -464 226 -501 0 -31 11 -33 34 -7 9 10 33 21 52 24 88 15 141 82 131 169 -8 65 -39 113 -87 135 -28 13 -38 22 -33 33 18 44 13 78 -21 150 -22 45 -36 89 -36 112 0 46 -12 48 -52 8z m115 -391 c33 -36 37 -89 7 -119 -11 -11 -26 -20 -33 -20 -11 0 -77 135 -77 159 0 12 29 20 55 14 11 -3 32 -18 48 -34z"/>
 <path d="M4466 6107 c-32 -35 -58 -84 -121 -237 -49 -117 -89 -199 -102 -210 -25 -20 -20 -30 15 -30 13 0 35 -9 49 -20 32 -25 46 -26 38 -1 -3 11 28 99 82 226 93 222 111 248 158 227 44 -20 40 -42 -40 -234 -101 -241 -104 -246 -127 -254 -16 -5 -18 -8 -7 -15 8 -5 25 -9 37 -9 13 0 35 -9 49 -20 34 -26 41 -25 35 5 -3 16 23 91 79 222 48 116 84 216 87 243 8 89 -49 150 -142 150 -45 0 -53 -4 -90 -43z"/>
 <path d="M5060 5883 c0 -26 -302 -445 -330 -457 -27 -12 -25 -24 5 -32 14 -3 32 -15 39 -26 49 -69 150 -90 217 -45 54 36 79 82 79 143 0 52 1 54 28 54 38 0 49 9 106 86 28 38 66 78 84 91 l33 22 -30 15 c-59 31 -86 16 -179 -102 -35 -45 -71 -55 -105 -29 -16 11 -11 21 53 109 39 53 80 100 92 104 21 6 20 7 -8 21 -16 9 -41 27 -56 41 -27 25 -28 25 -28 5z m-86 -355 c21 -29 20 -67 -1 -98 -35 -52 -71 -63 -110 -35 l-22 16 51 69 c28 39 54 70 59 70 4 0 15 -10 23 -22z"/>
 <path d="M1821 5805 c-83 -71 -56 -195 82 -373 22 -29 65 -71 95 -93 93 -66 153 -64 228 7 38 35 44 45 30 50 -9 3 -30 33 -47 65 -18 32 -36 59 -41 59 -5 0 -4 -9 2 -19 26 -50 -3 -121 -50 -121 -58 0 -168 110 -225 223 -39 77 -42 102 -19 135 24 35 73 29 130 -15 48 -36 48 -36 30 -7 -68 107 -152 142 -215 89z"/>
 <path d="M5534 5483 c-14 -34 -290 -384 -340 -432 -38 -35 -38 -35 9 -62 9 -5 17 -15 17 -22 0 -7 7 -20 14 -30 13 -17 15 -17 38 5 39 39 466 281 496 281 l27 0 -33 26 c-17 15 -32 32 -32 38 0 6 -6 16 -14 22 -10 9 -15 8 -19 -4 -4 -8 -32 -31 -63 -51 l-57 -36 -33 38 c-18 22 -33 43 -34 48 0 19 83 106 103 106 19 0 17 4 -14 33 -18 18 -39 41 -44 51 -9 16 -11 15 -21 -11z m-29 -303 c-3 -4 -37 -27 -77 -50 -40 -24 -84 -50 -98 -59 -33 -21 -24 -8 58 92 l65 78 28 -27 c16 -15 26 -30 24 -34z"/>
 <path d="M1404 5421 c-32 -19 -43 -32 -89 -103 l-24 -38 23 -15 c13 -9 35 -33 49 -53 13 -20 39 -45 56 -55 32 -19 43 -9 15 14 -22 18 -44 64 -44 93 0 32 46 86 74 86 26 0 62 -24 77 -52 6 -11 15 -66 20 -121 11 -124 20 -155 64 -197 28 -28 44 -34 90 -38 66 -5 88 6 138 77 33 46 35 50 17 56 -10 3 -28 21 -40 39 -11 19 -32 41 -46 51 l-25 16 15 -30 c23 -44 20 -84 -8 -110 -18 -17 -32 -22 -50 -17 -43 11 -58 48 -68 164 -6 71 -16 121 -30 150 -39 83 -148 125 -214 83z"/>
 <path d="M3480 4955 c0 -269 -1 -266 44 -249 14 5 16 37 16 255 l0 249 -30 0 -30 0 0 -255z"/>
 <path d="M3300 5198 c0 -3 7 -66 40 -383 5 -49 10 -98 10 -107 0 -12 8 -18 23 -18 46 0 46 2 19 263 l-26 247 -33 0 c-18 0 -33 -1 -33 -2z"/>
 <path d="M3646 5133 c-4 -38 -9 -93 -12 -123 -3 -30 -12 -111 -20 -179 -12 -102 -13 -126 -2 -132 19 -13 48 -11 53 4 2 6 14 102 25 212 11 110 23 219 26 243 l6 42 -35 0 -35 0 -6 -67z"/>
 <path d="M3148 5173 c-10 -2 -18 -10 -18 -16 0 -7 23 -123 51 -259 l52 -248 26 7 c14 3 29 8 32 12 3 3 -13 96 -37 206 -24 110 -48 224 -54 253 -11 51 -16 55 -52 45z"/>
 <path d="M3821 5128 c-7 -29 -31 -144 -54 -256 -24 -112 -41 -204 -38 -206 3 -2 18 -6 32 -9 l26 -7 53 255 c29 140 51 257 49 259 -2 2 -16 7 -31 11 -25 6 -27 4 -37 -47z"/>
 <path d="M2973 5123 c-7 -2 -13 -9 -13 -15 0 -11 150 -480 155 -486 1 -2 16 3 32 10 l29 13 -79 243 c-80 247 -83 252 -124 235z"/>
 <path d="M3923 4888 l-79 -243 29 -13 c16 -7 31 -12 32 -10 1 2 38 112 81 246 65 204 76 245 64 253 -41 25 -46 16 -127 -233z"/>
 <path d="M2817 5063 c-16 -8 -26 -20 -24 -26 36 -86 181 -404 187 -410 6 -7 40 4 58 18 2 2 -185 425 -191 431 -1 1 -15 -4 -30 -13z"/>
 <path d="M4080 4872 c-51 -114 -94 -212 -96 -218 -6 -13 46 -38 56 -27 6 6 164 354 187 410 2 6 -9 19 -25 27 l-30 16 -92 -208z"/>
 <path d="M2657 4984 c-15 -8 -26 -18 -23 -22 2 -4 45 -79 96 -167 50 -88 95 -164 100 -168 6 -7 41 4 58 18 3 3 -185 334 -197 347 -3 3 -19 0 -34 -8z"/>
 <path d="M4232 4827 c-101 -172 -101 -172 -80 -190 12 -10 25 -16 31 -14 8 2 65 97 177 292 l29 51 -28 17 -29 17 -100 -173z"/>
 <path d="M2508 4886 c-10 -7 -18 -16 -18 -21 0 -15 173 -245 185 -245 6 0 19 8 28 18 16 18 15 21 -17 63 -18 24 -59 79 -90 122 -31 42 -59 77 -64 77 -4 0 -15 -7 -24 -14z"/>
 <path d="M4412 4808 c-121 -165 -114 -153 -93 -172 9 -9 22 -16 28 -16 6 0 50 54 98 121 84 116 87 121 70 140 -10 10 -22 19 -26 19 -5 0 -39 -42 -77 -92z"/>
 <path d="M2365 4771 c-17 -19 -15 -22 46 -90 l63 -71 23 22 c13 12 19 26 15 33 -14 24 -111 125 -120 125 -5 0 -17 -9 -27 -19z"/>
 <path d="M4558 4723 c-32 -36 -58 -69 -58 -73 0 -4 11 -15 24 -23 23 -15 25 -14 86 54 60 68 62 71 45 90 -10 10 -23 19 -29 19 -6 -1 -37 -30 -68 -67z"/>
 <path d="M2247 4652 c-18 -20 -22 -42 -9 -42 12 0 42 34 42 48 0 17 -15 15 -33 -6z"/>
 <path d="M4740 4657 c0 -14 31 -47 43 -47 14 0 7 27 -11 43 -22 21 -32 21 -32 4z"/>
 <path d="M3382 4419 c-62 -20 -63 -21 -49 -42 8 -12 36 -35 62 -52 41 -26 58 -30 115 -30 57 0 74 4 115 30 26 17 54 40 62 52 14 21 13 22 -52 42 -84 26 -171 26 -253 0z"/>
 <path d="M2084 4354 c-68 -33 -64 15 -64 -878 l0 -806 24 0 24 0 5 583 c3 436 8 632 21 781 10 110 22 209 26 222 7 17 21 24 73 33 96 17 184 13 377 -15 96 -13 225 -27 285 -30 l110 -5 -165 36 c-247 54 -361 72 -509 84 -169 14 -170 14 -207 -5z"/>
 <path d="M2850 4361 c0 -11 125 -31 197 -31 64 0 133 16 133 30 0 6 -67 10 -165 10 -91 0 -165 -4 -165 -9z"/>
 <path d="M3840 4360 c0 -28 194 -37 303 -14 67 15 14 24 -138 24 -99 0 -165 -4 -165 -10z"/>
 <path d="M4770 4363 c-136 -9 -261 -29 -476 -74 l-239 -49 110 4 c61 3 189 17 285 30 193 28 281 32 377 15 52 -9 66 -16 73 -33 4 -13 16 -112 26 -222 13 -149 18 -345 21 -781 l5 -583 24 0 24 0 0 806 c0 742 -1 808 -17 835 -31 53 -71 62 -213 52z"/>
 <path d="M2212 4201 c-15 -9 -26 -109 -42 -376 -9 -149 -16 -1253 -8 -1261 2 -1 14 6 27 17 l24 19 -14 173 c-22 283 -14 786 19 1191 l7 79 55 19 c98 34 182 47 360 58 96 6 218 14 270 17 l95 7 -120 7 c-66 4 -202 19 -302 33 -180 26 -346 33 -371 17z"/>
 <path d="M4430 4184 c-91 -14 -221 -28 -290 -32 l-125 -8 95 -7 c52 -3 174 -11 270 -17 178 -11 265 -25 361 -58 l54 -18 7 -80 c33 -410 41 -916 19 -1196 l-14 -167 24 -20 c13 -11 25 -18 27 -17 8 8 2 1112 -8 1261 -16 268 -27 367 -42 376 -25 16 -213 7 -378 -17z"/>
 <path d="M3420 4124 c-112 -81 -293 -150 -586 -224 -223 -56 -330 -95 -395 -141 l-31 -22 5 -211 c5 -222 18 -318 63 -473 46 -160 117 -299 215 -423 l40 -50 47 39 c68 57 159 99 265 122 51 10 108 24 127 30 74 24 195 95 246 145 l54 52 0 591 c0 325 -3 591 -7 591 -5 -1 -24 -12 -43 -26z m-109 -235 c7 -13 7 -25 1 -31 -19 -19 -244 -91 -419 -134 -100 -24 -212 -55 -250 -69 -63 -23 -69 -23 -81 -8 -7 10 -11 22 -9 28 6 19 122 58 332 110 116 29 251 68 300 88 109 42 111 42 126 16z m-1 -108 c14 -28 15 -28 -34 -56 -74 -43 -201 -84 -402 -130 -105 -24 -214 -53 -243 -66 -48 -20 -54 -21 -68 -6 -40 40 26 70 287 128 200 46 302 77 380 119 66 35 67 35 80 11z m-2 -103 c22 -22 13 -37 -40 -68 -64 -36 -190 -78 -358 -120 -159 -40 -231 -66 -282 -103 l-41 -29 -21 21 -21 22 25 20 c42 34 140 77 235 103 291 80 356 100 415 131 76 39 73 38 88 23z m6 -117 c17 -19 17 -20 -6 -35 -50 -33 -141 -67 -313 -119 -206 -62 -287 -93 -349 -135 l-44 -30 -21 22 -22 23 39 25 c91 61 120 72 487 187 72 23 144 50 160 60 39 25 48 25 69 2z m-6 -101 c7 -12 10 -26 6 -32 -12 -20 -167 -86 -284 -121 -219 -67 -291 -96 -382 -154 -22 -14 -29 -15 -42 -4 -26 22 -19 37 33 70 65 42 184 89 361 142 79 24 176 60 215 80 85 45 78 43 93 19z m4 -114 c16 -22 15 -23 -24 -49 -51 -33 -133 -64 -306 -117 -152 -46 -223 -76 -285 -119 -44 -30 -45 -30 -62 -11 -17 19 -17 21 0 40 31 34 171 98 309 141 175 54 264 88 306 115 43 28 41 28 62 0z m-1 -108 c10 -19 8 -25 -17 -45 -39 -31 -153 -74 -299 -112 -140 -37 -207 -62 -269 -101 -43 -28 -45 -28 -62 -9 -14 15 -14 21 -4 34 37 44 150 89 410 160 52 14 122 41 155 60 33 18 63 34 67 34 4 1 13 -9 19 -21z m3 -107 c17 -18 16 -20 -28 -50 -67 -47 -125 -69 -292 -111 -142 -36 -197 -56 -251 -90 -20 -13 -24 -12 -37 5 -9 11 -14 25 -12 30 7 25 141 78 289 115 117 29 177 50 230 79 40 22 75 40 78 40 3 1 14 -8 23 -18z m0 -110 c17 -19 16 -21 -26 -52 -56 -41 -131 -74 -215 -95 -131 -32 -208 -56 -254 -80 l-47 -23 -16 23 c-14 23 -14 25 8 40 45 29 148 65 244 86 102 22 175 51 238 94 46 31 46 31 68 7z"/>
 <path d="M3550 3559 l0 -591 54 -52 c89 -87 200 -136 416 -186 77 -17 153 -55 216 -106 l53 -43 44 56 c64 80 129 195 170 298 74 187 98 323 104 591 l5 211 -31 22 c-65 46 -172 85 -395 141 -294 74 -461 137 -583 221 -23 16 -44 29 -47 29 -3 0 -6 -266 -6 -591z m279 315 c53 -20 191 -60 306 -89 210 -53 326 -91 332 -110 2 -6 -2 -18 -9 -28 -12 -15 -18 -15 -81 8 -38 14 -150 45 -250 69 -175 43 -400 115 -419 134 -10 10 6 52 18 52 4 0 50 -16 103 -36z m-32 -108 c86 -43 162 -66 377 -115 257 -59 323 -88 283 -128 -13 -14 -21 -13 -78 10 -35 14 -138 41 -229 62 -233 51 -366 97 -434 147 -15 12 -17 18 -7 36 6 12 14 22 16 22 2 0 35 -15 72 -34z m-23 -100 c59 -34 159 -68 346 -116 161 -41 279 -88 330 -129 l25 -20 -21 -22 -21 -21 -42 30 c-47 34 -144 69 -301 107 -212 52 -390 124 -390 158 0 13 19 37 29 37 2 0 23 -11 45 -24z m-19 -95 c9 -15 148 -66 318 -115 166 -48 260 -87 340 -138 l48 -31 -21 -22 -22 -23 -44 30 c-62 42 -143 73 -349 135 -172 52 -263 86 -313 119 -23 15 -23 16 -6 35 18 20 39 25 49 10z m38 -125 c37 -19 126 -53 199 -76 279 -86 443 -160 436 -198 -7 -35 -32 -34 -92 2 -68 41 -140 69 -326 126 -137 43 -310 116 -310 132 0 7 22 48 26 48 1 0 31 -16 67 -34z m-21 -102 c23 -15 135 -57 250 -95 206 -68 329 -122 364 -160 16 -18 16 -20 -1 -39 -17 -19 -18 -19 -62 11 -62 43 -130 71 -289 120 -162 49 -262 88 -309 120 -32 22 -32 24 -16 46 9 12 17 23 19 23 1 0 21 -12 44 -26z m20 -118 c35 -19 106 -47 158 -61 263 -72 366 -112 406 -156 16 -18 16 -20 0 -38 -17 -18 -19 -18 -73 15 -59 36 -156 70 -293 104 -110 28 -227 74 -264 103 -25 20 -27 26 -17 45 6 12 14 22 16 22 2 0 33 -16 67 -34z m-37 -86 c16 -26 143 -76 284 -111 146 -36 280 -90 287 -114 2 -5 -3 -19 -12 -30 -13 -17 -17 -18 -37 -5 -55 35 -111 55 -251 90 -165 42 -224 64 -292 111 -44 30 -45 32 -28 50 19 21 39 25 49 9z m10 -121 c66 -44 130 -71 233 -94 114 -27 196 -56 249 -87 31 -19 32 -20 17 -43 l-16 -24 -41 21 c-58 29 -138 56 -210 69 -86 15 -203 62 -260 105 -47 34 -48 36 -31 55 21 24 22 24 59 -2z"/>
 <path d="M3025 4059 c-22 -4 -143 -13 -270 -19 -217 -10 -416 -37 -438 -60 -11 -10 -23 -164 -38 -490 -15 -344 -5 -639 32 -948 l11 -92 29 44 c15 25 46 57 69 72 29 19 39 32 35 43 -23 58 -78 272 -95 365 -40 228 -56 490 -42 679 8 110 10 119 37 147 34 36 157 100 245 128 36 12 139 39 230 61 165 40 293 80 255 79 -11 0 -38 -4 -60 -9z"/>
 <path d="M3970 4050 c30 -12 129 -39 220 -61 91 -22 194 -49 230 -61 88 -28 211 -92 245 -128 27 -28 29 -36 37 -157 21 -294 -31 -720 -118 -977 -13 -38 -24 -70 -24 -71 0 -1 18 -14 41 -29 22 -15 53 -47 68 -72 l29 -44 11 92 c28 231 35 353 35 638 1 288 -18 722 -33 779 -7 23 -17 28 -82 44 -41 10 -146 22 -234 27 -207 13 -412 29 -450 35 -17 3 -6 -4 25 -15z"/>
 <path d="M2510 2725 c0 -3 16 -50 36 -103 46 -125 121 -269 185 -355 l50 -69 42 7 c80 14 107 37 107 93 -1 23 -11 33 -63 62 -79 44 -260 223 -312 308 -35 58 -45 70 -45 57z"/>
 <path d="M4465 2668 c-52 -85 -233 -264 -312 -308 -52 -29 -62 -39 -63 -62 0 -56 27 -79 107 -93 l42 -7 50 69 c28 37 72 111 100 163 48 93 126 288 118 296 -2 2 -21 -24 -42 -58z"/>
 <path d="M3480 2230 l0 -420 30 0 30 0 0 420 0 420 -30 0 -30 0 0 -420z"/>
 <path d="M3376 2543 c-3 -26 -8 -70 -11 -98 -3 -27 -19 -176 -35 -330 -17 -153 -30 -283 -30 -288 0 -4 15 -7 33 -5 l32 3 17 155 c14 136 56 529 61 585 2 16 -5 21 -29 23 -31 3 -32 2 -38 -45z"/>
 <path d="M3580 2556 c0 -29 15 -180 34 -351 3 -22 13 -118 22 -212 l18 -173 33 0 34 0 -5 48 c-6 49 -33 301 -41 387 -3 28 -12 110 -20 183 -8 74 -15 138 -15 143 0 5 -13 9 -30 9 -27 0 -30 -3 -30 -34z"/>
 <path d="M3270 2546 c0 -4 -31 -155 -70 -336 -38 -181 -70 -336 -70 -344 0 -11 49 -30 58 -22 4 5 142 661 142 679 0 9 -6 17 -14 17 -8 0 -21 3 -30 6 -9 3 -16 3 -16 0z"/>
 <path d="M3718 2542 c-32 -4 -34 -18 -17 -92 6 -25 37 -170 69 -324 33 -153 61 -280 63 -283 10 -9 57 10 57 23 0 15 -140 678 -143 679 -1 0 -14 -1 -29 -3z"/>
 <path d="M2980 1984 c-21 -53 -23 -76 -9 -85 30 -19 47 -9 63 38 9 26 16 48 16 49 0 1 -14 7 -30 13 -28 9 -32 8 -40 -15z"/>
 <path d="M3998 1989 l-26 -10 15 -45 c15 -44 32 -54 62 -35 12 8 12 16 1 55 -7 25 -15 46 -19 45 -3 0 -18 -5 -33 -10z"/>
 <path d="M2640 1420 c0 -13 -13 -44 -29 -69 -17 -25 -33 -66 -36 -91 l-6 -45 20 42 c20 42 70 83 103 83 30 0 65 -22 77 -47 9 -20 8 -32 -6 -62 -15 -30 -35 -45 -118 -88 -115 -59 -161 -104 -170 -167 -12 -79 28 -138 109 -157 28 -6 57 -16 64 -22 8 -7 12 -5 12 7 0 9 14 42 30 73 39 73 38 89 -4 47 -37 -37 -69 -43 -104 -18 -31 21 -29 68 3 100 14 14 60 41 102 60 133 61 173 109 173 208 0 52 -3 61 -33 91 -33 33 -88 55 -137 55 -15 0 -31 5 -38 12 -9 9 -12 7 -12 -12z"/>
 <path d="M4345 1424 c-16 -7 -42 -15 -58 -19 -25 -5 -26 -7 -13 -28 8 -12 18 -48 21 -79 7 -57 7 -58 -21 -69 -70 -26 -77 -24 -106 33 -16 29 -28 63 -28 76 0 26 -9 28 -36 7 -10 -8 -31 -15 -45 -15 -37 0 -41 -9 -14 -34 27 -24 275 -475 275 -499 0 -21 5 -21 38 -3 15 8 44 18 65 21 36 6 38 8 23 24 -20 21 -86 537 -74 572 11 28 9 29 -27 13z m-17 -353 c19 -143 17 -145 -42 -36 l-53 100 31 12 c17 6 36 12 42 12 6 1 16 -38 22 -88z"/>
 <path d="M3195 1293 c-83 -22 -139 -150 -151 -343 -8 -118 11 -198 58 -242 25 -23 39 -28 80 -28 45 0 54 4 88 38 45 45 74 120 91 232 22 154 -1 279 -61 322 -28 20 -74 29 -105 21z m59 -98 c54 -55 16 -378 -50 -422 -24 -15 -26 -15 -47 6 -49 49 -26 329 34 405 23 30 41 33 63 11z"/>
 <path d="M3770 1279 c-25 -4 -74 -8 -109 -8 -55 -1 -62 -3 -47 -14 20 -14 25 -48 52 -350 15 -163 15 -202 5 -219 -12 -20 -11 -21 25 -15 22 4 54 7 73 7 32 0 33 1 18 18 -13 14 -22 71 -39 255 -11 131 -19 240 -16 242 3 3 29 7 57 8 42 2 55 -2 67 -17 21 -30 26 -14 9 33 -8 23 -12 48 -9 56 7 17 -11 18 -86 4z"/>
 </g>
<g id="layer103" fill="#fdfdfd" stroke="none">
 <path d="M3276 6329 c14 -15 18 -61 26 -284 10 -253 9 -267 -8 -287 -19 -21 -19 -21 16 -14 19 4 64 7 100 6 81 -1 124 23 158 90 19 36 22 56 18 98 -8 92 -62 149 -157 166 -27 5 -38 13 -43 29 -9 35 -7 177 4 196 8 17 3 18 -61 18 -66 0 -69 -1 -53 -18z m197 -340 c50 -54 28 -144 -40 -164 -32 -9 -43 25 -43 127 l0 80 28 -6 c15 -4 39 -20 55 -37z"/>
 <path d="M3958 6299 c6 -17 -4 -95 -34 -259 -24 -129 -43 -237 -44 -239 0 -6 -55 11 -69 22 -7 6 -17 20 -21 32 -5 13 -9 -2 -11 -48 l-4 -67 35 -5 c51 -8 192 -34 215 -41 17 -4 23 4 38 51 20 59 18 76 -3 50 -15 -19 -90 -21 -90 -3 0 30 83 464 91 480 5 10 15 19 22 19 7 1 -10 5 -38 9 -27 4 -60 11 -73 15 -20 7 -22 5 -14 -16z"/>
 <path d="M2896 6285 c-15 -8 -44 -15 -62 -15 l-35 0 20 -27 c25 -36 135 -506 126 -541 -5 -22 -4 -24 17 -17 13 4 42 10 66 12 23 3 42 9 42 14 0 5 -4 9 -10 9 -18 0 -29 36 -84 278 -60 261 -62 272 -44 290 16 16 -1 15 -36 -3z"/>
 <path d="M2438 6140 c-35 -35 -34 -62 6 -152 39 -87 40 -95 12 -123 -14 -14 -29 -25 -34 -25 -17 0 -105 207 -100 234 6 32 6 32 -40 1 -20 -14 -47 -25 -59 -25 -29 0 -29 -6 1 -33 28 -27 226 -464 226 -501 0 -31 11 -33 34 -7 9 10 33 21 52 24 88 15 141 82 131 169 -8 65 -39 113 -87 135 -28 13 -38 22 -33 33 18 44 13 78 -21 150 -22 45 -36 89 -36 112 0 46 -12 48 -52 8z m115 -391 c33 -36 37 -89 7 -119 -11 -11 -26 -20 -33 -20 -11 0 -77 135 -77 159 0 12 29 20 55 14 11 -3 32 -18 48 -34z"/>
 <path d="M4466 6107 c-32 -35 -58 -84 -121 -237 -49 -117 -89 -199 -102 -210 -25 -20 -20 -30 15 -30 13 0 35 -9 49 -20 32 -25 46 -26 38 -1 -3 11 28 99 82 226 93 222 111 248 158 227 44 -20 40 -42 -40 -234 -101 -241 -104 -246 -127 -254 -16 -5 -18 -8 -7 -15 8 -5 25 -9 37 -9 13 0 35 -9 49 -20 34 -26 41 -25 35 5 -3 16 23 91 79 222 48 116 84 216 87 243 8 89 -49 150 -142 150 -45 0 -53 -4 -90 -43z"/>
 <path d="M5060 5883 c0 -26 -302 -445 -330 -457 -27 -12 -25 -24 5 -32 14 -3 32 -15 39 -26 49 -69 150 -90 217 -45 54 36 79 82 79 143 0 52 1 54 28 54 38 0 49 9 106 86 28 38 66 78 84 91 l33 22 -30 15 c-59 31 -86 16 -179 -102 -35 -45 -71 -55 -105 -29 -16 11 -11 21 53 109 39 53 80 100 92 104 21 6 20 7 -8 21 -16 9 -41 27 -56 41 -27 25 -28 25 -28 5z m-86 -355 c21 -29 20 -67 -1 -98 -35 -52 -71 -63 -110 -35 l-22 16 51 69 c28 39 54 70 59 70 4 0 15 -10 23 -22z"/>
 <path d="M1821 5805 c-83 -71 -56 -195 82 -373 22 -29 65 -71 95 -93 93 -66 153 -64 228 7 38 35 44 45 30 50 -9 3 -30 33 -47 65 -18 32 -36 59 -41 59 -5 0 -4 -9 2 -19 26 -50 -3 -121 -50 -121 -58 0 -168 110 -225 223 -39 77 -42 102 -19 135 24 35 73 29 130 -15 48 -36 48 -36 30 -7 -68 107 -152 142 -215 89z"/>
 <path d="M5534 5483 c-14 -34 -290 -384 -340 -432 -38 -35 -38 -35 9 -62 9 -5 17 -15 17 -22 0 -7 7 -20 14 -30 13 -17 15 -17 38 5 39 39 466 281 496 281 l27 0 -33 26 c-17 15 -32 32 -32 38 0 6 -6 16 -14 22 -10 9 -15 8 -19 -4 -4 -8 -32 -31 -63 -51 l-57 -36 -33 38 c-18 22 -33 43 -34 48 0 19 83 106 103 106 19 0 17 4 -14 33 -18 18 -39 41 -44 51 -9 16 -11 15 -21 -11z m-29 -303 c-3 -4 -37 -27 -77 -50 -40 -24 -84 -50 -98 -59 -33 -21 -24 -8 58 92 l65 78 28 -27 c16 -15 26 -30 24 -34z"/>
 <path d="M1404 5421 c-32 -19 -43 -32 -89 -103 l-24 -38 23 -15 c13 -9 35 -33 49 -53 13 -20 39 -45 56 -55 32 -19 43 -9 15 14 -22 18 -44 64 -44 93 0 32 46 86 74 86 26 0 62 -24 77 -52 6 -11 15 -66 20 -121 11 -124 20 -155 64 -197 28 -28 44 -34 90 -38 66 -5 88 6 138 77 33 46 35 50 17 56 -10 3 -28 21 -40 39 -11 19 -32 41 -46 51 l-25 16 15 -30 c23 -44 20 -84 -8 -110 -18 -17 -32 -22 -50 -17 -43 11 -58 48 -68 164 -6 71 -16 121 -30 150 -39 83 -148 125 -214 83z"/>
 <path d="M3382 4419 c-62 -20 -63 -21 -49 -42 8 -12 36 -35 62 -52 41 -26 58 -30 115 -30 57 0 74 4 115 30 26 17 54 40 62 52 14 21 13 22 -52 42 -84 26 -171 26 -253 0z"/>
 <path d="M2084 4354 c-68 -33 -64 15 -64 -878 l0 -806 24 0 24 0 5 583 c3 436 8 632 21 781 10 110 22 209 26 222 7 17 21 24 73 33 96 17 184 13 377 -15 96 -13 225 -27 285 -30 l110 -5 -165 36 c-247 54 -361 72 -509 84 -169 14 -170 14 -207 -5z"/>
 <path d="M2850 4361 c0 -11 125 -31 197 -31 64 0 133 16 133 30 0 6 -67 10 -165 10 -91 0 -165 -4 -165 -9z"/>
 <path d="M3840 4360 c0 -28 194 -37 303 -14 67 15 14 24 -138 24 -99 0 -165 -4 -165 -10z"/>
 <path d="M4770 4363 c-136 -9 -261 -29 -476 -74 l-239 -49 110 4 c61 3 189 17 285 30 193 28 281 32 377 15 52 -9 66 -16 73 -33 4 -13 16 -112 26 -222 13 -149 18 -345 21 -781 l5 -583 24 0 24 0 0 806 c0 742 -1 808 -17 835 -31 53 -71 62 -213 52z"/>
 <path d="M2212 4201 c-15 -9 -26 -109 -42 -376 -9 -149 -16 -1253 -8 -1261 2 -1 14 6 27 17 l24 19 -14 173 c-22 283 -14 786 19 1191 l7 79 55 19 c98 34 182 47 360 58 96 6 218 14 270 17 l95 7 -120 7 c-66 4 -202 19 -302 33 -180 26 -346 33 -371 17z"/>
 <path d="M4430 4184 c-91 -14 -221 -28 -290 -32 l-125 -8 95 -7 c52 -3 174 -11 270 -17 178 -11 265 -25 361 -58 l54 -18 7 -80 c33 -410 41 -916 19 -1196 l-14 -167 24 -20 c13 -11 25 -18 27 -17 8 8 2 1112 -8 1261 -16 268 -27 367 -42 376 -25 16 -213 7 -378 -17z"/>
 <path d="M3420 4124 c-112 -81 -293 -150 -586 -224 -223 -56 -330 -95 -395 -141 l-31 -22 5 -211 c5 -222 18 -318 63 -473 46 -160 117 -299 215 -423 l40 -50 47 39 c68 57 159 99 265 122 51 10 108 24 127 30 74 24 195 95 246 145 l54 52 0 591 c0 325 -3 591 -7 591 -5 -1 -24 -12 -43 -26z m-109 -235 c7 -13 7 -25 1 -31 -19 -19 -244 -91 -419 -134 -100 -24 -212 -55 -250 -69 -63 -23 -69 -23 -81 -8 -7 10 -11 22 -9 28 6 19 122 58 332 110 116 29 251 68 300 88 109 42 111 42 126 16z m-1 -108 c14 -28 15 -28 -34 -56 -74 -43 -201 -84 -402 -130 -105 -24 -214 -53 -243 -66 -48 -20 -54 -21 -68 -6 -40 40 26 70 287 128 200 46 302 77 380 119 66 35 67 35 80 11z m-2 -103 c22 -22 13 -37 -40 -68 -64 -36 -190 -78 -358 -120 -159 -40 -231 -66 -282 -103 l-41 -29 -21 21 -21 22 25 20 c42 34 140 77 235 103 291 80 356 100 415 131 76 39 73 38 88 23z m6 -117 c17 -19 17 -20 -6 -35 -50 -33 -141 -67 -313 -119 -206 -62 -287 -93 -349 -135 l-44 -30 -21 22 -22 23 39 25 c91 61 120 72 487 187 72 23 144 50 160 60 39 25 48 25 69 2z m-6 -101 c7 -12 10 -26 6 -32 -12 -20 -167 -86 -284 -121 -219 -67 -291 -96 -382 -154 -22 -14 -29 -15 -42 -4 -26 22 -19 37 33 70 65 42 184 89 361 142 79 24 176 60 215 80 85 45 78 43 93 19z m4 -114 c16 -22 15 -23 -24 -49 -51 -33 -133 -64 -306 -117 -152 -46 -223 -76 -285 -119 -44 -30 -45 -30 -62 -11 -17 19 -17 21 0 40 31 34 171 98 309 141 175 54 264 88 306 115 43 28 41 28 62 0z m-1 -108 c10 -19 8 -25 -17 -45 -39 -31 -153 -74 -299 -112 -140 -37 -207 -62 -269 -101 -43 -28 -45 -28 -62 -9 -14 15 -14 21 -4 34 37 44 150 89 410 160 52 14 122 41 155 60 33 18 63 34 67 34 4 1 13 -9 19 -21z m3 -107 c17 -18 16 -20 -28 -50 -67 -47 -125 -69 -292 -111 -142 -36 -197 -56 -251 -90 -20 -13 -24 -12 -37 5 -9 11 -14 25 -12 30 7 25 141 78 289 115 117 29 177 50 230 79 40 22 75 40 78 40 3 1 14 -8 23 -18z m0 -110 c17 -19 16 -21 -26 -52 -56 -41 -131 -74 -215 -95 -131 -32 -208 -56 -254 -80 l-47 -23 -16 23 c-14 23 -14 25 8 40 45 29 148 65 244 86 102 22 175 51 238 94 46 31 46 31 68 7z"/>
 <path d="M3550 3559 l0 -591 54 -52 c89 -87 200 -136 416 -186 77 -17 153 -55 216 -106 l53 -43 44 56 c64 80 129 195 170 298 74 187 98 323 104 591 l5 211 -31 22 c-65 46 -172 85 -395 141 -294 74 -461 137 -583 221 -23 16 -44 29 -47 29 -3 0 -6 -266 -6 -591z m279 315 c53 -20 191 -60 306 -89 210 -53 326 -91 332 -110 2 -6 -2 -18 -9 -28 -12 -15 -18 -15 -81 8 -38 14 -150 45 -250 69 -175 43 -400 115 -419 134 -10 10 6 52 18 52 4 0 50 -16 103 -36z m-32 -108 c86 -43 162 -66 377 -115 257 -59 323 -88 283 -128 -13 -14 -21 -13 -78 10 -35 14 -138 41 -229 62 -233 51 -366 97 -434 147 -15 12 -17 18 -7 36 6 12 14 22 16 22 2 0 35 -15 72 -34z m-23 -100 c59 -34 159 -68 346 -116 161 -41 279 -88 330 -129 l25 -20 -21 -22 -21 -21 -42 30 c-47 34 -144 69 -301 107 -212 52 -390 124 -390 158 0 13 19 37 29 37 2 0 23 -11 45 -24z m-19 -95 c9 -15 148 -66 318 -115 166 -48 260 -87 340 -138 l48 -31 -21 -22 -22 -23 -44 30 c-62 42 -143 73 -349 135 -172 52 -263 86 -313 119 -23 15 -23 16 -6 35 18 20 39 25 49 10z m38 -125 c37 -19 126 -53 199 -76 279 -86 443 -160 436 -198 -7 -35 -32 -34 -92 2 -68 41 -140 69 -326 126 -137 43 -310 116 -310 132 0 7 22 48 26 48 1 0 31 -16 67 -34z m-21 -102 c23 -15 135 -57 250 -95 206 -68 329 -122 364 -160 16 -18 16 -20 -1 -39 -17 -19 -18 -19 -62 11 -62 43 -130 71 -289 120 -162 49 -262 88 -309 120 -32 22 -32 24 -16 46 9 12 17 23 19 23 1 0 21 -12 44 -26z m20 -118 c35 -19 106 -47 158 -61 263 -72 366 -112 406 -156 16 -18 16 -20 0 -38 -17 -18 -19 -18 -73 15 -59 36 -156 70 -293 104 -110 28 -227 74 -264 103 -25 20 -27 26 -17 45 6 12 14 22 16 22 2 0 33 -16 67 -34z m-37 -86 c16 -26 143 -76 284 -111 146 -36 280 -90 287 -114 2 -5 -3 -19 -12 -30 -13 -17 -17 -18 -37 -5 -55 35 -111 55 -251 90 -165 42 -224 64 -292 111 -44 30 -45 32 -28 50 19 21 39 25 49 9z m10 -121 c66 -44 130 -71 233 -94 114 -27 196 -56 249 -87 31 -19 32 -20 17 -43 l-16 -24 -41 21 c-58 29 -138 56 -210 69 -86 15 -203 62 -260 105 -47 34 -48 36 -31 55 21 24 22 24 59 -2z"/>
 <path d="M3025 4059 c-22 -4 -143 -13 -270 -19 -217 -10 -416 -37 -438 -60 -11 -10 -23 -164 -38 -490 -15 -344 -5 -639 32 -948 l11 -92 29 44 c15 25 46 57 69 72 29 19 39 32 35 43 -23 58 -78 272 -95 365 -40 228 -56 490 -42 679 8 110 10 119 37 147 34 36 157 100 245 128 36 12 139 39 230 61 165 40 293 80 255 79 -11 0 -38 -4 -60 -9z"/>
 <path d="M3970 4050 c30 -12 129 -39 220 -61 91 -22 194 -49 230 -61 88 -28 211 -92 245 -128 27 -28 29 -36 37 -157 21 -294 -31 -720 -118 -977 -13 -38 -24 -70 -24 -71 0 -1 18 -14 41 -29 22 -15 53 -47 68 -72 l29 -44 11 92 c28 231 35 353 35 638 1 288 -18 722 -33 779 -7 23 -17 28 -82 44 -41 10 -146 22 -234 27 -207 13 -412 29 -450 35 -17 3 -6 -4 25 -15z"/>
 <path d="M2510 2725 c0 -3 16 -50 36 -103 46 -125 121 -269 185 -355 l50 -69 42 7 c80 14 107 37 107 93 -1 23 -11 33 -63 62 -79 44 -260 223 -312 308 -35 58 -45 70 -45 57z"/>
 <path d="M4465 2668 c-52 -85 -233 -264 -312 -308 -52 -29 -62 -39 -63 -62 0 -56 27 -79 107 -93 l42 -7 50 69 c28 37 72 111 100 163 48 93 126 288 118 296 -2 2 -21 -24 -42 -58z"/>
 <path d="M2640 1420 c0 -13 -13 -44 -29 -69 -17 -25 -33 -66 -36 -91 l-6 -45 20 42 c20 42 70 83 103 83 30 0 65 -22 77 -47 9 -20 8 -32 -6 -62 -15 -30 -35 -45 -118 -88 -115 -59 -161 -104 -170 -167 -12 -79 28 -138 109 -157 28 -6 57 -16 64 -22 8 -7 12 -5 12 7 0 9 14 42 30 73 39 73 38 89 -4 47 -37 -37 -69 -43 -104 -18 -31 21 -29 68 3 100 14 14 60 41 102 60 133 61 173 109 173 208 0 52 -3 61 -33 91 -33 33 -88 55 -137 55 -15 0 -31 5 -38 12 -9 9 -12 7 -12 -12z"/>
 <path d="M4345 1424 c-16 -7 -42 -15 -58 -19 -25 -5 -26 -7 -13 -28 8 -12 18 -48 21 -79 7 -57 7 -58 -21 -69 -70 -26 -77 -24 -106 33 -16 29 -28 63 -28 76 0 26 -9 28 -36 7 -10 -8 -31 -15 -45 -15 -37 0 -41 -9 -14 -34 27 -24 275 -475 275 -499 0 -21 5 -21 38 -3 15 8 44 18 65 21 36 6 38 8 23 24 -20 21 -86 537 -74 572 11 28 9 29 -27 13z m-17 -353 c19 -143 17 -145 -42 -36 l-53 100 31 12 c17 6 36 12 42 12 6 1 16 -38 22 -88z"/>
 <path d="M3195 1293 c-83 -22 -139 -150 -151 -343 -8 -118 11 -198 58 -242 25 -23 39 -28 80 -28 45 0 54 4 88 38 45 45 74 120 91 232 22 154 -1 279 -61 322 -28 20 -74 29 -105 21z m59 -98 c54 -55 16 -378 -50 -422 -24 -15 -26 -15 -47 6 -49 49 -26 329 34 405 23 30 41 33 63 11z"/>
 <path d="M3770 1279 c-25 -4 -74 -8 -109 -8 -55 -1 -62 -3 -47 -14 20 -14 25 -48 52 -350 15 -163 15 -202 5 -219 -12 -20 -11 -21 25 -15 22 4 54 7 73 7 32 0 33 1 18 18 -13 14 -22 71 -39 255 -11 131 -19 240 -16 242 3 3 29 7 57 8 42 2 55 -2 67 -17 21 -30 26 -14 9 33 -8 23 -12 48 -9 56 7 17 -11 18 -86 4z"/>
 </g>

</svg>