<!DOCTYPE svg PUBLIC "-//W3C//DTD SVG 20010904//EN" "http://www.w3.org/TR/2001/REC-SVG-20010904/DTD/svg10.dtd">
<svg version="1.0" xmlns="http://www.w3.org/2000/svg" width="700px" height="700px" viewBox="0 0 7000 7000" preserveAspectRatio="xMidYMid meet">
<g id="layer101" fill="#272526" stroke="none">
 <path d="M3123 6984 c-651 -71 -1262 -319 -1793 -730 -148 -114 -470 -436 -584 -584 -415 -536 -661 -1145 -731 -1805 -19 -182 -19 -548 0 -730 70 -660 316 -1269 731 -1805 114 -148 436 -470 584 -584 536 -415 1145 -661 1805 -731 182 -19 548 -19 730 0 660 70 1269 316 1805 731 148 114 470 436 584 584 415 536 661 1145 731 1805 19 182 19 548 0 730 -70 660 -316 1269 -731 1805 -114 148 -436 470 -584 584 -536 415 -1145 661 -1805 731 -173 18 -572 18 -742 -1z"/>
 </g>
<g id="layer102" fill="#bc955a" stroke="none">
 <path d="M3125 6985 c-671 -74 -1293 -332 -1835 -763 -116 -92 -417 -394 -515 -517 -428 -534 -688 -1164 -760 -1842 -19 -179 -19 -547 0 -726 72 -680 328 -1300 763 -1847 92 -116 394 -417 517 -515 534 -428 1164 -688 1842 -760 181 -19 543 -19 727 0 620 65 1169 276 1706 656 176 124 513 444 652 619 435 547 691 1167 763 1847 19 179 19 547 0 726 -72 678 -332 1308 -760 1842 -98 123 -399 425 -515 517 -547 435 -1167 691 -1847 763 -170 18 -571 18 -738 0z m327 -160 c-3 -163 -14 -335 -22 -335 -4 0 -65 -5 -136 -10 -896 -72 -1658 -491 -2195 -1206 -153 -204 -308 -486 -390 -711 -19 -51 -38 -93 -44 -93 -14 0 -396 108 -402 114 -2 2 12 48 33 102 437 1170 1478 2014 2707 2194 71 11 175 22 231 26 55 4 102 8 104 9 1 1 28 1 59 1 l57 -1 -2 -90z m433 69 c1268 -138 2370 -1000 2819 -2208 21 -54 35 -100 33 -103 -6 -5 -388 -113 -402 -113 -5 0 -22 35 -37 78 -44 122 -149 341 -234 482 -507 850 -1425 1404 -2407 1453 -49 3 -90 7 -92 9 -2 2 -7 69 -10 148 -3 80 -8 175 -10 213 l-4 67 102 -5 c56 -3 165 -13 242 -21z m43 -523 c423 -65 812 -214 1162 -445 117 -77 321 -234 336 -257 3 -6 -1 -18 -9 -26 -14 -15 -21 -11 -74 34 -414 356 -959 592 -1520 658 -148 17 -455 20 -604 5 -567 -58 -1105 -283 -1537 -643 -75 -62 -85 -68 -99 -54 -8 8 -12 20 -9 26 15 23 219 180 336 257 367 242 813 407 1230 453 52 6 109 13 125 15 17 2 143 3 280 1 189 -2 282 -8 383 -24z m-68 -125 c423 -58 818 -207 1165 -438 128 -85 306 -223 312 -243 1 -5 -152 -178 -342 -384 l-344 -373 67 -67 c38 -36 92 -95 122 -131 126 -153 283 -430 244 -430 -3 0 -117 -25 -254 -55 -137 -30 -253 -55 -258 -55 -6 0 -18 26 -27 58 -24 82 -57 134 -124 192 -33 29 -62 59 -66 68 -6 17 110 260 243 508 45 82 84 156 87 164 3 10 -5 24 -25 38 l-30 22 -262 -265 c-146 -147 -271 -265 -281 -265 -9 0 -56 21 -104 47 -83 45 -92 47 -179 51 l-92 4 -7 62 c-4 33 -9 68 -10 76 -2 8 -6 53 -10 100 -4 47 -8 92 -10 100 -1 8 -6 57 -10 108 l-7 92 30 0 c56 0 242 -41 351 -76 58 -19 157 -59 220 -90 63 -30 115 -53 116 -52 5 6 35 67 35 71 0 2 -53 29 -117 60 -397 188 -825 230 -1248 122 -71 -18 -155 -43 -185 -54 -75 -29 -270 -123 -270 -130 0 -3 9 -20 20 -38 l19 -32 123 59 c68 32 175 74 238 93 109 33 275 67 328 67 l24 0 -7 -82 c-4 -46 -15 -163 -26 -262 -10 -98 -19 -183 -19 -188 0 -6 -19 -7 -48 -3 -67 9 -133 -8 -238 -62 l-92 -47 -40 32 c-22 18 -143 138 -269 266 l-229 234 -32 -20 c-18 -11 -32 -22 -32 -24 0 -2 39 -77 86 -167 92 -174 254 -500 254 -511 0 -4 -35 -42 -78 -84 -63 -61 -83 -89 -100 -135 -12 -32 -22 -66 -22 -77 0 -38 4 -39 -353 41 -98 21 -180 39 -183 39 -20 0 34 120 109 240 61 98 161 224 248 312 l77 78 -344 372 c-189 205 -342 378 -341 383 6 20 184 158 312 243 223 149 477 268 739 347 183 55 330 82 601 109 80 8 442 -4 545 -18z m-2340 -661 c11 -13 2 -27 -61 -93 -429 -445 -688 -968 -784 -1582 -23 -141 -31 -535 -16 -683 56 -523 232 -987 530 -1397 454 -625 1109 -1026 1881 -1151 163 -27 536 -37 706 -19 349 35 669 127 979 280 191 95 333 183 492 307 613 476 998 1160 1088 1932 19 163 19 480 0 643 -73 624 -336 1185 -772 1647 -91 97 -95 103 -79 119 17 16 23 12 108 -78 421 -442 684 -976 780 -1584 18 -117 22 -184 22 -396 1 -280 -3 -347 -34 -525 -128 -746 -552 -1419 -1173 -1865 -405 -292 -911 -483 -1392 -528 -102 -9 -485 -9 -590 0 -331 29 -689 135 -1012 299 -770 390 -1332 1106 -1521 1939 -57 247 -67 347 -67 655 0 292 8 378 57 605 110 514 368 999 743 1398 48 50 90 92 95 92 4 0 13 -7 20 -15z m216 -236 c76 -83 141 -156 143 -161 2 -6 -30 -45 -71 -87 -311 -317 -533 -762 -607 -1213 -23 -145 -30 -212 -31 -290 l0 -58 -220 0 -220 0 0 33 c0 63 20 263 36 362 76 472 272 917 570 1290 84 105 241 275 254 275 4 0 70 -68 146 -151z m3765 64 c333 -352 573 -790 688 -1254 35 -141 67 -353 77 -511 l6 -108 -221 0 -221 0 0 60 c0 92 -19 241 -46 372 -90 431 -299 830 -592 1129 -41 42 -73 81 -71 87 6 15 281 312 289 312 4 0 45 -39 91 -87z m-1930 -180 c0 -5 2 -15 3 -23 2 -8 6 -55 10 -105 4 -49 9 -101 11 -115 2 -14 7 -56 10 -95 3 -38 10 -106 16 -150 8 -71 7 -81 -7 -90 -10 -5 -32 -23 -51 -39 l-33 -28 0 326 c0 319 0 326 20 326 11 0 20 -3 21 -7z m-101 -91 c0 -18 -19 -40 -47 -55 -16 -10 -5 33 15 56 20 22 32 22 32 -1z m-1490 -57 l33 -34 -84 -88 c-209 -218 -367 -484 -469 -792 -62 -184 -108 -431 -110 -583 l0 -48 -51 0 -52 0 7 93 c22 293 90 559 210 821 47 101 160 292 228 383 60 81 237 283 247 283 4 0 22 -16 41 -35z m3178 -67 c133 -151 193 -233 286 -390 171 -292 277 -639 301 -990 l7 -98 -51 0 -51 0 -1 53 c0 28 -2 66 -4 82 -2 17 -6 57 -10 90 -12 109 -55 292 -101 427 -100 294 -256 553 -463 770 l-84 89 33 34 c19 19 37 35 41 35 3 0 47 -46 97 -102z m-1705 -34 c-10 -8 -26 -19 -35 -25 -31 -17 -21 19 14 54 33 32 33 32 36 9 2 -14 -4 -29 -15 -38z m-1358 -24 l38 -39 -72 -76 c-138 -145 -272 -345 -356 -530 -89 -195 -159 -469 -172 -669 l-6 -106 -60 0 -60 0 7 100 c8 111 29 255 52 345 90 358 282 708 528 963 27 28 53 52 56 52 3 0 23 -18 45 -40z m2923 -24 c332 -355 537 -821 568 -1293 l7 -103 -60 0 -60 0 -6 106 c-26 425 -224 875 -524 1194 l-76 81 39 40 c21 21 41 39 45 39 4 0 34 -29 67 -64z m-1570 -78 c-48 -38 -58 -41 -58 -15 0 17 12 32 38 49 36 25 37 25 40 5 3 -13 -5 -28 -20 -39z m-1245 -16 l26 -27 -68 -75 c-278 -306 -449 -699 -479 -1095 l-7 -100 -42 -3 -43 -3 0 53 c0 82 26 253 54 365 65 257 184 504 339 703 64 82 177 210 186 210 4 0 19 -12 34 -28z m2716 -64 c291 -332 461 -729 487 -1133 l7 -106 -44 3 -44 3 -7 103 c-19 268 -121 576 -267 812 -55 88 -146 207 -230 300 l-50 55 27 28 c14 15 29 27 33 27 4 0 44 -42 88 -92z m-2196 -170 c-15 -4 -34 -16 -43 -27 -14 -18 -19 -10 -82 117 l-68 136 110 -109 c108 -108 110 -110 83 -117z m1724 180 c-13 -24 -46 -86 -72 -138 -44 -86 -49 -93 -58 -72 -6 12 -21 25 -34 28 -12 4 -23 9 -23 12 0 7 202 212 208 212 2 0 -7 -19 -21 -42z m-977 -11 c0 -17 -14 -34 -46 -56 -48 -35 -59 -36 -47 -3 6 16 74 77 91 81 1 1 2 -9 2 -22z m0 -149 l0 -41 -25 23 c-23 22 -24 25 -8 42 25 28 33 22 33 -24z m-136 -43 c46 -22 106 -82 106 -104 -1 -20 -29 -56 -55 -69 -11 -5 -42 -13 -70 -16 -93 -13 -143 -35 -196 -88 -38 -38 -53 -62 -65 -107 l-16 -57 -67 0 c-113 1 -198 -59 -256 -180 -31 -66 -40 -77 -77 -94 -50 -22 -57 -18 -90 48 -16 35 -22 64 -22 112 1 92 29 148 114 232 82 80 107 125 116 203 6 46 10 55 23 49 9 -3 45 -8 81 -11 63 -5 68 -4 175 52 109 56 111 57 185 53 46 -2 90 -11 114 -23z m617 -27 c94 -47 111 -53 169 -53 36 0 77 3 93 8 26 7 27 6 27 -26 0 -80 27 -134 109 -215 85 -84 102 -111 121 -189 15 -64 1 -140 -35 -195 -23 -34 -28 -37 -51 -28 -54 21 -66 33 -100 105 -56 119 -140 178 -255 179 l-66 1 -13 47 c-26 105 -114 179 -233 198 -92 14 -122 26 -142 56 -22 33 -19 46 17 83 55 56 112 79 199 80 49 1 70 -6 160 -51z m-3421 -168 c47 -17 89 -35 93 -39 5 -5 -5 -64 -22 -132 -101 -419 -115 -827 -40 -1249 123 -697 513 -1353 1071 -1799 38 -31 64 -59 61 -65 -8 -14 -225 -340 -229 -345 -2 -2 -45 30 -96 71 -835 673 -1303 1668 -1282 2728 2 118 6 229 9 245 2 17 9 73 15 125 19 159 59 353 106 517 l15 52 107 -39 c59 -21 145 -52 192 -70z m6278 -35 c77 -299 106 -536 106 -850 0 -126 -4 -259 -7 -295 -28 -248 -50 -378 -102 -575 -185 -708 -594 -1337 -1173 -1803 -51 -41 -94 -73 -96 -71 -12 15 -226 340 -228 348 -2 5 42 46 97 92 701 578 1105 1466 1080 2374 -6 234 -45 507 -102 708 -9 34 -12 62 -7 67 5 5 95 40 199 79 132 48 192 66 196 58 4 -7 20 -66 37 -132z m-3308 -235 l30 0 0 120 c0 66 2 120 4 120 3 0 20 -9 39 -20 19 -11 66 -24 105 -29 154 -19 222 -116 185 -259 -8 -30 -12 -56 -10 -59 3 -2 29 10 57 28 69 42 140 50 196 21 53 -27 77 -56 108 -126 14 -32 42 -73 61 -90 l35 -32 -152 -49 c-84 -26 -156 -51 -160 -54 -12 -10 3 -51 18 -51 7 0 76 20 151 45 76 25 140 45 143 45 3 0 6 -33 6 -72 1 -40 3 -98 5 -128 8 -116 -71 -200 -187 -200 -29 0 -55 -4 -58 -9 -4 -5 13 -26 36 -46 118 -100 118 -201 3 -323 -35 -38 -67 -80 -70 -95 -4 -15 -10 -27 -14 -27 -4 0 -45 52 -90 115 -82 114 -83 114 -107 99 -28 -19 -32 -10 63 -140 40 -56 73 -104 73 -108 0 -3 -11 -6 -23 -6 -13 0 -61 -18 -106 -41 -64 -31 -95 -41 -135 -41 -89 -1 -134 35 -177 137 -12 30 -25 55 -28 55 -3 0 -15 -21 -25 -48 -57 -143 -164 -181 -303 -107 -37 20 -84 38 -105 41 -21 4 -38 9 -38 11 0 3 36 54 80 114 44 60 80 111 80 113 0 2 -11 11 -24 20 -24 15 -25 15 -107 -99 -45 -63 -86 -115 -90 -115 -4 0 -10 13 -14 29 -3 16 -34 57 -70 94 -115 119 -114 228 5 324 54 44 52 49 -25 52 -74 3 -130 34 -163 89 -23 40 -26 56 -23 107 2 33 4 93 5 133 0 39 2 72 4 72 2 0 69 -21 149 -46 80 -25 149 -42 153 -38 5 5 10 17 12 27 2 16 -21 27 -155 70 l-159 52 31 22 c17 13 43 51 62 90 37 80 61 108 112 135 66 33 124 26 207 -27 23 -15 44 -25 46 -23 2 2 -2 33 -10 68 -15 78 -8 128 27 174 31 40 100 76 148 76 47 0 103 17 131 39 l23 19 3 -124 3 -124 29 0z m1640 -36 c0 -12 -4 -13 -21 -3 -17 9 -19 13 -8 19 16 11 29 4 29 -16z m-3049 -28 c107 -24 224 -49 260 -56 36 -6 70 -15 76 -18 6 -4 20 -32 30 -62 l19 -56 -308 100 c-252 82 -308 103 -308 118 0 25 12 24 231 -26z m2947 8 c44 -30 1 -47 -45 -17 -23 16 -24 17 -7 24 27 11 27 11 52 -7z m-120 -36 c34 -21 34 -22 14 -31 -17 -8 -29 -5 -56 14 -23 16 -31 26 -23 31 18 12 27 10 65 -14z m-121 -35 c34 -26 34 -27 13 -35 -17 -6 -31 -1 -61 20 -21 16 -36 32 -32 35 14 14 46 6 80 -20z m-2943 1 c11 -28 7 -44 -9 -38 -8 4 -15 17 -15 30 0 27 15 32 24 8z m3316 -12 c0 -12 -31 -30 -108 -62 -59 -25 -179 -77 -267 -116 l-160 -71 -38 33 c-20 19 -43 34 -50 35 -6 1 128 47 298 104 171 56 313 100 318 98 4 -2 7 -12 7 -21z m-499 -19 c43 -31 47 -40 22 -45 -17 -4 -95 41 -108 62 -13 21 49 9 86 -17z m-2711 -3 c11 -11 20 -29 20 -40 0 -18 -3 -19 -20 -10 -17 9 -40 47 -40 66 0 11 22 2 40 -16z m113 -32 c9 -7 20 -27 23 -45 6 -28 4 -31 -14 -26 -25 6 -56 83 -34 83 5 0 16 -6 25 -12z m2507 -23 c15 -19 13 -21 -24 -31 -25 -6 -28 -5 -23 10 4 10 7 22 7 27 0 14 26 10 40 -6z m-2370 -52 c8 -23 12 -45 8 -48 -13 -14 -38 10 -52 51 -15 45 -15 45 7 42 16 -2 26 -15 37 -45z m-234 -42 c130 -56 321 -140 332 -146 1 -1 -6 -26 -16 -56 -31 -88 -33 -121 -17 -205 26 -136 40 -118 -167 -227 -101 -53 -254 -130 -340 -171 l-157 -76 9 -32 c6 -17 13 -35 17 -39 5 -4 42 -1 83 7 264 51 659 109 671 97 4 -4 26 -44 47 -88 47 -95 78 -135 141 -177 25 -17 47 -32 49 -33 4 -3 -249 -440 -274 -473 -1 -2 -40 35 -86 81 -128 128 -245 291 -327 455 -17 34 -33 62 -36 62 -2 0 -20 -8 -39 -17 l-35 -16 55 -106 c97 -187 243 -372 412 -522 55 -49 78 -75 70 -80 -7 -4 -107 -44 -223 -89 l-210 -81 -58 63 c-385 418 -583 870 -622 1426 l-7 92 213 -2 214 -3 6 -90 c4 -49 12 -125 19 -168 l13 -77 36 6 c20 4 39 8 42 10 3 2 -1 36 -9 76 -22 108 -22 465 1 577 9 46 17 85 17 87 0 10 27 0 176 -65z m3228 42 c27 -135 30 -177 30 -358 -1 -132 -6 -227 -16 -278 -8 -43 -12 -79 -9 -81 3 -2 22 -6 42 -10 l36 -6 13 77 c7 43 15 119 19 168 l6 90 213 3 214 2 -7 -102 c-35 -532 -242 -1004 -622 -1416 l-58 -63 -210 81 c-115 45 -216 85 -223 89 -8 5 15 31 70 80 180 161 304 317 413 524 l55 103 -35 17 c-20 9 -37 17 -39 17 -3 0 -30 -48 -61 -107 -74 -141 -183 -288 -296 -403 l-91 -92 -50 83 c-88 146 -229 391 -226 394 2 1 23 16 48 32 69 47 95 80 140 175 22 48 45 90 50 93 11 7 271 -30 562 -80 l190 -32 14 33 c8 18 14 36 14 39 0 3 -62 34 -137 71 -76 36 -229 113 -340 171 -230 120 -214 101 -189 230 16 86 13 134 -15 208 -11 31 -19 57 -17 59 19 12 484 215 495 216 6 0 14 -12 17 -27z m-2873 -55 c16 -54 16 -55 -4 -50 -19 5 -39 41 -52 95 -7 25 -5 27 16 19 17 -7 28 -24 40 -64z m96 19 l32 -12 -29 -17 c-28 -16 -29 -16 -39 13 -11 32 -10 33 36 16z m161 -108 c18 -26 22 -42 18 -69 -19 -115 -18 -165 3 -222 22 -58 85 -132 123 -144 15 -4 18 -11 13 -27 -30 -95 -34 -121 -25 -167 15 -80 37 -119 99 -181 47 -46 61 -67 66 -100 10 -58 -7 -72 -94 -77 -58 -4 -76 0 -124 23 -30 15 -69 42 -86 59 -27 28 -91 143 -91 164 0 24 -79 97 -132 122 -33 16 -54 31 -48 35 17 11 57 97 63 139 3 21 -1 75 -9 120 -25 130 -4 221 68 296 33 33 104 72 123 66 6 -1 20 -18 33 -37z m1923 15 c66 -33 124 -122 136 -209 3 -22 -2 -83 -11 -135 -10 -62 -13 -107 -7 -130 9 -41 46 -116 61 -125 6 -4 -15 -19 -48 -35 -68 -32 -122 -90 -147 -158 -37 -95 -77 -143 -159 -186 -53 -28 -140 -35 -190 -16 -23 8 -26 15 -26 58 0 46 3 52 64 114 47 48 68 79 81 118 22 66 22 143 1 194 -20 49 -20 53 3 61 37 11 100 86 121 141 22 60 25 125 9 194 -12 52 -7 77 22 114 22 28 35 28 90 0z m-3681 -306 c1 -135 39 -408 81 -573 123 -488 363 -904 725 -1255 66 -64 140 -133 167 -154 46 -37 47 -40 47 -92 0 -30 -4 -54 -9 -54 -19 0 -181 139 -297 254 -485 485 -766 1111 -809 1809 l-7 107 51 0 51 0 0 -42z m177 -33 c19 -472 181 -942 456 -1329 95 -134 170 -221 299 -348 l109 -107 -8 -66 -8 -66 -102 90 c-426 378 -729 925 -822 1482 -20 118 -41 316 -41 387 l0 33 57 -3 57 -3 3 -70z m166 -42 c27 -524 263 -1063 632 -1445 l75 -77 0 -65 c0 -36 -4 -66 -9 -66 -17 0 -238 237 -307 330 -246 327 -408 703 -468 1085 -13 82 -18 129 -31 298 l-4 57 53 0 53 0 6 -117z m4759 32 c-18 -491 -217 -1012 -539 -1410 -83 -102 -259 -283 -267 -274 -3 2 -6 32 -7 65 l-2 60 76 80 c374 391 607 922 634 1447 l6 118 51 -3 51 -3 -3 -80z m174 -27 c-38 -609 -268 -1156 -673 -1605 -78 -86 -282 -277 -289 -270 -2 1 -6 32 -9 68 l-6 66 57 49 c78 67 232 238 321 358 271 362 450 839 479 1271 3 50 7 104 9 120 2 17 4 36 4 43 1 8 19 12 57 12 l57 0 -7 -112z m160 5 c-36 -587 -242 -1125 -606 -1583 -101 -127 -293 -321 -415 -418 l-90 -72 -3 57 -3 58 53 44 c102 86 281 267 362 366 362 439 567 966 602 1544 l7 111 50 0 49 0 -6 -107z m-4056 -250 c0 -14 7 -35 16 -45 21 -23 21 -22 -131 -44 -66 -9 -123 -18 -127 -21 -5 -2 -8 -1 -8 4 0 7 226 131 243 132 4 1 7 -11 7 -26z m2722 -44 c73 -39 122 -68 108 -65 -14 2 -77 12 -140 21 -149 22 -147 21 -126 43 9 10 16 31 16 45 0 15 2 27 5 27 2 0 64 -32 137 -71z m-1388 -383 c89 -68 203 -72 318 -11 66 34 100 41 146 29 18 -5 22 -13 22 -48 0 -65 -17 -110 -61 -160 -61 -69 -111 -94 -210 -106 -116 -14 -159 -32 -213 -90 l-46 -49 -43 46 c-50 55 -100 79 -182 87 -93 10 -117 16 -162 42 -86 49 -143 140 -143 227 0 69 73 77 177 20 62 -34 75 -38 143 -37 80 0 150 25 186 65 9 10 19 19 20 19 2 0 24 -15 48 -34z m-714 -44 c0 -4 -288 -401 -346 -479 -27 -36 -34 -40 -49 -29 -15 11 -6 28 82 176 55 91 121 203 147 250 l48 85 59 0 c32 0 59 -1 59 -3z m1400 -16 c0 -6 -5 -18 -10 -26 -9 -13 -13 -11 -30 10 -26 34 -25 37 10 32 17 -2 30 -9 30 -16z m80 -17 c9 -15 7 -32 -6 -71 -15 -45 -18 -49 -32 -34 -14 14 -14 20 2 71 9 30 19 55 21 55 2 0 9 -9 15 -21z m-1411 -56 c1 -8 -11 -13 -29 -13 -36 0 -36 2 -8 41 23 31 23 31 29 7 4 -13 7 -29 8 -35z m1411 -210 c166 -228 186 -259 171 -270 -13 -11 -20 -8 -40 15 -13 15 -89 100 -170 190 -213 238 -193 207 -173 274 9 31 19 55 21 53 2 -3 88 -120 191 -262z m61 86 c-10 -34 -14 -39 -27 -28 -16 13 -14 32 7 86 l11 28 11 -23 c7 -16 7 -34 -2 -63z m-1472 39 c-9 -17 -21 -20 -69 -20 -58 0 -63 2 -50 16 11 14 52 22 107 21 17 0 19 -3 12 -17z m124 -83 c52 -45 122 -71 225 -83 46 -6 86 -13 89 -16 9 -8 47 -231 83 -481 42 -294 33 -265 80 -265 46 0 41 -12 65 165 26 194 87 561 95 575 4 6 45 16 91 22 104 12 174 38 226 83 23 19 44 35 48 35 9 0 338 -364 359 -398 7 -12 -140 -90 -262 -137 -110 -42 -249 -79 -360 -95 l-82 -12 0 -39 c0 -38 1 -39 34 -39 48 0 185 27 290 57 156 44 308 111 453 199 39 24 76 44 81 44 13 0 475 -180 484 -188 4 -4 10 -30 12 -57 17 -172 30 -364 31 -455 l0 -75 -100 -62 c-276 -174 -607 -306 -919 -367 -212 -42 -302 -50 -546 -50 -244 0 -334 8 -546 50 -318 62 -669 204 -938 378 l-89 57 7 97 c16 247 36 476 43 483 10 9 471 189 485 189 6 0 48 -23 94 -51 202 -122 442 -209 660 -241 46 -7 85 -10 88 -7 2 2 7 20 11 39 l6 35 -123 22 c-161 28 -313 79 -466 154 l-123 60 30 37 c16 20 89 104 163 186 73 81 140 156 148 167 21 25 26 24 73 -16z m1427 -29 c-1 -6 -7 -24 -14 -41 -12 -29 -13 -29 -24 -9 -8 16 -8 31 0 58 11 34 13 36 25 20 7 -10 13 -23 13 -28z m-1640 25 c-1 -19 -20 -29 -62 -33 -49 -5 -58 1 -35 24 13 13 97 21 97 9z m-90 -111 c-8 -15 -21 -20 -50 -20 -22 0 -40 4 -40 8 0 18 26 32 62 32 36 0 38 -2 28 -20z m1789 -50 c-11 -30 -12 -30 -25 -12 -11 16 -11 27 -3 52 11 30 12 30 25 12 11 -16 11 -27 3 -52z m-1869 -38 c0 -18 -26 -32 -59 -32 -33 0 -34 0 -16 20 17 19 75 28 75 12z m860 -32 c14 0 32 6 39 13 11 10 13 7 8 -18 -3 -16 -13 -78 -23 -137 -9 -60 -20 -108 -24 -108 -4 0 -15 48 -24 108 -10 59 -20 121 -23 137 -5 25 -3 28 8 18 7 -7 25 -13 39 -13z m1066 -16 c-25 -18 -31 -12 -16 16 9 17 15 19 23 10 9 -9 7 -15 -7 -26z m-2016 -59 c-10 -12 -16 -13 -29 -3 -9 7 -18 14 -20 15 -2 2 10 3 29 3 28 0 31 -2 20 -15z m-620 -1105 c846 -530 1937 -592 2846 -160 128 61 287 150 367 206 26 19 51 34 55 34 9 0 250 -303 258 -325 14 -35 -391 -266 -657 -375 -478 -197 -951 -276 -1504 -251 -511 23 -1088 201 -1546 479 -169 102 -211 132 -205 148 11 29 251 324 261 320 5 -2 62 -36 125 -76z"/>
 <path d="M3165 6850 c-38 -4 -88 -11 -110 -14 -22 -4 -68 -11 -102 -16 -524 -84 -1041 -305 -1478 -634 -136 -102 -254 -208 -400 -358 -208 -214 -360 -418 -514 -688 -63 -112 -207 -418 -199 -425 2 -2 19 -10 39 -18 l36 -15 53 124 c261 615 745 1163 1339 1516 422 250 923 412 1386 446 l100 7 3 43 3 42 -43 -1 c-24 -1 -74 -5 -113 -9z"/>
 <path d="M3684 6818 c1 -42 2 -43 36 -45 709 -49 1363 -316 1910 -778 105 -89 307 -293 396 -400 193 -233 390 -557 493 -810 18 -44 37 -84 41 -89 8 -8 80 10 80 20 0 2 -29 70 -64 150 -107 242 -257 492 -429 714 -105 134 -411 442 -547 550 -518 408 -1140 660 -1775 720 -154 14 -142 17 -141 -32z"/>
 <path d="M3405 6035 c3 -16 2 -50 -3 -75 l-8 -45 -49 0 -49 0 -13 50 c-7 28 -11 60 -8 73 5 21 3 23 -17 16 -13 -4 -38 -6 -56 -5 -32 2 -33 1 -18 -21 18 -28 126 -450 126 -491 0 -28 2 -29 31 -23 17 3 46 6 64 6 29 0 31 2 27 30 -6 45 48 472 64 496 13 21 12 22 -42 20 l-54 -1 5 -30z m-21 -220 c-3 -67 -16 -166 -22 -160 -3 3 -16 46 -27 95 l-22 89 21 4 c41 8 51 2 50 -28z"/>
 <path d="M3821 6032 c11 -17 8 -52 -15 -214 -39 -270 -34 -249 -65 -242 -14 3 -34 15 -43 26 -18 20 -18 19 -18 -20 0 -22 -3 -47 -6 -56 -5 -13 2 -16 37 -16 24 -1 80 -7 124 -15 43 -8 80 -13 81 -12 0 1 8 22 18 46 17 45 15 64 -6 43 -17 -17 -78 -16 -78 2 0 7 14 105 30 217 20 130 36 209 46 220 13 15 11 17 -33 21 -26 3 -56 9 -66 13 -17 7 -18 6 -6 -13z"/>
 <path d="M2859 5985 c-39 -21 -43 -54 -17 -147 l22 -81 -28 -23 c-15 -13 -31 -24 -35 -24 -11 0 -64 179 -63 213 1 31 -6 33 -34 12 -10 -8 -34 -15 -53 -15 -33 0 -33 0 -13 -17 25 -22 155 -444 149 -485 -4 -32 0 -34 28 -14 11 7 41 16 67 20 59 9 117 58 120 102 4 82 -14 130 -61 165 -28 20 -28 23 -15 54 12 30 11 41 -12 120 -21 70 -24 92 -15 111 13 28 1 31 -40 9z m39 -358 c12 -13 25 -37 28 -54 5 -26 1 -37 -20 -58 -31 -31 -47 -29 -57 6 -3 13 -13 48 -22 77 l-16 52 33 0 c21 0 40 -8 54 -23z"/>
 <path d="M4285 5929 c7 -27 -136 -452 -160 -480 -21 -23 -19 -29 13 -29 15 0 36 -7 46 -15 27 -20 35 -19 29 5 -3 11 2 40 10 63 9 23 44 123 77 222 42 121 69 186 83 197 l22 18 -29 0 c-16 0 -44 9 -63 21 l-34 21 6 -23z"/>
 <path d="M4657 5780 c6 -22 -151 -467 -174 -492 -14 -16 -13 -18 13 -30 16 -6 40 -21 53 -32 18 -16 25 -18 29 -7 9 27 334 390 355 397 20 7 20 8 -12 21 -18 8 -40 21 -49 29 -14 14 -16 13 -26 -9 -6 -14 -26 -41 -43 -61 l-33 -36 -40 20 c-22 11 -40 26 -40 34 0 21 42 116 51 116 5 0 9 5 9 10 0 6 -8 10 -19 10 -10 0 -24 7 -31 16 -8 8 -21 19 -31 24 -14 8 -16 6 -12 -10z m63 -276 c0 -9 -114 -143 -122 -143 -7 -1 44 148 58 170 5 9 64 -16 64 -27z"/>
 <path d="M2320 5768 c-12 -10 -31 -18 -42 -18 -29 0 -74 -30 -90 -58 -57 -107 92 -397 226 -442 53 -17 79 -8 175 57 2 2 -3 11 -11 20 -9 10 -21 35 -27 55 -7 20 -18 42 -26 48 -12 10 -13 6 -8 -23 11 -67 -36 -103 -95 -73 -57 30 -152 181 -167 266 -7 42 21 88 47 77 21 -8 81 -113 81 -143 0 -29 8 -30 31 -5 10 11 29 22 42 25 l25 7 -29 34 c-17 18 -48 69 -70 112 l-39 80 -23 -19z"/>
 <path d="M3272 4532 l-22 -17 23 -32 c22 -30 25 -31 45 -17 27 19 27 22 -1 56 -21 26 -23 26 -45 10z"/>
 <path d="M3112 4508 c-17 -17 -15 -29 12 -61 22 -27 23 -28 44 -10 l22 18 -21 33 c-22 34 -38 39 -57 20z"/>
 <path d="M2986 4445 c-19 -15 -19 -16 10 -57 34 -48 42 -52 67 -34 17 13 16 16 -14 60 -18 25 -35 46 -38 46 -3 0 -15 -7 -25 -15z"/>
 <path d="M2831 4423 l-23 -19 72 -97 c39 -53 75 -97 78 -97 4 0 15 7 26 15 17 13 15 18 -42 97 -33 46 -67 91 -74 101 -13 18 -15 18 -37 0z"/>
 <path d="M2762 4282 l-23 -18 34 -47 34 -48 23 19 23 19 -28 39 c-16 21 -31 42 -34 46 -4 4 -16 -1 -29 -10z"/>
 <path d="M2661 4181 l-24 -18 27 -36 c27 -35 29 -36 51 -21 l24 16 -26 39 c-14 21 -26 39 -27 39 0 0 -12 -9 -25 -19z"/>
 <path d="M2587 4033 c-14 -17 -13 -20 7 -46 21 -26 25 -28 45 -16 26 17 26 20 0 53 -24 31 -31 32 -52 9z"/>
 <path d="M3682 4517 l-22 -32 22 -17 c22 -16 24 -16 45 10 25 31 25 40 -3 58 -17 11 -22 9 -42 -19z"/>
 <path d="M3836 4490 l-25 -38 24 -16 c22 -15 24 -14 49 19 14 18 26 36 26 38 0 3 -11 12 -24 20 -23 16 -25 15 -50 -23z"/>
 <path d="M3958 4419 c-33 -47 -34 -55 -8 -69 17 -9 24 -7 40 12 10 13 25 34 32 47 11 20 10 25 -7 37 -26 19 -26 19 -57 -27z"/>
 <path d="M4078 4345 c-38 -51 -68 -98 -68 -104 0 -10 39 -36 44 -29 1 2 32 44 69 95 37 51 67 95 67 99 0 7 -31 33 -40 33 -3 0 -35 -42 -72 -94z"/>
 <path d="M4190 4262 c-14 -20 -28 -42 -32 -48 -5 -7 2 -18 16 -27 23 -15 24 -14 55 29 33 45 33 57 3 73 -14 7 -23 2 -42 -27z"/>
 <path d="M4290 4160 c-18 -25 -19 -34 -10 -45 19 -23 36 -18 60 15 18 25 19 34 10 45 -19 23 -36 18 -60 -15z"/>
 <path d="M4362 4021 l-22 -30 22 -15 c24 -17 40 -9 60 27 8 16 7 23 -8 34 -25 18 -27 17 -52 -16z"/>
 <path d="M237 4333 c-71 -339 -83 -421 -97 -656 -13 -223 0 -478 36 -702 112 -698 422 -1315 908 -1814 72 -74 167 -165 211 -203 l80 -68 27 32 26 33 -41 35 c-609 516 -1010 1230 -1131 2015 -24 154 -31 271 -31 515 1 232 4 298 23 425 21 136 68 370 78 387 6 9 -6 15 -47 23 -34 6 -37 5 -42 -22z"/>
 <path d="M6700 4351 c-14 -4 -24 -12 -23 -17 0 -5 13 -61 27 -124 26 -119 49 -268 65 -425 9 -86 7 -568 -2 -610 -2 -11 -8 -47 -11 -80 -23 -205 -80 -449 -157 -671 -191 -553 -533 -1050 -986 -1434 l-41 -35 27 -33 27 -34 84 75 c595 523 982 1214 1109 1982 25 156 30 201 40 375 10 180 10 162 -1 365 -10 198 -27 324 -70 528 -33 156 -32 154 -88 138z"/>
 <path d="M3427 3996 c-164 -108 -307 -253 -366 -371 -70 -138 -79 -285 -26 -384 50 -91 136 -143 236 -143 71 0 134 27 188 81 l41 41 41 -41 c130 -130 335 -100 424 62 53 99 44 244 -25 384 -36 72 -131 186 -220 261 -63 54 -183 138 -211 149 -8 3 -45 -15 -82 -39z m33 -271 l0 -185 -60 0 -60 0 0 -40 0 -40 60 0 60 0 0 -69 c0 -61 -4 -74 -32 -117 -59 -87 -154 -117 -237 -74 -98 49 -131 148 -96 283 22 83 55 142 128 228 61 71 207 199 228 199 5 0 9 -76 9 -185z m175 124 c79 -64 159 -149 206 -220 61 -90 92 -225 70 -306 -31 -114 -159 -175 -259 -124 -77 39 -112 101 -112 196 l0 65 60 0 60 0 0 40 0 40 -60 0 -60 0 0 185 c0 109 4 185 9 185 6 0 44 -28 86 -61z"/>
 <path d="M2467 3638 c-19 -7 -26 -15 -23 -25 3 -8 6 -19 6 -25 0 -6 14 -8 38 -3 46 8 44 7 36 39 -7 28 -14 30 -57 14z"/>
 <path d="M2450 3486 c-26 -10 -34 -18 -32 -32 6 -31 18 -37 56 -24 35 11 42 23 30 54 -7 19 -8 19 -54 2z"/>
 <path d="M2488 3351 c-48 -15 -58 -30 -39 -60 7 -11 17 -11 60 4 45 15 51 20 45 38 -9 33 -15 34 -66 18z"/>
 <path d="M2517 3212 c-104 -35 -108 -38 -102 -62 4 -14 8 -26 9 -27 4 -4 220 68 228 76 11 9 -2 51 -16 50 -6 0 -60 -17 -119 -37z"/>
 <path d="M2570 3083 c-56 -20 -52 -16 -41 -46 l10 -25 53 15 c29 9 54 17 56 18 5 5 -18 55 -25 54 -5 0 -28 -8 -53 -16z"/>
 <path d="M2613 2950 c-24 -10 -29 -26 -14 -49 14 -21 95 3 87 25 -3 9 -6 20 -6 25 0 11 -38 11 -67 -1z"/>
 <path d="M2729 2837 c-23 -10 -26 -16 -18 -36 8 -19 14 -22 37 -16 37 9 45 19 37 44 -7 24 -18 25 -56 8z"/>
 <path d="M4474 3625 c-8 -31 -8 -32 37 -40 33 -6 37 -5 41 19 4 21 0 27 -25 36 -42 14 -46 13 -53 -15z"/>
 <path d="M4496 3485 c-12 -32 -5 -44 31 -54 43 -12 53 -8 53 24 0 16 -7 25 -24 29 -13 3 -31 8 -39 12 -8 3 -17 -2 -21 -11z"/>
 <path d="M4449 3344 c-5 -14 -9 -27 -9 -29 0 -2 23 -11 51 -20 43 -15 53 -15 60 -4 19 30 9 45 -42 61 l-50 17 -10 -25z"/>
 <path d="M4346 3228 c-3 -13 -2 -26 2 -29 8 -8 224 -80 228 -76 1 1 5 14 9 28 6 26 5 27 -108 63 -63 20 -117 36 -120 36 -3 0 -7 -10 -11 -22z"/>
 <path d="M4361 3078 c-11 -28 -8 -31 52 -51 l48 -16 10 26 c11 31 16 26 -45 47 -61 20 -55 20 -65 -6z"/>
 <path d="M4320 2944 c-6 -14 -10 -27 -10 -29 0 -2 18 -10 41 -16 34 -11 42 -10 50 2 16 24 5 42 -34 55 -37 13 -38 12 -47 -12z"/>
 <path d="M4215 2829 c-8 -25 0 -35 37 -44 23 -6 29 -3 37 16 8 20 5 26 -18 36 -38 17 -49 16 -56 -8z"/>
 <path d="M3050 2570 c0 -38 2 -40 30 -40 28 0 30 2 30 40 0 38 -2 40 -30 40 -28 0 -30 -2 -30 -40z"/>
 <path d="M3470 2485 l0 -125 30 0 30 0 0 125 0 125 -30 0 -30 0 0 -125z"/>
 <path d="M3892 2573 c3 -33 7 -38 31 -41 26 -3 27 -1 27 37 0 39 -1 41 -31 41 -29 0 -30 -2 -27 -37z"/>
 <path d="M3190 2505 c0 -43 1 -45 30 -45 29 0 30 2 30 45 0 43 -1 45 -30 45 -29 0 -30 -2 -30 -45z"/>
 <path d="M3330 2495 c0 -54 0 -55 30 -55 30 0 30 1 30 55 0 54 0 55 -30 55 -30 0 -30 -1 -30 -55z"/>
 <path d="M3610 2495 c0 -54 0 -55 30 -55 30 0 30 1 30 55 0 54 0 55 -30 55 -30 0 -30 -1 -30 -55z"/>
 <path d="M3750 2505 c0 -43 1 -45 30 -45 29 0 30 2 30 45 0 43 -1 45 -30 45 -29 0 -30 -2 -30 -45z"/>
 <path d="M2715 1622 c-3 -3 -5 -14 -5 -24 0 -10 -9 -31 -20 -46 -24 -32 -43 -92 -29 -92 5 0 9 4 9 9 0 5 13 23 29 40 35 38 89 43 121 11 45 -45 14 -96 -87 -147 -110 -56 -122 -64 -144 -101 -24 -37 -28 -106 -10 -140 15 -29 69 -62 99 -62 13 0 32 -5 43 -10 16 -9 19 -7 19 9 0 11 9 35 19 53 10 18 22 44 26 58 7 24 6 23 -23 -7 -19 -21 -40 -33 -56 -33 -28 0 -66 31 -66 54 0 29 47 70 115 101 38 18 85 44 102 59 41 35 68 103 58 152 -8 44 -51 91 -91 99 -16 3 -46 9 -66 14 -21 4 -40 6 -43 3z"/>
 <path d="M4246 1615 c-11 -8 -30 -15 -43 -15 -20 0 -22 -3 -14 -19 6 -10 13 -44 17 -74 l6 -54 -46 -16 -46 -16 -30 60 c-17 33 -28 64 -25 69 9 15 -9 12 -31 -5 -10 -8 -32 -15 -48 -15 -28 0 -28 0 -8 -17 26 -23 243 -421 245 -450 2 -27 15 -29 43 -8 10 8 34 15 52 15 32 0 40 8 23 26 -13 12 -74 483 -66 511 6 26 -2 28 -29 8z m-7 -331 c7 -53 11 -97 9 -99 -2 -2 -24 37 -50 86 -46 89 -47 90 -25 99 50 20 53 16 66 -86z"/>
 <path d="M3176 1479 c-57 -45 -96 -171 -96 -314 0 -99 14 -150 50 -187 23 -23 37 -28 75 -28 40 0 52 5 79 33 53 52 78 133 84 269 5 133 -9 191 -55 228 -35 27 -102 27 -137 -1z m110 -95 c4 -14 4 -71 2 -127 -8 -163 -53 -260 -104 -223 -16 12 -20 29 -23 101 -5 130 30 273 71 288 21 7 47 -12 54 -39z"/>
 <path d="M3730 1489 c-25 -4 -67 -8 -94 -8 -42 -1 -47 -3 -36 -16 16 -20 60 -472 48 -504 -8 -22 -7 -23 23 -17 17 3 45 6 60 6 28 0 29 1 16 23 -13 20 -47 326 -47 415 0 32 0 32 49 32 40 0 53 -4 66 -22 l17 -23 -6 30 c-3 17 -9 45 -12 63 -7 34 -9 35 -84 21z"/>
 <path d="M1697 710 c-10 -17 -16 -34 -12 -40 8 -14 155 -101 275 -162 370 -192 788 -315 1220 -359 207 -21 582 -13 780 17 383 58 694 153 1024 314 126 61 320 172 331 190 6 10 -24 70 -35 70 -3 0 -50 -28 -105 -61 -389 -234 -832 -382 -1310 -439 -130 -16 -207 -19 -415 -15 -140 2 -268 6 -285 9 -16 3 -82 12 -145 21 -423 59 -892 230 -1249 457 -25 15 -48 28 -51 28 -3 0 -14 -14 -23 -30z"/>
 </g>
<g id="layer103" fill="#fdfdfd" stroke="none">
 <path d="M3405 6035 c3 -16 2 -50 -3 -75 l-8 -45 -49 0 -49 0 -13 50 c-7 28 -11 60 -8 73 5 21 3 23 -17 16 -13 -4 -38 -6 -56 -5 -32 2 -33 1 -18 -21 18 -28 126 -450 126 -491 0 -28 2 -29 31 -23 17 3 46 6 64 6 29 0 31 2 27 30 -6 45 48 472 64 496 13 21 12 22 -42 20 l-54 -1 5 -30z m-21 -220 c-3 -67 -16 -166 -22 -160 -3 3 -16 46 -27 95 l-22 89 21 4 c41 8 51 2 50 -28z"/>
 <path d="M3821 6032 c11 -17 8 -52 -15 -214 -39 -270 -34 -249 -65 -242 -14 3 -34 15 -43 26 -18 20 -18 19 -18 -20 0 -22 -3 -47 -6 -56 -5 -13 2 -16 37 -16 24 -1 80 -7 124 -15 43 -8 80 -13 81 -12 0 1 8 22 18 46 17 45 15 64 -6 43 -17 -17 -78 -16 -78 2 0 7 14 105 30 217 20 130 36 209 46 220 13 15 11 17 -33 21 -26 3 -56 9 -66 13 -17 7 -18 6 -6 -13z"/>
 <path d="M2859 5985 c-39 -21 -43 -54 -17 -147 l22 -81 -28 -23 c-15 -13 -31 -24 -35 -24 -11 0 -64 179 -63 213 1 31 -6 33 -34 12 -10 -8 -34 -15 -53 -15 -33 0 -33 0 -13 -17 25 -22 155 -444 149 -485 -4 -32 0 -34 28 -14 11 7 41 16 67 20 59 9 117 58 120 102 4 82 -14 130 -61 165 -28 20 -28 23 -15 54 12 30 11 41 -12 120 -21 70 -24 92 -15 111 13 28 1 31 -40 9z m39 -358 c12 -13 25 -37 28 -54 5 -26 1 -37 -20 -58 -31 -31 -47 -29 -57 6 -3 13 -13 48 -22 77 l-16 52 33 0 c21 0 40 -8 54 -23z"/>
 <path d="M4285 5929 c7 -27 -136 -452 -160 -480 -21 -23 -19 -29 13 -29 15 0 36 -7 46 -15 27 -20 35 -19 29 5 -3 11 2 40 10 63 9 23 44 123 77 222 42 121 69 186 83 197 l22 18 -29 0 c-16 0 -44 9 -63 21 l-34 21 6 -23z"/>
 <path d="M4657 5780 c6 -22 -151 -467 -174 -492 -14 -16 -13 -18 13 -30 16 -6 40 -21 53 -32 18 -16 25 -18 29 -7 9 27 334 390 355 397 20 7 20 8 -12 21 -18 8 -40 21 -49 29 -14 14 -16 13 -26 -9 -6 -14 -26 -41 -43 -61 l-33 -36 -40 20 c-22 11 -40 26 -40 34 0 21 42 116 51 116 5 0 9 5 9 10 0 6 -8 10 -19 10 -10 0 -24 7 -31 16 -8 8 -21 19 -31 24 -14 8 -16 6 -12 -10z m63 -276 c0 -9 -114 -143 -122 -143 -7 -1 44 148 58 170 5 9 64 -16 64 -27z"/>
 <path d="M2320 5768 c-12 -10 -31 -18 -42 -18 -29 0 -74 -30 -90 -58 -57 -107 92 -397 226 -442 53 -17 79 -8 175 57 2 2 -3 11 -11 20 -9 10 -21 35 -27 55 -7 20 -18 42 -26 48 -12 10 -13 6 -8 -23 11 -67 -36 -103 -95 -73 -57 30 -152 181 -167 266 -7 42 21 88 47 77 21 -8 81 -113 81 -143 0 -29 8 -30 31 -5 10 11 29 22 42 25 l25 7 -29 34 c-17 18 -48 69 -70 112 l-39 80 -23 -19z"/>
 <path d="M3272 4532 l-22 -17 23 -32 c22 -30 25 -31 45 -17 27 19 27 22 -1 56 -21 26 -23 26 -45 10z"/>
 <path d="M3682 4517 l-22 -32 22 -17 c22 -16 24 -16 45 10 25 31 25 40 -3 58 -17 11 -22 9 -42 -19z"/>
 <path d="M3836 4490 l-25 -38 24 -16 c22 -15 24 -14 49 19 14 18 26 36 26 38 0 3 -11 12 -24 20 -23 16 -25 15 -50 -23z"/>
 <path d="M3112 4508 c-17 -17 -15 -29 12 -61 22 -27 23 -28 44 -10 l22 18 -21 33 c-22 34 -38 39 -57 20z"/>
 <path d="M2986 4445 c-19 -15 -19 -16 10 -57 34 -48 42 -52 67 -34 17 13 16 16 -14 60 -18 25 -35 46 -38 46 -3 0 -15 -7 -25 -15z"/>
 <path d="M3958 4419 c-33 -47 -34 -55 -8 -69 17 -9 24 -7 40 12 10 13 25 34 32 47 11 20 10 25 -7 37 -26 19 -26 19 -57 -27z"/>
 <path d="M2831 4423 l-23 -19 72 -97 c39 -53 75 -97 78 -97 4 0 15 7 26 15 17 13 15 18 -42 97 -33 46 -67 91 -74 101 -13 18 -15 18 -37 0z"/>
 <path d="M4078 4345 c-38 -51 -68 -98 -68 -104 0 -10 39 -36 44 -29 1 2 32 44 69 95 37 51 67 95 67 99 0 7 -31 33 -40 33 -3 0 -35 -42 -72 -94z"/>
 <path d="M2762 4282 l-23 -18 34 -47 34 -48 23 19 23 19 -28 39 c-16 21 -31 42 -34 46 -4 4 -16 -1 -29 -10z"/>
 <path d="M4190 4262 c-14 -20 -28 -42 -32 -48 -5 -7 2 -18 16 -27 23 -15 24 -14 55 29 33 45 33 57 3 73 -14 7 -23 2 -42 -27z"/>
 <path d="M2661 4181 l-24 -18 27 -36 c27 -35 29 -36 51 -21 l24 16 -26 39 c-14 21 -26 39 -27 39 0 0 -12 -9 -25 -19z"/>
 <path d="M4290 4160 c-18 -25 -19 -34 -10 -45 19 -23 36 -18 60 15 18 25 19 34 10 45 -19 23 -36 18 -60 -15z"/>
 <path d="M2587 4033 c-14 -17 -13 -20 7 -46 21 -26 25 -28 45 -16 26 17 26 20 0 53 -24 31 -31 32 -52 9z"/>
 <path d="M4362 4021 l-22 -30 22 -15 c24 -17 40 -9 60 27 8 16 7 23 -8 34 -25 18 -27 17 -52 -16z"/>
 <path d="M3427 3996 c-164 -108 -307 -253 -366 -371 -70 -138 -79 -285 -26 -384 50 -91 136 -143 236 -143 71 0 134 27 188 81 l41 41 41 -41 c130 -130 335 -100 424 62 53 99 44 244 -25 384 -36 72 -131 186 -220 261 -63 54 -183 138 -211 149 -8 3 -45 -15 -82 -39z m33 -271 l0 -185 -60 0 -60 0 0 -40 0 -40 60 0 60 0 0 -69 c0 -61 -4 -74 -32 -117 -59 -87 -154 -117 -237 -74 -98 49 -131 148 -96 283 22 83 55 142 128 228 61 71 207 199 228 199 5 0 9 -76 9 -185z m175 124 c79 -64 159 -149 206 -220 61 -90 92 -225 70 -306 -31 -114 -159 -175 -259 -124 -77 39 -112 101 -112 196 l0 65 60 0 60 0 0 40 0 40 -60 0 -60 0 0 185 c0 109 4 185 9 185 6 0 44 -28 86 -61z"/>
 <path d="M2467 3638 c-19 -7 -26 -15 -23 -25 3 -8 6 -19 6 -25 0 -6 14 -8 38 -3 46 8 44 7 36 39 -7 28 -14 30 -57 14z"/>
 <path d="M4474 3625 c-8 -31 -8 -32 37 -40 33 -6 37 -5 41 19 4 21 0 27 -25 36 -42 14 -46 13 -53 -15z"/>
 <path d="M2450 3486 c-26 -10 -34 -18 -32 -32 6 -31 18 -37 56 -24 35 11 42 23 30 54 -7 19 -8 19 -54 2z"/>
 <path d="M4496 3485 c-12 -32 -5 -44 31 -54 43 -12 53 -8 53 24 0 16 -7 25 -24 29 -13 3 -31 8 -39 12 -8 3 -17 -2 -21 -11z"/>
 <path d="M2488 3351 c-48 -15 -58 -30 -39 -60 7 -11 17 -11 60 4 45 15 51 20 45 38 -9 33 -15 34 -66 18z"/>
 <path d="M4449 3344 c-5 -14 -9 -27 -9 -29 0 -2 23 -11 51 -20 43 -15 53 -15 60 -4 19 30 9 45 -42 61 l-50 17 -10 -25z"/>
 <path d="M2517 3212 c-104 -35 -108 -38 -102 -62 4 -14 8 -26 9 -27 4 -4 220 68 228 76 11 9 -2 51 -16 50 -6 0 -60 -17 -119 -37z"/>
 <path d="M4346 3228 c-3 -13 -2 -26 2 -29 8 -8 224 -80 228 -76 1 1 5 14 9 28 6 26 5 27 -108 63 -63 20 -117 36 -120 36 -3 0 -7 -10 -11 -22z"/>
 <path d="M2570 3083 c-56 -20 -52 -16 -41 -46 l10 -25 53 15 c29 9 54 17 56 18 5 5 -18 55 -25 54 -5 0 -28 -8 -53 -16z"/>
 <path d="M4361 3078 c-11 -28 -8 -31 52 -51 l48 -16 10 26 c11 31 16 26 -45 47 -61 20 -55 20 -65 -6z"/>
 <path d="M4320 2944 c-6 -14 -10 -27 -10 -29 0 -2 18 -10 41 -16 34 -11 42 -10 50 2 16 24 5 42 -34 55 -37 13 -38 12 -47 -12z"/>
 <path d="M2613 2950 c-24 -10 -29 -26 -14 -49 14 -21 95 3 87 25 -3 9 -6 20 -6 25 0 11 -38 11 -67 -1z"/>
 <path d="M2729 2837 c-23 -10 -26 -16 -18 -36 8 -19 14 -22 37 -16 37 9 45 19 37 44 -7 24 -18 25 -56 8z"/>
 <path d="M4215 2829 c-8 -25 0 -35 37 -44 23 -6 29 -3 37 16 8 20 5 26 -18 36 -38 17 -49 16 -56 -8z"/>
 <path d="M3050 2570 c0 -38 2 -40 30 -40 28 0 30 2 30 40 0 38 -2 40 -30 40 -28 0 -30 -2 -30 -40z"/>
 <path d="M3470 2485 l0 -125 30 0 30 0 0 125 0 125 -30 0 -30 0 0 -125z"/>
 <path d="M3892 2573 c3 -33 7 -38 31 -41 26 -3 27 -1 27 37 0 39 -1 41 -31 41 -29 0 -30 -2 -27 -37z"/>
 <path d="M3190 2505 c0 -43 1 -45 30 -45 29 0 30 2 30 45 0 43 -1 45 -30 45 -29 0 -30 -2 -30 -45z"/>
 <path d="M3330 2495 c0 -54 0 -55 30 -55 30 0 30 1 30 55 0 54 0 55 -30 55 -30 0 -30 -1 -30 -55z"/>
 <path d="M3610 2495 c0 -54 0 -55 30 -55 30 0 30 1 30 55 0 54 0 55 -30 55 -30 0 -30 -1 -30 -55z"/>
 <path d="M3750 2505 c0 -43 1 -45 30 -45 29 0 30 2 30 45 0 43 -1 45 -30 45 -29 0 -30 -2 -30 -45z"/>
 <path d="M2715 1622 c-3 -3 -5 -14 -5 -24 0 -10 -9 -31 -20 -46 -24 -32 -43 -92 -29 -92 5 0 9 4 9 9 0 5 13 23 29 40 35 38 89 43 121 11 45 -45 14 -96 -87 -147 -110 -56 -122 -64 -144 -101 -24 -37 -28 -106 -10 -140 15 -29 69 -62 99 -62 13 0 32 -5 43 -10 16 -9 19 -7 19 9 0 11 9 35 19 53 10 18 22 44 26 58 7 24 6 23 -23 -7 -19 -21 -40 -33 -56 -33 -28 0 -66 31 -66 54 0 29 47 70 115 101 38 18 85 44 102 59 41 35 68 103 58 152 -8 44 -51 91 -91 99 -16 3 -46 9 -66 14 -21 4 -40 6 -43 3z"/>
 <path d="M4246 1615 c-11 -8 -30 -15 -43 -15 -20 0 -22 -3 -14 -19 6 -10 13 -44 17 -74 l6 -54 -46 -16 -46 -16 -30 60 c-17 33 -28 64 -25 69 9 15 -9 12 -31 -5 -10 -8 -32 -15 -48 -15 -28 0 -28 0 -8 -17 26 -23 243 -421 245 -450 2 -27 15 -29 43 -8 10 8 34 15 52 15 32 0 40 8 23 26 -13 12 -74 483 -66 511 6 26 -2 28 -29 8z m-7 -331 c7 -53 11 -97 9 -99 -2 -2 -24 37 -50 86 -46 89 -47 90 -25 99 50 20 53 16 66 -86z"/>
 <path d="M3176 1479 c-57 -45 -96 -171 -96 -314 0 -99 14 -150 50 -187 23 -23 37 -28 75 -28 40 0 52 5 79 33 53 52 78 133 84 269 5 133 -9 191 -55 228 -35 27 -102 27 -137 -1z m110 -95 c4 -14 4 -71 2 -127 -8 -163 -53 -260 -104 -223 -16 12 -20 29 -23 101 -5 130 30 273 71 288 21 7 47 -12 54 -39z"/>
 <path d="M3730 1489 c-25 -4 -67 -8 -94 -8 -42 -1 -47 -3 -36 -16 16 -20 60 -472 48 -504 -8 -22 -7 -23 23 -17 17 3 45 6 60 6 28 0 29 1 16 23 -13 20 -47 326 -47 415 0 32 0 32 49 32 40 0 53 -4 66 -22 l17 -23 -6 30 c-3 17 -9 45 -12 63 -7 34 -9 35 -84 21z"/>
 </g>

</svg>