<!DOCTYPE svg PUBLIC "-//W3C//DTD SVG 20010904//EN" "http://www.w3.org/TR/2001/REC-SVG-20010904/DTD/svg10.dtd">
<svg version="1.0" xmlns="http://www.w3.org/2000/svg" width="700px" height="700px" viewBox="0 0 7000 7000" preserveAspectRatio="xMidYMid meet">
<g id="layer101" fill="#272526" stroke="none">
 <path d="M3123 6984 c-651 -71 -1262 -319 -1793 -730 -148 -114 -470 -436 -584 -584 -415 -536 -661 -1145 -731 -1805 -19 -182 -19 -548 0 -730 70 -660 316 -1269 731 -1805 114 -148 436 -470 584 -584 536 -415 1145 -661 1805 -731 182 -19 548 -19 730 0 660 70 1269 316 1805 731 148 114 470 436 584 584 415 536 661 1145 731 1805 19 182 19 548 0 730 -70 660 -316 1269 -731 1805 -114 148 -436 470 -584 584 -536 415 -1145 661 -1805 731 -173 18 -572 18 -742 -1z"/>
 </g>
<g id="layer102" fill="#bc965a" stroke="none">
 <path d="M3160 6989 c-113 -12 -281 -37 -355 -54 -33 -7 -94 -21 -135 -31 -116 -26 -320 -90 -448 -141 -192 -75 -473 -217 -575 -289 -26 -19 -50 -34 -54 -34 -3 0 -29 -17 -57 -38 -28 -21 -105 -78 -171 -127 -155 -115 -495 -453 -618 -615 -49 -63 -105 -136 -125 -163 -20 -26 -44 -59 -52 -75 -8 -15 -29 -47 -46 -72 -118 -171 -309 -587 -369 -805 -8 -27 -24 -81 -35 -120 -79 -273 -120 -587 -120 -925 0 -338 41 -652 120 -925 11 -38 27 -94 35 -123 61 -218 257 -644 371 -805 19 -26 34 -51 34 -55 0 -4 13 -23 28 -42 16 -19 48 -64 73 -100 78 -115 223 -281 381 -436 135 -133 300 -280 346 -309 9 -5 58 -40 108 -78 51 -37 95 -67 98 -67 3 0 27 -15 53 -34 145 -103 484 -263 733 -346 177 -58 259 -80 405 -109 33 -7 80 -16 105 -22 210 -45 700 -63 966 -35 197 21 416 62 569 106 39 11 94 27 123 35 218 61 644 257 805 371 26 19 50 34 53 34 3 0 48 32 100 70 51 39 96 70 100 70 3 0 34 25 67 55 34 30 65 55 69 55 5 0 85 75 179 168 177 172 320 332 398 444 25 35 62 86 83 114 21 28 38 54 38 58 0 4 10 22 23 39 126 179 318 591 382 822 8 28 24 82 35 120 79 273 120 587 120 925 0 338 -41 652 -120 925 -11 39 -27 94 -35 123 -35 124 -147 399 -219 538 -191 365 -383 622 -697 929 -202 198 -299 276 -546 440 -223 148 -602 325 -835 390 -29 8 -84 24 -123 35 -151 44 -371 85 -561 105 -156 16 -558 19 -704 4z m585 -94 c1136 -76 2179 -746 2738 -1757 36 -64 37 -67 18 -78 -11 -5 -24 -10 -29 -10 -4 0 -30 39 -56 88 -67 122 -199 317 -302 447 -113 141 -388 416 -529 529 -466 371 -1018 610 -1605 696 -179 26 -299 34 -515 32 -997 -5 -1945 -468 -2578 -1257 -99 -123 -230 -317 -302 -445 -26 -47 -49 -87 -51 -89 -2 -2 -16 1 -30 8 l-26 11 38 68 c239 430 553 790 949 1087 502 377 1100 608 1720 665 190 17 360 19 560 5z m130 -170 c167 -20 219 -29 390 -70 822 -196 1547 -723 1996 -1450 85 -136 120 -203 112 -208 -4 -3 -227 -116 -494 -251 l-486 -246 -56 92 c-207 348 -522 640 -883 821 -735 367 -1609 280 -2266 -225 -194 -150 -399 -381 -523 -593 l-57 -96 -486 247 c-268 135 -491 248 -495 251 -14 8 131 251 240 401 505 694 1244 1157 2078 1301 98 17 242 34 390 45 96 7 411 -4 540 -19z m-135 -1199 c468 -59 871 -255 1201 -585 325 -325 514 -709 585 -1186 20 -139 12 -469 -16 -615 -82 -432 -291 -820 -602 -1115 -617 -587 -1526 -732 -2288 -364 -223 108 -384 222 -561 398 -492 491 -698 1187 -554 1868 112 529 441 1001 905 1298 228 146 543 262 797 294 48 6 99 13 113 15 66 9 318 4 420 -8z m-3273 -559 l21 -12 -19 -40 c-101 -207 -206 -535 -258 -805 -68 -359 -72 -797 -10 -1160 70 -412 218 -817 422 -1155 154 -257 299 -439 526 -665 180 -179 303 -281 493 -410 106 -71 107 -72 92 -96 l-16 -23 -56 35 c-572 363 -1051 937 -1311 1572 -120 294 -213 659 -236 932 -3 36 -8 84 -11 107 -11 91 -4 491 11 618 45 382 125 676 277 1023 23 50 44 92 47 92 3 -1 16 -6 28 -13z m6156 -114 c189 -435 278 -871 278 -1362 0 -864 -310 -1650 -908 -2306 -179 -196 -497 -459 -699 -578 -7 -4 -19 4 -28 17 -15 24 -15 24 97 99 313 211 633 521 853 827 344 478 557 1046 615 1640 15 156 15 491 0 630 -27 248 -76 481 -148 705 -35 109 -115 314 -152 390 l-19 40 21 12 c12 7 25 12 28 13 4 0 31 -57 62 -127z m-5903 -13 l135 -69 -97 0 -98 -1 0 -35 0 -35 174 0 c127 0 176 -3 184 -13 7 -9 5 -26 -10 -60 l-21 -47 -198 0 -199 0 0 -35 0 -35 184 0 184 0 -21 -55 c-15 -42 -25 -55 -41 -56 -12 0 -99 -1 -193 0 l-173 0 0 -35 0 -34 180 0 c99 0 180 -3 180 -7 0 -3 -8 -30 -17 -60 l-17 -53 -188 0 -188 0 0 -35 0 -35 180 0 c99 0 180 -1 180 -2 -1 -2 -7 -28 -14 -58 l-12 -55 -183 -3 -182 -2 3 -33 3 -32 168 -1 c92 -1 170 -4 173 -7 3 -2 2 -28 -2 -56 l-7 -51 -178 0 -179 0 0 -35 0 -35 175 0 176 0 -5 -27 c-2 -16 -5 -43 -5 -60 l-1 -33 -170 0 -170 0 0 -35 0 -35 171 0 c152 0 170 -2 165 -16 -3 -9 -6 -34 -6 -57 l0 -42 -162 0 -163 0 -3 -32 -3 -33 170 0 171 0 0 -60 0 -60 -170 0 -170 0 0 -35 0 -35 174 0 c196 0 186 4 186 -82 l0 -38 -181 0 -180 0 3 -32 3 -33 95 -2 c52 -1 136 -2 186 -2 l92 -1 6 -37 c4 -21 9 -46 12 -55 5 -17 -8 -18 -175 -18 l-181 0 0 -35 0 -35 188 0 188 0 16 -60 16 -60 -184 0 -184 0 0 -35 0 -35 197 -2 196 -3 18 -52 18 -53 -42 -1 c-23 -1 -96 -1 -162 -1 -160 1 -165 0 -165 -43 l0 -34 178 2 c97 2 188 1 201 -3 17 -4 30 -21 47 -58 l23 -52 -190 0 -189 0 0 -35 0 -35 204 0 205 0 30 -54 c17 -29 31 -56 31 -60 0 -3 -88 -6 -196 -6 l-195 0 3 -32 3 -33 195 -2 c107 -1 204 -2 216 -2 14 -1 32 -18 53 -52 17 -28 30 -54 27 -56 -2 -3 -91 -5 -198 -6 l-193 -2 -3 -32 -3 -33 228 0 228 0 43 -57 42 -58 -210 -3 -210 -2 0 -35 0 -35 243 0 242 0 48 -55 c45 -51 46 -55 25 -56 -13 0 -113 -1 -223 -2 l-200 -2 0 -33 c-1 -20 5 -34 15 -36 8 -3 126 -5 263 -5 l247 0 59 -53 60 -53 -240 -3 c-147 -1 -239 -6 -240 -12 -1 -6 -2 -20 -2 -32 l-1 -23 289 -5 290 -5 74 -55 75 -55 -269 -5 c-252 -5 -268 -6 -271 -24 -7 -47 -11 -46 318 -46 l310 0 -27 -48 c-15 -26 -31 -51 -36 -56 -4 -5 -83 -9 -174 -8 l-165 0 0 -34 0 -34 146 0 c80 0 144 -4 142 -9 -11 -29 -135 -231 -141 -231 -5 0 -50 28 -100 62 -1196 802 -1721 2277 -1301 3656 46 150 168 453 183 451 3 0 67 -31 141 -69z m5748 -22 c150 -342 223 -623 269 -1038 11 -104 8 -484 -6 -610 -104 -967 -619 -1824 -1418 -2361 -56 -38 -106 -69 -110 -69 -6 0 -128 200 -141 232 -2 4 64 8 148 8 l151 0 -3 32 -3 33 -168 1 c-92 0 -171 5 -176 10 -5 5 -21 30 -36 57 l-27 47 316 0 316 0 0 35 0 35 -271 2 -271 3 77 58 77 57 289 0 289 0 0 35 0 35 -247 0 -246 0 62 57 63 56 258 0 c245 0 260 1 265 18 4 11 4 28 0 38 -5 18 -17 19 -198 19 -106 0 -205 1 -220 1 l-28 1 48 55 48 55 243 0 242 0 0 35 0 35 -210 2 -211 3 43 57 43 57 228 1 228 0 -3 33 -3 32 -193 1 c-106 1 -195 4 -198 7 -3 3 10 28 28 56 29 44 37 51 68 52 19 0 116 1 215 2 l180 2 3 33 3 32 -195 0 c-108 0 -196 2 -196 5 0 3 14 30 31 60 l31 55 204 0 204 0 0 35 0 35 -190 0 -189 0 23 51 c13 27 27 53 30 57 4 3 94 5 201 4 l195 -2 0 39 0 38 -157 1 c-87 0 -170 1 -185 1 l-27 1 18 53 18 52 196 3 197 2 0 35 0 35 -184 0 -184 0 15 60 15 60 189 0 189 0 0 35 0 35 -180 0 -179 0 6 33 c3 17 9 43 12 56 l7 23 184 2 185 1 3 33 3 32 -180 0 -181 0 0 29 c0 16 3 43 6 60 l7 31 173 0 174 0 0 35 0 35 -170 0 -170 0 0 60 0 60 171 0 170 0 -3 33 -3 32 -162 0 -161 0 -4 58 -3 57 168 0 167 0 0 35 0 35 -170 0 -170 0 0 38 c0 20 -3 47 -6 60 l-6 22 176 0 176 0 0 35 0 35 -179 0 -178 0 -6 52 c-4 28 -5 53 -3 55 2 2 81 4 175 5 l171 1 0 33 0 34 -182 2 -182 3 -12 55 c-7 30 -13 56 -14 58 0 1 81 2 180 2 l180 0 0 35 0 35 -188 0 -188 0 -17 53 c-9 30 -17 57 -17 60 0 4 81 7 181 7 l180 0 -3 33 -3 32 -165 2 c-91 1 -177 3 -191 3 -22 0 -29 8 -46 55 l-21 55 184 0 184 0 0 35 0 35 -198 0 -198 0 -24 51 c-19 42 -20 53 -9 60 8 5 92 9 187 9 l172 0 0 35 0 35 -97 1 -98 0 135 69 c74 38 138 69 141 69 4 1 25 -41 47 -91z m-5124 -294 c116 -59 213 -108 215 -110 2 -1 -17 -54 -42 -116 -78 -196 -127 -400 -147 -613 -34 -373 36 -758 199 -1100 173 -361 390 -610 766 -881 l29 -20 -123 -207 c-68 -114 -127 -210 -131 -212 -11 -7 -208 133 -305 215 -104 89 -285 274 -364 375 -294 370 -478 797 -552 1279 -24 151 -32 493 -16 626 25 208 51 336 104 509 42 140 131 361 145 361 6 0 106 -48 222 -106z m4594 -16 c365 -888 221 -1897 -379 -2653 -79 -101 -260 -286 -364 -375 -98 -83 -294 -222 -305 -215 -4 3 -63 98 -131 212 l-123 207 29 20 c231 167 395 318 523 484 202 263 343 570 406 887 37 185 45 276 41 475 -5 266 -53 500 -151 746 -25 64 -45 117 -43 118 11 10 426 215 435 215 7 1 34 -54 62 -121z m-3357 -2937 c202 -96 438 -166 659 -195 89 -12 377 -15 470 -5 245 26 487 94 713 202 70 33 129 58 131 56 4 -4 150 -250 409 -688 144 -243 150 -254 131 -268 -44 -32 -278 -145 -409 -196 -318 -125 -631 -194 -985 -217 -153 -11 -395 -8 -485 5 -16 2 -59 7 -93 10 -249 23 -617 119 -877 230 -119 51 -309 145 -339 168 -19 14 -11 29 184 358 112 189 238 401 279 471 42 71 79 128 82 128 3 0 62 -27 130 -59z m-363 -1160 c221 -90 490 -169 702 -206 383 -66 809 -64 1185 6 324 60 667 178 952 329 106 56 113 59 123 41 5 -11 10 -24 10 -29 0 -13 -258 -144 -398 -201 -296 -121 -649 -210 -937 -236 -38 -4 -81 -9 -95 -11 -34 -6 -484 -6 -512 0 -13 3 -59 8 -102 11 -267 20 -640 114 -938 236 -140 57 -398 188 -398 201 0 5 5 18 10 29 10 18 19 15 143 -50 73 -38 187 -92 255 -120z"/>
 <path d="M3661 6457 c16 -35 -25 -511 -47 -545 -14 -22 -14 -22 28 -21 24 1 56 -2 72 -6 28 -8 28 -7 13 16 -14 22 -13 45 4 229 10 113 18 217 19 233 0 23 4 27 29 27 44 0 92 -21 101 -44 5 -15 9 -2 11 45 l4 66 -100 6 c-55 3 -110 9 -123 13 -21 6 -22 5 -11 -19z"/>
 <path d="M3143 6450 c-52 -31 -67 -71 -71 -192 -5 -129 15 -234 58 -301 44 -70 91 -87 191 -71 l36 6 -3 85 c-1 46 -5 87 -8 90 -3 4 -6 -5 -6 -18 0 -13 -9 -39 -20 -56 -15 -26 -27 -33 -50 -33 -71 0 -114 99 -115 267 0 88 3 105 21 130 28 38 61 42 73 10 13 -33 17 -136 7 -165 -7 -22 -6 -23 16 -16 12 5 40 8 61 7 42 -1 42 -1 22 30 -9 14 -17 63 -21 132 l-7 110 -76 2 c-61 2 -83 -1 -108 -17z"/>
 <path d="M4244 6366 c-59 -27 -118 -129 -154 -271 -37 -143 -18 -265 46 -293 41 -19 96 -14 135 12 100 68 184 373 135 491 -25 60 -101 89 -162 61z m86 -95 c22 -43 -2 -186 -50 -299 -63 -146 -146 -123 -120 33 14 88 51 195 85 246 29 44 67 53 85 20z"/>
 <path d="M2222 6203 c-44 -21 -62 -60 -62 -132 0 -134 116 -357 211 -406 15 -8 47 -15 70 -15 33 0 47 6 75 34 32 32 34 39 34 98 0 150 -111 368 -213 417 -52 25 -71 26 -115 4z m110 -110 c47 -48 127 -216 135 -282 6 -52 -6 -81 -33 -81 -43 0 -130 128 -175 257 -44 128 -5 186 73 106z"/>
 <path d="M4777 6177 c6 -29 -217 -451 -254 -483 l-25 -21 28 -7 c15 -4 46 -20 68 -36 58 -41 110 -47 166 -18 61 32 94 93 87 165 -5 50 -5 52 23 58 35 8 50 25 88 101 17 34 45 73 61 87 17 14 31 28 31 31 0 2 -15 9 -34 16 -48 16 -77 -1 -116 -68 -18 -32 -39 -67 -47 -79 -16 -28 -54 -38 -82 -23 -22 11 -21 13 31 111 33 63 62 106 78 114 l25 13 -30 8 c-16 4 -44 18 -61 31 -38 29 -42 29 -37 0z m-28 -353 c31 -40 27 -80 -13 -120 -37 -37 -53 -41 -82 -20 -18 14 -18 17 21 90 22 42 43 76 47 76 4 0 16 -12 27 -26z"/>
 <path d="M1774 5927 c-28 -23 -75 -58 -104 -77 -51 -32 -52 -34 -30 -44 26 -12 319 -397 329 -432 6 -22 10 -20 89 41 45 35 87 65 92 67 5 2 -2 28 -17 58 l-26 55 -9 -31 c-8 -31 -70 -89 -88 -82 -5 2 -29 30 -54 63 l-45 60 22 18 c13 10 34 16 50 14 33 -4 35 7 3 28 -13 9 -29 29 -36 45 -14 34 -30 40 -30 12 0 -10 -11 -28 -24 -41 l-23 -22 -57 75 c-31 42 -56 79 -56 83 0 4 18 20 39 36 42 29 79 35 100 15 11 -11 11 -9 2 10 -6 12 -23 30 -37 39 -14 9 -29 25 -33 35 -6 16 -12 14 -57 -25z"/>
 <path d="M5303 5869 c3 -9 0 -28 -7 -41 -27 -52 -308 -393 -332 -402 -32 -13 -30 -21 7 -36 17 -7 37 -24 46 -37 14 -21 41 -35 28 -13 -10 16 10 44 172 246 89 111 163 194 176 198 21 6 21 7 -8 23 -16 8 -43 30 -58 47 -16 17 -26 24 -24 15z"/>
 <path d="M5624 5563 c-14 -35 -283 -377 -330 -420 l-36 -31 26 -17 c14 -9 34 -32 45 -51 l21 -35 22 25 c31 35 446 276 475 276 28 0 30 16 3 30 -11 6 -27 24 -35 41 l-16 30 -20 -24 c-10 -14 -40 -37 -66 -53 l-47 -27 -33 39 c-18 21 -33 41 -33 44 0 3 21 29 46 58 32 37 52 51 63 47 9 -3 0 9 -19 28 -19 18 -40 41 -45 51 -9 16 -11 15 -21 -11z m-29 -299 c-5 -3 -46 -27 -90 -54 -44 -26 -82 -47 -84 -45 -2 3 25 40 60 84 l64 79 30 -30 c17 -17 26 -32 20 -34z"/>
 <path d="M1292 5499 c-18 -12 -39 -34 -48 -50 -8 -16 -26 -36 -39 -45 -32 -21 -31 -28 4 -39 42 -14 399 -338 403 -367 4 -22 5 -22 24 9 11 18 32 42 47 53 60 47 73 121 35 199 -12 25 -56 80 -97 122 -128 126 -248 169 -329 118z m142 -79 c56 -27 171 -132 201 -184 28 -48 32 -88 10 -106 -12 -10 -37 8 -152 111 -206 183 -192 167 -169 185 27 19 62 18 110 -6z"/>
 <path d="M3270 5469 c-274 -31 -581 -140 -825 -291 -93 -58 -278 -202 -329 -257 l-30 -31 110 0 110 0 99 -120 c55 -66 104 -119 110 -117 5 2 14 15 19 30 8 23 3 34 -50 97 -100 121 -102 110 14 110 l101 0 71 -115 71 -115 30 16 30 15 -22 37 c-12 20 -30 48 -39 62 -9 14 -27 42 -39 63 l-23 37 84 0 84 0 28 -67 c37 -86 37 -86 70 -72 29 14 28 24 -5 91 -11 21 -19 40 -19 43 0 3 119 5 265 5 l265 0 0 -330 0 -330 39 6 c47 7 130 -9 189 -38 l44 -21 -42 -27 c-67 -44 -108 -123 -124 -236 -4 -31 -16 -52 -46 -82 -26 -26 -40 -49 -40 -66 0 -24 3 -26 43 -26 30 0 48 6 60 20 21 25 29 25 52 0 24 -27 105 -29 105 -2 0 25 -35 79 -61 92 -19 11 -21 18 -16 63 9 74 45 138 90 162 33 17 39 18 47 5 17 -27 30 -109 30 -187 0 -63 -5 -85 -30 -138 -22 -47 -36 -64 -56 -69 -69 -18 -137 -88 -164 -170 -16 -50 -8 -131 19 -184 21 -41 95 -112 117 -112 6 0 19 19 28 42 14 33 15 43 4 49 -7 5 -16 9 -20 9 -13 0 -51 62 -58 96 -15 64 21 138 80 169 27 14 28 14 54 -36 16 -32 26 -67 26 -93 0 -30 6 -48 19 -60 27 -24 44 -71 37 -99 -3 -13 -35 -67 -71 -121 -73 -110 -90 -157 -82 -235 5 -48 3 -58 -28 -105 -19 -28 -39 -73 -46 -99 -11 -44 -9 -55 16 -131 31 -93 29 -118 -11 -166 l-27 -31 33 -34 c32 -33 34 -34 53 -17 29 26 64 92 71 134 5 27 0 58 -19 111 -30 89 -31 106 -5 157 l20 40 28 -31 27 -30 34 35 35 36 -27 27 c-14 16 -36 50 -47 77 -19 42 -21 53 -10 90 6 22 29 66 50 96 89 125 95 139 95 216 0 62 -3 75 -27 107 -21 27 -28 47 -28 81 0 32 -7 56 -26 83 -31 46 -29 104 6 152 21 30 22 40 18 174 -3 135 -5 145 -34 208 -17 36 -48 83 -69 103 -46 46 -139 92 -206 101 l-49 7 0 54 0 55 28 -15 c15 -7 61 -21 102 -31 231 -53 233 -54 273 -93 74 -71 82 -111 41 -198 -29 -63 -39 -117 -30 -166 11 -58 18 -62 64 -39 39 20 40 21 30 54 -9 29 -6 43 20 103 17 38 33 86 37 106 4 21 11 35 16 32 12 -7 53 -89 68 -136 12 -37 11 -39 -35 -95 -46 -57 -104 -164 -104 -193 0 -8 -17 -24 -37 -35 -45 -24 -83 -78 -83 -116 0 -28 2 -29 45 -29 32 0 45 4 45 14 0 7 6 19 14 25 12 10 19 2 38 -41 l24 -53 -28 -55 c-40 -78 -55 -164 -39 -234 16 -70 43 -122 120 -225 67 -90 76 -129 44 -178 -17 -25 -16 -26 17 -53 38 -31 50 -28 75 20 42 82 28 147 -61 270 -36 50 -74 110 -85 133 -23 51 -25 134 -3 185 15 36 16 36 30 17 19 -26 54 -139 54 -176 0 -28 2 -29 46 -29 l47 0 -6 70 c-6 72 -33 137 -127 308 -31 56 -40 84 -40 120 0 50 34 137 63 161 15 12 17 10 17 -18 0 -30 1 -31 46 -31 l47 0 -5 98 c-4 65 -14 122 -31 171 l-24 73 53 -6 c71 -8 184 -51 223 -84 l31 -27 -34 -50 c-19 -28 -42 -74 -51 -102 -11 -33 -24 -55 -36 -58 -53 -17 -86 -63 -109 -153 -8 -30 -19 -46 -36 -54 -20 -9 -24 -18 -24 -55 0 -37 3 -43 21 -43 64 0 118 58 134 142 4 21 13 45 20 54 15 21 14 22 40 -98 20 -93 12 -127 -46 -194 -47 -54 -64 -86 -73 -137 -9 -51 15 -132 53 -177 l29 -35 31 29 c17 17 31 33 31 37 0 5 -12 25 -26 46 -35 51 -29 109 15 161 69 82 83 109 88 177 3 36 9 65 13 65 4 0 24 -18 43 -39 59 -66 62 -152 6 -216 l-31 -35 22 -35 c26 -42 38 -43 72 -7 77 82 94 205 42 303 -33 60 -96 113 -153 129 -36 9 -39 13 -45 56 -7 56 6 113 42 174 l26 45 19 -44 c10 -24 24 -72 29 -107 l11 -64 43 0 c44 0 44 0 44 36 0 69 -31 172 -69 231 -86 134 -229 209 -433 229 -68 6 -77 10 -121 50 -94 84 -182 121 -402 170 -128 28 -147 35 -182 67 -20 18 -23 30 -23 97 l0 76 115 -23 c63 -12 129 -30 146 -38 45 -24 69 -70 69 -135 l0 -55 118 0 c179 0 280 -42 302 -125 11 -39 12 -40 55 -40 36 0 45 3 45 18 0 41 -24 96 -57 133 -61 68 -139 97 -282 108 l-84 6 -12 40 c-31 108 -95 149 -279 181 -109 18 -136 33 -136 74 l0 30 265 0 c146 0 265 -2 265 -5 0 -3 -8 -22 -19 -43 -33 -67 -34 -77 -5 -91 33 -14 33 -14 70 72 l28 67 84 0 84 0 -23 -37 c-12 -21 -30 -49 -39 -63 -9 -14 -27 -42 -39 -62 l-22 -37 30 -15 30 -16 71 115 71 115 101 0 c116 0 114 11 14 -110 -45 -54 -56 -74 -48 -82 7 -7 12 -20 12 -30 0 -10 4 -18 8 -18 4 0 53 54 107 120 l99 120 110 0 110 0 -30 31 c-44 47 -220 186 -304 242 -240 157 -570 274 -862 306 -112 13 -338 12 -448 0z m540 -109 c118 -21 218 -44 228 -54 3 -3 -231 -6 -521 -6 -289 0 -528 4 -531 8 -9 15 211 59 379 76 87 9 335 -5 445 -24z m515 -164 c51 -24 95 -48 99 -55 5 -8 -233 -11 -918 -11 -645 0 -926 3 -926 11 0 5 42 30 93 54 l92 45 734 0 734 0 92 -44z m278 -167 c32 -22 57 -42 57 -45 0 -2 -520 -4 -1155 -4 -636 0 -1155 4 -1155 9 0 4 23 25 52 45 l52 36 1046 0 1047 0 56 -41z"/>
 <path d="M2071 4807 l-22 -24 35 -29 c19 -16 78 -69 131 -118 l96 -89 25 24 24 25 -125 114 c-70 63 -129 116 -134 118 -4 1 -17 -8 -30 -21z"/>
 <path d="M4767 4713 l-128 -117 25 -25 25 -24 97 89 c53 49 112 102 131 118 l34 28 -22 24 c-12 13 -25 24 -28 24 -3 0 -64 -53 -134 -117z"/>
 <path d="M3210 4764 c-96 -26 -151 -76 -175 -159 l-12 -40 -84 -7 c-47 -3 -105 -11 -129 -18 -96 -25 -179 -95 -199 -167 -19 -67 -16 -73 34 -73 40 0 45 3 51 28 4 15 14 37 22 50 37 58 192 99 330 89 l72 -5 0 56 c0 40 6 67 20 90 21 34 87 71 127 72 12 0 24 3 26 8 8 12 -7 85 -18 88 -6 1 -35 -4 -65 -12z"/>
 <path d="M1908 4603 l-16 -27 111 -78 c61 -43 114 -78 117 -78 3 0 13 13 22 28 l17 28 -110 74 c-60 41 -112 76 -117 78 -4 1 -15 -10 -24 -25z"/>
 <path d="M4953 4553 l-111 -78 16 -27 c9 -16 19 -28 22 -28 3 0 56 35 117 78 l111 78 -16 27 c-9 15 -19 27 -22 27 -3 0 -55 -35 -117 -77z"/>
 <path d="M2487 4533 c-4 -3 -7 -16 -7 -28 0 -31 -37 -60 -94 -74 -93 -23 -135 -58 -158 -132 -9 -31 -20 -43 -55 -60 -105 -51 -184 -172 -205 -315 -13 -92 -8 -114 26 -114 13 0 34 -9 47 -19 20 -16 24 -30 27 -95 l4 -76 44 0 44 0 0 75 c0 91 -15 131 -66 173 l-38 31 13 53 c15 65 50 126 95 166 42 37 133 72 186 72 l40 0 0 51 c0 51 0 51 -30 47 -21 -3 -30 0 -30 9 0 16 47 38 103 48 77 15 130 71 143 153 l7 42 -45 0 c-25 0 -48 -3 -51 -7z"/>
 <path d="M4420 4523 c0 -78 58 -154 131 -172 72 -19 112 -35 117 -49 2 -8 -7 -12 -27 -12 -30 0 -31 -1 -31 -49 l0 -48 58 -5 c138 -13 245 -115 268 -255 6 -38 4 -42 -24 -58 -51 -31 -72 -81 -72 -174 l0 -81 44 0 44 0 4 76 c3 65 7 79 27 95 13 10 34 19 47 19 34 0 39 22 26 114 -21 145 -98 263 -204 314 -40 20 -47 28 -57 66 -15 59 -63 100 -149 125 -74 22 -98 41 -104 81 -3 22 -8 25 -50 28 -41 3 -48 0 -48 -15z"/>
 <path d="M3144 4451 c-133 -35 -226 -79 -297 -141 -51 -45 -55 -47 -147 -58 -198 -24 -326 -94 -411 -225 -38 -59 -69 -162 -69 -231 0 -36 0 -36 44 -36 l43 0 11 64 c5 35 19 83 29 107 l19 44 26 -45 c36 -61 49 -118 42 -174 -6 -43 -9 -47 -45 -56 -60 -16 -120 -69 -153 -133 -53 -104 -34 -227 48 -306 l34 -33 28 41 27 42 -25 27 c-36 38 -48 65 -48 107 0 50 22 96 61 129 l34 29 7 -67 c7 -69 25 -107 83 -171 52 -59 59 -112 20 -169 -14 -20 -25 -40 -25 -45 0 -4 14 -20 31 -37 l31 -29 29 35 c38 45 62 126 53 177 -9 51 -26 83 -73 137 -58 67 -66 101 -46 194 29 135 35 139 61 37 9 -32 22 -69 31 -82 19 -29 63 -53 98 -53 23 0 25 4 25 44 0 35 -4 45 -20 49 -21 5 -33 28 -50 94 -13 50 -49 96 -89 113 -23 9 -33 23 -46 63 -9 29 -32 74 -50 102 -30 44 -32 52 -19 66 34 37 200 98 270 99 20 0 20 0 -4 -72 -16 -48 -26 -106 -30 -170 l-5 -98 47 0 c45 0 46 1 46 32 0 30 1 30 19 14 11 -10 29 -40 41 -69 35 -81 26 -133 -46 -258 -69 -121 -103 -215 -104 -281 l0 -48 45 0 c43 0 45 1 45 29 0 36 35 150 53 175 14 19 15 19 27 -4 7 -13 15 -51 18 -85 6 -77 -12 -119 -102 -245 -89 -123 -103 -188 -61 -270 25 -48 37 -51 75 -20 33 27 34 28 17 53 -33 50 -19 96 59 198 123 161 143 290 66 439 l-28 56 22 47 c28 62 31 64 45 33 10 -22 18 -26 56 -26 41 0 43 2 43 29 0 38 -38 92 -83 116 -20 11 -37 27 -37 35 0 29 -51 124 -101 187 -49 63 -50 65 -38 101 15 47 56 129 68 136 5 3 12 -11 16 -32 4 -20 20 -68 37 -106 26 -60 29 -74 20 -103 -10 -32 -9 -34 28 -53 22 -11 41 -20 44 -20 9 0 26 65 26 102 0 22 -13 70 -30 108 -37 85 -38 116 -1 166 51 70 71 82 179 108 57 13 106 26 108 29 10 9 -17 87 -29 87 -7 -1 -62 -14 -123 -29z"/>
 <path d="M1775 4379 c-9 -17 -15 -32 -13 -33 2 -2 47 -25 101 -52 95 -48 99 -48 113 -30 8 11 14 26 14 33 0 7 -45 35 -100 63 l-100 50 -15 -31z"/>
 <path d="M5108 4359 c-54 -27 -98 -55 -98 -62 0 -7 6 -22 14 -33 14 -18 17 -18 113 30 54 27 99 50 101 51 4 3 -27 65 -31 64 -1 0 -46 -22 -99 -50z"/>
 <path d="M3230 4252 c-52 -40 -68 -61 -103 -132 -31 -62 -32 -71 -35 -207 -4 -134 -3 -144 18 -174 35 -48 37 -106 6 -152 -19 -27 -26 -51 -26 -83 0 -34 -7 -54 -26 -80 -29 -37 -41 -100 -30 -158 4 -20 35 -78 70 -129 78 -115 92 -151 75 -206 -7 -23 -28 -59 -47 -82 l-35 -40 34 -35 34 -35 25 28 c14 16 33 39 42 53 15 21 19 23 27 10 16 -23 13 -74 -10 -153 -26 -89 -21 -133 23 -182 16 -19 34 -35 38 -35 4 0 19 18 34 40 26 39 26 39 5 51 -25 13 -23 53 5 158 25 88 4 173 -53 225 -12 11 -21 31 -21 45 0 52 -22 101 -85 196 -36 53 -68 108 -71 121 -7 29 10 76 37 100 13 12 19 30 19 60 0 26 10 61 26 93 24 46 28 49 48 39 57 -29 88 -79 88 -143 0 -53 -14 -81 -57 -120 l-33 -30 15 -37 c8 -22 22 -38 31 -38 9 0 40 25 69 55 l53 54 15 -51 c8 -29 15 -69 15 -91 0 -30 8 -48 35 -80 37 -43 65 -118 65 -172 0 -49 -25 -133 -81 -272 -62 -154 -79 -212 -79 -278 0 -62 13 -108 42 -151 28 -41 37 -42 71 -6 l26 27 -26 53 c-24 50 -26 57 -15 112 6 32 35 121 66 197 30 76 62 165 71 198 32 123 13 248 -49 329 -15 21 -29 57 -35 92 -12 76 -35 137 -70 194 -16 25 -34 63 -41 85 -20 64 -64 118 -118 148 -27 15 -57 27 -66 27 -9 0 -16 6 -16 13 0 8 -11 36 -25 63 -20 40 -25 63 -25 129 0 76 11 150 24 162 9 10 56 -38 76 -77 21 -41 40 -126 40 -178 0 -82 75 -183 169 -232 l40 -20 19 42 c17 39 17 44 3 52 -102 55 -128 95 -141 210 -15 125 -59 223 -127 276 l-28 22 28 23 c28 22 28 23 13 51 -29 55 -29 55 -66 26z"/>
 <path d="M1671 4139 c-6 -18 -10 -33 -9 -34 2 -1 43 -16 91 -33 l88 -32 9 26 c6 14 10 29 10 34 0 5 -35 20 -77 35 -43 15 -83 29 -89 31 -7 3 -17 -10 -23 -27z"/>
 <path d="M5223 4138 c-46 -17 -83 -34 -83 -38 0 -5 4 -20 10 -34 l9 -26 88 32 c48 17 89 32 91 33 5 4 -20 65 -26 64 -4 -1 -44 -15 -89 -31z"/>
 <path d="M1604 3893 c-4 -12 -4 -29 -1 -36 5 -12 193 -54 202 -45 3 2 7 18 11 34 l6 30 -106 20 -106 21 -6 -24z"/>
 <path d="M5260 3892 c-73 -17 -75 -18 -73 -46 1 -16 4 -31 7 -34 3 -2 49 4 103 14 98 20 98 20 98 49 0 26 -4 30 -30 32 -16 1 -64 -6 -105 -15z"/>
 <path d="M1570 3627 c0 -25 5 -37 18 -41 9 -2 83 -8 163 -11 l146 -7 7 26 c4 15 4 31 2 35 -3 5 -70 12 -148 15 -79 4 -153 10 -165 13 -21 5 -23 1 -23 -30z"/>
 <path d="M5250 3646 c-166 -12 -155 -7 -151 -62 1 -15 15 -16 134 -9 72 4 143 9 157 10 14 2 28 4 33 4 4 1 7 17 7 36 0 22 -5 34 -12 33 -7 0 -83 -6 -168 -12z"/>
 <path d="M1790 3409 c-118 -10 -216 -18 -217 -18 -10 -3 0 -61 10 -62 26 -2 322 17 420 27 57 7 57 7 57 40 0 39 30 37 -270 13z"/>
 <path d="M4940 3395 c0 -26 4 -35 18 -35 9 -1 40 -3 67 -6 128 -13 391 -30 398 -27 4 2 7 17 7 34 0 16 -3 30 -7 30 -18 3 -54 6 -143 13 -52 4 -147 11 -210 16 -63 5 -118 10 -122 10 -5 0 -8 -16 -8 -35z"/>
 <path d="M1985 3214 c-60 -13 -164 -35 -230 -49 -153 -33 -157 -34 -152 -48 2 -7 0 -19 -4 -29 -14 -26 8 -27 116 -3 55 12 171 37 258 55 l158 34 -3 30 c-2 18 -9 32 -18 33 -8 1 -64 -9 -125 -23z"/>
 <path d="M4877 3233 c-4 -3 -7 -18 -7 -33 0 -26 2 -27 158 -60 86 -18 193 -41 237 -50 44 -10 94 -20 110 -22 28 -3 30 -1 27 27 -2 16 -8 33 -13 36 -6 3 -61 16 -122 29 -62 12 -170 36 -240 51 -141 32 -141 32 -150 22z"/>
 <path d="M1976 2988 c-165 -59 -302 -110 -304 -113 -3 -3 1 -18 9 -34 l14 -28 299 108 c164 59 301 110 304 114 3 3 -1 18 -9 33 l-14 28 -299 -108z"/>
 <path d="M4709 3068 c-6 -16 -9 -31 -6 -34 2 -3 139 -54 303 -113 294 -106 299 -108 311 -87 7 12 12 26 13 32 0 6 -116 53 -257 104 -142 51 -279 101 -305 110 l-47 18 -12 -30z"/>
 <path d="M2942 3025 c-92 -125 -95 -216 -11 -384 l54 -110 48 0 c41 -1 48 2 43 17 -2 9 -8 28 -11 42 -4 14 -24 54 -45 90 -74 127 -74 190 2 290 l39 52 -27 29 c-15 16 -33 29 -39 29 -6 0 -30 -25 -53 -55z"/>
 <path d="M3966 3051 l-28 -29 41 -52 c46 -58 66 -116 55 -163 -3 -18 -28 -75 -54 -127 -27 -52 -51 -107 -54 -122 -6 -28 -6 -28 41 -27 l48 0 53 108 c64 128 75 196 48 279 -19 55 -92 162 -111 162 -6 0 -24 -13 -39 -29z"/>
 <path d="M2360 2944 c-36 -19 -135 -72 -220 -116 -226 -118 -365 -191 -368 -194 -2 -1 4 -16 13 -34 l16 -31 32 19 c18 11 109 59 202 108 225 116 396 206 418 220 16 9 17 14 6 37 -7 15 -17 27 -23 27 -6 -1 -40 -17 -76 -36z"/>
 <path d="M4541 2953 c-15 -32 -57 -6 342 -214 l318 -167 15 30 c9 16 14 31 12 32 -4 4 -144 77 -435 230 -122 64 -226 116 -231 116 -5 0 -14 -12 -21 -27z"/>
 <path d="M2220 2634 c-157 -112 -293 -210 -303 -217 -16 -11 -16 -14 5 -39 l23 -27 295 210 c162 116 301 216 307 222 10 10 10 17 -3 35 -8 12 -21 22 -27 21 -7 0 -140 -93 -297 -205z"/>
 <path d="M4456 2818 c-8 -12 -13 -25 -10 -29 2 -4 118 -88 257 -186 138 -99 275 -196 304 -216 l51 -38 21 29 20 28 -82 59 c-350 250 -530 375 -537 375 -5 0 -16 -10 -24 -22z"/>
 <path d="M2335 2453 c-143 -134 -261 -247 -263 -251 -1 -5 8 -18 20 -29 l23 -21 260 244 c143 134 260 245 260 247 0 1 -9 14 -20 28 l-20 26 -260 -244z"/>
 <path d="M4382 2667 l-22 -23 263 -246 262 -246 23 21 c12 11 22 23 22 26 0 7 -508 485 -519 489 -4 1 -17 -8 -29 -21z"/>
 <path d="M2495 2313 c-115 -142 -215 -266 -223 -275 -13 -16 -13 -20 3 -38 10 -12 24 -19 31 -18 7 2 110 124 229 272 l217 268 -24 25 -24 24 -209 -258z"/>
 <path d="M4270 2545 c-21 -23 -22 -26 -8 -42 9 -10 106 -130 218 -268 111 -137 207 -251 214 -253 7 -1 21 6 31 18 16 18 17 22 3 38 -8 9 -108 133 -223 275 -114 141 -208 257 -209 257 -2 0 -13 -11 -26 -25z"/>
 <path d="M2636 2140 c-92 -153 -169 -286 -169 -296 -2 -14 6 -20 25 -22 31 -4 27 -10 198 273 177 292 174 286 159 297 -45 29 -38 38 -213 -252z"/>
 <path d="M4167 2401 c-15 -9 -25 -22 -22 -29 4 -11 110 -187 267 -443 42 -71 65 -99 84 -103 26 -7 44 -1 44 14 0 6 -337 572 -344 576 0 0 -13 -6 -29 -15z"/>
 <path d="M2971 2362 c-18 -33 -272 -625 -269 -626 15 -9 61 -26 62 -24 1 2 64 147 140 322 129 298 137 321 120 333 -24 18 -42 16 -53 -5z"/>
 <path d="M3976 2367 c-17 -12 -9 -35 120 -333 76 -175 138 -320 139 -321 3 -6 65 22 63 29 -2 4 -64 149 -138 322 -94 220 -140 316 -151 316 -8 0 -23 -6 -33 -13z"/>
 <path d="M3145 2359 c-20 -59 -197 -711 -193 -714 2 -3 19 -8 36 -11 24 -5 32 -3 32 7 0 8 29 115 63 239 102 361 131 469 126 474 -2 2 -16 7 -31 11 -19 5 -29 3 -33 -6z"/>
 <path d="M3845 2273 c-11 -3 -23 -8 -27 -11 -4 -4 33 -146 81 -317 l87 -310 28 2 c16 1 31 4 33 7 3 3 -33 145 -81 315 -47 170 -86 312 -86 315 0 6 -4 6 -35 -1z"/>
 <path d="M3276 2113 c-3 -15 -19 -129 -36 -253 -16 -124 -32 -237 -35 -252 -4 -26 -2 -28 30 -28 42 0 36 -22 74 270 42 318 41 284 4 288 -27 3 -32 0 -37 -25z"/>
 <path d="M3657 2133 c-3 -5 13 -129 34 -278 21 -148 38 -271 39 -272 0 -2 15 -3 33 -3 31 0 33 2 30 28 -11 92 -64 482 -69 505 -5 22 -11 27 -34 27 -16 0 -31 -3 -33 -7z"/>
 <path d="M3464 1788 l1 -222 33 -3 c19 -2 33 2 34 10 0 6 2 108 3 225 l2 212 -37 0 -38 0 2 -222z"/>
 <path d="M2710 1205 c0 -13 -11 -45 -25 -71 -14 -26 -25 -61 -25 -78 l1 -31 13 30 c44 102 176 114 176 16 0 -46 -35 -81 -130 -134 -65 -36 -108 -73 -129 -114 -16 -31 -14 -99 4 -133 19 -36 42 -49 117 -65 51 -10 58 -10 58 4 0 9 11 38 25 65 14 27 25 59 24 70 l0 21 -9 -21 c-12 -30 -58 -64 -86 -64 -29 0 -64 33 -64 59 0 31 45 75 112 111 93 48 128 78 149 124 32 70 21 144 -27 188 -19 16 -74 32 -146 42 -35 4 -38 3 -38 -19z"/>
 <path d="M4194 1205 c-10 -8 -34 -15 -53 -15 l-34 0 20 -22 c31 -34 166 -503 152 -529 -12 -24 7 -25 35 -4 11 8 35 15 53 15 36 0 41 7 18 24 -20 15 -158 483 -152 519 4 30 -9 35 -39 12z"/>
 <path d="M3860 1130 c-19 -5 -70 -12 -113 -16 -72 -6 -77 -8 -63 -23 22 -25 81 -514 65 -543 -11 -20 -9 -21 21 -14 18 3 50 6 71 6 38 0 38 1 21 18 -15 15 -23 58 -41 208 -12 104 -24 210 -28 237 l-6 47 56 0 c38 0 61 -5 72 -16 23 -23 25 -15 9 31 -7 22 -14 48 -14 58 0 19 0 19 -50 7z"/>
 <path d="M3216 1085 c-56 -56 -80 -149 -81 -310 0 -115 3 -135 22 -172 30 -55 67 -83 112 -83 109 0 172 128 173 348 0 121 -14 176 -57 219 -29 29 -40 33 -84 33 -44 0 -55 -4 -85 -35z m121 -72 c15 -22 18 -48 18 -143 -1 -126 -21 -216 -55 -250 -27 -27 -37 -25 -61 13 -19 29 -20 43 -16 162 5 136 17 191 49 225 25 27 44 25 65 -7z"/>
 </g>
<g id="layer103" fill="#fefefe" stroke="none">
 <path d="M3661 6457 c16 -35 -25 -511 -47 -545 -14 -22 -14 -22 28 -21 24 1 56 -2 72 -6 28 -8 28 -7 13 16 -14 22 -13 45 4 229 10 113 18 217 19 233 0 23 4 27 29 27 44 0 92 -21 101 -44 5 -15 9 -2 11 45 l4 66 -100 6 c-55 3 -110 9 -123 13 -21 6 -22 5 -11 -19z"/>
 <path d="M3143 6450 c-52 -31 -67 -71 -71 -192 -5 -129 15 -234 58 -301 44 -70 91 -87 191 -71 l36 6 -3 85 c-1 46 -5 87 -8 90 -3 4 -6 -5 -6 -18 0 -13 -9 -39 -20 -56 -15 -26 -27 -33 -50 -33 -71 0 -114 99 -115 267 0 88 3 105 21 130 28 38 61 42 73 10 13 -33 17 -136 7 -165 -7 -22 -6 -23 16 -16 12 5 40 8 61 7 42 -1 42 -1 22 30 -9 14 -17 63 -21 132 l-7 110 -76 2 c-61 2 -83 -1 -108 -17z"/>
 <path d="M4244 6366 c-59 -27 -118 -129 -154 -271 -37 -143 -18 -265 46 -293 41 -19 96 -14 135 12 100 68 184 373 135 491 -25 60 -101 89 -162 61z m86 -95 c22 -43 -2 -186 -50 -299 -63 -146 -146 -123 -120 33 14 88 51 195 85 246 29 44 67 53 85 20z"/>
 <path d="M2222 6203 c-44 -21 -62 -60 -62 -132 0 -134 116 -357 211 -406 15 -8 47 -15 70 -15 33 0 47 6 75 34 32 32 34 39 34 98 0 150 -111 368 -213 417 -52 25 -71 26 -115 4z m110 -110 c47 -48 127 -216 135 -282 6 -52 -6 -81 -33 -81 -43 0 -130 128 -175 257 -44 128 -5 186 73 106z"/>
 <path d="M4777 6177 c6 -29 -217 -451 -254 -483 l-25 -21 28 -7 c15 -4 46 -20 68 -36 58 -41 110 -47 166 -18 61 32 94 93 87 165 -5 50 -5 52 23 58 35 8 50 25 88 101 17 34 45 73 61 87 17 14 31 28 31 31 0 2 -15 9 -34 16 -48 16 -77 -1 -116 -68 -18 -32 -39 -67 -47 -79 -16 -28 -54 -38 -82 -23 -22 11 -21 13 31 111 33 63 62 106 78 114 l25 13 -30 8 c-16 4 -44 18 -61 31 -38 29 -42 29 -37 0z m-28 -353 c31 -40 27 -80 -13 -120 -37 -37 -53 -41 -82 -20 -18 14 -18 17 21 90 22 42 43 76 47 76 4 0 16 -12 27 -26z"/>
 <path d="M1774 5927 c-28 -23 -75 -58 -104 -77 -51 -32 -52 -34 -30 -44 26 -12 319 -397 329 -432 6 -22 10 -20 89 41 45 35 87 65 92 67 5 2 -2 28 -17 58 l-26 55 -9 -31 c-8 -31 -70 -89 -88 -82 -5 2 -29 30 -54 63 l-45 60 22 18 c13 10 34 16 50 14 33 -4 35 7 3 28 -13 9 -29 29 -36 45 -14 34 -30 40 -30 12 0 -10 -11 -28 -24 -41 l-23 -22 -57 75 c-31 42 -56 79 -56 83 0 4 18 20 39 36 42 29 79 35 100 15 11 -11 11 -9 2 10 -6 12 -23 30 -37 39 -14 9 -29 25 -33 35 -6 16 -12 14 -57 -25z"/>
 <path d="M5303 5869 c3 -9 0 -28 -7 -41 -27 -52 -308 -393 -332 -402 -32 -13 -30 -21 7 -36 17 -7 37 -24 46 -37 14 -21 41 -35 28 -13 -10 16 10 44 172 246 89 111 163 194 176 198 21 6 21 7 -8 23 -16 8 -43 30 -58 47 -16 17 -26 24 -24 15z"/>
 <path d="M5624 5563 c-14 -35 -283 -377 -330 -420 l-36 -31 26 -17 c14 -9 34 -32 45 -51 l21 -35 22 25 c31 35 446 276 475 276 28 0 30 16 3 30 -11 6 -27 24 -35 41 l-16 30 -20 -24 c-10 -14 -40 -37 -66 -53 l-47 -27 -33 39 c-18 21 -33 41 -33 44 0 3 21 29 46 58 32 37 52 51 63 47 9 -3 0 9 -19 28 -19 18 -40 41 -45 51 -9 16 -11 15 -21 -11z m-29 -299 c-5 -3 -46 -27 -90 -54 -44 -26 -82 -47 -84 -45 -2 3 25 40 60 84 l64 79 30 -30 c17 -17 26 -32 20 -34z"/>
 <path d="M1292 5499 c-18 -12 -39 -34 -48 -50 -8 -16 -26 -36 -39 -45 -32 -21 -31 -28 4 -39 42 -14 399 -338 403 -367 4 -22 5 -22 24 9 11 18 32 42 47 53 60 47 73 121 35 199 -12 25 -56 80 -97 122 -128 126 -248 169 -329 118z m142 -79 c56 -27 171 -132 201 -184 28 -48 32 -88 10 -106 -12 -10 -37 8 -152 111 -206 183 -192 167 -169 185 27 19 62 18 110 -6z"/>
 <path d="M3270 5469 c-274 -31 -581 -140 -825 -291 -93 -58 -278 -202 -329 -257 l-30 -31 110 0 110 0 99 -120 c55 -66 104 -119 110 -117 5 2 14 15 19 30 8 23 3 34 -50 97 -100 121 -102 110 14 110 l101 0 71 -115 71 -115 30 16 30 15 -22 37 c-12 20 -30 48 -39 62 -9 14 -27 42 -39 63 l-23 37 84 0 84 0 28 -67 c37 -86 37 -86 70 -72 29 14 28 24 -5 91 -11 21 -19 40 -19 43 0 3 119 5 265 5 l265 0 0 -330 0 -330 39 6 c47 7 130 -9 189 -38 l44 -21 -42 -27 c-67 -44 -108 -123 -124 -236 -4 -31 -16 -52 -46 -82 -26 -26 -40 -49 -40 -66 0 -24 3 -26 43 -26 30 0 48 6 60 20 21 25 29 25 52 0 24 -27 105 -29 105 -2 0 25 -35 79 -61 92 -19 11 -21 18 -16 63 9 74 45 138 90 162 33 17 39 18 47 5 17 -27 30 -109 30 -187 0 -63 -5 -85 -30 -138 -22 -47 -36 -64 -56 -69 -69 -18 -137 -88 -164 -170 -16 -50 -8 -131 19 -184 21 -41 95 -112 117 -112 6 0 19 19 28 42 14 33 15 43 4 49 -7 5 -16 9 -20 9 -13 0 -51 62 -58 96 -15 64 21 138 80 169 27 14 28 14 54 -36 16 -32 26 -67 26 -93 0 -30 6 -48 19 -60 27 -24 44 -71 37 -99 -3 -13 -35 -67 -71 -121 -73 -110 -90 -157 -82 -235 5 -48 3 -58 -28 -105 -19 -28 -39 -73 -46 -99 -11 -44 -9 -55 16 -131 31 -93 29 -118 -11 -166 l-27 -31 33 -34 c32 -33 34 -34 53 -17 29 26 64 92 71 134 5 27 0 58 -19 111 -30 89 -31 106 -5 157 l20 40 28 -31 27 -30 34 35 35 36 -27 27 c-14 16 -36 50 -47 77 -19 42 -21 53 -10 90 6 22 29 66 50 96 89 125 95 139 95 216 0 62 -3 75 -27 107 -21 27 -28 47 -28 81 0 32 -7 56 -26 83 -31 46 -29 104 6 152 21 30 22 40 18 174 -3 135 -5 145 -34 208 -17 36 -48 83 -69 103 -46 46 -139 92 -206 101 l-49 7 0 54 0 55 28 -15 c15 -7 61 -21 102 -31 231 -53 233 -54 273 -93 74 -71 82 -111 41 -198 -29 -63 -39 -117 -30 -166 11 -58 18 -62 64 -39 39 20 40 21 30 54 -9 29 -6 43 20 103 17 38 33 86 37 106 4 21 11 35 16 32 12 -7 53 -89 68 -136 12 -37 11 -39 -35 -95 -46 -57 -104 -164 -104 -193 0 -8 -17 -24 -37 -35 -45 -24 -83 -78 -83 -116 0 -28 2 -29 45 -29 32 0 45 4 45 14 0 7 6 19 14 25 12 10 19 2 38 -41 l24 -53 -28 -55 c-40 -78 -55 -164 -39 -234 16 -70 43 -122 120 -225 67 -90 76 -129 44 -178 -17 -25 -16 -26 17 -53 38 -31 50 -28 75 20 42 82 28 147 -61 270 -36 50 -74 110 -85 133 -23 51 -25 134 -3 185 15 36 16 36 30 17 19 -26 54 -139 54 -176 0 -28 2 -29 46 -29 l47 0 -6 70 c-6 72 -33 137 -127 308 -31 56 -40 84 -40 120 0 50 34 137 63 161 15 12 17 10 17 -18 0 -30 1 -31 46 -31 l47 0 -5 98 c-4 65 -14 122 -31 171 l-24 73 53 -6 c71 -8 184 -51 223 -84 l31 -27 -34 -50 c-19 -28 -42 -74 -51 -102 -11 -33 -24 -55 -36 -58 -53 -17 -86 -63 -109 -153 -8 -30 -19 -46 -36 -54 -20 -9 -24 -18 -24 -55 0 -37 3 -43 21 -43 64 0 118 58 134 142 4 21 13 45 20 54 15 21 14 22 40 -98 20 -93 12 -127 -46 -194 -47 -54 -64 -86 -73 -137 -9 -51 15 -132 53 -177 l29 -35 31 29 c17 17 31 33 31 37 0 5 -12 25 -26 46 -35 51 -29 109 15 161 69 82 83 109 88 177 3 36 9 65 13 65 4 0 24 -18 43 -39 59 -66 62 -152 6 -216 l-31 -35 22 -35 c26 -42 38 -43 72 -7 77 82 94 205 42 303 -33 60 -96 113 -153 129 -36 9 -39 13 -45 56 -7 56 6 113 42 174 l26 45 19 -44 c10 -24 24 -72 29 -107 l11 -64 43 0 c44 0 44 0 44 36 0 69 -31 172 -69 231 -86 134 -229 209 -433 229 -68 6 -77 10 -121 50 -94 84 -182 121 -402 170 -128 28 -147 35 -182 67 -20 18 -23 30 -23 97 l0 76 115 -23 c63 -12 129 -30 146 -38 45 -24 69 -70 69 -135 l0 -55 118 0 c179 0 280 -42 302 -125 11 -39 12 -40 55 -40 36 0 45 3 45 18 0 41 -24 96 -57 133 -61 68 -139 97 -282 108 l-84 6 -12 40 c-31 108 -95 149 -279 181 -109 18 -136 33 -136 74 l0 30 265 0 c146 0 265 -2 265 -5 0 -3 -8 -22 -19 -43 -33 -67 -34 -77 -5 -91 33 -14 33 -14 70 72 l28 67 84 0 84 0 -23 -37 c-12 -21 -30 -49 -39 -63 -9 -14 -27 -42 -39 -62 l-22 -37 30 -15 30 -16 71 115 71 115 101 0 c116 0 114 11 14 -110 -45 -54 -56 -74 -48 -82 7 -7 12 -20 12 -30 0 -10 4 -18 8 -18 4 0 53 54 107 120 l99 120 110 0 110 0 -30 31 c-44 47 -220 186 -304 242 -240 157 -570 274 -862 306 -112 13 -338 12 -448 0z m540 -109 c118 -21 218 -44 228 -54 3 -3 -231 -6 -521 -6 -289 0 -528 4 -531 8 -9 15 211 59 379 76 87 9 335 -5 445 -24z m515 -164 c51 -24 95 -48 99 -55 5 -8 -233 -11 -918 -11 -645 0 -926 3 -926 11 0 5 42 30 93 54 l92 45 734 0 734 0 92 -44z m278 -167 c32 -22 57 -42 57 -45 0 -2 -520 -4 -1155 -4 -636 0 -1155 4 -1155 9 0 4 23 25 52 45 l52 36 1046 0 1047 0 56 -41z"/>
 <path d="M3210 4764 c-96 -26 -151 -76 -175 -159 l-12 -40 -84 -7 c-47 -3 -105 -11 -129 -18 -96 -25 -179 -95 -199 -167 -19 -67 -16 -73 34 -73 40 0 45 3 51 28 4 15 14 37 22 50 37 58 192 99 330 89 l72 -5 0 56 c0 40 6 67 20 90 21 34 87 71 127 72 12 0 24 3 26 8 8 12 -7 85 -18 88 -6 1 -35 -4 -65 -12z"/>
 <path d="M2487 4533 c-4 -3 -7 -16 -7 -28 0 -31 -37 -60 -94 -74 -93 -23 -135 -58 -158 -132 -9 -31 -20 -43 -55 -60 -105 -51 -184 -172 -205 -315 -13 -92 -8 -114 26 -114 13 0 34 -9 47 -19 20 -16 24 -30 27 -95 l4 -76 44 0 44 0 0 75 c0 91 -15 131 -66 173 l-38 31 13 53 c15 65 50 126 95 166 42 37 133 72 186 72 l40 0 0 51 c0 51 0 51 -30 47 -21 -3 -30 0 -30 9 0 16 47 38 103 48 77 15 130 71 143 153 l7 42 -45 0 c-25 0 -48 -3 -51 -7z"/>
 <path d="M4420 4523 c0 -78 58 -154 131 -172 72 -19 112 -35 117 -49 2 -8 -7 -12 -27 -12 -30 0 -31 -1 -31 -49 l0 -48 58 -5 c138 -13 245 -115 268 -255 6 -38 4 -42 -24 -58 -51 -31 -72 -81 -72 -174 l0 -81 44 0 44 0 4 76 c3 65 7 79 27 95 13 10 34 19 47 19 34 0 39 22 26 114 -21 145 -98 263 -204 314 -40 20 -47 28 -57 66 -15 59 -63 100 -149 125 -74 22 -98 41 -104 81 -3 22 -8 25 -50 28 -41 3 -48 0 -48 -15z"/>
 <path d="M3144 4451 c-133 -35 -226 -79 -297 -141 -51 -45 -55 -47 -147 -58 -198 -24 -326 -94 -411 -225 -38 -59 -69 -162 -69 -231 0 -36 0 -36 44 -36 l43 0 11 64 c5 35 19 83 29 107 l19 44 26 -45 c36 -61 49 -118 42 -174 -6 -43 -9 -47 -45 -56 -60 -16 -120 -69 -153 -133 -53 -104 -34 -227 48 -306 l34 -33 28 41 27 42 -25 27 c-36 38 -48 65 -48 107 0 50 22 96 61 129 l34 29 7 -67 c7 -69 25 -107 83 -171 52 -59 59 -112 20 -169 -14 -20 -25 -40 -25 -45 0 -4 14 -20 31 -37 l31 -29 29 35 c38 45 62 126 53 177 -9 51 -26 83 -73 137 -58 67 -66 101 -46 194 29 135 35 139 61 37 9 -32 22 -69 31 -82 19 -29 63 -53 98 -53 23 0 25 4 25 44 0 35 -4 45 -20 49 -21 5 -33 28 -50 94 -13 50 -49 96 -89 113 -23 9 -33 23 -46 63 -9 29 -32 74 -50 102 -30 44 -32 52 -19 66 34 37 200 98 270 99 20 0 20 0 -4 -72 -16 -48 -26 -106 -30 -170 l-5 -98 47 0 c45 0 46 1 46 32 0 30 1 30 19 14 11 -10 29 -40 41 -69 35 -81 26 -133 -46 -258 -69 -121 -103 -215 -104 -281 l0 -48 45 0 c43 0 45 1 45 29 0 36 35 150 53 175 14 19 15 19 27 -4 7 -13 15 -51 18 -85 6 -77 -12 -119 -102 -245 -89 -123 -103 -188 -61 -270 25 -48 37 -51 75 -20 33 27 34 28 17 53 -33 50 -19 96 59 198 123 161 143 290 66 439 l-28 56 22 47 c28 62 31 64 45 33 10 -22 18 -26 56 -26 41 0 43 2 43 29 0 38 -38 92 -83 116 -20 11 -37 27 -37 35 0 29 -51 124 -101 187 -49 63 -50 65 -38 101 15 47 56 129 68 136 5 3 12 -11 16 -32 4 -20 20 -68 37 -106 26 -60 29 -74 20 -103 -10 -32 -9 -34 28 -53 22 -11 41 -20 44 -20 9 0 26 65 26 102 0 22 -13 70 -30 108 -37 85 -38 116 -1 166 51 70 71 82 179 108 57 13 106 26 108 29 10 9 -17 87 -29 87 -7 -1 -62 -14 -123 -29z"/>
 <path d="M3230 4252 c-52 -40 -68 -61 -103 -132 -31 -62 -32 -71 -35 -207 -4 -134 -3 -144 18 -174 35 -48 37 -106 6 -152 -19 -27 -26 -51 -26 -83 0 -34 -7 -54 -26 -80 -29 -37 -41 -100 -30 -158 4 -20 35 -78 70 -129 78 -115 92 -151 75 -206 -7 -23 -28 -59 -47 -82 l-35 -40 34 -35 34 -35 25 28 c14 16 33 39 42 53 15 21 19 23 27 10 16 -23 13 -74 -10 -153 -26 -89 -21 -133 23 -182 16 -19 34 -35 38 -35 4 0 19 18 34 40 26 39 26 39 5 51 -25 13 -23 53 5 158 25 88 4 173 -53 225 -12 11 -21 31 -21 45 0 52 -22 101 -85 196 -36 53 -68 108 -71 121 -7 29 10 76 37 100 13 12 19 30 19 60 0 26 10 61 26 93 24 46 28 49 48 39 57 -29 88 -79 88 -143 0 -53 -14 -81 -57 -120 l-33 -30 15 -37 c8 -22 22 -38 31 -38 9 0 40 25 69 55 l53 54 15 -51 c8 -29 15 -69 15 -91 0 -30 8 -48 35 -80 37 -43 65 -118 65 -172 0 -49 -25 -133 -81 -272 -62 -154 -79 -212 -79 -278 0 -62 13 -108 42 -151 28 -41 37 -42 71 -6 l26 27 -26 53 c-24 50 -26 57 -15 112 6 32 35 121 66 197 30 76 62 165 71 198 32 123 13 248 -49 329 -15 21 -29 57 -35 92 -12 76 -35 137 -70 194 -16 25 -34 63 -41 85 -20 64 -64 118 -118 148 -27 15 -57 27 -66 27 -9 0 -16 6 -16 13 0 8 -11 36 -25 63 -20 40 -25 63 -25 129 0 76 11 150 24 162 9 10 56 -38 76 -77 21 -41 40 -126 40 -178 0 -82 75 -183 169 -232 l40 -20 19 42 c17 39 17 44 3 52 -102 55 -128 95 -141 210 -15 125 -59 223 -127 276 l-28 22 28 23 c28 22 28 23 13 51 -29 55 -29 55 -66 26z"/>
 <path d="M2942 3025 c-92 -125 -95 -216 -11 -384 l54 -110 48 0 c41 -1 48 2 43 17 -2 9 -8 28 -11 42 -4 14 -24 54 -45 90 -74 127 -74 190 2 290 l39 52 -27 29 c-15 16 -33 29 -39 29 -6 0 -30 -25 -53 -55z"/>
 <path d="M3966 3051 l-28 -29 41 -52 c46 -58 66 -116 55 -163 -3 -18 -28 -75 -54 -127 -27 -52 -51 -107 -54 -122 -6 -28 -6 -28 41 -27 l48 0 53 108 c64 128 75 196 48 279 -19 55 -92 162 -111 162 -6 0 -24 -13 -39 -29z"/>
 <path d="M2710 1205 c0 -13 -11 -45 -25 -71 -14 -26 -25 -61 -25 -78 l1 -31 13 30 c44 102 176 114 176 16 0 -46 -35 -81 -130 -134 -65 -36 -108 -73 -129 -114 -16 -31 -14 -99 4 -133 19 -36 42 -49 117 -65 51 -10 58 -10 58 4 0 9 11 38 25 65 14 27 25 59 24 70 l0 21 -9 -21 c-12 -30 -58 -64 -86 -64 -29 0 -64 33 -64 59 0 31 45 75 112 111 93 48 128 78 149 124 32 70 21 144 -27 188 -19 16 -74 32 -146 42 -35 4 -38 3 -38 -19z"/>
 <path d="M4194 1205 c-10 -8 -34 -15 -53 -15 l-34 0 20 -22 c31 -34 166 -503 152 -529 -12 -24 7 -25 35 -4 11 8 35 15 53 15 36 0 41 7 18 24 -20 15 -158 483 -152 519 4 30 -9 35 -39 12z"/>
 <path d="M3860 1130 c-19 -5 -70 -12 -113 -16 -72 -6 -77 -8 -63 -23 22 -25 81 -514 65 -543 -11 -20 -9 -21 21 -14 18 3 50 6 71 6 38 0 38 1 21 18 -15 15 -23 58 -41 208 -12 104 -24 210 -28 237 l-6 47 56 0 c38 0 61 -5 72 -16 23 -23 25 -15 9 31 -7 22 -14 48 -14 58 0 19 0 19 -50 7z"/>
 <path d="M3216 1085 c-56 -56 -80 -149 -81 -310 0 -115 3 -135 22 -172 30 -55 67 -83 112 -83 109 0 172 128 173 348 0 121 -14 176 -57 219 -29 29 -40 33 -84 33 -44 0 -55 -4 -85 -35z m121 -72 c15 -22 18 -48 18 -143 -1 -126 -21 -216 -55 -250 -27 -27 -37 -25 -61 13 -19 29 -20 43 -16 162 5 136 17 191 49 225 25 27 44 25 65 -7z"/>
 </g>

</svg>