<!DOCTYPE svg PUBLIC "-//W3C//DTD SVG 20010904//EN" "http://www.w3.org/TR/2001/REC-SVG-20010904/DTD/svg10.dtd">
<svg version="1.0" xmlns="http://www.w3.org/2000/svg" width="700px" height="700px" viewBox="0 0 7000 7000" preserveAspectRatio="xMidYMid meet">
<g id="layer101" fill="#272526" stroke="none">
 <path d="M3123 6984 c-651 -71 -1262 -319 -1793 -730 -148 -114 -470 -436 -584 -584 -415 -536 -661 -1145 -731 -1805 -19 -182 -19 -548 0 -730 70 -660 316 -1269 731 -1805 114 -148 436 -470 584 -584 536 -415 1145 -661 1805 -731 182 -19 548 -19 730 0 660 70 1269 316 1805 731 148 114 470 436 584 584 415 536 661 1145 731 1805 19 182 19 548 0 730 -70 660 -316 1269 -731 1805 -114 148 -436 470 -584 584 -536 415 -1145 661 -1805 731 -173 18 -572 18 -742 -1z"/>
 </g>
<g id="layer102" fill="#bc955a" stroke="none">
 <path d="M3123 6984 c-455 -49 -912 -193 -1308 -411 -66 -36 -141 -81 -168 -99 -26 -19 -50 -34 -54 -34 -3 0 -29 -17 -57 -38 -28 -21 -80 -58 -114 -83 -99 -69 -205 -161 -350 -303 -125 -123 -342 -358 -342 -371 0 -3 -37 -54 -81 -113 -45 -59 -84 -113 -87 -122 -3 -8 -20 -35 -38 -60 -113 -160 -308 -586 -369 -805 -8 -27 -24 -81 -35 -120 -79 -273 -120 -587 -120 -925 0 -338 41 -652 120 -925 11 -38 27 -94 35 -123 61 -218 257 -644 371 -805 19 -26 34 -51 34 -55 0 -4 13 -23 28 -42 16 -19 48 -64 73 -100 75 -111 221 -279 371 -426 149 -147 332 -312 358 -322 8 -3 56 -36 106 -74 51 -37 95 -68 98 -68 3 0 27 -15 53 -34 145 -103 484 -263 733 -346 203 -67 275 -85 530 -135 234 -45 677 -59 954 -30 190 20 410 61 561 105 39 11 94 27 123 35 218 61 644 257 805 371 26 19 50 34 53 34 3 0 48 32 100 70 51 39 97 70 102 70 5 0 36 25 69 55 34 30 64 55 67 55 3 0 83 75 177 168 177 172 320 332 398 444 25 35 62 86 83 114 21 28 38 54 38 58 0 4 10 22 23 39 126 179 318 591 382 822 8 28 24 82 35 120 79 273 120 587 120 925 0 338 -41 652 -120 925 -11 39 -27 94 -35 123 -65 233 -242 613 -390 835 -161 242 -253 355 -464 570 -223 227 -343 326 -606 501 -222 147 -607 327 -837 391 -29 8 -84 24 -123 35 -151 44 -371 85 -561 105 -177 18 -569 18 -741 -1z m622 -89 c1136 -76 2179 -746 2738 -1757 36 -64 37 -67 18 -78 -11 -5 -24 -10 -29 -10 -4 0 -30 39 -56 88 -124 227 -313 477 -521 691 -576 592 -1301 933 -2140 1007 -133 12 -472 7 -615 -10 -627 -71 -1195 -302 -1700 -692 -143 -110 -458 -424 -568 -565 -101 -131 -215 -301 -283 -423 -28 -50 -53 -93 -55 -95 -2 -2 -16 1 -30 8 l-26 11 38 68 c239 430 553 790 949 1087 502 377 1100 608 1720 665 190 17 360 19 560 5z m130 -170 c167 -20 219 -29 390 -70 823 -197 1546 -722 1996 -1450 85 -136 120 -203 112 -208 -4 -3 -227 -116 -494 -251 l-486 -246 -56 92 c-348 584 -956 969 -1636 1038 -449 45 -934 -69 -1328 -313 -299 -186 -564 -463 -737 -770 l-27 -48 -487 247 c-268 135 -491 248 -495 251 -14 8 131 252 240 401 454 624 1103 1066 1838 1251 192 48 374 76 630 95 96 7 411 -4 540 -19z m-135 -1199 c468 -59 871 -255 1201 -585 325 -325 514 -709 585 -1186 20 -139 12 -469 -16 -615 -82 -432 -291 -820 -602 -1115 -617 -587 -1526 -732 -2288 -364 -352 170 -650 436 -850 759 -282 454 -375 986 -265 1507 112 529 441 1001 905 1298 227 145 544 262 796 294 49 6 100 13 114 15 66 9 318 4 420 -8z m-3273 -559 l21 -12 -19 -40 c-101 -207 -206 -535 -258 -805 -68 -359 -72 -797 -10 -1160 99 -577 322 -1076 693 -1545 104 -131 404 -429 536 -531 512 -397 1061 -622 1710 -700 278 -33 667 -19 965 37 1175 217 2150 1049 2547 2174 131 371 191 727 190 1130 0 356 -50 670 -159 1010 -35 109 -115 314 -152 390 l-19 40 21 12 c12 7 25 12 28 13 10 0 95 -196 141 -325 254 -707 268 -1491 37 -2202 -277 -854 -882 -1565 -1684 -1979 -372 -192 -813 -324 -1200 -359 -38 -4 -81 -9 -95 -11 -34 -6 -484 -6 -512 0 -13 3 -59 8 -102 11 -183 14 -475 75 -691 145 -950 310 -1727 1029 -2104 1948 -122 298 -216 671 -236 938 -3 43 -8 89 -11 102 -11 55 -4 494 11 617 45 380 124 673 277 1023 22 50 43 92 47 92 3 -1 16 -6 28 -13z m163 -82 c28 -14 50 -27 50 -29 0 -2 -15 -36 -34 -77 -270 -585 -344 -1308 -199 -1959 120 -546 369 -1019 762 -1449 72 -79 164 -165 334 -312 29 -25 30 -27 23 -93 l-8 -67 -36 27 c-156 117 -368 320 -506 485 -415 495 -657 1055 -742 1714 -26 199 -23 582 5 790 44 327 122 605 253 901 22 52 43 94 45 94 2 0 26 -11 53 -25z m5839 -68 c147 -337 222 -625 268 -1037 11 -104 8 -484 -6 -610 -81 -755 -408 -1439 -942 -1970 -122 -121 -348 -315 -349 -299 0 2 -3 34 -6 70 l-6 65 89 74 c325 271 630 665 808 1043 327 698 391 1486 179 2217 -37 127 -125 363 -163 438 -12 23 -21 44 -21 46 0 6 90 55 101 56 4 0 25 -42 48 -93z m-5659 -22 c28 -14 50 -27 50 -29 0 -2 -22 -55 -49 -117 -93 -218 -160 -454 -203 -709 -19 -118 -22 -173 -22 -435 -1 -337 12 -458 79 -717 137 -533 383 -965 773 -1356 l153 -154 -7 -74 c-4 -41 -10 -73 -15 -72 -21 8 -192 163 -281 257 -445 465 -734 1065 -818 1696 -23 174 -28 268 -25 460 6 327 47 589 141 887 49 155 147 388 164 388 6 0 33 -11 60 -25z m5480 -42 c123 -269 215 -608 251 -923 14 -121 18 -461 6 -599 -11 -127 -49 -352 -86 -497 -125 -496 -387 -966 -750 -1346 -89 -93 -259 -248 -280 -256 -5 -1 -11 31 -15 72 l-7 75 144 143 c79 79 181 190 227 248 356 448 579 997 631 1553 15 165 6 554 -16 697 -38 246 -120 533 -214 749 -23 52 -41 96 -41 98 0 5 95 52 107 53 7 0 27 -30 43 -67z m-5310 -43 c21 -11 41 -24 44 -28 3 -5 -15 -55 -39 -112 -56 -128 -126 -343 -155 -475 -29 -135 -57 -349 -59 -459 -1 -50 -4 -93 -7 -97 -4 -8 13 -326 22 -379 3 -19 12 -78 20 -130 78 -500 337 -1018 697 -1395 l105 -111 -6 -72 c-2 -39 -8 -72 -12 -72 -12 0 -243 242 -310 325 -176 216 -369 558 -459 810 -133 375 -177 656 -168 1069 5 261 21 380 78 610 52 208 175 536 200 536 6 0 27 -9 49 -20z m5138 -72 c95 -216 168 -467 201 -688 6 -36 13 -85 17 -110 12 -82 19 -403 12 -530 -34 -563 -244 -1109 -608 -1578 -74 -97 -324 -361 -333 -352 -2 3 -7 36 -10 74 l-6 70 92 95 c406 421 658 956 732 1556 21 165 21 488 1 645 -33 260 -110 544 -207 765 -23 53 -40 97 -38 99 11 10 86 45 95 46 7 0 30 -42 52 -92z m-4774 -114 c116 -59 213 -108 215 -110 2 -1 -17 -54 -42 -116 -132 -329 -182 -690 -143 -1023 66 -553 318 -1039 721 -1385 53 -45 94 -84 92 -86 -2 -3 -118 -49 -258 -103 l-254 -99 -73 71 c-210 205 -422 529 -545 832 -219 537 -253 1148 -95 1710 45 163 145 415 164 415 4 0 102 -48 218 -106z m4557 65 c39 -78 107 -265 143 -395 120 -441 123 -932 6 -1371 -117 -438 -360 -865 -657 -1155 l-68 -66 -259 101 -258 101 63 54 c377 324 630 749 723 1217 37 185 45 276 41 475 -5 266 -53 500 -151 746 -25 64 -45 117 -43 118 8 7 424 215 431 215 4 1 17 -18 29 -40z m-725 -3033 l121 -47 7 -117 c4 -64 9 -133 11 -152 2 -19 9 -102 15 -185 6 -82 13 -167 14 -187 3 -37 2 -38 -88 -97 -467 -303 -984 -474 -1556 -511 -153 -11 -395 -8 -485 5 -16 2 -59 7 -93 10 -249 23 -617 119 -877 230 -198 85 -325 152 -502 267 -83 54 -92 63 -88 87 2 14 9 100 15 191 6 91 13 179 15 195 2 17 7 83 11 147 l7 118 81 31 c44 17 173 67 284 110 112 43 210 79 217 79 7 0 51 -23 97 -52 381 -237 873 -352 1314 -308 329 33 667 147 938 317 l79 50 171 -67 c94 -37 226 -88 292 -114z"/>
 <path d="M3243 6493 c-52 -4 -53 -4 -38 -27 22 -33 63 -561 46 -588 -16 -26 -10 -31 25 -18 15 6 45 8 66 5 42 -7 45 -4 24 28 -21 32 -62 557 -46 586 9 18 8 21 -7 19 -10 -1 -42 -3 -70 -5z"/>
 <path d="M3690 6465 c0 -16 -7 -48 -15 -70 -16 -44 -20 -105 -7 -105 5 0 14 18 21 39 22 74 114 108 162 60 17 -17 20 -29 16 -63 -6 -43 -24 -63 -144 -163 -86 -72 -114 -163 -74 -241 27 -51 54 -65 144 -72 76 -5 78 -5 73 16 -3 12 1 41 9 64 8 23 15 57 15 74 l-1 31 -13 -31 c-16 -35 -61 -74 -86 -74 -10 0 -29 9 -44 21 -51 40 -27 94 81 180 106 83 127 114 131 197 2 54 -1 73 -17 99 -35 55 -65 68 -163 68 l-88 1 0 -31z"/>
 <path d="M2805 6428 c-48 -26 -58 -80 -30 -172 25 -81 20 -113 -17 -136 -18 -11 -35 -16 -39 -12 -3 4 -21 59 -38 123 -27 94 -31 120 -22 138 14 26 -4 29 -35 6 -10 -8 -31 -15 -46 -15 -14 0 -33 -3 -42 -6 -13 -5 -13 -8 5 -23 15 -12 40 -87 94 -276 41 -143 75 -269 75 -281 0 -11 -5 -25 -12 -32 -18 -18 -2 -15 42 8 22 11 54 20 72 20 45 0 98 30 126 71 20 29 23 44 20 100 -3 54 -9 73 -32 103 -15 21 -39 42 -52 48 -17 8 -21 14 -14 24 28 33 29 74 3 162 -16 55 -23 101 -20 125 5 40 -2 45 -38 25z m8 -399 c57 -26 76 -118 33 -158 -41 -38 -56 -25 -82 69 -13 47 -24 88 -24 93 0 11 46 9 73 -4z"/>
 <path d="M4362 6365 c9 -19 -3 -64 -68 -269 -88 -273 -89 -275 -149 -212 l-33 35 -5 -47 c-2 -26 -8 -55 -12 -64 -5 -14 -2 -18 14 -18 17 0 172 -48 242 -75 11 -4 23 8 42 45 32 61 34 80 8 56 -15 -14 -29 -16 -60 -11 -23 4 -41 8 -41 10 0 2 36 114 80 249 57 173 87 249 101 259 17 13 18 15 4 21 -9 3 -27 6 -39 6 -12 0 -30 6 -41 13 -11 8 -28 16 -37 20 -15 5 -16 3 -6 -18z"/>
 <path d="M2150 6185 c-13 -14 -33 -25 -44 -25 -21 0 -54 -16 -46 -22 3 -2 14 -8 25 -14 20 -11 133 -198 134 -221 1 -10 -76 -63 -91 -63 -3 0 -34 50 -68 111 -43 77 -61 119 -57 135 5 30 -4 30 -32 0 -13 -13 -38 -27 -56 -30 -34 -7 -58 -26 -32 -26 24 0 52 -41 181 -274 100 -177 127 -234 124 -256 l-4 -29 28 20 c15 11 30 24 33 29 4 6 14 10 23 10 9 0 24 4 32 10 12 7 10 12 -12 30 -24 18 -125 188 -116 194 1 1 24 14 50 28 l47 26 52 -90 c32 -55 52 -102 51 -119 -1 -25 2 -28 17 -20 10 6 23 17 31 25 7 9 16 16 21 16 4 0 20 5 36 11 l28 11 -25 13 c-32 17 -293 477 -293 518 0 33 -7 34 -37 2z"/>
 <path d="M4894 6104 c-48 -23 -61 -42 -189 -258 -73 -124 -124 -200 -136 -203 -28 -8 -23 -21 11 -28 16 -4 32 -10 35 -15 3 -5 18 -18 34 -29 l28 -20 -5 24 c-3 18 25 75 108 217 114 195 146 238 179 238 24 0 51 -31 51 -59 0 -35 -230 -420 -260 -436 l-25 -13 28 -11 c16 -6 32 -11 36 -11 4 0 18 -11 31 -25 28 -30 40 -32 33 -5 -4 13 29 77 100 197 139 236 147 254 147 309 0 57 -22 96 -70 123 -44 25 -93 27 -136 5z"/>
 <path d="M1540 5776 c-70 -23 -97 -105 -65 -195 49 -141 241 -326 349 -338 59 -7 95 9 145 63 l40 44 -27 29 c-15 15 -39 47 -54 70 -35 52 -52 54 -26 2 30 -61 2 -121 -57 -121 -34 0 -105 52 -177 128 -107 114 -139 202 -89 243 13 11 32 19 43 19 22 0 94 -35 103 -50 3 -5 11 -10 16 -10 15 0 -39 67 -73 92 -40 28 -88 37 -128 24z"/>
 <path d="M5435 5761 c-3 -11 -26 -31 -50 -46 -41 -23 -101 -93 -90 -103 2 -3 20 9 40 27 62 54 141 44 177 -22 7 -13 6 -28 -2 -47 -21 -50 -52 -62 -181 -70 -134 -9 -193 -29 -229 -80 -31 -44 -37 -115 -13 -157 23 -40 115 -111 121 -93 3 7 14 20 25 29 60 49 87 74 87 83 0 5 -10 2 -22 -6 -34 -24 -90 -20 -116 7 -27 29 -28 57 -2 85 27 29 80 42 175 42 44 0 97 5 117 10 110 31 171 167 114 255 -13 20 -127 105 -141 105 -2 0 -6 -9 -10 -19z"/>
 <path d="M3324 5369 c-493 -44 -958 -295 -1276 -690 -43 -53 -78 -99 -78 -102 0 -4 15 -7 33 -7 31 0 37 -7 144 -175 l112 -175 -35 -78 -36 -77 23 -170 c25 -192 31 -215 57 -215 37 0 163 -70 210 -117 71 -71 75 -98 41 -231 -15 -60 -33 -167 -40 -238 -12 -125 -13 -130 -45 -164 -49 -53 -102 -147 -127 -225 -32 -105 -30 -253 7 -360 66 -192 215 -334 411 -391 71 -20 228 -23 295 -5 179 48 323 165 398 323 20 43 39 77 42 77 3 0 107 -159 231 -352 261 -408 216 -373 403 -312 137 44 340 141 461 222 363 241 638 597 769 996 56 168 58 153 -26 177 -40 12 -76 25 -79 28 -4 4 1 53 11 110 26 153 33 300 20 442 -27 301 -119 570 -279 818 l-60 92 60 0 c33 0 59 4 57 9 -10 28 -141 181 -230 267 -396 385 -923 572 -1474 523z m399 -70 c48 -6 129 -21 180 -34 l92 -23 -487 -1 c-269 -1 -488 1 -488 3 0 6 137 38 224 51 102 16 363 18 479 4z m492 -136 l90 -38 -403 -3 c-221 -1 -583 -1 -805 0 l-402 3 85 37 85 37 630 1 630 0 90 -37z m-1511 -118 c4 -20 4 -40 1 -45 -7 -12 -215 -14 -215 -2 0 4 28 24 63 45 44 26 74 37 103 37 40 0 42 -2 48 -35z m1166 -10 l0 -45 -370 0 -370 0 0 45 0 45 370 0 370 0 0 -45z m566 13 l49 -33 -75 -3 c-41 -2 -79 -7 -84 -12 -6 -6 -23 -10 -38 -10 -26 0 -28 3 -28 38 0 21 3 42 7 45 3 4 32 7 63 7 47 0 64 -6 106 -32z m-1379 -70 c-3 -29 -22 -91 -43 -138 l-38 -85 0 -140 c1 -113 6 -164 28 -265 40 -189 91 -275 208 -350 101 -65 145 -72 458 -68 l275 3 63 29 c75 35 125 89 141 151 9 37 8 50 -9 89 -10 25 -37 101 -58 168 -35 110 -48 171 -81 383 -5 33 -20 87 -34 120 -14 33 -27 80 -29 105 l-3 45 130 0 130 0 -3 -145 c-4 -168 9 -244 63 -355 39 -80 100 -171 108 -158 3 4 12 32 21 62 25 85 21 176 -13 283 -41 129 -49 193 -26 218 16 17 31 20 117 20 l98 0 0 -65 0 -65 40 0 c22 0 40 -2 40 -4 0 -2 -11 -28 -24 -57 -35 -76 -50 -204 -37 -315 9 -86 8 -93 -19 -171 l-29 -80 126 -57 c70 -31 128 -54 130 -52 2 1 22 94 46 204 23 111 45 202 49 202 11 0 106 -162 153 -262 54 -116 98 -247 127 -381 19 -89 22 -131 22 -327 0 -191 -3 -240 -21 -325 -12 -55 -24 -107 -28 -116 -5 -13 10 -20 75 -39 44 -12 80 -26 80 -30 0 -23 -69 -202 -114 -297 -157 -326 -405 -599 -716 -789 -123 -75 -236 -127 -384 -176 -98 -33 -121 -37 -131 -26 -6 7 -128 195 -271 417 l-259 405 -7 -63 c-40 -362 -420 -580 -743 -427 -97 46 -164 102 -218 183 -82 124 -111 260 -83 393 20 94 64 184 120 247 43 48 43 49 50 143 9 118 31 245 56 331 26 87 25 115 -6 177 -33 66 -108 133 -192 173 -37 17 -74 34 -82 38 -10 5 -20 52 -35 158 l-21 151 39 90 39 90 -117 183 c-65 101 -126 196 -137 211 l-18 26 35 22 c19 12 39 19 43 16 5 -3 60 -84 122 -181 61 -96 113 -175 115 -175 2 0 27 54 56 120 39 92 62 129 92 156 l39 36 85 -83 84 -84 -33 -28 c-18 -15 -51 -38 -73 -50 -38 -21 -42 -29 -83 -143 l-44 -121 67 -104 c67 -105 88 -129 111 -129 20 0 50 79 81 208 27 115 28 122 28 432 0 173 -4 354 -9 403 l-9 87 148 0 148 0 -6 -52z m-346 -65 l5 -43 -195 0 -196 1 50 45 50 45 140 -3 140 -3 6 -42z m1163 39 c2 -4 7 -24 11 -45 l7 -37 -397 0 -396 0 7 23 c4 12 10 32 15 45 l9 22 369 0 c203 0 372 -3 375 -8z m392 -80 c-11 -10 -13 3 -7 48 l6 45 3 -44 c2 -23 1 -46 -2 -49z m384 23 c10 -13 9 -15 -9 -15 -12 0 -21 6 -21 15 0 8 4 15 9 15 5 0 14 -7 21 -15z m-1922 -112 l3 -43 -273 0 -272 0 44 45 45 45 225 -2 225 -3 3 -42z m1197 17 c33 -64 60 -60 -430 -60 -280 0 -445 4 -445 10 0 5 8 25 17 45 l17 35 413 0 412 0 16 -30z m357 -15 c9 -42 6 -50 -17 -42 -10 4 -15 20 -15 48 0 52 21 48 32 -6z m485 3 c18 -18 33 -36 33 -40 0 -4 -25 -8 -55 -8 -30 0 -55 4 -55 9 0 11 33 71 40 71 2 0 19 -14 37 -32z m-2231 -91 c-11 -7 -34 -24 -51 -39 -31 -26 -38 -28 -131 -28 l-99 0 -22 35 c-13 19 -23 37 -23 40 0 3 78 5 173 4 137 0 168 -3 153 -12z m194 -27 c0 -37 -2 -40 -28 -40 -19 0 -40 12 -67 40 l-39 40 67 0 67 0 0 -40z m1218 -2 l3 -38 -455 0 -456 0 0 40 0 40 453 -2 452 -3 3 -37z m362 23 c5 -11 10 -29 10 -40 0 -29 -37 -28 -45 2 -4 12 -9 30 -11 40 -7 24 32 23 46 -2z m563 -15 c15 -19 27 -37 27 -40 0 -14 -30 -4 -39 12 -9 16 -10 16 -16 0 -6 -15 -21 -18 -101 -18 -101 0 -103 1 -88 58 6 21 11 22 98 22 l91 0 28 -34z m-2463 -110 c0 -8 -41 -96 -45 -96 -5 0 -65 87 -65 94 0 3 25 6 55 6 30 0 55 -2 55 -4z m1580 -112 c16 -60 45 -153 64 -205 20 -52 36 -101 36 -109 0 -29 -39 -79 -82 -103 -73 -42 -132 -49 -398 -45 l-245 3 -67 32 c-81 38 -151 106 -184 177 -27 59 -74 268 -74 329 l0 37 461 -2 461 -3 28 -111z m350 96 c0 -11 -4 -20 -10 -20 -5 0 -10 2 -10 4 0 2 -3 11 -6 20 -4 11 -1 16 10 16 9 0 16 -8 16 -20z m458 -117 c-16 -76 -35 -165 -42 -198 -7 -33 -17 -59 -23 -58 -6 1 -36 13 -67 27 l-56 25 24 54 c20 45 22 62 15 98 -4 24 -8 77 -9 117 l0 72 94 0 94 0 -30 -137z m-2068 -82 c0 -54 -13 -121 -23 -121 -6 0 -19 8 -29 17 -18 16 -20 15 -40 -5 -21 -21 -21 -22 -3 -42 23 -26 32 -25 57 3 l19 22 -5 -35 c-14 -80 -38 -180 -45 -180 -4 0 -26 29 -49 65 l-41 65 33 92 c28 78 38 95 72 119 49 35 54 35 54 0z"/>
 <path d="M2836 4923 c3 -27 10 -61 15 -77 12 -40 11 -462 -2 -568 -14 -114 -61 -308 -92 -383 -33 -76 -65 -237 -73 -357 -3 -51 -17 -133 -30 -183 -58 -221 -72 -458 -39 -660 22 -139 34 -177 54 -170 9 4 31 9 49 12 30 5 32 4 32 -25 0 -26 -4 -31 -32 -37 -45 -10 -78 -42 -78 -77 0 -15 2 -28 4 -28 2 0 20 16 39 35 36 36 67 46 67 22 0 -8 -11 -19 -25 -25 -42 -19 -28 -32 35 -32 60 0 60 0 60 -29 0 -23 -5 -30 -22 -33 -43 -6 27 -41 93 -46 71 -5 101 13 166 102 25 34 74 88 109 121 35 33 64 68 64 78 0 21 -13 22 -30 2 -15 -19 -40 -20 -40 -2 0 20 33 47 58 47 12 0 22 5 22 10 0 6 -27 10 -60 10 -53 0 -60 2 -60 20 0 17 7 20 48 20 34 0 43 3 32 10 -8 5 -36 10 -61 10 -25 0 -54 7 -65 15 -32 24 -79 18 -116 -14 -26 -22 -38 -27 -55 -20 -31 11 -29 25 10 64 35 35 96 58 131 49 17 -4 27 7 55 58 42 78 175 213 253 257 31 17 90 44 130 58 72 26 77 27 433 33 342 6 363 7 417 29 76 30 159 106 195 179 25 50 28 68 28 152 0 82 -4 103 -27 152 -14 31 -44 76 -67 100 -44 48 -53 77 -71 219 -6 52 -7 110 -2 147 l9 61 -40 38 c-62 61 -151 202 -187 299 -31 83 -34 99 -38 242 l-4 152 -64 0 -63 0 14 -45 c7 -25 22 -61 34 -81 14 -23 21 -52 21 -87 0 -113 54 -336 119 -497 34 -82 36 -97 21 -151 -26 -94 -115 -174 -235 -212 -65 -20 -89 -22 -340 -22 -257 0 -273 1 -335 23 -86 31 -146 70 -212 140 -70 73 -104 140 -133 261 -37 150 -48 253 -42 377 4 95 10 123 32 171 15 32 33 75 41 96 l13 37 -84 0 -85 0 6 -47z m154 -2402 c5 -11 10 -29 10 -40 0 -18 -6 -21 -46 -21 -52 0 -84 14 -84 36 0 12 6 15 24 10 18 -4 25 -1 29 14 7 27 53 27 67 1z"/>
 <path d="M4400 4855 c0 -20 9 -61 19 -93 53 -159 57 -255 14 -382 l-28 -82 31 -27 c25 -21 29 -31 23 -51 -4 -14 -7 -38 -7 -55 -1 -19 11 6 31 65 29 89 31 103 28 220 -2 114 5 198 24 272 6 22 3 27 -17 30 -21 3 -23 8 -26 71 l-3 67 -44 0 c-45 0 -45 0 -45 -35z"/>
 <path d="M2538 4532 c-9 -15 -62 -131 -118 -257 l-102 -230 18 -127 17 -128 75 -37 c48 -23 98 -59 135 -95 33 -32 61 -57 62 -56 1 2 6 33 11 70 l10 67 -40 65 c-39 62 -45 66 -105 87 -75 25 -111 56 -111 96 0 15 33 120 74 232 l73 204 49 25 c27 13 51 26 53 28 5 5 -70 84 -79 84 -3 0 -13 -12 -22 -28z"/>
 <path d="M4890 4256 l-12 -74 40 -98 c94 -230 131 -499 101 -733 l-10 -84 38 -39 c20 -21 40 -38 44 -38 14 0 16 40 3 51 -13 10 -11 16 8 36 22 24 23 29 23 236 -1 237 -15 328 -80 525 -35 102 -122 292 -135 292 -4 0 -13 -33 -20 -74z"/>
 <path d="M4546 4095 c8 -13 30 -58 48 -98 19 -44 47 -89 68 -109 77 -72 102 -267 54 -411 -13 -40 -27 -96 -31 -125 -7 -53 -6 -55 31 -93 21 -21 42 -39 46 -39 12 0 10 48 -3 55 -7 5 -3 15 10 29 19 20 22 39 28 152 7 156 -13 310 -59 453 -44 140 -49 147 -125 181 -80 36 -88 37 -67 5z"/>
 <path d="M4844 4040 c-7 -42 -19 -49 -56 -29 -18 10 -20 9 -15 -7 84 -258 106 -455 75 -672 l-11 -83 38 -39 c22 -22 43 -40 47 -40 19 0 5 29 -32 65 -31 30 -37 42 -28 52 9 11 17 8 43 -17 40 -39 41 -38 55 123 12 134 3 294 -25 430 -15 72 -73 257 -81 257 -2 0 -7 -18 -10 -40z"/>
 <path d="M4497 4026 c-4 -11 -10 -53 -14 -95 l-6 -76 31 27 c17 14 37 28 43 30 9 3 4 24 -17 68 -24 51 -32 61 -37 46z"/>
 <path d="M2453 4004 c-4 -11 1 -22 12 -30 30 -22 37 -16 20 16 -18 34 -23 37 -32 14z"/>
 <path d="M4556 3841 c-18 -20 -18 -22 20 -97 34 -68 39 -85 42 -167 3 -73 0 -104 -15 -150 -18 -52 -18 -56 -3 -42 35 32 72 134 77 214 12 169 -59 310 -121 242z"/>
 <path d="M4572 3271 c-34 -29 -33 -41 4 -41 17 0 24 8 29 31 4 17 5 32 3 34 -1 2 -18 -9 -36 -24z"/>
 <path d="M4667 3254 c-18 -19 -5 -46 29 -60 54 -23 59 -13 16 29 -21 20 -41 34 -45 31z"/>
 <path d="M4997 3209 c-5 -19 3 -33 36 -67 40 -41 42 -41 50 -20 6 18 0 30 -36 66 -43 43 -44 43 -50 21z"/>
 <path d="M4822 3183 c2 -20 12 -29 43 -40 l40 -14 -40 41 c-21 22 -41 40 -43 40 -2 0 -2 -12 0 -27z"/>
 <path d="M4471 3168 c-47 -123 -123 -249 -197 -328 -41 -44 -44 -51 -32 -68 50 -69 151 -192 158 -192 15 0 109 111 171 203 83 120 183 337 157 337 -3 0 -57 16 -119 35 -63 19 -117 35 -122 35 -4 0 -11 -10 -16 -22z"/>
 <path d="M4335 3153 c-33 -14 -103 -18 -400 -23 -332 -6 -365 -8 -425 -28 -65 -21 -159 -74 -220 -123 l-32 -26 128 -202 129 -203 75 6 c310 22 614 226 768 514 58 109 56 116 -23 85z m-55 -92 c0 -17 -91 -132 -152 -192 -140 -136 -327 -226 -528 -253 l-46 -7 -102 159 c-56 88 -102 163 -102 168 0 26 149 98 242 119 73 16 688 21 688 6z"/>
 <path d="M4105 3004 c-17 -26 -17 -28 1 -41 16 -11 21 -11 38 7 16 16 18 24 10 37 -17 27 -30 26 -49 -3z"/>
 <path d="M3688 3008 c-16 -5 -28 -14 -28 -20 0 -11 87 -255 96 -269 2 -4 18 -3 35 3 22 8 28 15 24 27 -4 9 -27 72 -52 141 -25 69 -46 126 -47 126 0 1 -13 -3 -28 -8z"/>
 <path d="M3790 3002 l-23 -19 62 -106 63 -107 29 15 29 16 -30 52 c-17 29 -45 78 -63 110 -17 31 -35 57 -38 57 -4 0 -17 -8 -29 -18z"/>
 <path d="M3928 3006 c-10 -7 -18 -17 -18 -21 0 -4 23 -36 51 -71 45 -54 55 -62 71 -53 35 19 31 38 -22 99 -29 33 -55 60 -58 60 -4 0 -15 -7 -24 -14z"/>
 <path d="M3578 2993 c-10 -2 -18 -6 -18 -8 0 -13 52 -301 55 -303 2 -2 17 -1 34 3 34 7 34 -12 -3 190 -22 123 -26 130 -68 118z"/>
 <path d="M3470 2885 l0 -75 30 0 30 0 0 75 0 75 -30 0 -30 0 0 -75z"/>
 <path d="M4980 3126 c0 -9 7 -19 15 -23 25 -9 27 2 5 22 -18 17 -20 17 -20 1z"/>
 <path d="M4936 2993 c-49 -154 -191 -383 -329 -529 l-65 -69 80 -100 c44 -55 83 -101 87 -103 13 -4 165 160 231 249 71 96 156 237 195 324 36 81 75 185 75 199 0 10 -225 86 -252 86 -2 0 -12 -26 -22 -57z"/>
 <path d="M3157 2818 l-37 -63 59 -8 c32 -4 68 -4 80 1 20 7 20 9 -15 62 -20 30 -40 58 -43 63 -4 4 -24 -21 -44 -55z"/>
 <path d="M2508 2809 c-16 -20 -28 -41 -28 -46 0 -10 51 -25 58 -18 2 1 2 25 0 51 l-3 49 -27 -36z"/>
 <path d="M2438 2676 c-29 -53 -17 -307 15 -306 7 1 36 6 66 13 49 12 54 16 67 52 12 35 12 49 -6 120 -10 44 -20 89 -22 99 -2 15 -17 23 -56 31 -50 12 -53 11 -64 -9z"/>
 <path d="M3298 2692 c-15 -3 -15 -6 -2 -38 8 -20 13 -43 10 -52 -2 -9 -7 -30 -11 -46 -3 -16 -33 -57 -67 -92 -57 -60 -59 -63 -37 -68 86 -20 121 -26 129 -21 16 10 33 141 26 206 -9 79 -25 116 -48 111z"/>
 <path d="M3976 2605 c-73 -41 -217 -90 -314 -106 l-73 -12 83 -86 c46 -47 95 -101 108 -119 l25 -33 95 31 c95 31 255 105 298 138 l23 18 -82 102 c-45 56 -87 102 -93 101 -6 0 -38 -15 -70 -34z"/>
 <path d="M3096 2315 c-9 -13 -16 -38 -16 -54 0 -49 21 -131 33 -131 33 0 189 161 173 178 -7 6 -127 31 -152 32 -12 0 -29 -11 -38 -25z"/>
 <path d="M2535 2325 c-5 -2 -23 -6 -38 -9 l-28 -7 30 -42 c32 -46 79 -92 127 -125 l32 -22 10 43 c6 23 14 66 18 95 l7 52 -57 0 c-31 0 -56 5 -56 10 0 10 -24 12 -45 5z"/>
 <path d="M3715 2240 c119 -185 135 -210 140 -210 18 0 -125 229 -165 265 -13 12 -3 -11 25 -55z"/>
 <path d="M2745 2227 c-16 -73 -25 -113 -25 -123 0 -30 217 -46 290 -21 19 7 35 14 34 17 0 3 -6 33 -13 67 l-12 63 -32 -17 c-49 -26 -134 -22 -191 10 l-46 26 -5 -22z"/>
 <path d="M4290 2208 c-80 -49 -183 -98 -287 -134 -43 -15 -79 -28 -80 -29 -2 -1 8 -29 22 -62 13 -33 32 -90 41 -127 9 -36 21 -66 26 -66 19 0 207 75 283 113 79 39 235 135 235 144 0 8 -161 203 -168 203 -4 -1 -36 -19 -72 -42z"/>
 <path d="M3138 4483 c-10 -2 -18 -8 -18 -11 0 -4 30 -92 67 -195 66 -183 69 -188 93 -182 14 4 28 9 31 13 11 11 -127 377 -142 378 -8 1 -22 0 -31 -3z"/>
 <path d="M3318 4483 c-22 -5 -22 -6 -2 -113 8 -47 23 -136 34 -199 11 -62 21 -116 24 -118 3 -3 19 -2 36 2 23 5 29 11 26 23 -3 10 -19 98 -36 197 -41 237 -34 221 -82 208z"/>
 <path d="M3470 4270 l0 -220 30 0 30 0 0 218 0 218 -30 2 -30 2 0 -220z"/>
 <path d="M3636 4479 c-5 -16 -64 -361 -68 -399 -3 -21 1 -25 28 -28 31 -3 32 -3 43 60 44 245 62 360 59 363 -1 2 -15 6 -30 10 -19 5 -29 3 -32 -6z"/>
 <path d="M3809 4464 c-41 -110 -139 -385 -139 -392 0 -15 52 -25 60 -11 13 20 152 410 149 414 -2 2 -16 6 -31 10 -24 6 -29 3 -39 -21z"/>
 <path d="M3904 4283 c-15 -27 -49 -86 -76 -132 -27 -46 -48 -84 -46 -86 2 -1 14 -8 27 -15 30 -15 27 -18 117 138 62 107 64 115 47 128 -29 22 -41 17 -69 -33z"/>
 <path d="M1896 4445 c-9 -13 -16 -26 -16 -29 0 -2 52 -34 117 -71 l116 -67 18 23 c10 13 19 26 19 29 0 3 -26 20 -57 38 -32 17 -86 47 -119 67 l-62 35 -16 -25z"/>
 <path d="M1760 4154 c-6 -15 -7 -31 -3 -35 4 -4 88 -37 186 -72 l178 -65 10 25 c5 13 9 28 9 32 0 5 -75 35 -167 69 -93 33 -176 63 -185 67 -13 5 -20 0 -28 -21z"/>
 <path d="M1675 3840 c-4 -17 -5 -33 -3 -34 4 -4 471 -86 486 -86 7 0 12 14 12 33 l0 32 -222 38 c-123 22 -233 41 -245 44 -17 4 -22 -1 -28 -27z"/>
 <path d="M1650 3515 l0 -35 395 0 395 0 0 35 0 35 -395 0 -395 0 0 -35z"/>
 <path d="M2100 3304 c-162 -29 -326 -58 -363 -64 l-68 -12 7 -32 c3 -17 7 -32 8 -33 3 -4 767 135 773 140 3 3 3 18 -1 32 -8 33 -1 33 -356 -31z"/>
 <path d="M2067 3031 c-313 -114 -318 -116 -312 -141 4 -14 9 -28 13 -32 7 -6 646 223 659 236 10 9 -15 56 -29 55 -7 -1 -156 -53 -331 -118z"/>
 <path d="M2160 2782 c-64 -37 -153 -89 -198 -115 l-82 -48 15 -30 16 -30 37 22 c20 12 96 55 167 96 216 125 197 110 180 144 -9 16 -17 29 -18 28 -1 0 -54 -30 -117 -67z"/>
 <path d="M2133 2413 c-37 -31 -70 -58 -72 -60 -3 -2 6 -14 19 -28 l23 -24 73 61 c41 33 74 64 74 68 0 8 -34 40 -43 40 -3 0 -36 -26 -74 -57z"/>
 <path d="M3470 1920 l0 -260 30 0 30 0 0 260 0 260 -30 0 -30 0 0 -260z"/>
 <path d="M2301 2139 c-11 -19 -10 -24 8 -43 l21 -20 22 21 c21 22 21 23 3 43 -23 26 -37 25 -54 -1z"/>
 <path d="M3190 1963 c0 -5 -9 -60 -20 -123 -26 -152 -26 -150 10 -150 23 0 31 5 35 23 5 22 45 248 45 254 0 2 -16 3 -35 3 -19 0 -35 -3 -35 -7z"/>
 <path d="M2556 1953 c-12 -13 -5 -33 15 -44 17 -9 25 -8 36 4 14 14 12 17 -14 31 -17 8 -33 12 -37 9z"/>
 <path d="M2855 1839 c-9 -28 -15 -52 -13 -54 1 -2 15 -6 29 -10 24 -6 28 -2 43 34 9 23 16 45 16 50 0 6 -43 31 -55 31 -2 0 -11 -23 -20 -51z"/>
 <path d="M2367 1403 c-4 -3 -7 -14 -7 -24 0 -9 -16 -36 -35 -59 -19 -22 -39 -58 -45 -78 -15 -55 -11 -61 11 -19 37 71 120 98 173 56 57 -45 13 -127 -89 -164 -185 -66 -230 -108 -230 -211 0 -53 4 -67 25 -89 29 -31 53 -45 95 -55 16 -4 38 -11 48 -15 13 -5 17 -2 17 15 0 11 13 38 29 58 16 20 32 48 36 62 8 24 7 23 -29 -8 -43 -37 -86 -42 -116 -12 -50 50 -6 113 105 150 169 55 217 101 223 209 4 61 2 70 -23 99 -32 38 -65 57 -120 67 -22 4 -45 11 -51 16 -6 5 -14 6 -17 2z"/>
 <path d="M4487 1356 c-20 -8 -52 -25 -70 -39 -18 -13 -41 -26 -51 -28 -17 -4 -17 -6 3 -31 12 -14 21 -39 21 -55 0 -34 30 -103 53 -121 15 -13 15 -10 0 26 -20 51 -11 101 24 136 56 56 133 18 133 -65 0 -21 -14 -73 -32 -116 -25 -61 -32 -93 -32 -149 -1 -63 2 -75 28 -108 53 -70 130 -82 207 -31 19 12 43 24 53 26 17 4 16 6 -3 31 -12 14 -21 36 -21 47 0 25 -26 91 -36 91 -3 0 -3 -11 0 -25 9 -34 -18 -93 -48 -107 -33 -15 -72 2 -88 37 -13 30 -6 65 42 199 25 69 30 98 26 130 -18 116 -114 186 -209 152z"/>
 <path d="M2879 1176 c-44 -30 -90 -115 -121 -221 -32 -115 -33 -284 -1 -336 28 -45 65 -64 119 -63 63 1 106 38 148 127 69 147 94 356 52 441 -38 75 -128 99 -197 52z m118 -106 c36 -101 -56 -420 -121 -420 -32 0 -48 22 -53 74 -11 90 47 309 94 360 34 37 64 31 80 -14z"/>
 <path d="M3927 1172 c-32 -20 -67 -86 -67 -128 0 -16 21 -128 46 -249 37 -175 44 -226 36 -247 -12 -32 -2 -36 38 -14 13 8 38 12 56 9 18 -3 34 0 38 6 4 6 3 11 -3 11 -6 0 -15 9 -21 19 -17 32 -101 454 -95 478 3 13 16 30 30 39 23 15 27 15 49 0 30 -19 26 -6 80 -269 34 -165 43 -224 36 -243 -9 -23 -8 -25 12 -19 13 4 27 11 33 16 5 5 29 9 53 9 44 0 44 0 23 18 -17 14 -30 59 -66 237 -50 244 -64 286 -110 321 -40 30 -125 33 -168 6z"/>
 <path d="M3379 1116 c19 -22 11 -577 -8 -600 -19 -23 -11 -27 28 -16 20 5 42 5 57 -1 14 -5 32 -9 41 -9 14 0 14 2 -1 18 -14 17 -16 48 -14 278 l3 259 40 3 c48 3 85 -14 103 -48 12 -23 13 -20 8 30 -3 30 -6 65 -6 78 0 22 -2 22 -131 22 -113 0 -130 -2 -120 -14z"/>
 </g>
<g id="layer103" fill="#fefefe" stroke="none">
 <path d="M3243 6493 c-52 -4 -53 -4 -38 -27 22 -33 63 -561 46 -588 -16 -26 -10 -31 25 -18 15 6 45 8 66 5 42 -7 45 -4 24 28 -21 32 -62 557 -46 586 9 18 8 21 -7 19 -10 -1 -42 -3 -70 -5z"/>
 <path d="M3690 6465 c0 -16 -7 -48 -15 -70 -16 -44 -20 -105 -7 -105 5 0 14 18 21 39 22 74 114 108 162 60 17 -17 20 -29 16 -63 -6 -43 -24 -63 -144 -163 -86 -72 -114 -163 -74 -241 27 -51 54 -65 144 -72 76 -5 78 -5 73 16 -3 12 1 41 9 64 8 23 15 57 15 74 l-1 31 -13 -31 c-16 -35 -61 -74 -86 -74 -10 0 -29 9 -44 21 -51 40 -27 94 81 180 106 83 127 114 131 197 2 54 -1 73 -17 99 -35 55 -65 68 -163 68 l-88 1 0 -31z"/>
 <path d="M2805 6428 c-48 -26 -58 -80 -30 -172 25 -81 20 -113 -17 -136 -18 -11 -35 -16 -39 -12 -3 4 -21 59 -38 123 -27 94 -31 120 -22 138 14 26 -4 29 -35 6 -10 -8 -31 -15 -46 -15 -14 0 -33 -3 -42 -6 -13 -5 -13 -8 5 -23 15 -12 40 -87 94 -276 41 -143 75 -269 75 -281 0 -11 -5 -25 -12 -32 -18 -18 -2 -15 42 8 22 11 54 20 72 20 45 0 98 30 126 71 20 29 23 44 20 100 -3 54 -9 73 -32 103 -15 21 -39 42 -52 48 -17 8 -21 14 -14 24 28 33 29 74 3 162 -16 55 -23 101 -20 125 5 40 -2 45 -38 25z m8 -399 c57 -26 76 -118 33 -158 -41 -38 -56 -25 -82 69 -13 47 -24 88 -24 93 0 11 46 9 73 -4z"/>
 <path d="M4362 6365 c9 -19 -3 -64 -68 -269 -88 -273 -89 -275 -149 -212 l-33 35 -5 -47 c-2 -26 -8 -55 -12 -64 -5 -14 -2 -18 14 -18 17 0 172 -48 242 -75 11 -4 23 8 42 45 32 61 34 80 8 56 -15 -14 -29 -16 -60 -11 -23 4 -41 8 -41 10 0 2 36 114 80 249 57 173 87 249 101 259 17 13 18 15 4 21 -9 3 -27 6 -39 6 -12 0 -30 6 -41 13 -11 8 -28 16 -37 20 -15 5 -16 3 -6 -18z"/>
 <path d="M2150 6185 c-13 -14 -33 -25 -44 -25 -21 0 -54 -16 -46 -22 3 -2 14 -8 25 -14 20 -11 133 -198 134 -221 1 -10 -76 -63 -91 -63 -3 0 -34 50 -68 111 -43 77 -61 119 -57 135 5 30 -4 30 -32 0 -13 -13 -38 -27 -56 -30 -34 -7 -58 -26 -32 -26 24 0 52 -41 181 -274 100 -177 127 -234 124 -256 l-4 -29 28 20 c15 11 30 24 33 29 4 6 14 10 23 10 9 0 24 4 32 10 12 7 10 12 -12 30 -24 18 -125 188 -116 194 1 1 24 14 50 28 l47 26 52 -90 c32 -55 52 -102 51 -119 -1 -25 2 -28 17 -20 10 6 23 17 31 25 7 9 16 16 21 16 4 0 20 5 36 11 l28 11 -25 13 c-32 17 -293 477 -293 518 0 33 -7 34 -37 2z"/>
 <path d="M4894 6104 c-48 -23 -61 -42 -189 -258 -73 -124 -124 -200 -136 -203 -28 -8 -23 -21 11 -28 16 -4 32 -10 35 -15 3 -5 18 -18 34 -29 l28 -20 -5 24 c-3 18 25 75 108 217 114 195 146 238 179 238 24 0 51 -31 51 -59 0 -35 -230 -420 -260 -436 l-25 -13 28 -11 c16 -6 32 -11 36 -11 4 0 18 -11 31 -25 28 -30 40 -32 33 -5 -4 13 29 77 100 197 139 236 147 254 147 309 0 57 -22 96 -70 123 -44 25 -93 27 -136 5z"/>
 <path d="M1540 5776 c-70 -23 -97 -105 -65 -195 49 -141 241 -326 349 -338 59 -7 95 9 145 63 l40 44 -27 29 c-15 15 -39 47 -54 70 -35 52 -52 54 -26 2 30 -61 2 -121 -57 -121 -34 0 -105 52 -177 128 -107 114 -139 202 -89 243 13 11 32 19 43 19 22 0 94 -35 103 -50 3 -5 11 -10 16 -10 15 0 -39 67 -73 92 -40 28 -88 37 -128 24z"/>
 <path d="M5435 5761 c-3 -11 -26 -31 -50 -46 -41 -23 -101 -93 -90 -103 2 -3 20 9 40 27 62 54 141 44 177 -22 7 -13 6 -28 -2 -47 -21 -50 -52 -62 -181 -70 -134 -9 -193 -29 -229 -80 -31 -44 -37 -115 -13 -157 23 -40 115 -111 121 -93 3 7 14 20 25 29 60 49 87 74 87 83 0 5 -10 2 -22 -6 -34 -24 -90 -20 -116 7 -27 29 -28 57 -2 85 27 29 80 42 175 42 44 0 97 5 117 10 110 31 171 167 114 255 -13 20 -127 105 -141 105 -2 0 -6 -9 -10 -19z"/>
 <path d="M3324 5369 c-493 -44 -958 -295 -1276 -690 -43 -53 -78 -99 -78 -102 0 -4 15 -7 33 -7 31 0 37 -7 144 -175 l112 -175 -35 -78 -36 -77 23 -170 c25 -192 31 -215 57 -215 37 0 163 -70 210 -117 71 -71 75 -98 41 -231 -15 -60 -33 -167 -40 -238 -12 -125 -13 -130 -45 -164 -49 -53 -102 -147 -127 -225 -32 -105 -30 -253 7 -360 66 -192 215 -334 411 -391 71 -20 228 -23 295 -5 179 48 323 165 398 323 20 43 39 77 42 77 3 0 107 -159 231 -352 261 -408 216 -373 403 -312 137 44 340 141 461 222 363 241 638 597 769 996 56 168 58 153 -26 177 -40 12 -76 25 -79 28 -4 4 1 53 11 110 26 153 33 300 20 442 -27 301 -119 570 -279 818 l-60 92 60 0 c33 0 59 4 57 9 -10 28 -141 181 -230 267 -396 385 -923 572 -1474 523z m399 -70 c48 -6 129 -21 180 -34 l92 -23 -487 -1 c-269 -1 -488 1 -488 3 0 6 137 38 224 51 102 16 363 18 479 4z m492 -136 l90 -38 -403 -3 c-221 -1 -583 -1 -805 0 l-402 3 85 37 85 37 630 1 630 0 90 -37z m-1511 -118 c4 -20 4 -40 1 -45 -7 -12 -215 -14 -215 -2 0 4 28 24 63 45 44 26 74 37 103 37 40 0 42 -2 48 -35z m1166 -10 l0 -45 -370 0 -370 0 0 45 0 45 370 0 370 0 0 -45z m566 13 l49 -33 -75 -3 c-41 -2 -79 -7 -84 -12 -6 -6 -23 -10 -38 -10 -26 0 -28 3 -28 38 0 21 3 42 7 45 3 4 32 7 63 7 47 0 64 -6 106 -32z m-1379 -70 c-3 -29 -22 -91 -43 -138 l-38 -85 0 -140 c1 -113 6 -164 28 -265 40 -189 91 -275 208 -350 101 -65 145 -72 458 -68 l275 3 63 29 c75 35 125 89 141 151 9 37 8 50 -9 89 -10 25 -37 101 -58 168 -35 110 -48 171 -81 383 -5 33 -20 87 -34 120 -14 33 -27 80 -29 105 l-3 45 130 0 130 0 -3 -145 c-4 -168 9 -244 63 -355 39 -80 100 -171 108 -158 3 4 12 32 21 62 25 85 21 176 -13 283 -41 129 -49 193 -26 218 16 17 31 20 117 20 l98 0 0 -65 0 -65 40 0 c22 0 40 -2 40 -4 0 -2 -11 -28 -24 -57 -35 -76 -50 -204 -37 -315 9 -86 8 -93 -19 -171 l-29 -80 126 -57 c70 -31 128 -54 130 -52 2 1 22 94 46 204 23 111 45 202 49 202 11 0 106 -162 153 -262 54 -116 98 -247 127 -381 19 -89 22 -131 22 -327 0 -191 -3 -240 -21 -325 -12 -55 -24 -107 -28 -116 -5 -13 10 -20 75 -39 44 -12 80 -26 80 -30 0 -23 -69 -202 -114 -297 -157 -326 -405 -599 -716 -789 -123 -75 -236 -127 -384 -176 -98 -33 -121 -37 -131 -26 -6 7 -128 195 -271 417 l-259 405 -7 -63 c-40 -362 -420 -580 -743 -427 -97 46 -164 102 -218 183 -82 124 -111 260 -83 393 20 94 64 184 120 247 43 48 43 49 50 143 9 118 31 245 56 331 26 87 25 115 -6 177 -33 66 -108 133 -192 173 -37 17 -74 34 -82 38 -10 5 -20 52 -35 158 l-21 151 39 90 39 90 -117 183 c-65 101 -126 196 -137 211 l-18 26 35 22 c19 12 39 19 43 16 5 -3 60 -84 122 -181 61 -96 113 -175 115 -175 2 0 27 54 56 120 39 92 62 129 92 156 l39 36 85 -83 84 -84 -33 -28 c-18 -15 -51 -38 -73 -50 -38 -21 -42 -29 -83 -143 l-44 -121 67 -104 c67 -105 88 -129 111 -129 20 0 50 79 81 208 27 115 28 122 28 432 0 173 -4 354 -9 403 l-9 87 148 0 148 0 -6 -52z m-346 -65 l5 -43 -195 0 -196 1 50 45 50 45 140 -3 140 -3 6 -42z m1163 39 c2 -4 7 -24 11 -45 l7 -37 -397 0 -396 0 7 23 c4 12 10 32 15 45 l9 22 369 0 c203 0 372 -3 375 -8z m392 -80 c-11 -10 -13 3 -7 48 l6 45 3 -44 c2 -23 1 -46 -2 -49z m384 23 c10 -13 9 -15 -9 -15 -12 0 -21 6 -21 15 0 8 4 15 9 15 5 0 14 -7 21 -15z m-1922 -112 l3 -43 -273 0 -272 0 44 45 45 45 225 -2 225 -3 3 -42z m1197 17 c33 -64 60 -60 -430 -60 -280 0 -445 4 -445 10 0 5 8 25 17 45 l17 35 413 0 412 0 16 -30z m357 -15 c9 -42 6 -50 -17 -42 -10 4 -15 20 -15 48 0 52 21 48 32 -6z m485 3 c18 -18 33 -36 33 -40 0 -4 -25 -8 -55 -8 -30 0 -55 4 -55 9 0 11 33 71 40 71 2 0 19 -14 37 -32z m-2231 -91 c-11 -7 -34 -24 -51 -39 -31 -26 -38 -28 -131 -28 l-99 0 -22 35 c-13 19 -23 37 -23 40 0 3 78 5 173 4 137 0 168 -3 153 -12z m194 -27 c0 -37 -2 -40 -28 -40 -19 0 -40 12 -67 40 l-39 40 67 0 67 0 0 -40z m1218 -2 l3 -38 -455 0 -456 0 0 40 0 40 453 -2 452 -3 3 -37z m362 23 c5 -11 10 -29 10 -40 0 -29 -37 -28 -45 2 -4 12 -9 30 -11 40 -7 24 32 23 46 -2z m563 -15 c15 -19 27 -37 27 -40 0 -14 -30 -4 -39 12 -9 16 -10 16 -16 0 -6 -15 -21 -18 -101 -18 -101 0 -103 1 -88 58 6 21 11 22 98 22 l91 0 28 -34z m-2463 -110 c0 -8 -41 -96 -45 -96 -5 0 -65 87 -65 94 0 3 25 6 55 6 30 0 55 -2 55 -4z m1580 -112 c16 -60 45 -153 64 -205 20 -52 36 -101 36 -109 0 -29 -39 -79 -82 -103 -73 -42 -132 -49 -398 -45 l-245 3 -67 32 c-81 38 -151 106 -184 177 -27 59 -74 268 -74 329 l0 37 461 -2 461 -3 28 -111z m350 96 c0 -11 -4 -20 -10 -20 -5 0 -10 2 -10 4 0 2 -3 11 -6 20 -4 11 -1 16 10 16 9 0 16 -8 16 -20z m458 -117 c-16 -76 -35 -165 -42 -198 -7 -33 -17 -59 -23 -58 -6 1 -36 13 -67 27 l-56 25 24 54 c20 45 22 62 15 98 -4 24 -8 77 -9 117 l0 72 94 0 94 0 -30 -137z m-2068 -90 c0 -21 -14 -103 -30 -183 -16 -80 -30 -146 -30 -147 0 -2 -4 -3 -8 -3 -5 0 -27 29 -50 65 l-41 65 33 92 c28 78 38 95 72 119 21 16 42 28 47 29 4 0 7 -17 7 -37z"/>
 <path d="M2836 4923 c3 -27 10 -61 15 -77 12 -40 11 -462 -2 -568 -14 -114 -61 -308 -92 -383 -33 -76 -65 -237 -73 -357 -3 -51 -17 -133 -30 -183 -58 -221 -72 -458 -39 -660 22 -139 34 -177 54 -170 9 4 31 9 49 12 30 5 32 4 32 -25 0 -26 -4 -31 -32 -37 -45 -10 -78 -42 -78 -77 0 -15 2 -28 4 -28 2 0 20 16 39 35 36 36 67 46 67 22 0 -8 -11 -19 -25 -25 -42 -19 -28 -32 35 -32 60 0 60 0 60 -29 0 -23 -5 -30 -22 -33 -43 -6 27 -41 93 -46 71 -5 101 13 166 102 25 34 74 88 109 121 35 33 64 68 64 78 0 21 -13 22 -30 2 -15 -19 -40 -20 -40 -2 0 20 33 47 58 47 12 0 22 5 22 10 0 6 -27 10 -60 10 -53 0 -60 2 -60 20 0 17 7 20 48 20 34 0 43 3 32 10 -8 5 -36 10 -61 10 -25 0 -54 7 -65 15 -32 24 -79 18 -116 -14 -26 -22 -38 -27 -55 -20 -31 11 -29 25 10 64 35 35 96 58 131 49 17 -4 27 7 55 58 42 78 175 213 253 257 31 17 90 44 130 58 72 26 77 27 433 33 342 6 363 7 417 29 76 30 159 106 195 179 25 50 28 68 28 152 0 82 -4 103 -27 152 -14 31 -44 76 -67 100 -44 48 -53 77 -71 219 -6 52 -7 110 -2 147 l9 61 -40 38 c-62 61 -151 202 -187 299 -31 83 -34 99 -38 242 l-4 152 -64 0 -63 0 14 -45 c7 -25 22 -61 34 -81 14 -23 21 -52 21 -87 0 -113 54 -336 119 -497 34 -82 36 -97 21 -151 -26 -94 -115 -174 -235 -212 -65 -20 -89 -22 -340 -22 -257 0 -273 1 -335 23 -86 31 -146 70 -212 140 -70 73 -104 140 -133 261 -37 150 -48 253 -42 377 4 95 10 123 32 171 15 32 33 75 41 96 l13 37 -84 0 -85 0 6 -47z m154 -2402 c5 -11 10 -29 10 -40 0 -18 -6 -21 -46 -21 -52 0 -84 14 -84 36 0 12 6 15 24 10 18 -4 25 -1 29 14 7 27 53 27 67 1z"/>
 <path d="M4400 4855 c0 -20 9 -61 19 -93 53 -159 57 -255 14 -382 l-28 -82 31 -27 c25 -21 29 -31 23 -51 -4 -14 -7 -38 -7 -55 -1 -19 11 6 31 65 29 89 31 103 28 220 -2 114 5 198 24 272 6 22 3 27 -17 30 -21 3 -23 8 -26 71 l-3 67 -44 0 c-45 0 -45 0 -45 -35z"/>
 <path d="M2538 4532 c-9 -15 -62 -131 -118 -257 l-102 -230 18 -127 17 -128 75 -37 c48 -23 98 -59 135 -95 33 -32 61 -57 62 -56 1 2 6 33 11 70 l10 67 -40 65 c-39 62 -45 66 -105 87 -75 25 -111 56 -111 96 0 15 33 120 74 232 l73 204 49 25 c27 13 51 26 53 28 5 5 -70 84 -79 84 -3 0 -13 -12 -22 -28z"/>
 <path d="M4890 4256 l-12 -74 40 -98 c94 -230 131 -499 101 -733 l-10 -84 38 -39 c20 -21 40 -38 44 -38 14 0 16 40 3 51 -13 10 -11 16 8 36 22 24 23 29 23 236 -1 237 -15 328 -80 525 -35 102 -122 292 -135 292 -4 0 -13 -33 -20 -74z"/>
 <path d="M4546 4095 c8 -13 30 -58 48 -98 19 -44 47 -89 68 -109 77 -72 102 -267 54 -411 -13 -40 -27 -96 -31 -125 -7 -53 -6 -55 31 -93 21 -21 42 -39 46 -39 12 0 10 48 -3 55 -7 5 -3 15 10 29 19 20 22 39 28 152 7 156 -13 310 -59 453 -44 140 -49 147 -125 181 -80 36 -88 37 -67 5z"/>
 <path d="M4844 4040 c-7 -42 -19 -49 -56 -29 -18 10 -20 9 -15 -7 84 -258 106 -455 75 -672 l-11 -83 38 -39 c22 -22 43 -40 47 -40 19 0 5 29 -32 65 -31 30 -37 42 -28 52 9 11 17 8 43 -17 40 -39 41 -38 55 123 12 134 3 294 -25 430 -15 72 -73 257 -81 257 -2 0 -7 -18 -10 -40z"/>
 <path d="M4497 4026 c-4 -11 -10 -53 -14 -95 l-6 -76 31 27 c17 14 37 28 43 30 9 3 4 24 -17 68 -24 51 -32 61 -37 46z"/>
 <path d="M2453 4004 c-4 -11 1 -22 12 -30 30 -22 37 -16 20 16 -18 34 -23 37 -32 14z"/>
 <path d="M4556 3841 c-18 -20 -18 -22 20 -97 34 -68 39 -85 42 -167 3 -73 0 -104 -15 -150 -18 -52 -18 -56 -3 -42 35 32 72 134 77 214 12 169 -59 310 -121 242z"/>
 <path d="M4572 3271 c-34 -29 -33 -41 4 -41 17 0 24 8 29 31 4 17 5 32 3 34 -1 2 -18 -9 -36 -24z"/>
 <path d="M4667 3254 c-18 -19 -5 -46 29 -60 54 -23 59 -13 16 29 -21 20 -41 34 -45 31z"/>
 <path d="M4997 3209 c-5 -19 3 -33 36 -67 40 -41 42 -41 50 -20 6 18 0 30 -36 66 -43 43 -44 43 -50 21z"/>
 <path d="M4822 3183 c2 -20 12 -29 43 -40 l40 -14 -40 41 c-21 22 -41 40 -43 40 -2 0 -2 -12 0 -27z"/>
 <path d="M4471 3168 c-47 -123 -123 -249 -197 -328 -41 -44 -44 -51 -32 -68 50 -69 151 -192 158 -192 15 0 109 111 171 203 83 120 183 337 157 337 -3 0 -57 16 -119 35 -63 19 -117 35 -122 35 -4 0 -11 -10 -16 -22z"/>
 <path d="M4335 3153 c-33 -14 -103 -18 -400 -23 -332 -6 -365 -8 -425 -28 -65 -21 -159 -74 -220 -123 l-32 -26 128 -202 129 -203 75 6 c310 22 614 226 768 514 58 109 56 116 -23 85z m-55 -92 c0 -17 -91 -132 -152 -192 -140 -136 -327 -226 -528 -253 l-46 -7 -102 159 c-56 88 -102 163 -102 168 0 26 149 98 242 119 73 16 688 21 688 6z"/>
 <path d="M4980 3126 c0 -9 7 -19 15 -23 25 -9 27 2 5 22 -18 17 -20 17 -20 1z"/>
 <path d="M4936 2993 c-49 -154 -191 -383 -329 -529 l-65 -69 80 -100 c44 -55 83 -101 87 -103 13 -4 165 160 231 249 71 96 156 237 195 324 36 81 75 185 75 199 0 10 -225 86 -252 86 -2 0 -12 -26 -22 -57z"/>
 <path d="M3157 2818 l-37 -63 59 -8 c32 -4 68 -4 80 1 20 7 20 9 -15 62 -20 30 -40 58 -43 63 -4 4 -24 -21 -44 -55z"/>
 <path d="M2508 2809 c-16 -20 -28 -41 -28 -46 0 -10 51 -25 58 -18 2 1 2 25 0 51 l-3 49 -27 -36z"/>
 <path d="M2438 2676 c-29 -53 -17 -307 15 -306 7 1 36 6 66 13 49 12 54 16 67 52 12 35 12 49 -6 120 -10 44 -20 89 -22 99 -2 15 -17 23 -56 31 -50 12 -53 11 -64 -9z"/>
 <path d="M3298 2692 c-15 -3 -15 -6 -2 -38 8 -20 13 -43 10 -52 -2 -9 -7 -30 -11 -46 -3 -16 -33 -57 -67 -92 -57 -60 -59 -63 -37 -68 86 -20 121 -26 129 -21 16 10 33 141 26 206 -9 79 -25 116 -48 111z"/>
 <path d="M3976 2605 c-73 -41 -217 -90 -314 -106 l-73 -12 83 -86 c46 -47 95 -101 108 -119 l25 -33 95 31 c95 31 255 105 298 138 l23 18 -82 102 c-45 56 -87 102 -93 101 -6 0 -38 -15 -70 -34z"/>
 <path d="M3096 2315 c-9 -13 -16 -38 -16 -54 0 -49 21 -131 33 -131 33 0 189 161 173 178 -7 6 -127 31 -152 32 -12 0 -29 -11 -38 -25z"/>
 <path d="M2535 2325 c-5 -2 -23 -6 -38 -9 l-28 -7 30 -42 c32 -46 79 -92 127 -125 l32 -22 10 43 c6 23 14 66 18 95 l7 52 -57 0 c-31 0 -56 5 -56 10 0 10 -24 12 -45 5z"/>
 <path d="M3715 2240 c119 -185 135 -210 140 -210 18 0 -125 229 -165 265 -13 12 -3 -11 25 -55z"/>
 <path d="M2745 2227 c-16 -73 -25 -113 -25 -123 0 -30 217 -46 290 -21 19 7 35 14 34 17 0 3 -6 33 -13 67 l-12 63 -32 -17 c-49 -26 -134 -22 -191 10 l-46 26 -5 -22z"/>
 <path d="M4290 2208 c-80 -49 -183 -98 -287 -134 -43 -15 -79 -28 -80 -29 -2 -1 8 -29 22 -62 13 -33 32 -90 41 -127 9 -36 21 -66 26 -66 19 0 207 75 283 113 79 39 235 135 235 144 0 8 -161 203 -168 203 -4 -1 -36 -19 -72 -42z"/>
 <path d="M2367 1403 c-4 -3 -7 -14 -7 -24 0 -9 -16 -36 -35 -59 -19 -22 -39 -58 -45 -78 -15 -55 -11 -61 11 -19 37 71 120 98 173 56 57 -45 13 -127 -89 -164 -185 -66 -230 -108 -230 -211 0 -53 4 -67 25 -89 29 -31 53 -45 95 -55 16 -4 38 -11 48 -15 13 -5 17 -2 17 15 0 11 13 38 29 58 16 20 32 48 36 62 8 24 7 23 -29 -8 -43 -37 -86 -42 -116 -12 -50 50 -6 113 105 150 169 55 217 101 223 209 4 61 2 70 -23 99 -32 38 -65 57 -120 67 -22 4 -45 11 -51 16 -6 5 -14 6 -17 2z"/>
 <path d="M4487 1356 c-20 -8 -52 -25 -70 -39 -18 -13 -41 -26 -51 -28 -17 -4 -17 -6 3 -31 12 -14 21 -39 21 -55 0 -34 30 -103 53 -121 15 -13 15 -10 0 26 -20 51 -11 101 24 136 56 56 133 18 133 -65 0 -21 -14 -73 -32 -116 -25 -61 -32 -93 -32 -149 -1 -63 2 -75 28 -108 53 -70 130 -82 207 -31 19 12 43 24 53 26 17 4 16 6 -3 31 -12 14 -21 36 -21 47 0 25 -26 91 -36 91 -3 0 -3 -11 0 -25 9 -34 -18 -93 -48 -107 -33 -15 -72 2 -88 37 -13 30 -6 65 42 199 25 69 30 98 26 130 -18 116 -114 186 -209 152z"/>
 <path d="M2879 1176 c-44 -30 -90 -115 -121 -221 -32 -115 -33 -284 -1 -336 28 -45 65 -64 119 -63 63 1 106 38 148 127 69 147 94 356 52 441 -38 75 -128 99 -197 52z m118 -106 c36 -101 -56 -420 -121 -420 -32 0 -48 22 -53 74 -11 90 47 309 94 360 34 37 64 31 80 -14z"/>
 <path d="M3927 1172 c-32 -20 -67 -86 -67 -128 0 -16 21 -128 46 -249 37 -175 44 -226 36 -247 -12 -32 -2 -36 38 -14 13 8 38 12 56 9 18 -3 34 0 38 6 4 6 3 11 -3 11 -6 0 -15 9 -21 19 -17 32 -101 454 -95 478 3 13 16 30 30 39 23 15 27 15 49 0 30 -19 26 -6 80 -269 34 -165 43 -224 36 -243 -9 -23 -8 -25 12 -19 13 4 27 11 33 16 5 5 29 9 53 9 44 0 44 0 23 18 -17 14 -30 59 -66 237 -50 244 -64 286 -110 321 -40 30 -125 33 -168 6z"/>
 <path d="M3379 1116 c19 -22 11 -577 -8 -600 -19 -23 -11 -27 28 -16 20 5 42 5 57 -1 14 -5 32 -9 41 -9 14 0 14 2 -1 18 -14 17 -16 48 -14 278 l3 259 40 3 c48 3 85 -14 103 -48 12 -23 13 -20 8 30 -3 30 -6 65 -6 78 0 22 -2 22 -131 22 -113 0 -130 -2 -120 -14z"/>
 </g>

</svg>